<?xml version="1.0" encoding="utf-8"?>
<!-- Generator: Adobe Illustrator 24.0.1, SVG Export Plug-In . SVG Version: 6.00 Build 0)  -->
<svg version="1.1" id="Layer_1" xmlns="http://www.w3.org/2000/svg" xmlns:xlink="http://www.w3.org/1999/xlink" x="0px" y="0px"
	 width="500px" height="500px" viewBox="0 0 500 500" style="enable-background:new 0 0 500 500;" xml:space="preserve">
<style type="text/css">
	.st0{display:none;}
	.st1{display:inline;}
	.st2{fill:#407BFF;}
	.st3{opacity:0.9;fill:#FFFFFF;enable-background:new    ;}
	.st4{fill:#F5F5F5;}
	.st5{opacity:0.5;}
	.st6{fill:#FFFFFF;}
	.st7{opacity:0.4;enable-background:new    ;}
	.st8{fill:#FAFAFA;}
	.st9{opacity:0.5;fill:#FFFFFF;enable-background:new    ;}
	.st10{opacity:0.7;fill:#FFFFFF;enable-background:new    ;}
	.st11{opacity:0.3;fill:#FFFFFF;enable-background:new    ;}
	.st12{fill:#E4897B;}
	.st13{opacity:0.4;fill:#FAFAFA;enable-background:new    ;}
	.st14{opacity:0.3;enable-background:new    ;}
	.st15{fill:#263238;}
	.st16{fill:#DE5753;}
	.st17{opacity:0.1;enable-background:new    ;}
	.st18{fill:#203048;}
	.st19{fill:#CE6F64;}
	.st20{fill:#161F33;}
	.st21{opacity:0.2;enable-background:new    ;}
</style>
<g id="Background_Simple" class="st0">
	<g class="st1">
		<path class="st2" d="M35.6,130.7C14.3,308.5,220.1,480.9,379.2,353.3c71.8-57.6,123.4-242,1.8-269c-69.8-15.5-144.7,46.4-211.2,22
			c-32-11.7-48.3-57.8-85.5-52.9C49.6,58.1,39.1,101.1,35.6,130.7z"/>
		<path class="st3" d="M35.6,130.7C14.3,308.5,220.1,480.9,379.2,353.3c71.8-57.6,123.4-242,1.8-269c-69.8-15.5-144.7,46.4-211.2,22
			c-32-11.7-48.3-57.8-85.5-52.9C49.6,58.1,39.1,101.1,35.6,130.7z"/>
	</g>
</g>
<g id="Shadow">
	<ellipse class="st4" cx="250" cy="481" rx="250" ry="14.6"/>
</g>
<g id="Speech_Bubbles">
	<g>
		<g>
			<path class="st2" d="M468.9,190.9H342.4c-6.7,0-12.1-5.4-12.1-12.1v-34.4c0-6.7,5.4-12.1,12.1-12.1h126.5
				c6.7,0,12.1,5.4,12.1,12.1v34.4C481,185.5,475.6,190.9,468.9,190.9z"/>
			<g>
				<g>
					<path class="st2" d="M443.8,148.9H345c-1.2,0-2.1-0.9-2.1-2.1v-2.3c0-1.2,0.9-2.1,2.1-2.1h98.8c1.2,0,2.1,0.9,2.1,2.1v2.3
						C446,147.9,444.9,148.9,443.8,148.9z"/>
					<path class="st2" d="M412.6,164.6h-67.4c-1.2,0-2.1-0.9-2.1-2.1v-2.3c0-1.2,0.9-2.1,2.1-2.1h67.4c1.2,0,2.1,0.9,2.1,2.1v2.3
						C414.6,163.7,413.7,164.6,412.6,164.6z"/>
					<path class="st2" d="M394.4,180.4H345c-1.2,0-2.1-0.9-2.1-2.1V176c0-1.2,0.9-2.1,2.1-2.1h49.4c1.2,0,2.1,0.9,2.1,2.1v2.3
						C396.6,179.5,395.6,180.4,394.4,180.4z"/>
					<path class="st2" d="M455.6,180.4h-49.4c-1.2,0-2.1-0.9-2.1-2.1V176c0-1.2,0.9-2.1,2.1-2.1h49.4c1.2,0,2.1,0.9,2.1,2.1v2.3
						C457.8,179.5,456.8,180.4,455.6,180.4z"/>
				</g>
				<g class="st5">
					<path class="st6" d="M443.8,148.9H345c-1.2,0-2.1-0.9-2.1-2.1v-2.3c0-1.2,0.9-2.1,2.1-2.1h98.8c1.2,0,2.1,0.9,2.1,2.1v2.3
						C446,147.9,444.9,148.9,443.8,148.9z"/>
					<path class="st6" d="M412.6,164.6h-67.4c-1.2,0-2.1-0.9-2.1-2.1v-2.3c0-1.2,0.9-2.1,2.1-2.1h67.4c1.2,0,2.1,0.9,2.1,2.1v2.3
						C414.6,163.7,413.7,164.6,412.6,164.6z"/>
					<path class="st6" d="M394.4,180.4H345c-1.2,0-2.1-0.9-2.1-2.1V176c0-1.2,0.9-2.1,2.1-2.1h49.4c1.2,0,2.1,0.9,2.1,2.1v2.3
						C396.6,179.5,395.6,180.4,394.4,180.4z"/>
					<path class="st6" d="M455.6,180.4h-49.4c-1.2,0-2.1-0.9-2.1-2.1V176c0-1.2,0.9-2.1,2.1-2.1h49.4c1.2,0,2.1,0.9,2.1,2.1v2.3
						C457.8,179.5,456.8,180.4,455.6,180.4z"/>
				</g>
			</g>
		</g>
		<g>
			<path class="st2" d="M367.6,204.6H224.1c-9.8,0-17.7-8-17.7-17.7v-50.4c0-9.8,8-17.7,17.7-17.7h143.6c9.8,0,17.7,8,17.7,17.7V187
				C385.4,196.6,377.4,204.6,367.6,204.6z"/>
			<g>
				<g>
					<path class="st2" d="M372.7,142.9H227.8c-1.7,0-3.1-1.4-3.1-3.1v-3.4c0-1.7,1.4-3.1,3.1-3.1h144.8c1.7,0,3.1,1.4,3.1,3.1v3.4
						C375.8,141.4,374.4,142.9,372.7,142.9z"/>
					<path class="st2" d="M326.8,166.1h-99c-1.7,0-3.1-1.4-3.1-3.1v-3.4c0-1.7,1.4-3.1,3.1-3.1h99c1.7,0,3.1,1.4,3.1,3.1v3.4
						C329.9,164.6,328.5,166.1,326.8,166.1z"/>
					<path class="st2" d="M300.3,189.1h-72.5c-1.7,0-3.1-1.4-3.1-3.1v-3.4c0-1.7,1.4-3.1,3.1-3.1h72.5c1.7,0,3.1,1.4,3.1,3.1v3.4
						C303.4,187.7,302,189.1,300.3,189.1z"/>
					<path class="st2" d="M378,189.1h-60.3c-1.7,0-3.1-1.4-3.1-3.1v-3.4c0-1.7,1.4-3.1,3.1-3.1H378c1.7,0,3.1,1.4,3.1,3.1v3.4
						C381.1,187.7,379.7,189.1,378,189.1z"/>
				</g>
				<g class="st5">
					<path class="st6" d="M372.7,142.9H227.8c-1.7,0-3.1-1.4-3.1-3.1v-3.4c0-1.7,1.4-3.1,3.1-3.1h144.8c1.7,0,3.1,1.4,3.1,3.1v3.4
						C375.8,141.4,374.4,142.9,372.7,142.9z"/>
					<path class="st6" d="M326.8,166.1h-99c-1.7,0-3.1-1.4-3.1-3.1v-3.4c0-1.7,1.4-3.1,3.1-3.1h99c1.7,0,3.1,1.4,3.1,3.1v3.4
						C329.9,164.6,328.5,166.1,326.8,166.1z"/>
					<path class="st6" d="M300.3,189.1h-72.5c-1.7,0-3.1-1.4-3.1-3.1v-3.4c0-1.7,1.4-3.1,3.1-3.1h72.5c1.7,0,3.1,1.4,3.1,3.1v3.4
						C303.4,187.7,302,189.1,300.3,189.1z"/>
					<path class="st6" d="M378,189.1h-60.3c-1.7,0-3.1-1.4-3.1-3.1v-3.4c0-1.7,1.4-3.1,3.1-3.1H378c1.7,0,3.1,1.4,3.1,3.1v3.4
						C381.1,187.7,379.7,189.1,378,189.1z"/>
				</g>
			</g>
		</g>
		<g>
			<g>
				<path class="st2" d="M278.4,340.4h-69.1c-4.5,0-8.3-3.7-8.3-8.3V228.6c0-4.5,3.7-8.3,8.3-8.3h69.1c4.5,0,8.3,3.7,8.3,8.3v103.5
					C286.6,336.6,282.9,340.4,278.4,340.4z"/>
				<path class="st7" d="M278.4,340.4h-69.1c-4.5,0-8.3-3.7-8.3-8.3V228.6c0-4.5,3.7-8.3,8.3-8.3h69.1c4.5,0,8.3,3.7,8.3,8.3v103.5
					C286.6,336.6,282.9,340.4,278.4,340.4z"/>
			</g>
			<path class="st8" d="M275.1,238h-62.8c-0.9,0-1.5-0.6-1.5-1.5v-2.3c0-0.9,0.6-1.5,1.5-1.5h62.8c0.9,0,1.5,0.6,1.5,1.5v2.3
				C276.7,237.4,276,238,275.1,238z"/>
			<path class="st8" d="M255.2,250.9h-42.8c-0.9,0-1.5-0.6-1.5-1.5V247c0-0.9,0.6-1.5,1.5-1.5h42.8c0.9,0,1.5,0.6,1.5,1.5v2.3
				C256.7,250.3,256.1,250.9,255.2,250.9z"/>
			<path class="st8" d="M275.1,263.7h-62.8c-0.9,0-1.5-0.6-1.5-1.5v-2.3c0-0.9,0.6-1.5,1.5-1.5h62.8c0.9,0,1.5,0.6,1.5,1.5v2.3
				C276.7,263,276,263.7,275.1,263.7z"/>
			<path class="st8" d="M235.7,276.6h-23.3c-0.9,0-1.5-0.6-1.5-1.5v-2.3c0-0.9,0.6-1.5,1.5-1.5h23.3c0.9,0,1.5,0.6,1.5,1.5v2.3
				C237.2,275.8,236.6,276.6,235.7,276.6z"/>
			<path class="st8" d="M268.3,276.6H245c-0.9,0-1.5-0.6-1.5-1.5v-2.3c0-0.9,0.6-1.5,1.5-1.5h23.3c0.9,0,1.5,0.6,1.5,1.5v2.3
				C269.9,275.8,269.2,276.6,268.3,276.6z"/>
			<path class="st8" d="M275.1,289.3h-62.8c-0.9,0-1.5-0.6-1.5-1.5v-2.3c0-0.9,0.6-1.5,1.5-1.5h62.8c0.9,0,1.5,0.6,1.5,1.5v2.3
				C276.7,288.7,276,289.3,275.1,289.3z"/>
			<path class="st8" d="M275.1,302.2h-62.8c-0.9,0-1.5-0.6-1.5-1.5v-2.3c0-0.9,0.6-1.5,1.5-1.5h62.8c0.9,0,1.5,0.6,1.5,1.5v2.3
				C276.7,301.4,276,302.2,275.1,302.2z"/>
			<path class="st8" d="M264.1,315h-51.7c-0.9,0-1.5-0.6-1.5-1.5v-2.3c0-0.9,0.6-1.5,1.5-1.5h51.7c0.9,0,1.5,0.6,1.5,1.5v2.3
				C265.6,314.3,264.8,315,264.1,315z"/>
			<path class="st8" d="M236.5,327.9h-24.1c-0.9,0-1.5-0.6-1.5-1.5V324c0-0.9,0.6-1.5,1.5-1.5h24.1c0.9,0,1.5,0.6,1.5,1.5v2.3
				C238,327.1,237.4,327.9,236.5,327.9z"/>
		</g>
		<g>
			<g>
				<path class="st2" d="M297.1,219.4h-95.9l42.4,33.8l65,24.5V231C308.5,224.6,303.4,219.4,297.1,219.4z"/>
				<path class="st7" d="M297.1,219.4h-95.9l42.4,33.8l65,24.5V231C308.5,224.6,303.4,219.4,297.1,219.4z"/>
			</g>
			<path class="st8" d="M292.8,244.2h-70.1c-1,0-1.9-0.9-1.9-1.9v-3.6c0-1,0.9-1.9,1.9-1.9h70.1c1,0,1.9,0.9,1.9,1.9v3.6
				C294.7,243.4,294,244.2,292.8,244.2z"/>
		</g>
		<g>
			<path class="st2" d="M327.1,310.9v-67.4c0-5.2,4.3-9.4,9.4-9.4h117.2c5.2,0,9.4,4.3,9.4,9.4v67.4c0,5.2-4.3,9.4-9.4,9.4H336.4
				C331.2,320.1,327.1,316,327.1,310.9z"/>
			<g>
				<path class="st2" d="M348.5,289.5V222c0-5.2,4.3-9.4,9.4-9.4h117.2c5.2,0,9.4,4.3,9.4,9.4v67.4c0,5.2-4.3,9.4-9.4,9.4H357.9
					C352.6,298.7,348.5,294.6,348.5,289.5z"/>
				<path class="st9" d="M348.5,289.5V222c0-5.2,4.3-9.4,9.4-9.4h117.2c5.2,0,9.4,4.3,9.4,9.4v67.4c0,5.2-4.3,9.4-9.4,9.4H357.9
					C352.6,298.7,348.5,294.6,348.5,289.5z"/>
			</g>
			<g>
				<path class="st2" d="M425.9,266.4v-41.5c0-2.3,1.9-4.1,4.1-4.1h38.3c2.3,0,4.1,1.9,4.1,4.1v41.5c0,2.3-1.9,4.1-4.1,4.1H430
					C427.7,270.5,425.9,268.6,425.9,266.4z"/>
				<path class="st10" d="M425.9,266.4v-41.5c0-2.3,1.9-4.1,4.1-4.1h38.3c2.3,0,4.1,1.9,4.1,4.1v41.5c0,2.3-1.9,4.1-4.1,4.1H430
					C427.7,270.5,425.9,268.6,425.9,266.4z"/>
			</g>
			<g>
				<path class="st2" d="M382.8,286.4v-31.8c0-1.8,1.4-3.2,3.2-3.2h29.4c1.8,0,3.2,1.4,3.2,3.2v31.8c0,1.8-1.4,3.2-3.2,3.2H386
					C384.2,289.6,382.8,288.2,382.8,286.4z"/>
				<path class="st11" d="M382.8,286.4v-31.8c0-1.8,1.4-3.2,3.2-3.2h29.4c1.8,0,3.2,1.4,3.2,3.2v31.8c0,1.8-1.4,3.2-3.2,3.2H386
					C384.2,289.6,382.8,288.2,382.8,286.4z"/>
			</g>
			<g>
				<path class="st2" d="M66.9,84.7V67.4c0-5.3,4.3-9.5,9.5-9.5h314.7c5.3,0,9.5,4.3,9.5,9.5v17.1c0,5.3-4.3,9.5-9.5,9.5H76.3
					C71.2,94.1,66.9,89.9,66.9,84.7z"/>
				<path class="st9" d="M66.9,84.7V67.4c0-5.3,4.3-9.5,9.5-9.5h314.7c5.3,0,9.5,4.3,9.5,9.5v17.1c0,5.3-4.3,9.5-9.5,9.5H76.3
					C71.2,94.1,66.9,89.9,66.9,84.7z"/>
			</g>
			<g>
				<rect x="250.4" y="87.8" class="st2" width="90.6" height="12.5"/>
				<rect x="250.4" y="87.8" class="st9" width="90.6" height="12.5"/>
			</g>
			<path class="st2" d="M99.3,31.2V13.9c0-5.3,4.3-9.5,9.5-9.5h314.7c5.3,0,9.5,4.3,9.5,9.5v17.1c0,5.3-4.3,9.5-9.5,9.5H108.8
				C103.7,40.6,99.3,36.4,99.3,31.2z"/>
		</g>
	</g>
</g>
<g id="Character">
	<g>
		<path class="st12" d="M95.8,194.9c-1.2,2.6-2.4,5.4-3.5,8.1c-1.2,2.7-2.2,5.5-3.2,8.3c-2.1,5.5-3.7,11.2-4.9,16.6l-0.4,2.1
			l-0.1,0.8c0,0.3,0,0.5-0.1,0.8c0,1,0,2.4,0.1,3.7c0.3,2.7,0.6,5.7,1.3,8.5c1,5.8,2.4,11.9,3.9,17.8l-6.6,2.6
			c-3.1-5.7-5.7-11.3-7.9-17.5c-1-3.1-2.1-6.2-2.7-9.7c-0.4-1.7-0.6-3.5-0.8-5.5c0-0.5,0-1,0-1.5s0-1.2,0.1-1.5l0.3-2.6
			c0.4-3.4,1-6.7,1.8-9.9c0.8-3.2,1.7-6.3,2.6-9.4c1-3.1,2.1-6.2,3.4-9.2c0.6-1.5,1.3-3,1.9-4.5c0.6-1.5,1.3-3,2.1-4.5L95.8,194.9z"
			/>
		<path class="st12" d="M88.4,259.9l5,4.9l-11,5.2c0,0-2.7-4.6-0.8-8.9L88.4,259.9z"/>
		<polygon class="st12" points="97.6,272.2 88.3,275.9 82.5,270 93.5,264.8 		"/>
		<g>
			<path class="st13" d="M285.3,266.9c-50.9-5.7-87.7-51.6-82-102.6c5.7-50.9,51.6-87.7,102.6-82c50.9,5.7,87.7,51.6,82,102.6
				C382.3,235.8,336.3,272.6,285.3,266.9z"/>
			<path class="st13" d="M352.9,101.5L211.7,214.3c-0.6-1.3-1.2-2.6-1.7-3.9c-3.5-8.3-5.8-17.1-6.7-26.4l0,0l122-97.5
				C335.4,90,344.6,95,352.9,101.5z"/>
			<path class="st13" d="M385.5,150.9L252.8,257c-12.8-6.6-23.6-16.1-32-27.5l144.9-115.8C374.9,124.3,381.8,137.1,385.5,150.9z"/>
			<g>
				<path class="st2" d="M191.2,139.1l-1.2-0.4c2.1-6.3,4.8-12.4,8-18.2l1.2,0.6C196,126.9,193.3,132.9,191.2,139.1z M206.8,109.1
					l-1-0.8c10.4-14.2,24.5-25.9,40.5-33.8l0.5,1.2C231,83.4,217.1,95,206.8,109.1z M348.1,77.5c-4.3-2.3-8.6-4.3-13-5.9l0.5-1.2
					c4.5,1.7,8.9,3.7,13.2,6.1L348.1,77.5z"/>
				<path class="st14" d="M191.2,139.1l-1.2-0.4c2.1-6.3,4.8-12.4,8-18.2l1.2,0.6C196,126.9,193.3,132.9,191.2,139.1z M206.8,109.1
					l-1-0.8c10.4-14.2,24.5-25.9,40.5-33.8l0.5,1.2C231,83.4,217.1,95,206.8,109.1z M348.1,77.5c-4.3-2.3-8.6-4.3-13-5.9l0.5-1.2
					c4.5,1.7,8.9,3.7,13.2,6.1L348.1,77.5z"/>
			</g>
			<g>
				<path class="st2" d="M391.7,127.1c-26.2-53-90.4-74.8-143.4-48.6c-49.3,24.4-71.6,81.5-53.4,132c-8.6,3-17.1,6.3-25.5,9.5
					c-12.2,4.8-24.2,9.9-36.2,15.2c-12,5.3-23.9,10.7-35.7,16.4c-5.9,2.7-11.7,5.7-17.7,8.5c-3,1.3-5.8,3.1-8.1,5.5
					c-1.2,1.3-2.3,2.7-3.4,4.4c-1,1.7-1.9,3.5-2.6,5.9c-1.9,7.7,1.9,16,9.4,19.1c2.3,1,4.4,1.4,6.3,1.7c1.9,0.3,3.7,0.3,5.4,0
					c3.5-0.4,6.6-1.5,9.4-3.1c5.8-3,11.7-5.8,17.5-8.8c11.6-5.9,23.2-12.1,34.7-18.3c11.5-6.3,22.8-12.8,34-19.6
					c7.7-4.6,15.6-9.4,23.2-14.4c29.1,45.1,88.1,62.3,137.3,37.9C396.1,244.5,417.9,180.2,391.7,127.1z M333,250.4
					c-41.9,20.6-92.4,3.5-113.2-38.4c-20.6-41.8-3.5-92.4,38.4-113.2c41.9-20.6,92.4-3.5,113.2,38.4
					C392.1,179,374.9,229.6,333,250.4z"/>
				<path class="st14" d="M391.7,127.1c-26.2-53-90.4-74.8-143.4-48.6c-49.3,24.4-71.6,81.5-53.4,132c-8.6,3-17.1,6.3-25.5,9.5
					c-12.2,4.8-24.2,9.9-36.2,15.2c-12,5.3-23.9,10.7-35.7,16.4c-5.9,2.7-11.7,5.7-17.7,8.5c-3,1.3-5.8,3.1-8.1,5.5
					c-1.2,1.3-2.3,2.7-3.4,4.4c-1,1.7-1.9,3.5-2.6,5.9c-1.9,7.7,1.9,16,9.4,19.1c2.3,1,4.4,1.4,6.3,1.7c1.9,0.3,3.7,0.3,5.4,0
					c3.5-0.4,6.6-1.5,9.4-3.1c5.8-3,11.7-5.8,17.5-8.8c11.6-5.9,23.2-12.1,34.7-18.3c11.5-6.3,22.8-12.8,34-19.6
					c7.7-4.6,15.6-9.4,23.2-14.4c29.1,45.1,88.1,62.3,137.3,37.9C396.1,244.5,417.9,180.2,391.7,127.1z M333,250.4
					c-41.9,20.6-92.4,3.5-113.2-38.4c-20.6-41.8-3.5-92.4,38.4-113.2c41.9-20.6,92.4-3.5,113.2,38.4
					C392.1,179,374.9,229.6,333,250.4z"/>
			</g>
		</g>
		<path class="st15" d="M131.4,148.8c0,0.8,0.4,1.4,0.9,1.4c0.5,0,0.9-0.6,0.9-1.4c0-0.8-0.4-1.4-0.9-1.4
			C131.8,147.5,131.4,148.1,131.4,148.8z"/>
		<path class="st16" d="M131.8,150.2c0,0,1.7,4.4,3.6,6.6c-1.3,1.3-3.6,0.6-3.6,0.6V150.2z"/>
		<path class="st15" d="M128.7,144.7c-0.1,0-0.3-0.1-0.4-0.1c-0.1-0.3-0.1-0.5,0.1-0.6c2.1-1.4,4-0.8,4-0.6c0.3,0.1,0.4,0.4,0.3,0.6
			s-0.4,0.4-0.5,0.3c-0.1,0-1.5-0.5-3.2,0.6C128.9,144.5,128.8,144.7,128.7,144.7z"/>
		<path class="st12" d="M105.3,154.6c1.4,7,2.7,19.6-2.2,24.2c0,0,1.9,7.1,14.8,7.1c14.2,0,6.7-7.1,6.7-7.1c-7.7-1.8-7.5-7.6-6.2-13
			L105.3,154.6z"/>
		<g>
			<path class="st2" d="M97.5,182.4c1.5-2.4-1-8.1-1-8.1s22.8-5.8,32.1,3.1c1.9,1.8-0.3,4.5-0.3,4.5L97.5,182.4z"/>
			<path class="st17" d="M97.5,182.4c1.5-2.4-1-8.1-1-8.1s22.8-5.8,32.1,3.1c1.9,1.8-0.3,4.5-0.3,4.5L97.5,182.4z"/>
		</g>
		<path class="st2" d="M59.7,445.6c-1.2,0-3.1-2.1-3.7-2.7c0-0.1,0-0.1,0-0.3s0.1-0.1,0.3-0.1c0.1,0,3.4,0.3,4.1,1.4
			c0.3,0.3,0.3,0.5,0.3,0.9c-0.1,0.5-0.4,0.8-0.6,0.8C59.8,445.6,59.8,445.6,59.7,445.6z M56.7,443c0.9,1,2.4,2.3,3.1,2.2
			c0,0,0.3,0,0.4-0.5c0-0.1,0-0.4-0.1-0.5C59.4,443.4,57.8,443.1,56.7,443z"/>
		<path class="st2" d="M56.9,442.9c-0.3,0-0.5,0-0.6,0c-0.1,0-0.1-0.1-0.1-0.1c0-0.1,0-0.1,0-0.3c0.1-0.1,1.9-2.1,3.4-2.1l0,0
			c0.4,0,0.6,0.1,0.9,0.4c0.4,0.4,0.3,0.8,0.1,0.9C60.1,442.5,58.1,442.9,56.9,442.9z M56.7,442.5c1.2,0,3.1-0.4,3.5-0.9
			c0,0,0.1-0.1-0.1-0.4c-0.1-0.1-0.4-0.3-0.6-0.3l0,0C58.5,440.9,57.4,441.9,56.7,442.5z"/>
		<path class="st2" d="M144.8,474.9c-1.2,0-2.3-0.1-3-0.3c-0.1,0-0.1-0.1-0.1-0.1c0-0.1,0-0.1,0.1-0.3s3.5-1.9,5-1.5
			c0.4,0.1,0.5,0.3,0.8,0.5c0.3,0.5,0.1,0.8,0,1C147.1,474.6,146,474.9,144.8,474.9z M142.6,474.2c1.8,0.3,4.1,0.3,4.6-0.4
			c0-0.1,0.1-0.3,0-0.5c-0.1-0.1-0.3-0.3-0.4-0.3C145.7,472.8,143.8,473.6,142.6,474.2z"/>
		<path class="st2" d="M142,474.6h-0.1c-0.1,0-0.1-0.1-0.1-0.3c0-0.1,0.3-2.7,1.4-3.6c0.4-0.3,0.8-0.4,1.3-0.4
			c0.6,0,0.8,0.4,0.8,0.6C145.4,472,143.1,474.1,142,474.6L142,474.6z M144.3,470.7c-0.3,0-0.5,0.1-0.8,0.3c-0.8,0.6-1.2,2.2-1.3,3
			c1.2-0.6,2.7-2.3,2.6-3c0,0,0-0.3-0.4-0.3C144.3,470.7,144.3,470.7,144.3,470.7z"/>
		<polygon class="st12" points="131.5,474.3 140.9,474.3 142,452.4 132.4,452.4 		"/>
		<polygon class="st12" points="47.1,436.7 55.1,441.9 72.5,427.2 64.6,421.9 		"/>
		<path class="st15" d="M56.3,441.3l-8.3-6.7c-0.3-0.3-0.8-0.3-1,0l-6.8,5.3c-0.6,0.5-0.6,1.7,0,2.2c3,2.3,4.4,3.2,8.1,6.2
			c2.2,1.8,7.7,7.3,10.8,9.9c3,2.4,5.9-0.1,4.9-1.5c-4.6-5.8-6.4-10.8-7-13.9C57.1,442.2,56.7,441.7,56.3,441.3z"/>
		<path class="st15" d="M140.9,473.2h-10.3c-0.4,0-0.8,0.3-0.8,0.6l-1.9,8.4c-0.3,0.9,0.5,1.7,1.4,1.7c3.7,0,9.2-0.3,13.8-0.3
			c5.5,0,10.2,0.3,16.6,0.3c3.9,0,5-3.9,3.4-4.3c-7.3-1.7-13.4-1.8-19.9-5.8C142.5,473.6,141.7,473.2,140.9,473.2z"/>
		<path class="st15" d="M84.6,181.7c-8.3,3.9-12.9,29.8-12.9,29.8l20.1,8c0,0,4.5-10.7,7.1-22.2C101.6,185.4,93,177.7,84.6,181.7z"
			/>
		<path class="st18" d="M95.2,196.2c-4.9,5-7.2,14.8-8.3,21.3l4.8,1.9c0,0,4.4-10.3,7-21.5C98.2,195.3,97.2,194.2,95.2,196.2z"/>
		<path class="st15" d="M139.2,181.5c0,0,10.1,11.3,0.5,81.9c-15.2,0-43.2,0-50.7,0c-0.4-7.7,4.5-45.8-3-82.4c0,0,8.6-1.8,17-2.2
			c6.4-0.3,15.9-0.5,21.5,0C132.3,179.6,139.2,181.5,139.2,181.5z"/>
		<path class="st18" d="M143.9,208.9l-8.5-14.7c-1.7,8.1-2.3,13-2.1,21c0.3,5,4.9,23.7,9,26.6C143.8,227.8,144,217.1,143.9,208.9z"
			/>
		<path class="st12" d="M145,191.6c1.3,6.3,2.6,12.6,4,19c1.4,6.3,2.8,12.6,4.5,18.7c0.4,1.5,0.8,3.1,1.3,4.5l0.4,1.2l0.1,0.5
			c0,0,0,0,0-0.1c-0.1-0.1-0.3-0.1-0.1,0c0.1,0.3,0.9,0.8,1.9,1.2c1,0.4,2.3,0.8,3.7,1c5.5,1,12.2,1.2,18.4,1.2l1.3,7
			c-1.7,0.5-3.4,0.9-5,1.3c-1.7,0.4-3.4,0.8-5.2,1c-3.5,0.5-7,0.9-10.7,0.8c-1.9-0.1-3.9-0.3-5.9-0.8c-2.1-0.5-4.4-1.3-6.8-3.1
			c-1.2-0.9-2.3-2.2-3.2-3.9c-0.3-0.4-0.4-0.8-0.5-1.2l-0.3-0.6l-0.5-1.2c-0.6-1.7-1.2-3.2-1.8-4.9c-2.2-6.4-4-12.9-5.5-19.5
			c-1.5-6.6-3-13-4.1-19.6L145,191.6z"/>
		<path class="st15" d="M126.6,188.4c-2.7,8.6,8.1,34.4,8.1,34.4l21.5-5.4c0,0-0.8-13.4-5.7-24C143.2,177.3,129.8,178.1,126.6,188.4
			z"/>
		<path class="st12" d="M179.2,238.8l10.7-0.3l-5.2,11.2c0,0-4.4,0.6-8-5.3l-3.7-4.5l4.4-0.9C177.9,238.9,178.6,238.8,179.2,238.8z"
			/>
		<polygon class="st12" points="196.8,240.6 190.6,249.9 184.8,249.7 189.9,238.5 		"/>
		<g>
			<polygon class="st19" points="142,452.4 141.4,463.8 131.9,463.8 132.4,452.4 			"/>
			<polygon class="st19" points="64.6,421.9 72.5,427.2 63.4,434.8 55.6,429.5 			"/>
		</g>
		<path class="st12" d="M106,147.2c0.5,9.4,0.4,15,5.2,19.7c7.1,7.2,18.7,3,21-6.4c2.1-8.4,0.8-22.3-8.4-26
			C114.6,130.7,105.3,137.8,106,147.2z"/>
		<path class="st15" d="M94.9,145.6c2.3,8.5,7.9,18.4,15,19.1c8.8,0.8,12.8-8.4,13.9-17.8c5.3-3.6,2.4-7.6,7.9-8.1
			c6.8-0.6,4.6-13.2-4.4-15.1c0,0,3,5.5-3.4,2.8c-6.3-2.7-12.5-4-19.2-3.4c0,0,8,4,0.1,5.8c-7.9,1.8-10.2,6.7-6.6,9.5
			C98.2,138.5,93.3,139.9,94.9,145.6z"/>
		<path class="st12" d="M118.4,148.8c0.1,2.4,1.3,4.8,2.7,6.3c2.1,2.3,4.3,0.9,4.6-1.9c0.4-2.4-0.4-6.7-2.8-8
			C120.3,144,118.2,146,118.4,148.8z"/>
		<g>
			<path class="st2" d="M121.8,263.4c0,0,9.3,66.9,1.9,93.6c-11.5,42.4-55.6,78.3-55.6,78.3l-15-9.8c0,0,37.5-30.3,42.2-65.8
				c4.1-31.8-6.2-70.4-6.2-96.3C101,263.4,121.8,263.4,121.8,263.4z"/>
			<path class="st17" d="M121.8,263.4c0,0,9.3,66.9,1.9,93.6c-11.5,42.4-55.6,78.3-55.6,78.3l-15-9.8c0,0,37.5-30.3,42.2-65.8
				c4.1-31.8-6.2-70.4-6.2-96.3C101,263.4,121.8,263.4,121.8,263.4z"/>
		</g>
		<g>
			<path class="st2" d="M125.7,301.6c-4.4-4.9-8.1-7.7-8.1-7.7c1.5,21.7,2.8,53.9,1.4,76.7c1.9-4.4,3.6-8.9,4.8-13.5
				C127.4,344,127,321.3,125.7,301.6z"/>
			<path class="st14" d="M125.7,301.6c-4.4-4.9-8.1-7.7-8.1-7.7c1.5,21.7,2.8,53.9,1.4,76.7c1.9-4.4,3.6-8.9,4.8-13.5
				C127.4,344,127,321.3,125.7,301.6z"/>
		</g>
		<g>
			<path class="st2" d="M74.3,431.9l-5.8,3.9l-16.4-10.7l5-4.3L74.3,431.9z"/>
			<path class="st14" d="M74.3,431.9l-5.8,3.9l-16.4-10.7l5-4.3L74.3,431.9z"/>
		</g>
		<g>
			<path class="st2" d="M139.9,263.4c0,0,14.3,60.5,15.2,89.4c1.2,32.4-10.2,108.8-10.2,108.8h-16c0,0-1.9-77-2.7-106.5
				c-0.8-32.1-19.6-91.7-19.6-91.7H139.9z"/>
			<path class="st17" d="M139.9,263.4c0,0,14.3,60.5,15.2,89.4c1.2,32.4-10.2,108.8-10.2,108.8h-16c0,0-1.9-77-2.7-106.5
				c-0.8-32.1-19.6-91.7-19.6-91.7H139.9z"/>
		</g>
		<g>
			<path class="st2" d="M148,455.1c0.1,0-0.9,6.7-0.9,6.7h-19.5l-0.5-5.9L148,455.1z"/>
			<path class="st14" d="M148,455.1c0.1,0-0.9,6.7-0.9,6.7h-19.5l-0.5-5.9L148,455.1z"/>
		</g>
	</g>
</g>
<g id="Character_1_">
	<g>
		<path class="st12" d="M386.7,205.3c1.2,1,1.9,1.9,2.8,2.8c0.9,0.9,1.8,1.9,2.6,3c1.7,1.9,3.2,4,4.8,6.2c3.1,4.1,5.7,8.6,8.1,13.3
			l0.5,0.9c0.3,0.5,0.4,0.9,0.6,1.4c0.3,1,0.5,1.9,0.5,3c0.1,1.9-0.3,3.6-0.6,5.2c-1,3.1-2.6,5.4-4.1,7.6c-3.4,4.3-7.1,7.7-11.3,11
			l-3.2-3.7c1.5-1.8,3.1-3.6,4.5-5.5c1.4-1.9,2.7-3.9,3.9-5.8c1.2-1.9,1.9-4,2.3-5.7c0.1-0.9,0.3-1.7,0.1-2.2c0-0.3-0.1-0.5-0.3-0.8
			c0-0.1-0.1-0.3-0.1-0.3l-0.4-0.6c-2.4-4-5.2-8-8.1-11.7c-1.4-1.9-3-3.7-4.5-5.5c-0.8-0.9-1.5-1.8-2.3-2.7
			c-0.8-0.8-1.7-1.8-2.3-2.4L386.7,205.3z"/>
		<path class="st12" d="M388.5,254.6l-9.7-1.5l5,8.4c0,0,6.2-0.3,8-3.9L388.5,254.6z"/>
		<polygon class="st12" points="371.7,257 376.2,263.8 383.8,261.5 378.8,253.1 		"/>
		<path class="st2" d="M388,474.7c-0.8,0-1.4-0.1-1.8-0.5c-0.4-0.3-0.4-0.6-0.4-1.2c0-0.4,0.3-0.5,0.5-0.6c1.2-0.5,4,1.4,4.4,1.5
			c0.1,0,0.1,0.1,0.1,0.3s-0.1,0.1-0.1,0.1C389.9,474.5,388.9,474.7,388,474.7z M386.7,472.7c-0.1,0-0.3,0-0.3,0
			c-0.1,0-0.1,0.1-0.1,0.3c0,0.4,0,0.6,0.3,0.8c0.5,0.4,1.8,0.5,3.5,0.1C388.9,473.4,387.4,472.7,386.7,472.7z"/>
		<path class="st2" d="M390.4,474.3L390.4,474.3c-1-0.5-2.8-2.6-2.6-3.7c0-0.3,0.3-0.5,0.8-0.6c0.4,0,0.6,0,1,0.3c1,0.9,1,3.7,1,3.9
			C390.7,474.2,390.7,474.3,390.4,474.3C390.5,474.3,390.5,474.3,390.4,474.3z M388.9,470.5C388.7,470.5,388.7,470.5,388.9,470.5
			c-0.4,0-0.5,0.1-0.5,0.3c-0.1,0.6,0.9,2.2,1.9,3c0-0.9-0.3-2.4-0.9-3.1C389.1,470.5,389,470.5,388.9,470.5z"/>
		<path class="st2" d="M344,474.7c-0.9,0-1.8-0.1-2.3-0.6c-0.3-0.3-0.5-0.6-0.4-1.2c0-0.3,0.1-0.5,0.4-0.6c1.2-0.6,5,1.3,5.4,1.5
			c0.1,0,0.1,0.1,0.1,0.3c0,0.1-0.1,0.1-0.1,0.1C346.2,474.5,345,474.7,344,474.7z M342.3,472.7c-0.1,0-0.4,0-0.4,0.1
			c-0.1,0-0.1,0.1-0.1,0.3c0,0.3,0,0.5,0.3,0.8c0.6,0.5,2.2,0.6,4.3,0.3C345,473.4,343.2,472.7,342.3,472.7z"/>
		<path class="st2" d="M347,474.3L347,474.3c-1.3-0.5-3.5-2.6-3.4-3.7c0-0.3,0.3-0.6,0.9-0.6c0.5,0,0.9,0.1,1.3,0.4
			c1.2,1,1.4,3.6,1.4,3.7s0,0.1-0.1,0.3C347.1,474.3,347.1,474.3,347,474.3z M344.8,470.5h-0.1c-0.4,0-0.4,0.3-0.5,0.3
			c-0.1,0.6,1.4,2.3,2.6,3c-0.1-0.8-0.4-2.3-1.3-3C345.3,470.6,345,470.5,344.8,470.5z"/>
		<path class="st12" d="M362.3,175.6c-0.4,5.8-1.4,17.7,3.1,20.9c0,0-0.8,5.9-11.3,7.3c-11.6,1.5-6.3-5-6.3-5
			c6.2-2.3,5.4-7,3.7-11.3L362.3,175.6z"/>
		<path class="st15" d="M338.2,165.3c-0.1,0-0.3,0-0.4-0.1c-1.3-1.5-3-1.3-3.1-1.3c-0.3,0-0.5-0.1-0.5-0.4c0-0.3,0.1-0.5,0.4-0.5
			c0.1,0,2.2-0.3,3.9,1.7c0.1,0.1,0.1,0.5,0,0.6C338.4,165.3,338.3,165.3,338.2,165.3z"/>
		<path class="st16" d="M336.3,171c0,0-0.9,3.5-2.1,5.3c1.2,0.8,2.8,0.1,2.8,0.1L336.3,171z"/>
		<path class="st15" d="M336.8,169.5c0.1,0.8-0.3,1.4-0.8,1.5c-0.5,0.1-1-0.5-1.2-1.3c-0.1-0.8,0.3-1.4,0.8-1.5
			C336.1,168.3,336.6,168.8,336.8,169.5z"/>
		<path class="st15" d="M335.9,168.4l-1.9-0.3C333.9,168,335.1,169.4,335.9,168.4z"/>
		<polygon class="st12" points="357.7,474.1 348,474.1 347.3,451.8 357,451.8 		"/>
		<polygon class="st12" points="401.5,474.1 391.8,474.1 388.7,451.8 398.4,451.8 		"/>
		<path class="st15" d="M391.3,473.1h10.8c0.4,0,0.8,0.3,0.8,0.6l1.3,8.6c0.1,0.9-0.6,1.7-1.5,1.7c-3.7-0.1-5.5-0.3-10.4-0.3
			c-3,0-7.2,0.3-11.3,0.3c-4,0-4.3-4-2.6-4.4c7.6-1.7,8.8-3.9,11.3-6.1C390.1,473.2,390.7,473.1,391.3,473.1z"/>
		<path class="st15" d="M347.6,473.1h10.8c0.4,0,0.8,0.3,0.8,0.6l1.3,8.6c0.1,0.9-0.6,1.7-1.5,1.7c-3.7-0.1-5.5-0.3-10.4-0.3
			c-3,0-9,0.3-13,0.3c-4,0-4.3-4-2.6-4.4c7.6-1.7,10.6-3.9,13.2-6.1C346.4,473.2,347.1,473.1,347.6,473.1z"/>
		<g>
			<polygon class="st19" points="347.3,451.8 347.7,463.3 357.3,463.3 357,451.8 			"/>
			<polygon class="st19" points="398.4,451.8 388.7,451.8 390.4,463.3 400.1,463.3 			"/>
		</g>
		<path class="st12" d="M362.4,163.5c0.6,9.5,1.2,13.5-3,19.1c-6.2,8.3-18.2,7-21.7-2.2c-3.1-8.3-3.7-22.6,5.2-27.5
			C351.5,148,361.8,153.9,362.4,163.5z"/>
		<path class="st15" d="M368,172.4c5.4,3,9.4-4.4,9.4-4.4s-9.7,1-8.8-4.6c1.2-7.6-4.3-16.8-17.9-15.6c-0.8,0.1-1.5,0.1-2.2,0.3
			c-2.7-1.2-6.2-1-8.5,1.9c-3.9,0.3-9,4.9-5.5,11.1c0,0,0.3-1,1.2-1.9c0.3,3.6,3.5,9.3,7.3,9.7c0.9,4.9-2.4,10.6-1.3,15.6
			c1.7,7.3,14.1,9,14.1,9c-1.4-3.6,0.8-5.7,0.8-5.7c8.4,3.9,14.1,0.1,14.1,0.1c-5.8-2.2-4-5.9-4-5.9c7.7,3,11-4,11-4
			C373.3,178.2,369.8,175.9,368,172.4z"/>
		<path class="st12" d="M346.2,170.2c0,1.9-0.8,3.9-1.9,5c-1.7,1.8-3.7,0.5-4.4-1.7c-0.5-2.1-0.3-5.4,1.9-6.3
			C344.1,166.2,346.2,167.9,346.2,170.2z"/>
		<path class="st15" d="M354.2,259.3c0,0,2.4,63.7,8.3,101c4.6,30.2,25.5,100.7,25.5,100.7h13.2c0,0-10.8-68.2-13.3-98
			c-6.1-75.6,9.7-91.8-5.2-107.5L354.2,259.3z"/>
		<path class="st20" d="M365.3,279.4c0,0-5.9-1-9.4,10.3c1.3,21.5,3.5,50,6.7,70.5c0.6,4.5,1.8,10.1,3.1,16.1
			C363.1,340.1,365.3,279.4,365.3,279.4z"/>
		<path class="st15" d="M344,260.7c0,0-10.8,70.4-10.2,99.9c0.6,30.7,11.9,100.6,11.9,100.6h13c0,0-2.1-68.1-0.9-98.2
			c1.3-32.7,14.7-106,14.7-106L344,260.7z"/>
		<g>
			<polygon class="st2" points="403.2,461.7 385.6,461.7 384.2,455.8 403,455.9 			"/>
			<polygon class="st21" points="403.2,461.7 385.6,461.7 384.2,455.8 403,455.9 			"/>
		</g>
		<g>
			<path class="st2" d="M382.2,196.6c5,0.5,12.6,14.8,12.6,14.8l-12.8,9.8c0,0-10.6-9.3-9.3-14.4
				C374.2,201.3,377.4,196.1,382.2,196.6z"/>
			<path class="st17" d="M382.2,196.6c5,0.5,12.6,14.8,12.6,14.8l-12.8,9.8c0,0-10.6-9.3-9.3-14.4
				C374.2,201.3,377.4,196.1,382.2,196.6z"/>
		</g>
		<g>
			<path class="st2" d="M378.3,202.7c0,0-2.1-0.5-4-0.4c-0.6,1.4-1.2,2.8-1.5,4.4c-1.3,5.2,9.3,14.4,9.3,14.4l0.9-0.8L378.3,202.7z"
				/>
			<path class="st14" d="M378.3,202.7c0,0-2.1-0.5-4-0.4c-0.6,1.4-1.2,2.8-1.5,4.4c-1.3,5.2,9.3,14.4,9.3,14.4l0.9-0.8L378.3,202.7z
				"/>
		</g>
		<path class="st12" d="M339.6,216.5c-3.7,9.3-7.6,18.7-10.6,28.1c-0.3,0.6-0.4,1.2-0.5,1.7l-0.4,1.4c-0.1,0.4-0.1,0.8,0,1.3
			c0.3,1,1.7,2.7,3.4,4c3.5,2.7,8.1,4.9,12.5,6.7l-1.2,4.8c-5.4-0.8-10.4-2.2-15.6-5c-2.4-1.5-5.2-3.4-7-7.1
			c-0.9-1.8-1.3-4.1-0.9-6.2c0-0.3,0.1-0.5,0.1-0.8l0.1-0.5l0.3-1c0.1-0.6,0.3-1.3,0.5-1.9c1.3-5.2,3-10.1,4.6-15
			c1.7-4.9,3.6-9.7,5.7-14.4L339.6,216.5z"/>
		<g>
			<path class="st2" d="M331.9,203.5c0,0-4.4,2.2,12.1,57.2c15.5-2.1,31.5-4.1,38.9-5c-2.7-15.7-4-25.5-0.6-59.1c0,0-8.4-0.6-16.8,0
				c-6.6,0.5-12,1-17.7,2.3C340.1,200.5,331.9,203.5,331.9,203.5z"/>
			<path class="st17" d="M331.9,203.5c0,0-4.4,2.2,12.1,57.2c15.5-2.1,31.5-4.1,38.9-5c-2.7-15.7-4-25.5-0.6-59.1
				c0,0-8.4-0.6-16.8,0c-6.6,0.5-12,1-17.7,2.3C340.1,200.5,331.9,203.5,331.9,203.5z"/>
		</g>
		<g>
			<path class="st2" d="M383.2,253.2l2.2,3.2c0.1,0.3-0.1,0.5-0.5,0.6l-40.7,5.3c-0.4,0-0.6-0.1-0.8-0.3l-0.8-3.5
				c0-0.3,0.3-0.5,0.6-0.5l39.5-5.2C382.8,253,383.1,253.1,383.2,253.2z"/>
			<path class="st21" d="M383.2,253.2l2.2,3.2c0.1,0.3-0.1,0.5-0.5,0.6l-40.7,5.3c-0.4,0-0.6-0.1-0.8-0.3l-0.8-3.5
				c0-0.3,0.3-0.5,0.6-0.5l39.5-5.2C382.8,253,383.1,253.1,383.2,253.2z"/>
		</g>
		<path class="st15" d="M378.4,258.3l1-0.1c0.3,0,0.4-0.1,0.4-0.3l-1-4.5c0-0.1-0.3-0.3-0.4-0.1l-1,0.1c-0.3,0-0.4,0.1-0.4,0.3
			l1,4.5C378,258.3,378.2,258.4,378.4,258.3z"/>
		<path class="st15" d="M352.9,261.6l1-0.1c0.3,0,0.4-0.1,0.4-0.3l-1-4.5c0-0.1-0.3-0.3-0.4-0.1l-1,0.1c-0.3,0-0.4,0.1-0.4,0.3
			l1,4.5C352.5,261.6,352.6,261.7,352.9,261.6z"/>
		<g>
			<path class="st2" d="M333.7,222.2c1,5,2.6,11.3,4.8,19.2l0.5-20.2L333.7,222.2z"/>
			<path class="st14" d="M333.7,222.2c1,5,2.6,11.3,4.8,19.2l0.5-20.2L333.7,222.2z"/>
		</g>
		<g>
			<path class="st2" d="M331.9,203.5c-4.9,1.9-9,18.4-9,18.4l16.6,8.1c0,0,8-20.2,4.4-24.2C340.1,201.8,337.4,201.3,331.9,203.5z"/>
			<path class="st17" d="M331.9,203.5c-4.9,1.9-9,18.4-9,18.4l16.6,8.1c0,0,8-20.2,4.4-24.2C340.1,201.8,337.4,201.3,331.9,203.5z"
				/>
		</g>
		<g>
			<polygon class="st2" points="360.9,461.7 343.3,461.7 342.1,455.8 361.5,455.9 			"/>
			<polygon class="st21" points="360.9,461.7 343.3,461.7 342.1,455.8 361.5,455.9 			"/>
		</g>
		<path class="st12" d="M344.1,258.1l-1.4-0.5c-1.5-0.6-3.1,0.6-2.8,2.3l1,6.7c0.3,1.4,1.7,2.3,3.1,1.8c0.5-0.1,0.9-0.4,1.4-0.8
			c0.9-0.8,1.4-1.9,1.4-3.2l-0.1-2.8C346.4,260.1,345.5,258.6,344.1,258.1z"/>
	</g>
</g>
</svg>
