<svg xmlns="http://www.w3.org/2000/svg" xmlns:xlink="http://www.w3.org/1999/xlink" viewBox="0 0 450 395.79"><defs><style>.cls-1{fill:none;}.cls-2{isolation:isolate;}.cls-3,.cls-4{fill:#b0affd;}.cls-4,.cls-64{opacity:0.4;}.cls-22,.cls-38,.cls-4,.cls-60,.cls-61,.cls-62,.cls-64{mix-blend-mode:multiply;}.cls-5{opacity:0.7;}.cls-6{fill:#9797ef;}.cls-7{fill:#7777db;}.cls-8{fill:#8888e9;}.cls-9{fill:#fd9f00;}.cls-10{clip-path:url(#clip-path);}.cls-11{fill:#e38601;}.cls-12{fill:#fac61b;}.cls-13{clip-path:url(#clip-path-2);}.cls-14{clip-path:url(#clip-path-3);}.cls-15{clip-path:url(#clip-path-4);}.cls-16{clip-path:url(#clip-path-5);}.cls-17{clip-path:url(#clip-path-6);}.cls-18{clip-path:url(#clip-path-7);}.cls-19{clip-path:url(#clip-path-8);}.cls-20{clip-path:url(#clip-path-9);}.cls-21{clip-path:url(#clip-path-10);}.cls-22{opacity:0.2;}.cls-23{clip-path:url(#clip-path-11);}.cls-24{clip-path:url(#clip-path-12);}.cls-25{clip-path:url(#clip-path-13);}.cls-26{clip-path:url(#clip-path-14);}.cls-27{clip-path:url(#clip-path-15);}.cls-28{clip-path:url(#clip-path-16);}.cls-29{clip-path:url(#clip-path-17);}.cls-30,.cls-61{fill:#ffb127;}.cls-31{clip-path:url(#clip-path-18);}.cls-32{clip-path:url(#clip-path-19);}.cls-33{clip-path:url(#clip-path-20);}.cls-34{clip-path:url(#clip-path-21);}.cls-35{clip-path:url(#clip-path-22);}.cls-36{clip-path:url(#clip-path-23);}.cls-37{clip-path:url(#clip-path-24);}.cls-38{fill:#b5905c;}.cls-38,.cls-60,.cls-61,.cls-62{opacity:0.5;}.cls-39{clip-path:url(#clip-path-25);}.cls-40,.cls-42,.cls-64{fill:#ffd454;}.cls-41{fill:#fde571;}.cls-42,.cls-68{fill-rule:evenodd;}.cls-43{fill:#ffe1bd;}.cls-44{fill:#ed9c80;}.cls-45{fill:#3a3a3a;}.cls-46{fill:#3d38a0;}.cls-47{fill:#7762ef;}.cls-48{fill:#2c1e56;}.cls-49,.cls-60{fill:#5f52dd;}.cls-50{clip-path:url(#clip-path-26);}.cls-51{clip-path:url(#clip-path-27);}.cls-52{clip-path:url(#clip-path-28);}.cls-53{fill:#d8836c;}.cls-54{fill:#ffc064;}.cls-55{fill:#f9d04e;}.cls-56{fill:#feaf84;}.cls-57{fill:#594a5f;}.cls-58{fill:#272789;}.cls-59{fill:#f29d77;}.cls-62{fill:#edbf5a;}.cls-63{fill:#f8bd36;}.cls-65{fill:#201d93;}.cls-66{fill:#2d24a3;}.cls-67{fill:#f4aa4a;}.cls-68,.cls-69{fill:#fb2;}</style><clipPath id="clip-path" transform="translate(-25 -52.1)"><path class="cls-1" d="M152.94,390.23v5.56c0,1.93-10.31,3.5-23,3.5s-23-1.57-23-3.5v-5.56Z"/></clipPath><clipPath id="clip-path-2" transform="translate(-25 -52.1)"><path class="cls-1" d="M156.27,383.94v5.57c0,1.93-10.3,3.49-23,3.49s-23-1.56-23-3.49v-5.57Z"/></clipPath><clipPath id="clip-path-3" transform="translate(-25 -52.1)"><path class="cls-1" d="M152.53,377.61v5.56c0,1.93-10.3,3.5-23,3.5s-23-1.57-23-3.5v-5.56Z"/></clipPath><clipPath id="clip-path-4" transform="translate(-25 -52.1)"><path class="cls-1" d="M332.34,382.1v5.57c0,1.93-10.31,3.49-23,3.49s-23-1.56-23-3.49V382.1Z"/></clipPath><clipPath id="clip-path-5" transform="translate(-25 -52.1)"><path class="cls-1" d="M335.67,375.81v5.57c0,1.93-10.3,3.5-23,3.5s-23-1.57-23-3.5v-5.57Z"/></clipPath><clipPath id="clip-path-6" transform="translate(-25 -52.1)"><path class="cls-1" d="M331.93,369.48v5.57c0,1.93-10.3,3.49-23,3.49s-23-1.56-23-3.49v-5.57Z"/></clipPath><clipPath id="clip-path-7" transform="translate(-25 -52.1)"><path class="cls-1" d="M330.31,363.07v5.57c0,1.93-10.3,3.49-23,3.49s-23-1.56-23-3.49v-5.57Z"/></clipPath><clipPath id="clip-path-8" transform="translate(-25 -52.1)"><path class="cls-1" d="M335.81,356.74v5.57c0,1.93-10.31,3.5-23,3.5s-23-1.57-23-3.5v-5.57Z"/></clipPath><clipPath id="clip-path-9" transform="translate(-25 -52.1)"><path class="cls-1" d="M331.37,350.41V356c0,1.93-10.31,3.49-23,3.49s-23-1.56-23-3.49v-5.57Z"/></clipPath><clipPath id="clip-path-10" transform="translate(-25 -52.1)"><path class="cls-1" d="M335.35,344.08v5.57c0,1.93-10.3,3.49-23,3.49s-23-1.56-23-3.49v-5.57Z"/></clipPath><clipPath id="clip-path-11" transform="translate(-25 -52.1)"><path d="M332.34,382.1v5.57c0,1.93-10.31,3.49-23,3.49s-23-1.56-23-3.49V382.1Z"/></clipPath><clipPath id="clip-path-12" transform="translate(-25 -52.1)"><path d="M335.67,375.81v5.57c0,1.93-10.3,3.5-23,3.5s-23-1.57-23-3.5v-5.57Z"/></clipPath><clipPath id="clip-path-13" transform="translate(-25 -52.1)"><path d="M331.93,369.48v5.57c0,1.93-10.3,3.49-23,3.49s-23-1.56-23-3.49v-5.57Z"/></clipPath><clipPath id="clip-path-14" transform="translate(-25 -52.1)"><path d="M330.31,363.07v5.57c0,1.93-10.3,3.49-23,3.49s-23-1.56-23-3.49v-5.57Z"/></clipPath><clipPath id="clip-path-15" transform="translate(-25 -52.1)"><path d="M335.81,356.74v5.57c0,1.93-10.31,3.5-23,3.5s-23-1.57-23-3.5v-5.57Z"/></clipPath><clipPath id="clip-path-16" transform="translate(-25 -52.1)"><path d="M331.37,350.41V356c0,1.93-10.31,3.49-23,3.49s-23-1.56-23-3.49v-5.57Z"/></clipPath><clipPath id="clip-path-17" transform="translate(-25 -52.1)"><path d="M335.35,344.08v5.57c0,1.93-10.3,3.49-23,3.49s-23-1.56-23-3.49v-5.57Z"/></clipPath><clipPath id="clip-path-18" transform="translate(-25 -52.1)"><path class="cls-1" d="M312.49,385.15v5.57c0,1.93,10.3,3.49,23,3.49s23-1.56,23-3.49v-5.57Z"/></clipPath><clipPath id="clip-path-19" transform="translate(-25 -52.1)"><path class="cls-1" d="M309.15,378.86v5.57c0,1.93,10.31,3.49,23,3.49s23-1.56,23-3.49v-5.57Z"/></clipPath><clipPath id="clip-path-20" transform="translate(-25 -52.1)"><path class="cls-1" d="M312.89,372.53v5.57c0,1.93,10.31,3.49,23,3.49s23-1.56,23-3.49v-5.57Z"/></clipPath><clipPath id="clip-path-21" transform="translate(-25 -52.1)"><path class="cls-1" d="M314.51,366.12v5.57c0,1.93,10.31,3.49,23,3.49s23-1.56,23-3.49v-5.57Z"/></clipPath><clipPath id="clip-path-22" transform="translate(-25 -52.1)"><path class="cls-1" d="M309,359.79v5.57c0,1.93,10.31,3.49,23,3.49s23-1.56,23-3.49v-5.57Z"/></clipPath><clipPath id="clip-path-23" transform="translate(-25 -52.1)"><path class="cls-1" d="M313.46,353.46V359c0,1.93,10.31,3.49,23,3.49s23-1.56,23-3.49v-5.57Z"/></clipPath><clipPath id="clip-path-24" transform="translate(-25 -52.1)"><path class="cls-1" d="M309.48,347.13v5.57c0,1.93,10.3,3.49,23,3.49s23-1.56,23-3.49v-5.57Z"/></clipPath><clipPath id="clip-path-25" transform="translate(-25 -52.1)"><path class="cls-1" d="M344.31,352.66l4.46-1,11.27,49-4.45,1.06c-11.85,2.72-24-6.05-27.1-19.6S332.45,355.39,344.31,352.66Z"/></clipPath><clipPath id="clip-path-26" transform="translate(-25 -52.1)"><path class="cls-1" d="M435.39,266.86l-.07,3c0,1.05-5.66,1.78-12.58,1.62s-12.52-1.13-12.5-2.18l.07-3Z"/></clipPath><clipPath id="clip-path-27" transform="translate(-25 -52.1)"><path class="cls-1" d="M433,263.36l-.06,3c0,1.05-5.66,1.78-12.59,1.62s-12.52-1.13-12.49-2.18l.06-3Z"/></clipPath><clipPath id="clip-path-28" transform="translate(-25 -52.1)"><path class="cls-1" d="M435.29,260l-.06,3c0,1.05-5.66,1.78-12.59,1.62s-12.52-1.13-12.49-2.18l.06-3Z"/></clipPath></defs><title>ndc-home</title><g class="cls-2"><g id="Layer_1" data-name="Layer 1"><path class="cls-3" d="M171.31,376.7a1.31,1.31,0,0,0,0,.64,4.51,4.51,0,0,1-.31-1.4,100.54,100.54,0,0,0-4.77-10.65c-.36-.7-.75-1.39-1.13-2.08-1.78-.5-5.93-.58-7-.85-2.31-.57-5.25-1.18-7.23-2.55-.82-.56-2.87-2.55-2-3.71,1-1.32,5.13.89,6.14,1.45,2.24,1.23,4.29,2.82,6.64,3.8a23.19,23.19,0,0,1,3.22,1.4,88.71,88.71,0,0,0-5.71-8.83c-1.72-.52-6-.6-7.14-.88-2.3-.57-5.25-1.18-7.23-2.55-.82-.56-2.87-2.55-2-3.71,1-1.32,5.13.89,6.14,1.45,2.24,1.23,4.29,2.82,6.65,3.8a22.65,22.65,0,0,1,3.18,1.39,77.45,77.45,0,0,0-7.23-8.43,72.34,72.34,0,0,0-5.66-5.13c-2,.26-4.7.89-5.6.91-2.38.05-5.38.23-7.64-.56-.94-.33-3.44-1.72-2.89-3.07.63-1.54,5.19-.49,6.31-.21,2.48.61,4.87,1.6,7.41,1.93.45.06.91.1,1.37.15a74.09,74.09,0,0,0-8.5-5.8c-.82.25-1.7.36-2.54.53a57.91,57.91,0,0,0-6.2,2.09c-.94.3-4.76,1.48-5.38.2-.56-1.12,1.49-2.45,2.27-2.78,1.88-.82,4.45-.85,6.47-.94.73,0,2.85.29,4.53.42-1.4-.8-2.83-1.57-4.29-2.28a72.38,72.38,0,0,0-7.11-2.95,16.21,16.21,0,0,1-3.13.73,59.31,59.31,0,0,0-6.19,2.1c-.94.3-4.76,1.47-5.39.2-.55-1.12,1.49-2.45,2.27-2.79,1.89-.81,4.45-.84,6.48-.94.84,0,3.55.41,5.29.46a68.82,68.82,0,0,0-9.93-2.64,20.43,20.43,0,0,1-2.72.53,60.83,60.83,0,0,0-6.23,2c-1,.28-4.79,1.38-5.39.1s1.54-2.42,2.33-2.74c1.89-.78,4.46-.76,6.49-.82a10.87,10.87,0,0,1,1.26.1c1.77,0,3.54.17,5.3.38a.52.52,0,0,0,.15-.07l-.13.07a59.85,59.85,0,0,1,7.13,1.28c-.7-.5-1.32-1.16-2-1.73a59.2,59.2,0,0,0-5.42-3.67c-.8-.56-4.05-2.89-3.42-4.16s2.86-.29,3.6.12c1.79,1,3.36,3,4.67,4.59.62.74,2.21,3.82,3.26,5a59.72,59.72,0,0,1,6.5,2.05,16.06,16.06,0,0,1-2.06-2.36,59.48,59.48,0,0,0-4.79-4.45c-.71-.68-3.56-3.49-2.74-4.64s2.87.15,3.54.67c1.61,1.27,2.85,3.52,3.9,5.25.53.88,1.73,4.54,2.6,5.71.86.34,1.72.68,2.57,1.06a66.34,66.34,0,0,1,10.1,5.51c-.19-.59-.34-1.21-.53-1.8a57.91,57.91,0,0,0-2.7-6c-.39-.9-1.94-4.59-.74-5.34s2.59,1.24,3,2c1,1.79,1.29,4.34,1.59,6.34.12.83,0,3.48.06,5.22a71.21,71.21,0,0,1,8.71,7c-.27-.69-.52-1.39-.81-2-.73-1.56-1.51-3.1-2.39-4.59a29.29,29.29,0,0,0-4.94-6.35,1.39,1.39,0,0,1,1.19-2.38l.16,0c2.18.52,3.47,2.69,4.49,4.68.78,1.52,5,9.72,4,12.29a75.25,75.25,0,0,1,8.16,9.85c-.66-2-1.78-3.82-2.62-5.76-.4-.9-1.94-4.59-.74-5.33s2.59,1.24,3,2c1,1.79,1.28,4.35,1.58,6.35.11.74,0,2.94,0,4.65a78.2,78.2,0,0,1,5,8.87c0-.42,0-.85,0-1.26a61.54,61.54,0,0,0-1.13-6.44c-.16-1-.74-4.93.62-5.36,1.19-.37,2.19,1.85,2.41,2.67.52,2,.15,4.53-.06,6.54-.08.83-.91,3.36-1.24,5.08q1.63,3.53,2.93,7.2c0-1.94-.44-3.85-.6-5.79-.08-1-.34-5,1-5.28,1.22-.28,2,2,2.19,2.85.36,2-.2,4.52-.57,6.52-.12.66-.81,2.39-1.32,3.91,1.49,4.65,6.6,8.7,7.26,13.5C178.06,384.1,172.8,380.71,171.31,376.7Z" transform="translate(-25 -52.1)"/><path class="cls-4" d="M410.06,397.69c0,4.53-73.52,7.61-164.14,6.88-39.34-.32-75.44-1.3-103.69-2.68-23-1.87-31.64-1.87-43-3-2.71-.24,2.31.24,0,0-11.11-1.2-17.36-2.5-17.35-3.82,0-4.52,73.52-7.6,164.13-6.88S410.1,393.17,410.06,397.69Z" transform="translate(-25 -52.1)"/><path class="cls-3" d="M208.54,368c0,.08-.3-6.84-10.71-13-10.6-6.54-32.55-4.24-35.73-11-3.34-7.28,10.57-6.38,16.23-12.22s7.58-8.68-.82-9.84-13.38-1.43-13.76-8.29-13.79-2.77-20.91-7.43c-7.32-4.64-3.88-11.67,9.44-12.08,13.11-.08,13.46-2.26,9.57-4.06s-15.48-4.55-10.84-8.38,12.22-1.14,8.09-5.36-13.41-6.94-9.25-12.08,15.64-5.42,22.91,7,9.48,15.82,15.86,16.84c6.23,1.09,11.66-5.91,19.39-3.62s6.68,9.67,2.48,14.71-11.42,15-6.51,19c4.72,4,9.78-2.63,16.26-4.15,7.18-1.7,15.81,4,9.57,14.37-6.51,10.23-17,18.61-15.86,41.29C212.16,369.1,210.35,368.54,208.54,368Z" transform="translate(-25 -52.1)"/><g class="cls-5"><path class="cls-6" d="M211.63,369.31a.4.4,0,0,1-.45-.28c-22.32-77.37-55-104.25-55.37-104.51a.39.39,0,0,1-.06-.55.39.39,0,0,1,.55-.06c.33.26,33.24,27.3,55.63,104.91a.39.39,0,0,1-.26.48Z" transform="translate(-25 -52.1)"/></g><g class="cls-5"><path class="cls-6" d="M176,288.42a.4.4,0,0,1-.26,0c-10.3-5.8-21.83-5-21.94-4.95a.39.39,0,1,1-.06-.78c.11,0,11.87-.87,22.38,5.05a.38.38,0,0,1,.15.53A.4.4,0,0,1,176,288.42Z" transform="translate(-25 -52.1)"/></g><g class="cls-5"><path class="cls-6" d="M188.79,310.39a.4.4,0,0,1-.3-.06.39.39,0,0,1-.09-.55,154.37,154.37,0,0,1,19.85-21.87.39.39,0,0,1,.52.58A153.14,153.14,0,0,0,189,310.24.41.41,0,0,1,188.79,310.39Z" transform="translate(-25 -52.1)"/></g><g class="cls-5"><path class="cls-6" d="M186.21,305.5a.55.55,0,0,1-.18,0c-18.75-5.39-38.95-3.68-39.15-3.66a.39.39,0,0,1-.42-.35.37.37,0,0,1,.35-.42c.2,0,20.54-1.75,39.43,3.68a.39.39,0,0,1,0,.76Z" transform="translate(-25 -52.1)"/></g><g class="cls-5"><path class="cls-6" d="M203.74,345a.34.34,0,0,1-.2,0c-12.93-4.54-33.83-3.34-34-3.33a.38.38,0,0,1-.41-.36.39.39,0,0,1,.36-.42c.21,0,21.27-1.21,34.34,3.37a.39.39,0,0,1,.24.5A.37.37,0,0,1,203.74,345Z" transform="translate(-25 -52.1)"/></g><g class="cls-5"><path class="cls-6" d="M205.63,350.33a.33.33,0,0,1-.17,0,.38.38,0,0,1-.28-.47c4.22-16,18-29.53,18.14-29.66a.39.39,0,1,1,.54.56c-.13.13-13.76,13.53-17.93,29.3A.38.38,0,0,1,205.63,350.33Z" transform="translate(-25 -52.1)"/></g><path class="cls-7" d="M191.17,355s.7-28.12-21.46-30.71-14.16,29.4-4.66,39.88c0,0-12.31-14.49-20.51-4.71s14.81,21,14.81,21-18.42-6.25-23.52-2c-6.58,5.46,3.11,12,3.11,12S121.8,383.9,126,398l94.73-.27Z" transform="translate(-25 -52.1)"/><path class="cls-3" d="M306.9,350.26a1.13,1.13,0,0,1,.17.44,3.33,3.33,0,0,0-.18-1,73.37,73.37,0,0,1,.31-8.52c.06-.57.13-1.14.2-1.71,1.07-.81,3.86-2,4.54-2.46a16.43,16.43,0,0,0,4.21-3.66c.4-.6,1.24-2.5.32-3.05s-3.24,2-3.77,2.62a48.67,48.67,0,0,1-3.46,4.36,16.18,16.18,0,0,0-1.8,1.81,65.83,65.83,0,0,1,1.45-7.53c1-.81,3.91-2,4.6-2.5a16.43,16.43,0,0,0,4.21-3.66c.4-.6,1.24-2.5.32-3.05s-3.24,2-3.77,2.62a50.53,50.53,0,0,1-3.46,4.36,16.7,16.7,0,0,0-1.78,1.79,57,57,0,0,1,2.59-7.66,54.87,54.87,0,0,1,2.43-5c1.44-.35,3.43-.64,4.05-.87a16.84,16.84,0,0,0,5-2.42c.55-.48,1.87-2.08,1.12-2.86s-3.65,1.06-4.34,1.54a49.17,49.17,0,0,1-4.49,3.29l-.89.47a53,53,0,0,1,4.17-6.21c.62-.05,1.25-.21,1.87-.32a44.74,44.74,0,0,1,4.78-.23c.72,0,3.63-.27,3.71-1.3s-1.69-1.26-2.31-1.29a14.47,14.47,0,0,0-4.65,1.09c-.51.17-1.85,1-3,1.5.74-.92,1.49-1.83,2.29-2.7a52.72,52.72,0,0,1,4-3.9,11.7,11.7,0,0,0,2.33-.34,44.61,44.61,0,0,1,4.78-.22c.71-.05,3.63-.27,3.71-1.3s-1.69-1.27-2.31-1.29a14.21,14.21,0,0,0-4.65,1.09c-.59.19-2.3,1.22-3.47,1.72a49.31,49.31,0,0,1,6-4.44,17.15,17.15,0,0,0,2-.37,44.42,44.42,0,0,1,4.77-.32c.72-.06,3.63-.33,3.68-1.37s-1.71-1.23-2.33-1.24a14.43,14.43,0,0,0-4.63,1.18,6.35,6.35,0,0,0-.83.4c-1.19.5-2.35,1.06-3.49,1.67h-.12l.11,0a44,44,0,0,0-4.49,2.77,18,18,0,0,0,.86-1.7,43.26,43.26,0,0,1,2.67-3.94c.39-.6,2-3,1.18-3.74s-2,.56-2.41,1a14.19,14.19,0,0,0-1.91,4.36c-.22.67-.45,3.19-.83,4.3a44.07,44.07,0,0,0-3.84,3.13,12.15,12.15,0,0,0,.75-2.15,44.37,44.37,0,0,1,2-4.31c.3-.65,1.46-3.32.59-3.88s-1.91.86-2.22,1.4a14.2,14.2,0,0,0-1.2,4.61c-.12.74.07,3.54-.2,4.57-.49.46-1,.92-1.45,1.4a47.75,47.75,0,0,0-5.34,6.45c0-.46-.1-.92-.14-1.37a42.28,42.28,0,0,1,.2-4.77c0-.72.06-3.64-1-3.83s-1.42,1.54-1.5,2.15a14.46,14.46,0,0,0,.67,4.74c.14.59,1,2.35,1.39,3.56a50.12,50.12,0,0,0-4,7.07c0-.54,0-1.08,0-1.58.06-1.26.17-2.51.35-3.75a21.56,21.56,0,0,1,1.61-5.64,1,1,0,0,0-1.46-1.3l-.1.06c-1.33.94-1.61,2.76-1.76,4.39-.11,1.23-.74,7.94.64,9.43a53.22,53.22,0,0,0-2.83,8.87c-.11-1.53.16-3.07.2-4.61,0-.72,0-3.64-1-3.83s-1.41,1.54-1.49,2.15a14.2,14.2,0,0,0,.67,4.74c.13.53.82,2,1.25,3.17a57.14,57.14,0,0,0-.95,7.37c-.11-.29-.23-.58-.33-.87a41,41,0,0,1-1-4.68c-.16-.7-.86-3.55-1.89-3.48s-1,1.84-.9,2.46a14.43,14.43,0,0,0,1.83,4.44c.28.54,1.54,2,2.23,3.11-.09,1.9-.09,3.79,0,5.68-.5-1.33-.75-2.74-1.18-4.09-.21-.69-1.13-3.47-2.15-3.32s-.84,1.91-.71,2.52a14.44,14.44,0,0,0,2.18,4.28c.26.42,1.21,1.41,2,2.32.26,3.55-2.09,7.67-1.22,11.11C304.35,357.1,307,353.38,306.9,350.26Z" transform="translate(-25 -52.1)"/><path class="cls-3" d="M276.73,368.54c.08,0-2.25-6.46,5.13-16,7.41-10,28.65-16,29.09-23.51.39-8-12.19-2-19.61-5.32s-10.26-5.24-2.9-9.44,11.89-6.3,9.71-12.8,11.77-7.7,16.65-14.67c5.08-7-.72-12.28-13.25-7.71-12.21,4.79-13.34,2.89-10.39-.22s12.68-10,6.95-11.81-11.77,3.48-9.5-2,9.88-11.43,4.11-14.66-16.54.77-18.68,15-2.93,18.21-8.48,21.53c-5.37,3.32-13-1.16-19.34,3.83s-2.61,11.45,3.16,14.58,16.17,9.7,13.09,15.2c-2.89,5.48-10.06,1.2-16.64,2.18-7.3,1.1-13.19,9.61-3.55,16.91,9.84,7.08,22.67,11,30,32.44C273.78,370.88,275.24,369.69,276.73,368.54Z" transform="translate(-25 -52.1)"/><g class="cls-5"><path class="cls-6" d="M274.34,370.88a.39.39,0,0,0,.32-.42c-8-80.13,12.4-117.24,12.61-117.61a.39.39,0,1,0-.68-.38c-.21.37-20.73,37.69-12.71,118.07a.39.39,0,0,0,.43.35Z" transform="translate(-25 -52.1)"/></g><g class="cls-5"><path class="cls-6" d="M277.42,282.53a.36.36,0,0,0,.23-.13c7.41-9.21,18.42-12.71,18.53-12.74a.39.39,0,1,0-.23-.75c-.11,0-11.34,3.6-18.91,13a.39.39,0,0,0,.06.55A.37.37,0,0,0,277.42,282.53Z" transform="translate(-25 -52.1)"/></g><g class="cls-5"><path class="cls-6" d="M273.68,307.69a.39.39,0,0,0,.13-.71A154.73,154.73,0,0,0,247.26,294a.39.39,0,0,0-.27.74,152.73,152.73,0,0,1,26.4,12.86A.37.37,0,0,0,273.68,307.69Z" transform="translate(-25 -52.1)"/></g><g class="cls-5"><path class="cls-6" d="M274.26,302.19a.56.56,0,0,0,.16-.07c15.41-12,34.8-17.88,35-17.93a.4.4,0,0,0,.27-.49.39.39,0,0,0-.49-.26c-.2.06-19.72,6-35.25,18.06a.39.39,0,0,0,.32.69Z" transform="translate(-25 -52.1)"/></g><g class="cls-5"><path class="cls-6" d="M272.64,345.36a.37.37,0,0,0,.18-.08c10.32-9,30.17-15.66,30.37-15.73a.39.39,0,0,0-.24-.74c-.2.07-20.2,6.76-30.64,15.88a.39.39,0,0,0,0,.55A.38.38,0,0,0,272.64,345.36Z" transform="translate(-25 -52.1)"/></g><g class="cls-5"><path class="cls-6" d="M272.87,351A.3.3,0,0,0,273,351a.38.38,0,0,0,.08-.54c-9.85-13.27-27.67-20.74-27.85-20.81a.39.39,0,0,0-.3.72c.18.07,17.81,7.46,27.53,20.55A.38.38,0,0,0,272.87,351Z" transform="translate(-25 -52.1)"/></g><path class="cls-8" d="M278.9,348.11s-.7-28.13,21.46-30.71,14.16,29.4,4.66,39.88c0,0,12.31-14.49,20.51-4.71s-14.82,21-14.82,21,18.42-6.25,23.52-2c6.59,5.46-5.89,13.4-5.89,13.4s19.92-7.94,15.75,6.2l-94.74-.27Z" transform="translate(-25 -52.1)"/><path class="cls-9" d="M152.94,390.23v5.56c0,1.93-10.31,3.5-23,3.5s-23-1.57-23-3.5v-5.56Z" transform="translate(-25 -52.1)"/><g class="cls-10"><rect class="cls-11" x="126.35" y="335.81" width="1.09" height="12.76"/><rect class="cls-11" x="123.52" y="335.81" width="1.09" height="12.76"/><rect class="cls-11" x="120.29" y="335.81" width="1.09" height="12.76"/><rect class="cls-11" x="116.27" y="335.81" width="1.09" height="12.76"/><rect class="cls-11" x="111.84" y="335.81" width="1.09" height="12.76"/><rect class="cls-11" x="107.02" y="335.81" width="1.09" height="12.76"/><rect class="cls-11" x="82.4" y="335.81" width="1.09" height="12.76"/><rect class="cls-11" x="85.23" y="335.81" width="1.09" height="12.76"/><rect class="cls-11" x="88.46" y="335.81" width="1.09" height="12.76"/><rect class="cls-11" x="92.48" y="335.81" width="1.09" height="12.76"/><rect class="cls-11" x="96.91" y="335.81" width="1.09" height="12.76"/><rect class="cls-11" x="101.73" y="335.81" width="1.09" height="12.76"/></g><path class="cls-12" d="M106.9,390.12c0,1.93,10.31,3.5,23,3.5s23-1.57,23-3.5-10.31-3.49-23-3.49S106.9,388.19,106.9,390.12Z" transform="translate(-25 -52.1)"/><path class="cls-9" d="M111.62,389.75c0,.9,8.19,1.63,18.3,1.63s18.3-.73,18.3-1.63-8.19-1.62-18.3-1.62S111.62,388.86,111.62,389.75Z" transform="translate(-25 -52.1)"/><path class="cls-11" d="M147.43,390.23c-2.28-.67-9.25-1.15-17.51-1.15s-15.23.48-17.51,1.15c-.51-.15-.79-.31-.79-.48,0-.89,8.19-1.62,18.3-1.62s18.3.73,18.3,1.62C148.22,389.92,147.94,390.08,147.43,390.23Z" transform="translate(-25 -52.1)"/><path class="cls-9" d="M156.27,383.94v5.57c0,1.93-10.3,3.49-23,3.49s-23-1.56-23-3.49v-5.57Z" transform="translate(-25 -52.1)"/><g class="cls-13"><rect class="cls-11" x="129.68" y="329.52" width="1.09" height="12.76"/><rect class="cls-11" x="126.85" y="329.52" width="1.09" height="12.76"/><rect class="cls-11" x="123.63" y="329.52" width="1.09" height="12.76"/><rect class="cls-11" x="119.6" y="329.52" width="1.09" height="12.76"/><rect class="cls-11" x="115.18" y="329.52" width="1.09" height="12.76"/><rect class="cls-11" x="110.35" y="329.52" width="1.09" height="12.76"/><rect class="cls-11" x="85.74" y="329.52" width="1.09" height="12.76"/><rect class="cls-11" x="88.56" y="329.52" width="1.09" height="12.76"/><rect class="cls-11" x="91.79" y="329.52" width="1.09" height="12.76"/><rect class="cls-11" x="95.82" y="329.52" width="1.09" height="12.76"/><rect class="cls-11" x="100.24" y="329.52" width="1.09" height="12.76"/><rect class="cls-11" x="105.07" y="329.52" width="1.09" height="12.76"/></g><path class="cls-12" d="M110.23,383.83c0,1.93,10.31,3.5,23,3.5s23-1.57,23-3.5-10.3-3.49-23-3.49S110.23,381.9,110.23,383.83Z" transform="translate(-25 -52.1)"/><path class="cls-9" d="M115,383.47c0,.89,8.2,1.62,18.3,1.62s18.3-.73,18.3-1.62-8.19-1.63-18.3-1.63S115,382.57,115,383.47Z" transform="translate(-25 -52.1)"/><path class="cls-11" d="M150.76,383.94c-2.27-.67-9.25-1.15-17.51-1.15s-15.23.48-17.51,1.15c-.51-.15-.79-.31-.79-.47,0-.9,8.2-1.63,18.3-1.63s18.3.73,18.3,1.63C151.55,383.63,151.28,383.79,150.76,383.94Z" transform="translate(-25 -52.1)"/><path class="cls-9" d="M152.53,377.61v5.56c0,1.93-10.3,3.5-23,3.5s-23-1.57-23-3.5v-5.56Z" transform="translate(-25 -52.1)"/><g class="cls-14"><rect class="cls-11" x="125.94" y="323.19" width="1.09" height="12.76"/><rect class="cls-11" x="123.11" y="323.19" width="1.09" height="12.76"/><rect class="cls-11" x="119.89" y="323.19" width="1.09" height="12.76"/><rect class="cls-11" x="115.86" y="323.19" width="1.09" height="12.76"/><rect class="cls-11" x="111.44" y="323.19" width="1.09" height="12.76"/><rect class="cls-11" x="106.61" y="323.19" width="1.09" height="12.76"/><rect class="cls-11" x="82" y="323.19" width="1.09" height="12.76"/><rect class="cls-11" x="84.82" y="323.19" width="1.09" height="12.76"/><rect class="cls-11" x="88.05" y="323.19" width="1.09" height="12.76"/><rect class="cls-11" x="92.08" y="323.19" width="1.09" height="12.76"/><rect class="cls-11" x="96.5" y="323.19" width="1.09" height="12.76"/><rect class="cls-11" x="101.33" y="323.19" width="1.09" height="12.76"/></g><path class="cls-12" d="M106.49,377.5c0,1.93,10.31,3.5,23,3.5s23-1.57,23-3.5-10.3-3.49-23-3.49S106.49,375.57,106.49,377.5Z" transform="translate(-25 -52.1)"/><path class="cls-9" d="M111.21,377.14c0,.89,8.2,1.62,18.3,1.62s18.3-.73,18.3-1.62-8.19-1.63-18.3-1.63S111.21,376.24,111.21,377.14Z" transform="translate(-25 -52.1)"/><path class="cls-11" d="M147,377.61c-2.27-.67-9.25-1.15-17.51-1.15s-15.23.48-17.51,1.15c-.51-.15-.79-.31-.79-.47,0-.9,8.2-1.63,18.3-1.63s18.3.73,18.3,1.63C147.81,377.3,147.54,377.46,147,377.61Z" transform="translate(-25 -52.1)"/><path class="cls-9" d="M332.34,382.1v5.57c0,1.93-10.31,3.49-23,3.49s-23-1.56-23-3.49V382.1Z" transform="translate(-25 -52.1)"/><g class="cls-15"><rect class="cls-11" x="305.75" y="327.68" width="1.09" height="12.76"/><rect class="cls-11" x="302.92" y="327.68" width="1.09" height="12.76"/><rect class="cls-11" x="299.7" y="327.68" width="1.09" height="12.76"/><rect class="cls-11" x="295.67" y="327.68" width="1.09" height="12.76"/><rect class="cls-11" x="291.24" y="327.68" width="1.09" height="12.76"/><rect class="cls-11" x="286.42" y="327.68" width="1.09" height="12.76"/><rect class="cls-11" x="261.81" y="327.68" width="1.09" height="12.76"/><rect class="cls-11" x="264.63" y="327.68" width="1.09" height="12.76"/><rect class="cls-11" x="267.86" y="327.68" width="1.09" height="12.76"/><rect class="cls-11" x="271.88" y="327.68" width="1.09" height="12.76"/><rect class="cls-11" x="276.31" y="327.68" width="1.09" height="12.76"/><rect class="cls-11" x="281.13" y="327.68" width="1.09" height="12.76"/></g><path class="cls-12" d="M286.3,382c0,1.93,10.31,3.49,23,3.49s23-1.56,23-3.49-10.31-3.5-23-3.5S286.3,380.07,286.3,382Z" transform="translate(-25 -52.1)"/><ellipse class="cls-9" cx="284.32" cy="329.53" rx="18.3" ry="1.62"/><path class="cls-11" d="M326.83,382.1c-2.28-.66-9.25-1.15-17.51-1.15s-15.23.49-17.51,1.15c-.51-.15-.79-.31-.79-.47,0-.9,8.2-1.62,18.3-1.62s18.3.72,18.3,1.62C327.62,381.79,327.34,382,326.83,382.1Z" transform="translate(-25 -52.1)"/><path class="cls-9" d="M335.67,375.81v5.57c0,1.93-10.3,3.5-23,3.5s-23-1.57-23-3.5v-5.57Z" transform="translate(-25 -52.1)"/><g class="cls-16"><rect class="cls-11" x="309.08" y="321.4" width="1.09" height="12.76"/><rect class="cls-11" x="306.25" y="321.4" width="1.09" height="12.76"/><rect class="cls-11" x="303.03" y="321.4" width="1.09" height="12.76"/><rect class="cls-11" x="299" y="321.4" width="1.09" height="12.76"/><rect class="cls-11" x="294.58" y="321.4" width="1.09" height="12.76"/><rect class="cls-11" x="289.75" y="321.4" width="1.09" height="12.76"/><rect class="cls-11" x="265.14" y="321.4" width="1.09" height="12.76"/><rect class="cls-11" x="267.97" y="321.4" width="1.09" height="12.76"/><rect class="cls-11" x="271.19" y="321.4" width="1.09" height="12.76"/><rect class="cls-11" x="275.22" y="321.4" width="1.09" height="12.76"/><rect class="cls-11" x="279.64" y="321.4" width="1.09" height="12.76"/><rect class="cls-11" x="284.47" y="321.4" width="1.09" height="12.76"/></g><path class="cls-12" d="M289.64,375.71c0,1.93,10.3,3.49,23,3.49s23-1.56,23-3.49-10.3-3.5-23-3.5S289.64,373.78,289.64,375.71Z" transform="translate(-25 -52.1)"/><path class="cls-9" d="M294.36,375.34c0,.9,8.19,1.62,18.3,1.62s18.29-.72,18.29-1.62-8.19-1.62-18.29-1.62S294.36,374.45,294.36,375.34Z" transform="translate(-25 -52.1)"/><path class="cls-11" d="M330.17,375.81c-2.28-.66-9.26-1.15-17.51-1.15s-15.24.49-17.52,1.15c-.51-.15-.78-.3-.78-.47,0-.89,8.19-1.62,18.3-1.62s18.29.73,18.29,1.62C331,375.51,330.68,375.66,330.17,375.81Z" transform="translate(-25 -52.1)"/><path class="cls-9" d="M331.93,369.48v5.57c0,1.93-10.3,3.49-23,3.49s-23-1.56-23-3.49v-5.57Z" transform="translate(-25 -52.1)"/><g class="cls-17"><rect class="cls-11" x="305.34" y="315.07" width="1.09" height="12.76"/><rect class="cls-11" x="302.51" y="315.07" width="1.09" height="12.76"/><rect class="cls-11" x="299.29" y="315.07" width="1.09" height="12.76"/><rect class="cls-11" x="295.26" y="315.07" width="1.09" height="12.76"/><rect class="cls-11" x="290.84" y="315.07" width="1.09" height="12.76"/><rect class="cls-11" x="286.01" y="315.07" width="1.09" height="12.76"/><rect class="cls-11" x="261.4" y="315.07" width="1.09" height="12.76"/><rect class="cls-11" x="264.23" y="315.07" width="1.09" height="12.76"/><rect class="cls-11" x="267.45" y="315.07" width="1.09" height="12.76"/><rect class="cls-11" x="271.48" y="315.07" width="1.09" height="12.76"/><rect class="cls-11" x="275.9" y="315.07" width="1.09" height="12.76"/><rect class="cls-11" x="280.73" y="315.07" width="1.09" height="12.76"/></g><path class="cls-12" d="M285.9,369.38c0,1.93,10.3,3.49,23,3.49s23-1.56,23-3.49-10.3-3.5-23-3.5S285.9,367.45,285.9,369.38Z" transform="translate(-25 -52.1)"/><path class="cls-9" d="M290.62,369c0,.9,8.19,1.62,18.3,1.62s18.29-.72,18.29-1.62-8.19-1.62-18.29-1.62S290.62,368.11,290.62,369Z" transform="translate(-25 -52.1)"/><path class="cls-11" d="M326.43,369.48c-2.28-.66-9.26-1.15-17.51-1.15s-15.24.49-17.52,1.15c-.51-.15-.78-.31-.78-.47,0-.9,8.19-1.62,18.3-1.62s18.29.72,18.29,1.62C327.21,369.17,326.94,369.33,326.43,369.48Z" transform="translate(-25 -52.1)"/><path class="cls-9" d="M330.31,363.07v5.57c0,1.93-10.3,3.49-23,3.49s-23-1.56-23-3.49v-5.57Z" transform="translate(-25 -52.1)"/><g class="cls-18"><rect class="cls-11" x="303.72" y="308.65" width="1.09" height="12.76"/><rect class="cls-11" x="300.89" y="308.65" width="1.09" height="12.76"/><rect class="cls-11" x="297.67" y="308.65" width="1.09" height="12.76"/><rect class="cls-11" x="293.64" y="308.65" width="1.09" height="12.76"/><rect class="cls-11" x="289.22" y="308.65" width="1.09" height="12.76"/><rect class="cls-11" x="284.39" y="308.65" width="1.09" height="12.76"/><rect class="cls-11" x="259.78" y="308.65" width="1.09" height="12.76"/><rect class="cls-11" x="262.61" y="308.65" width="1.09" height="12.76"/><rect class="cls-11" x="265.83" y="308.65" width="1.09" height="12.76"/><rect class="cls-11" x="269.86" y="308.65" width="1.09" height="12.76"/><rect class="cls-11" x="274.28" y="308.65" width="1.09" height="12.76"/><rect class="cls-11" x="279.11" y="308.65" width="1.09" height="12.76"/></g><path class="cls-12" d="M284.28,363c0,1.93,10.3,3.49,23,3.49s23-1.56,23-3.49-10.3-3.5-23-3.5S284.28,361,284.28,363Z" transform="translate(-25 -52.1)"/><path class="cls-9" d="M289,362.6c0,.9,8.19,1.62,18.3,1.62s18.3-.72,18.3-1.62S317.4,361,307.3,361,289,361.7,289,362.6Z" transform="translate(-25 -52.1)"/><path class="cls-11" d="M324.81,363.07c-2.28-.66-9.26-1.15-17.51-1.15s-15.24.49-17.52,1.15c-.51-.15-.78-.31-.78-.47,0-.9,8.19-1.62,18.3-1.62s18.3.72,18.3,1.62C325.6,362.76,325.32,362.92,324.81,363.07Z" transform="translate(-25 -52.1)"/><path class="cls-9" d="M335.81,356.74v5.57c0,1.93-10.31,3.5-23,3.5s-23-1.57-23-3.5v-5.57Z" transform="translate(-25 -52.1)"/><g class="cls-19"><rect class="cls-11" x="309.21" y="302.33" width="1.09" height="12.76"/><rect class="cls-11" x="306.39" y="302.33" width="1.09" height="12.76"/><rect class="cls-11" x="303.16" y="302.33" width="1.09" height="12.76"/><rect class="cls-11" x="299.14" y="302.33" width="1.09" height="12.76"/><rect class="cls-11" x="294.71" y="302.33" width="1.09" height="12.76"/><rect class="cls-11" x="289.89" y="302.33" width="1.09" height="12.76"/><rect class="cls-11" x="265.27" y="302.33" width="1.09" height="12.76"/><rect class="cls-11" x="268.1" y="302.33" width="1.09" height="12.76"/><rect class="cls-11" x="271.33" y="302.33" width="1.09" height="12.76"/><rect class="cls-11" x="275.35" y="302.33" width="1.09" height="12.76"/><rect class="cls-11" x="279.78" y="302.33" width="1.09" height="12.76"/><rect class="cls-11" x="284.6" y="302.33" width="1.09" height="12.76"/></g><path class="cls-12" d="M289.77,356.64c0,1.93,10.31,3.49,23,3.49s23-1.56,23-3.49-10.31-3.5-23-3.5S289.77,354.71,289.77,356.64Z" transform="translate(-25 -52.1)"/><path class="cls-9" d="M294.49,356.27c0,.9,8.19,1.62,18.3,1.62s18.3-.72,18.3-1.62-8.19-1.62-18.3-1.62S294.49,355.38,294.49,356.27Z" transform="translate(-25 -52.1)"/><path class="cls-11" d="M330.3,356.74c-2.28-.66-9.26-1.15-17.51-1.15s-15.23.49-17.51,1.15c-.51-.15-.79-.3-.79-.47,0-.89,8.19-1.62,18.3-1.62s18.3.73,18.3,1.62C331.09,356.44,330.81,356.59,330.3,356.74Z" transform="translate(-25 -52.1)"/><path class="cls-9" d="M331.37,350.41V356c0,1.93-10.31,3.49-23,3.49s-23-1.56-23-3.49v-5.57Z" transform="translate(-25 -52.1)"/><g class="cls-20"><rect class="cls-11" x="304.77" y="296" width="1.09" height="12.76"/><rect class="cls-11" x="301.95" y="296" width="1.09" height="12.76"/><rect class="cls-11" x="298.72" y="296" width="1.09" height="12.76"/><rect class="cls-11" x="294.7" y="296" width="1.09" height="12.76"/><rect class="cls-11" x="290.27" y="296" width="1.09" height="12.76"/><rect class="cls-11" x="285.45" y="296" width="1.09" height="12.76"/><rect class="cls-11" x="260.83" y="296" width="1.09" height="12.76"/><rect class="cls-11" x="263.66" y="296" width="1.09" height="12.76"/><rect class="cls-11" x="266.88" y="296" width="1.09" height="12.76"/><rect class="cls-11" x="270.91" y="296" width="1.09" height="12.76"/><rect class="cls-11" x="275.33" y="296" width="1.09" height="12.76"/><rect class="cls-11" x="280.16" y="296" width="1.09" height="12.76"/></g><path class="cls-12" d="M285.33,350.31c0,1.93,10.3,3.49,23,3.49s23-1.56,23-3.49-10.31-3.5-23-3.5S285.33,348.38,285.33,350.31Z" transform="translate(-25 -52.1)"/><ellipse class="cls-9" cx="283.35" cy="297.84" rx="18.3" ry="1.62"/><path class="cls-11" d="M325.86,350.41c-2.28-.66-9.26-1.15-17.51-1.15s-15.23.49-17.51,1.15c-.51-.15-.79-.3-.79-.47,0-.89,8.19-1.62,18.3-1.62s18.3.73,18.3,1.62C326.65,350.11,326.37,350.26,325.86,350.41Z" transform="translate(-25 -52.1)"/><path class="cls-9" d="M335.35,344.08v5.57c0,1.93-10.3,3.49-23,3.49s-23-1.56-23-3.49v-5.57Z" transform="translate(-25 -52.1)"/><g class="cls-21"><rect class="cls-11" x="308.76" y="289.67" width="1.09" height="12.76"/><rect class="cls-11" x="305.93" y="289.67" width="1.09" height="12.76"/><rect class="cls-11" x="302.71" y="289.67" width="1.09" height="12.76"/><rect class="cls-11" x="298.68" y="289.67" width="1.09" height="12.76"/><rect class="cls-11" x="294.26" y="289.67" width="1.09" height="12.76"/><rect class="cls-11" x="289.43" y="289.67" width="1.09" height="12.76"/><rect class="cls-11" x="264.82" y="289.67" width="1.09" height="12.76"/><rect class="cls-11" x="267.64" y="289.67" width="1.09" height="12.76"/><rect class="cls-11" x="270.87" y="289.67" width="1.09" height="12.76"/><rect class="cls-11" x="274.9" y="289.67" width="1.09" height="12.76"/><rect class="cls-11" x="279.32" y="289.67" width="1.09" height="12.76"/><rect class="cls-11" x="284.15" y="289.67" width="1.09" height="12.76"/></g><path class="cls-12" d="M289.32,344c0,1.93,10.3,3.49,23,3.49s23-1.56,23-3.49-10.3-3.5-23-3.5S289.32,342.05,289.32,344Z" transform="translate(-25 -52.1)"/><path class="cls-9" d="M294,343.61c0,.9,8.2,1.62,18.3,1.62s18.3-.72,18.3-1.62-8.19-1.62-18.3-1.62S294,342.71,294,343.61Z" transform="translate(-25 -52.1)"/><path class="cls-11" d="M329.85,344.08c-2.28-.66-9.26-1.15-17.52-1.15s-15.23.49-17.51,1.15c-.51-.15-.79-.31-.79-.47,0-.9,8.2-1.62,18.3-1.62s18.3.72,18.3,1.62C330.63,343.77,330.36,343.93,329.85,344.08Z" transform="translate(-25 -52.1)"/><g class="cls-22"><path d="M332.34,382.1v5.57c0,1.93-10.31,3.49-23,3.49s-23-1.56-23-3.49V382.1Z" transform="translate(-25 -52.1)"/><path d="M332.34,382.1v5.57c0,1.93-10.31,3.49-23,3.49s-23-1.56-23-3.49V382.1Z" transform="translate(-25 -52.1)"/><g class="cls-23"><rect x="305.75" y="327.68" width="1.09" height="12.76"/><rect x="302.92" y="327.68" width="1.09" height="12.76"/><rect x="299.7" y="327.68" width="1.09" height="12.76"/><rect x="295.67" y="327.68" width="1.09" height="12.76"/><rect x="291.24" y="327.68" width="1.09" height="12.76"/><rect x="286.42" y="327.68" width="1.09" height="12.76"/><rect x="261.81" y="327.68" width="1.09" height="12.76"/><rect x="264.63" y="327.68" width="1.09" height="12.76"/><rect x="267.86" y="327.68" width="1.09" height="12.76"/><rect x="271.88" y="327.68" width="1.09" height="12.76"/><rect x="276.31" y="327.68" width="1.09" height="12.76"/><rect x="281.13" y="327.68" width="1.09" height="12.76"/></g><path d="M286.3,382c0,1.93,10.31,3.49,23,3.49s23-1.56,23-3.49-10.31-3.5-23-3.5S286.3,380.07,286.3,382Z" transform="translate(-25 -52.1)"/><ellipse cx="284.32" cy="329.53" rx="18.3" ry="1.62"/><path d="M326.83,382.1c-2.28-.66-9.25-1.15-17.51-1.15s-15.23.49-17.51,1.15c-.51-.15-.79-.31-.79-.47,0-.9,8.2-1.62,18.3-1.62s18.3.72,18.3,1.62C327.62,381.79,327.34,382,326.83,382.1Z" transform="translate(-25 -52.1)"/><path d="M335.67,375.81v5.57c0,1.93-10.3,3.5-23,3.5s-23-1.57-23-3.5v-5.57Z" transform="translate(-25 -52.1)"/><path d="M335.67,375.81v5.57c0,1.93-10.3,3.5-23,3.5s-23-1.57-23-3.5v-5.57Z" transform="translate(-25 -52.1)"/><g class="cls-24"><rect x="309.08" y="321.4" width="1.09" height="12.76"/><rect x="306.25" y="321.4" width="1.09" height="12.76"/><rect x="303.03" y="321.4" width="1.09" height="12.76"/><rect x="299" y="321.4" width="1.09" height="12.76"/><rect x="294.58" y="321.4" width="1.09" height="12.76"/><rect x="289.75" y="321.4" width="1.09" height="12.76"/><rect x="265.14" y="321.4" width="1.09" height="12.76"/><rect x="267.97" y="321.4" width="1.09" height="12.76"/><rect x="271.19" y="321.4" width="1.09" height="12.76"/><rect x="275.22" y="321.4" width="1.09" height="12.76"/><rect x="279.64" y="321.4" width="1.09" height="12.76"/><rect x="284.47" y="321.4" width="1.09" height="12.76"/></g><path d="M289.64,375.71c0,1.93,10.3,3.49,23,3.49s23-1.56,23-3.49-10.3-3.5-23-3.5S289.64,373.78,289.64,375.71Z" transform="translate(-25 -52.1)"/><path d="M294.36,375.34c0,.9,8.19,1.62,18.3,1.62s18.29-.72,18.29-1.62-8.19-1.62-18.29-1.62S294.36,374.45,294.36,375.34Z" transform="translate(-25 -52.1)"/><path d="M330.17,375.81c-2.28-.66-9.26-1.15-17.51-1.15s-15.24.49-17.52,1.15c-.51-.15-.78-.3-.78-.47,0-.89,8.19-1.62,18.3-1.62s18.29.73,18.29,1.62C331,375.51,330.68,375.66,330.17,375.81Z" transform="translate(-25 -52.1)"/><path d="M331.93,369.48v5.57c0,1.93-10.3,3.49-23,3.49s-23-1.56-23-3.49v-5.57Z" transform="translate(-25 -52.1)"/><path d="M331.93,369.48v5.57c0,1.93-10.3,3.49-23,3.49s-23-1.56-23-3.49v-5.57Z" transform="translate(-25 -52.1)"/><g class="cls-25"><rect x="305.34" y="315.07" width="1.09" height="12.76"/><rect x="302.51" y="315.07" width="1.09" height="12.76"/><rect x="299.29" y="315.07" width="1.09" height="12.76"/><rect x="295.26" y="315.07" width="1.09" height="12.76"/><rect x="290.84" y="315.07" width="1.09" height="12.76"/><rect x="286.01" y="315.07" width="1.09" height="12.76"/><rect x="261.4" y="315.07" width="1.09" height="12.76"/><rect x="264.23" y="315.07" width="1.09" height="12.76"/><rect x="267.45" y="315.07" width="1.09" height="12.76"/><rect x="271.48" y="315.07" width="1.09" height="12.76"/><rect x="275.9" y="315.07" width="1.09" height="12.76"/><rect x="280.73" y="315.07" width="1.09" height="12.76"/></g><path d="M285.9,369.38c0,1.93,10.3,3.49,23,3.49s23-1.56,23-3.49-10.3-3.5-23-3.5S285.9,367.45,285.9,369.38Z" transform="translate(-25 -52.1)"/><path d="M290.62,369c0,.9,8.19,1.62,18.3,1.62s18.29-.72,18.29-1.62-8.19-1.62-18.29-1.62S290.62,368.11,290.62,369Z" transform="translate(-25 -52.1)"/><path d="M326.43,369.48c-2.28-.66-9.26-1.15-17.51-1.15s-15.24.49-17.52,1.15c-.51-.15-.78-.31-.78-.47,0-.9,8.19-1.62,18.3-1.62s18.29.72,18.29,1.62C327.21,369.17,326.94,369.33,326.43,369.48Z" transform="translate(-25 -52.1)"/><path d="M330.31,363.07v5.57c0,1.93-10.3,3.49-23,3.49s-23-1.56-23-3.49v-5.57Z" transform="translate(-25 -52.1)"/><path d="M330.31,363.07v5.57c0,1.93-10.3,3.49-23,3.49s-23-1.56-23-3.49v-5.57Z" transform="translate(-25 -52.1)"/><g class="cls-26"><rect x="303.72" y="308.65" width="1.09" height="12.76"/><rect x="300.89" y="308.65" width="1.09" height="12.76"/><rect x="297.67" y="308.65" width="1.09" height="12.76"/><rect x="293.64" y="308.65" width="1.09" height="12.76"/><rect x="289.22" y="308.65" width="1.09" height="12.76"/><rect x="284.39" y="308.65" width="1.09" height="12.76"/><rect x="259.78" y="308.65" width="1.09" height="12.76"/><rect x="262.61" y="308.65" width="1.09" height="12.76"/><rect x="265.83" y="308.65" width="1.09" height="12.76"/><rect x="269.86" y="308.65" width="1.09" height="12.76"/><rect x="274.28" y="308.65" width="1.09" height="12.76"/><rect x="279.11" y="308.65" width="1.09" height="12.76"/></g><path d="M284.28,363c0,1.93,10.3,3.49,23,3.49s23-1.56,23-3.49-10.3-3.5-23-3.5S284.28,361,284.28,363Z" transform="translate(-25 -52.1)"/><path d="M289,362.6c0,.9,8.19,1.62,18.3,1.62s18.3-.72,18.3-1.62S317.4,361,307.3,361,289,361.7,289,362.6Z" transform="translate(-25 -52.1)"/><path d="M324.81,363.07c-2.28-.66-9.26-1.15-17.51-1.15s-15.24.49-17.52,1.15c-.51-.15-.78-.31-.78-.47,0-.9,8.19-1.62,18.3-1.62s18.3.72,18.3,1.62C325.6,362.76,325.32,362.92,324.81,363.07Z" transform="translate(-25 -52.1)"/><path d="M335.81,356.74v5.57c0,1.93-10.31,3.5-23,3.5s-23-1.57-23-3.5v-5.57Z" transform="translate(-25 -52.1)"/><path d="M335.81,356.74v5.57c0,1.93-10.31,3.5-23,3.5s-23-1.57-23-3.5v-5.57Z" transform="translate(-25 -52.1)"/><g class="cls-27"><rect x="309.21" y="302.33" width="1.09" height="12.76"/><rect x="306.39" y="302.33" width="1.09" height="12.76"/><rect x="303.16" y="302.33" width="1.09" height="12.76"/><rect x="299.14" y="302.33" width="1.09" height="12.76"/><rect x="294.71" y="302.33" width="1.09" height="12.76"/><rect x="289.89" y="302.33" width="1.09" height="12.76"/><rect x="265.27" y="302.33" width="1.09" height="12.76"/><rect x="268.1" y="302.33" width="1.09" height="12.76"/><rect x="271.33" y="302.33" width="1.09" height="12.76"/><rect x="275.35" y="302.33" width="1.09" height="12.76"/><rect x="279.78" y="302.33" width="1.09" height="12.76"/><rect x="284.6" y="302.33" width="1.09" height="12.76"/></g><path d="M289.77,356.64c0,1.93,10.31,3.49,23,3.49s23-1.56,23-3.49-10.31-3.5-23-3.5S289.77,354.71,289.77,356.64Z" transform="translate(-25 -52.1)"/><path d="M294.49,356.27c0,.9,8.19,1.62,18.3,1.62s18.3-.72,18.3-1.62-8.19-1.62-18.3-1.62S294.49,355.38,294.49,356.27Z" transform="translate(-25 -52.1)"/><path d="M330.3,356.74c-2.28-.66-9.26-1.15-17.51-1.15s-15.23.49-17.51,1.15c-.51-.15-.79-.3-.79-.47,0-.89,8.19-1.62,18.3-1.62s18.3.73,18.3,1.62C331.09,356.44,330.81,356.59,330.3,356.74Z" transform="translate(-25 -52.1)"/><path d="M331.37,350.41V356c0,1.93-10.31,3.49-23,3.49s-23-1.56-23-3.49v-5.57Z" transform="translate(-25 -52.1)"/><path d="M331.37,350.41V356c0,1.93-10.31,3.49-23,3.49s-23-1.56-23-3.49v-5.57Z" transform="translate(-25 -52.1)"/><g class="cls-28"><rect x="304.77" y="296" width="1.09" height="12.76"/><rect x="301.95" y="296" width="1.09" height="12.76"/><rect x="298.72" y="296" width="1.09" height="12.76"/><rect x="294.7" y="296" width="1.09" height="12.76"/><rect x="290.27" y="296" width="1.09" height="12.76"/><rect x="285.45" y="296" width="1.09" height="12.76"/><rect x="260.83" y="296" width="1.09" height="12.76"/><rect x="263.66" y="296" width="1.09" height="12.76"/><rect x="266.88" y="296" width="1.09" height="12.76"/><rect x="270.91" y="296" width="1.09" height="12.76"/><rect x="275.33" y="296" width="1.09" height="12.76"/><rect x="280.16" y="296" width="1.09" height="12.76"/></g><path d="M285.33,350.31c0,1.93,10.3,3.49,23,3.49s23-1.56,23-3.49-10.31-3.5-23-3.5S285.33,348.38,285.33,350.31Z" transform="translate(-25 -52.1)"/><ellipse cx="283.35" cy="297.84" rx="18.3" ry="1.62"/><path d="M325.86,350.41c-2.28-.66-9.26-1.15-17.51-1.15s-15.23.49-17.51,1.15c-.51-.15-.79-.3-.79-.47,0-.89,8.19-1.62,18.3-1.62s18.3.73,18.3,1.62C326.65,350.11,326.37,350.26,325.86,350.41Z" transform="translate(-25 -52.1)"/><path d="M335.35,344.08v5.57c0,1.93-10.3,3.49-23,3.49s-23-1.56-23-3.49v-5.57Z" transform="translate(-25 -52.1)"/><path d="M335.35,344.08v5.57c0,1.93-10.3,3.49-23,3.49s-23-1.56-23-3.49v-5.57Z" transform="translate(-25 -52.1)"/><g class="cls-29"><rect x="308.76" y="289.67" width="1.09" height="12.76"/><rect x="305.93" y="289.67" width="1.09" height="12.76"/><rect x="302.71" y="289.67" width="1.09" height="12.76"/><rect x="298.68" y="289.67" width="1.09" height="12.76"/><rect x="294.26" y="289.67" width="1.09" height="12.76"/><rect x="289.43" y="289.67" width="1.09" height="12.76"/><rect x="264.82" y="289.67" width="1.09" height="12.76"/><rect x="267.64" y="289.67" width="1.09" height="12.76"/><rect x="270.87" y="289.67" width="1.09" height="12.76"/><rect x="274.9" y="289.67" width="1.09" height="12.76"/><rect x="279.32" y="289.67" width="1.09" height="12.76"/><rect x="284.15" y="289.67" width="1.09" height="12.76"/></g><path d="M289.32,344c0,1.93,10.3,3.49,23,3.49s23-1.56,23-3.49-10.3-3.5-23-3.5S289.32,342.05,289.32,344Z" transform="translate(-25 -52.1)"/><path d="M294,343.61c0,.9,8.2,1.62,18.3,1.62s18.3-.72,18.3-1.62-8.19-1.62-18.3-1.62S294,342.71,294,343.61Z" transform="translate(-25 -52.1)"/><path d="M329.85,344.08c-2.28-.66-9.26-1.15-17.52-1.15s-15.23.49-17.51,1.15c-.51-.15-.79-.31-.79-.47,0-.9,8.2-1.62,18.3-1.62s18.3.72,18.3,1.62C330.63,343.77,330.36,343.93,329.85,344.08Z" transform="translate(-25 -52.1)"/></g><path class="cls-30" d="M312.49,385.15v5.57c0,1.93,10.3,3.49,23,3.49s23-1.56,23-3.49v-5.57Z" transform="translate(-25 -52.1)"/><g class="cls-31"><rect class="cls-11" x="287.99" y="330.73" width="1.09" height="12.76"/><rect class="cls-11" x="290.82" y="330.73" width="1.09" height="12.76"/><rect class="cls-11" x="294.04" y="330.73" width="1.09" height="12.76"/><rect class="cls-11" x="298.07" y="330.73" width="1.09" height="12.76"/><rect class="cls-11" x="302.49" y="330.73" width="1.09" height="12.76"/><rect class="cls-11" x="307.32" y="330.73" width="1.09" height="12.76"/><rect class="cls-11" x="331.93" y="330.73" width="1.09" height="12.76"/><rect class="cls-11" x="329.11" y="330.73" width="1.09" height="12.76"/><rect class="cls-11" x="325.88" y="330.73" width="1.09" height="12.76"/><rect class="cls-11" x="321.86" y="330.73" width="1.09" height="12.76"/><rect class="cls-11" x="317.43" y="330.73" width="1.09" height="12.76"/><rect class="cls-11" x="312.61" y="330.73" width="1.09" height="12.76"/></g><path class="cls-12" d="M358.53,385.05c0,1.93-10.31,3.49-23,3.49s-23-1.56-23-3.49,10.3-3.5,23-3.5S358.53,383.12,358.53,385.05Z" transform="translate(-25 -52.1)"/><ellipse class="cls-9" cx="310.51" cy="332.57" rx="18.3" ry="1.62"/><path class="cls-11" d="M318,385.15c2.28-.67,9.25-1.15,17.51-1.15s15.23.48,17.51,1.15c.51-.15.79-.31.79-.47,0-.9-8.2-1.62-18.3-1.62s-18.3.72-18.3,1.62C317.21,384.84,317.48,385,318,385.15Z" transform="translate(-25 -52.1)"/><path class="cls-30" d="M309.15,378.86v5.57c0,1.93,10.31,3.49,23,3.49s23-1.56,23-3.49v-5.57Z" transform="translate(-25 -52.1)"/><g class="cls-32"><rect class="cls-11" x="284.66" y="324.44" width="1.09" height="12.76"/><rect class="cls-11" x="287.48" y="324.44" width="1.09" height="12.76"/><rect class="cls-11" x="290.71" y="324.44" width="1.09" height="12.76"/><rect class="cls-11" x="294.73" y="324.44" width="1.09" height="12.76"/><rect class="cls-11" x="299.16" y="324.44" width="1.09" height="12.76"/><rect class="cls-11" x="303.98" y="324.44" width="1.09" height="12.76"/><rect class="cls-11" x="328.6" y="324.44" width="1.09" height="12.76"/><rect class="cls-11" x="325.77" y="324.44" width="1.09" height="12.76"/><rect class="cls-11" x="322.55" y="324.44" width="1.09" height="12.76"/><rect class="cls-11" x="318.52" y="324.44" width="1.09" height="12.76"/><rect class="cls-11" x="314.1" y="324.44" width="1.09" height="12.76"/><rect class="cls-11" x="309.27" y="324.44" width="1.09" height="12.76"/></g><path class="cls-12" d="M355.19,378.76c0,1.93-10.3,3.49-23,3.49s-23-1.56-23-3.49,10.31-3.5,23-3.5S355.19,376.83,355.19,378.76Z" transform="translate(-25 -52.1)"/><path class="cls-9" d="M350.47,378.39c0,.89-8.19,1.62-18.3,1.62s-18.3-.73-18.3-1.62,8.2-1.62,18.3-1.62S350.47,377.49,350.47,378.39Z" transform="translate(-25 -52.1)"/><path class="cls-11" d="M314.66,378.86c2.28-.67,9.26-1.15,17.51-1.15s15.23.48,17.51,1.15c.52-.15.79-.31.79-.47,0-.9-8.19-1.62-18.3-1.62s-18.3.72-18.3,1.62C313.87,378.55,314.15,378.71,314.66,378.86Z" transform="translate(-25 -52.1)"/><path class="cls-30" d="M312.89,372.53v5.57c0,1.93,10.31,3.49,23,3.49s23-1.56,23-3.49v-5.57Z" transform="translate(-25 -52.1)"/><g class="cls-33"><rect class="cls-11" x="288.4" y="318.11" width="1.09" height="12.76"/><rect class="cls-11" x="291.22" y="318.11" width="1.09" height="12.76"/><rect class="cls-11" x="294.45" y="318.11" width="1.09" height="12.76"/><rect class="cls-11" x="298.48" y="318.11" width="1.09" height="12.76"/><rect class="cls-11" x="302.9" y="318.11" width="1.09" height="12.76"/><rect class="cls-11" x="307.72" y="318.11" width="1.09" height="12.76"/><rect class="cls-11" x="332.34" y="318.11" width="1.09" height="12.76"/><rect class="cls-11" x="329.51" y="318.11" width="1.09" height="12.76"/><rect class="cls-11" x="326.29" y="318.11" width="1.09" height="12.76"/><rect class="cls-11" x="322.26" y="318.11" width="1.09" height="12.76"/><rect class="cls-11" x="317.84" y="318.11" width="1.09" height="12.76"/><rect class="cls-11" x="313.01" y="318.11" width="1.09" height="12.76"/></g><path class="cls-12" d="M358.93,372.43c0,1.93-10.3,3.49-23,3.49s-23-1.56-23-3.49,10.31-3.5,23-3.5S358.93,370.5,358.93,372.43Z" transform="translate(-25 -52.1)"/><path class="cls-9" d="M354.21,372.06c0,.89-8.19,1.62-18.3,1.62s-18.3-.73-18.3-1.62,8.2-1.62,18.3-1.62S354.21,371.16,354.21,372.06Z" transform="translate(-25 -52.1)"/><path class="cls-11" d="M318.4,372.53c2.28-.67,9.26-1.15,17.51-1.15s15.23.48,17.51,1.15c.52-.15.79-.31.79-.47,0-.9-8.19-1.62-18.3-1.62s-18.3.72-18.3,1.62C317.61,372.22,317.89,372.38,318.4,372.53Z" transform="translate(-25 -52.1)"/><path class="cls-30" d="M314.51,366.12v5.57c0,1.93,10.31,3.49,23,3.49s23-1.56,23-3.49v-5.57Z" transform="translate(-25 -52.1)"/><g class="cls-34"><rect class="cls-11" x="290.02" y="311.7" width="1.09" height="12.76"/><rect class="cls-11" x="292.84" y="311.7" width="1.09" height="12.76"/><rect class="cls-11" x="296.07" y="311.7" width="1.09" height="12.76"/><rect class="cls-11" x="300.09" y="311.7" width="1.09" height="12.76"/><rect class="cls-11" x="304.52" y="311.7" width="1.09" height="12.76"/><rect class="cls-11" x="309.34" y="311.7" width="1.09" height="12.76"/><rect class="cls-11" x="333.96" y="311.7" width="1.09" height="12.76"/><rect class="cls-11" x="331.13" y="311.7" width="1.09" height="12.76"/><rect class="cls-11" x="327.91" y="311.7" width="1.09" height="12.76"/><rect class="cls-11" x="323.88" y="311.7" width="1.09" height="12.76"/><rect class="cls-11" x="319.46" y="311.7" width="1.09" height="12.76"/><rect class="cls-11" x="314.63" y="311.7" width="1.09" height="12.76"/></g><path class="cls-12" d="M360.55,366c0,1.94-10.3,3.5-23,3.5s-23-1.56-23-3.5,10.31-3.49,23-3.49S360.55,364.08,360.55,366Z" transform="translate(-25 -52.1)"/><path class="cls-9" d="M355.83,365.65c0,.89-8.19,1.62-18.3,1.62s-18.3-.73-18.3-1.62,8.2-1.62,18.3-1.62S355.83,364.75,355.83,365.65Z" transform="translate(-25 -52.1)"/><path class="cls-11" d="M320,366.12c2.28-.67,9.26-1.15,17.51-1.15s15.23.48,17.51,1.15c.51-.15.79-.31.79-.47,0-.9-8.19-1.62-18.3-1.62s-18.3.72-18.3,1.62C319.23,365.81,319.51,366,320,366.12Z" transform="translate(-25 -52.1)"/><path class="cls-30" d="M309,359.79v5.57c0,1.93,10.31,3.49,23,3.49s23-1.56,23-3.49v-5.57Z" transform="translate(-25 -52.1)"/><g class="cls-35"><rect class="cls-11" x="284.52" y="305.37" width="1.09" height="12.76"/><rect class="cls-11" x="287.35" y="305.37" width="1.09" height="12.76"/><rect class="cls-11" x="290.58" y="305.37" width="1.09" height="12.76"/><rect class="cls-11" x="294.6" y="305.37" width="1.09" height="12.76"/><rect class="cls-11" x="299.03" y="305.37" width="1.09" height="12.76"/><rect class="cls-11" x="303.85" y="305.37" width="1.09" height="12.76"/><rect class="cls-11" x="328.46" y="305.37" width="1.09" height="12.76"/><rect class="cls-11" x="325.64" y="305.37" width="1.09" height="12.76"/><rect class="cls-11" x="322.41" y="305.37" width="1.09" height="12.76"/><rect class="cls-11" x="318.39" y="305.37" width="1.09" height="12.76"/><rect class="cls-11" x="313.96" y="305.37" width="1.09" height="12.76"/><rect class="cls-11" x="309.14" y="305.37" width="1.09" height="12.76"/></g><path class="cls-12" d="M355.06,359.69c0,1.93-10.31,3.49-23,3.49s-23-1.56-23-3.49,10.31-3.5,23-3.5S355.06,357.76,355.06,359.69Z" transform="translate(-25 -52.1)"/><path class="cls-9" d="M350.34,359.32c0,.9-8.19,1.62-18.3,1.62s-18.3-.72-18.3-1.62,8.19-1.62,18.3-1.62S350.34,358.42,350.34,359.32Z" transform="translate(-25 -52.1)"/><path class="cls-11" d="M314.53,359.79c2.28-.66,9.25-1.15,17.51-1.15s15.23.49,17.51,1.15c.51-.15.79-.31.79-.47,0-.9-8.19-1.62-18.3-1.62s-18.3.72-18.3,1.62C313.74,359.48,314,359.64,314.53,359.79Z" transform="translate(-25 -52.1)"/><path class="cls-30" d="M313.46,353.46V359c0,1.93,10.31,3.49,23,3.49s23-1.56,23-3.49v-5.57Z" transform="translate(-25 -52.1)"/><g class="cls-36"><rect class="cls-11" x="288.97" y="299.04" width="1.09" height="12.76"/><rect class="cls-11" x="291.79" y="299.04" width="1.09" height="12.76"/><rect class="cls-11" x="295.02" y="299.04" width="1.09" height="12.76"/><rect class="cls-11" x="299.04" y="299.04" width="1.09" height="12.76"/><rect class="cls-11" x="303.47" y="299.04" width="1.09" height="12.76"/><rect class="cls-11" x="308.29" y="299.04" width="1.09" height="12.76"/><rect class="cls-11" x="332.91" y="299.04" width="1.09" height="12.76"/><rect class="cls-11" x="330.08" y="299.04" width="1.09" height="12.76"/><rect class="cls-11" x="326.85" y="299.04" width="1.09" height="12.76"/><rect class="cls-11" x="322.83" y="299.04" width="1.09" height="12.76"/><rect class="cls-11" x="318.4" y="299.04" width="1.09" height="12.76"/><rect class="cls-11" x="313.58" y="299.04" width="1.09" height="12.76"/></g><path class="cls-12" d="M359.5,353.36c0,1.93-10.31,3.49-23,3.49s-23-1.56-23-3.49,10.31-3.5,23-3.5S359.5,351.43,359.5,353.36Z" transform="translate(-25 -52.1)"/><ellipse class="cls-9" cx="311.48" cy="300.88" rx="18.3" ry="1.62"/><path class="cls-11" d="M319,353.46c2.28-.67,9.26-1.15,17.51-1.15s15.23.48,17.51,1.15c.51-.15.79-.31.79-.47,0-.9-8.19-1.62-18.3-1.62s-18.3.72-18.3,1.62C318.18,353.15,318.46,353.31,319,353.46Z" transform="translate(-25 -52.1)"/><path class="cls-30" d="M309.48,347.13v5.57c0,1.93,10.3,3.49,23,3.49s23-1.56,23-3.49v-5.57Z" transform="translate(-25 -52.1)"/><g class="cls-37"><rect class="cls-11" x="284.98" y="292.71" width="1.09" height="12.76"/><rect class="cls-11" x="287.8" y="292.71" width="1.09" height="12.76"/><rect class="cls-11" x="291.03" y="292.71" width="1.09" height="12.76"/><rect class="cls-11" x="295.06" y="292.71" width="1.09" height="12.76"/><rect class="cls-11" x="299.48" y="292.71" width="1.09" height="12.76"/><rect class="cls-11" x="304.31" y="292.71" width="1.09" height="12.76"/><rect class="cls-11" x="328.92" y="292.71" width="1.09" height="12.76"/><rect class="cls-11" x="326.09" y="292.71" width="1.09" height="12.76"/><rect class="cls-11" x="322.87" y="292.71" width="1.09" height="12.76"/><rect class="cls-11" x="318.84" y="292.71" width="1.09" height="12.76"/><rect class="cls-11" x="314.42" y="292.71" width="1.09" height="12.76"/><rect class="cls-11" x="309.59" y="292.71" width="1.09" height="12.76"/></g><path class="cls-12" d="M355.51,347c0,1.93-10.3,3.49-23,3.49s-23-1.56-23-3.49,10.3-3.5,23-3.5S355.51,345.1,355.51,347Z" transform="translate(-25 -52.1)"/><path class="cls-30" d="M350.79,346.66c0,.89-8.19,1.62-18.3,1.62s-18.3-.73-18.3-1.62,8.2-1.62,18.3-1.62S350.79,345.76,350.79,346.66Z" transform="translate(-25 -52.1)"/><path class="cls-11" d="M315,347.13c2.28-.67,9.26-1.15,17.51-1.15s15.24.48,17.52,1.15c.51-.15.78-.31.78-.47,0-.9-8.19-1.62-18.3-1.62s-18.3.72-18.3,1.62C314.19,346.82,314.47,347,315,347.13Z" transform="translate(-25 -52.1)"/><path class="cls-38" d="M325.78,393.89c-2.21-3-3.6-8.67-3.78-12.72-.64-14.87,6.47-24.8,18.32-27.52l4.46-1L354,392.79c-4.2.86-4.91,9.36-7.85,8.77S325.78,393.89,325.78,393.89Z" transform="translate(-25 -52.1)"/><path class="cls-9" d="M344.31,352.66l4.46-1,11.27,49-4.45,1.06c-11.85,2.72-24-6.05-27.1-19.6S332.45,355.39,344.31,352.66Z" transform="translate(-25 -52.1)"/><g class="cls-39"><rect class="cls-11" x="330.02" y="403.56" width="29.96" height="1.25" transform="translate(-106.81 35.49) rotate(-12.95)"/><rect class="cls-11" x="329.3" y="400.4" width="29.96" height="1.25" transform="translate(-106.12 35.26) rotate(-12.95)"/><rect class="cls-11" x="328.47" y="396.79" width="29.96" height="1.25" transform="translate(-105.33 34.97) rotate(-12.95)"/><rect class="cls-11" x="327.43" y="392.29" width="29.96" height="1.25" transform="translate(-104.35 34.63) rotate(-12.95)"/><rect class="cls-11" x="326.29" y="387.35" width="29.96" height="1.25" transform="translate(-103.26 34.24) rotate(-12.95)"/><rect class="cls-11" x="325.05" y="381.96" width="29.96" height="1.25" transform="translate(-102.09 33.84) rotate(-12.95)"/><rect class="cls-11" x="318.73" y="354.44" width="29.96" height="1.25" transform="translate(-96.09 31.72) rotate(-12.95)"/><rect class="cls-11" x="319.45" y="357.6" width="29.96" height="1.25" transform="translate(-96.78 31.96) rotate(-12.95)"/><rect class="cls-11" x="320.28" y="361.21" width="29.96" height="1.25" transform="translate(-97.57 32.24) rotate(-12.95)"/><rect class="cls-11" x="321.32" y="365.71" width="29.96" height="1.25" transform="translate(-98.55 32.59) rotate(-12.95)"/><rect class="cls-11" x="322.45" y="370.65" width="29.96" height="1.25" transform="translate(-99.62 32.95) rotate(-12.95)"/><rect class="cls-11" x="323.7" y="376.05" width="29.96" height="1.25" transform="translate(-100.8 33.37) rotate(-12.95)"/></g><ellipse class="cls-40" cx="355.37" cy="375.94" rx="22.03" ry="25.17" transform="translate(-100.22 37.11) rotate(-12.95)"/><path class="cls-41" d="M376.17,372c-3.12-13.55-15.25-22.32-27.11-19.6a20.24,20.24,0,0,0-11.94,8.15,20.41,20.41,0,0,1,12.6-9.13c11.86-2.72,24,6,27.11,19.6A26.5,26.5,0,0,1,373,392.33,26.73,26.73,0,0,0,376.17,372Z" transform="translate(-25 -52.1)"/><path class="cls-41" d="M359.66,395.56c8.83-2,14-12.24,11.62-22.76s-11.57-17.42-20.4-15.39-14,12.24-11.62,22.76S350.83,397.6,359.66,395.56Z" transform="translate(-25 -52.1)"/><path class="cls-30" d="M359.75,395c8.83-2,14.05-12.24,11.63-22.76s-11.57-17.43-20.4-15.39-14.05,12.24-11.63,22.76S350.92,397.05,359.75,395Z" transform="translate(-25 -52.1)"/><path class="cls-11" d="M357.82,394.4c8.83-2,14-12.24,11.62-22.76-1.63-7.09-6.33-12.54-11.92-14.71,6.43,1.57,12,7.43,13.86,15.33,2.42,10.52-2.8,20.73-11.63,22.76a14.36,14.36,0,0,1-8.48-.68A14.07,14.07,0,0,0,357.82,394.4Z" transform="translate(-25 -52.1)"/><path id="rect2995" class="cls-42" d="M346.26,372.12l4.95,5q-.33,5.46-.64,10.93l-3.77.94Z" transform="translate(-25 -52.1)"/><path id="path3000" class="cls-42" d="M366.8,383.44,360.52,378c-.15-3.06-.29-6.11-.44-9.17l3.28-1.77Q365.09,375.24,366.8,383.44Z" transform="translate(-25 -52.1)"/><path id="path3012" class="cls-40" d="M346.41,371.79l2.3-3.75,18,15.92-6.22,1.56Z" transform="translate(-25 -52.1)"/><path id="path3000-2" class="cls-42" d="M363.11,366.8l-9.49,5.06L349,367.77l11.52-2Z" transform="translate(-25 -52.1)"/><path class="cls-43" d="M432.64,306.66c.42-.17,0-.67-.36-.71a2.17,2.17,0,0,0-.34,0,14.44,14.44,0,0,0,1.47-.36c.41-.16.1-.64-.28-.72a4.76,4.76,0,0,0,.6-.17c.52-.2.13-.7-.35-.72a6.84,6.84,0,0,0-.77.09L433,304c.42-.17.16-.64-.24-.68a5.36,5.36,0,0,0-.9.1c-.45.06-1,.07-1.42.14s-2.44.14-2.91-.74c-.71-1.35,2.05-1.16,2.32-2.33.08-.37-1.95-.15-3.05.14a12.25,12.25,0,0,0-2.27.72,16.83,16.83,0,0,1-1.84,1,10.15,10.15,0,0,1-1.57-.07l-.38,3.71a12,12,0,0,1,2.85.4,8.66,8.66,0,0,0,4.5,1.24,16.6,16.6,0,0,0,3.05-.43S432.5,306.72,432.64,306.66Z" transform="translate(-25 -52.1)"/><path class="cls-44" d="M374.58,385.55a42,42,0,0,0,3.3,4.13c1,1,4.38-2,4.26-2.91s-4.33-5.79-4.33-5.79" transform="translate(-25 -52.1)"/><path class="cls-45" d="M383.85,386.87c1,1.07,2.71,3.24,2.71,3.24l-2.8,3.59-.93-.26a7.47,7.47,0,0,1-1.14,2.75,16.93,16.93,0,0,1-3,2.9c-3,2.05-5.75,2.69-6.19,2.33-1.85-1.48,2.16-4.25,2.88-4.93a6.39,6.39,0,0,0,1.79-6.28c-.36-1.1-.7-1.15-.13-1.41a1.43,1.43,0,0,1,1.16,0,2.62,2.62,0,0,0,3-.76,3.16,3.16,0,0,0,.71-1.81A1.88,1.88,0,0,1,383.85,386.87Z" transform="translate(-25 -52.1)"/><path class="cls-44" d="M318.33,388.51a43.27,43.27,0,0,0-1.11,5.16c-.08,1.41,4.34,2.11,5,1.45s1.72-7,1.72-7" transform="translate(-25 -52.1)"/><path class="cls-45" d="M323.19,396.51c-.2,1.45-.79,4.15-.79,4.15l-4.55.11-.39-.88a7.65,7.65,0,0,1-2.85.87,17.22,17.22,0,0,1-4.16-.5c-3.51-1-5.72-2.74-5.73-3.31,0-2.37,4.66-1,5.64-.9a6.37,6.37,0,0,0,6-2.6c.63-1,.45-1.27,1-1a1.49,1.49,0,0,1,.77.88,2.61,2.61,0,0,0,2.47,1.81,3.11,3.11,0,0,0,1.84-.6A1.88,1.88,0,0,1,323.19,396.51Z" transform="translate(-25 -52.1)"/><path class="cls-46" d="M338.42,308.34S325.58,341.06,324,348.09s-7.6,42.46-7.6,42.46,5.63,1.6,7.7.89c1.42-5.83,16-50.78,25.43-62.85S338.42,308.34,338.42,308.34Z" transform="translate(-25 -52.1)"/><path class="cls-46" d="M347.44,326.4a49.88,49.88,0,0,0,6.88,32,256.65,256.65,0,0,0,19.83,28.23s4.22-2.07,5.81-4.34c-3-4.08-16.33-27.18-16.33-36.2s3.48-30.44,3.48-30.44l-14.86-3.55Z" transform="translate(-25 -52.1)"/><path class="cls-44" d="M420.9,305.9s-16.93.8-25.61-1.63-23.56-13-23.56-13L354.2,277.81c-4.49-5.63-10.18-21.56-11.08-24.45S339,230.62,339,230.62l3.72-.36s4.31,14.05,6.52,22c2.07,7.45,13.49,17.62,16.26,20.17v0l.46.39c1.73,1.46.35,4.29.35,4.29l3,1.12s3.21-1.65,5.22.13a6,6,0,0,1,.66.67c2.74,3,9.44,13.56,23,19,9.9,2.41,20.81,4.2,23.47,4.24C421.12,304.82,420.9,305.9,420.9,305.9Z" transform="translate(-25 -52.1)"/><path class="cls-44" d="M375.19,279.05c-.56,1-4.13,3.4-7.28,2.16-6.12-2.8-2.63-8.41-2.39-8.76l.46.39c1.73,1.46,3-2.07,3-2.07l6.18,3.41s-2.64,2.42-.63,4.2A6,6,0,0,1,375.19,279.05Z" transform="translate(-25 -52.1)"/><path class="cls-47" d="M375.82,298.27s-5.47,12.64-7.6,21.26c-15.24,3.68-25.21-3.38-29.76-7.89a22.78,22.78,0,0,1-2.87-3.28s4.12-7.44,6.56-13,6.2-12.75,8.92-17.64c.15-.78-2.35-4.59-4.86-10,3.43-1.4,8.92-7,8.92-7l10.39,11.71s-3.14,5.15.9,7.88,6.69.34,8.77-1.28c1.64,2.24,10.34,10.05,15.65,13.71L384,304.23S378,300.77,375.82,298.27Z" transform="translate(-25 -52.1)"/><path class="cls-48" d="M373.06,254.9a2.67,2.67,0,0,0-3,3.39,1.46,1.46,0,0,0-1.92.79,3.72,3.72,0,0,0-.08,2.29,3.41,3.41,0,0,0,1.21,2.32,2.58,2.58,0,0,0,1.87.28,3.27,3.27,0,0,0,1.28-.52,5.27,5.27,0,0,0,1.06-1.15l3.33-4.43a1.29,1.29,0,0,0,.38-1" transform="translate(-25 -52.1)"/><path class="cls-44" d="M381.34,271.89a26.84,26.84,0,0,1-2.8,2.42,4.14,4.14,0,0,1-4.69.49,26.66,26.66,0,0,1-5.5-3.32c-1.8-1.57-2.05-3-1.08-5.18.6-1.35,1.18-2.7,1.81-4a65.41,65.41,0,0,1,4.51-8.21c.4-.61.87-1.51,1.74-1.13a48.14,48.14,0,0,1,7.86,4.26c1.76,1.17,3.52,2.56,4.25,4.54s.29,4.2-.17,6.28c-.07.33-.22.74-.57.76" transform="translate(-25 -52.1)"/><path class="cls-48" d="M381.07,267.44c.52-.51,1.49,0,1.63.75a3.12,3.12,0,0,1-.6,2.05A4.84,4.84,0,0,1,380,272c-.82.4-1.65.4-1.87-.48a2.37,2.37,0,0,0,.33,3.1,2.16,2.16,0,0,0,2.58-.11c2.6,3.37,6.75-.87,8.49-3.19a11.83,11.83,0,0,0,2.16-6.83,4.93,4.93,0,0,0-1.29-3.39,4.67,4.67,0,0,0-.26-4.25,12.24,12.24,0,0,0-2.57-3.21c-.66-.62-3.06-1.36-3.93-.83-.92-1.73-2.71-1.74-3.93-2.32s-3.16-.32-3.33,1c-1.45-1.67-4.68-.85-5.26,1.28a3.53,3.53,0,0,0,3.76,4.16,4.06,4.06,0,0,0,2,3.81,7.94,7.94,0,0,0,4.37,1,3.18,3.18,0,0,0-1.6,2.26c-.13,1-.2,1.75,1.09,2.23,0,0-1.22,1.72-.71,1.8S381.07,267.44,381.07,267.44Z" transform="translate(-25 -52.1)"/><path class="cls-44" d="M336.77,219.7c.11-.44.66-.14.76.26,0,0,0,.17,0,.33.06-.75.11-1.36.15-1.51.1-.42.62-.18.75.18,0-.3.06-.53.08-.62.13-.54.68-.23.77.24a7,7,0,0,1,0,.78,2.65,2.65,0,0,1,.06-.41c.11-.45.61-.26.71.14a6.79,6.79,0,0,1,0,.89c0,.46.06,1,.05,1.43s.22,2.43,1.15,2.77c1.44.52.86-2.18,2-2.62.35-.13.43,1.91.3,3a12.28,12.28,0,0,1-.4,2.35,16.11,16.11,0,0,0-.68,2,9.39,9.39,0,0,0,.29,1.55l-3.63.9a12.43,12.43,0,0,0-.79-2.77,8.62,8.62,0,0,1-1.87-4.28,16.68,16.68,0,0,1,0-3.08S336.73,219.85,336.77,219.7Z" transform="translate(-25 -52.1)"/><path class="cls-49" d="M368.22,319.53c-15.24,3.68-25.21-3.38-29.76-7.89,15.88,12.15,26.43,6.61,28.11,6.25.47-3.73,7.76-21.18,7.76-21.18a10.85,10.85,0,0,0,1.49,1.56S370.35,310.91,368.22,319.53Z" transform="translate(-25 -52.1)"/><path class="cls-4" d="M475,439c0,1.33-17.89,2.52-40,2.68s-40-.8-40-2.13,17.89-2.52,40-2.67S475,437.67,475,439Z" transform="translate(-25 -52.1)"/><path class="cls-44" d="M417.79,422.84a34.56,34.56,0,0,0,.25,6.64c.68,2,.39,2.61.39,2.61l-7.72.5s3.12-2.16,1.69-10S417.79,422.84,417.79,422.84Z" transform="translate(-25 -52.1)"/><path class="cls-48" d="M418.23,430.08a12.07,12.07,0,0,1-6.54,1.3,31.78,31.78,0,0,1-9.63,4.45c-3.44,1-2.38,3.76,3.55,2.46a75.56,75.56,0,0,1,11.49-1.74c1.35-.06,3.51-.21,3.46-1.15S419.27,429.61,418.23,430.08Z" transform="translate(-25 -52.1)"/><path class="cls-44" d="M457.11,417.17a34.5,34.5,0,0,0,3.07,5.9c1.45,1.48,1.47,2.18,1.47,2.18L454.89,429s1.89-3.3-2.76-9.76S457.11,417.17,457.11,417.17Z" transform="translate(-25 -52.1)"/><path class="cls-48" d="M460.61,423.52a12.06,12.06,0,0,1-5.36,4,31.47,31.47,0,0,1-6.8,8.15c-2.68,2.35-.53,4.42,4.26.7a75.73,75.73,0,0,1,9.65-6.49c1.19-.64,3.08-1.7,2.63-2.53S461.34,422.65,460.61,423.52Z" transform="translate(-25 -52.1)"/><path class="cls-44" d="M405.92,272.58s2.23-4,3.27-5.68,5.56,2.43,5.56,2.43.42,1.79-1.77,3-3.52,1.15-4,2.64-3.13-.57-3.13-.57Z" transform="translate(-25 -52.1)"/><path class="cls-44" d="M436.79,273.54s-2.05-4.38-3-6.09-5.66,2.18-5.66,2.18a2.8,2.8,0,0,0,1.63,3c2.14,1.27,3.46,1.3,3.85,2.8s3.15-.42,3.15-.42Z" transform="translate(-25 -52.1)"/><path class="cls-9" d="M435.39,266.86l-.07,3c0,1.05-5.66,1.78-12.58,1.62s-12.52-1.13-12.5-2.18l.07-3Z" transform="translate(-25 -52.1)"/><g class="cls-50"><rect class="cls-11" x="431.29" y="268.77" width="6.95" height="0.59" transform="translate(131.03 645.59) rotate(-88.72)"/><rect class="cls-11" x="429.75" y="268.73" width="6.95" height="0.59" transform="translate(129.56 644.01) rotate(-88.72)"/><rect class="cls-11" x="427.99" y="268.69" width="6.95" height="0.59" transform="translate(127.88 642.22) rotate(-88.72)"/><rect class="cls-11" x="425.8" y="268.64" width="6.95" height="0.59" transform="translate(125.88 640.04) rotate(-88.73)"/><rect class="cls-11" x="423.39" y="268.59" width="6.95" height="0.59" transform="matrix(0.02, -1, 1, 0.02, 123.48, 637.51)"/><rect class="cls-11" x="420.76" y="268.53" width="6.95" height="0.59" transform="translate(120.97 634.83) rotate(-88.72)"/><rect class="cls-11" x="407.35" y="268.23" width="6.95" height="0.59" transform="translate(108.19 621.15) rotate(-88.72)"/><rect class="cls-11" x="408.89" y="268.26" width="6.95" height="0.59" transform="translate(109.63 622.7) rotate(-88.72)"/><rect class="cls-11" x="410.65" y="268.3" width="6.95" height="0.59" transform="translate(111.31 624.5) rotate(-88.72)"/><rect class="cls-11" x="412.84" y="268.35" width="6.95" height="0.59" transform="translate(113.41 626.74) rotate(-88.72)"/><rect class="cls-11" x="415.25" y="268.41" width="6.95" height="0.59" transform="translate(115.71 629.2) rotate(-88.72)"/><rect class="cls-11" x="417.88" y="268.47" width="6.95" height="0.59" transform="translate(118.31 631.95) rotate(-88.73)"/></g><path class="cls-12" d="M410.31,266.24c0,1.05,5.57,2,12.5,2.19s12.55-.58,12.58-1.63-5.57-2-12.5-2.18S410.33,265.19,410.31,266.24Z" transform="translate(-25 -52.1)"/><path class="cls-9" d="M412.88,266.1c0,.49,4.45,1,9.95,1.1s10-.17,10-.66-4.44-1-9.95-1.1S412.89,265.61,412.88,266.1Z" transform="translate(-25 -52.1)"/><path class="cls-11" d="M432.39,266.79a73.15,73.15,0,0,0-19.08-.43c-.28-.08-.43-.17-.43-.26,0-.49,4.49-.79,10-.66s10,.62,9.95,1.1C432.82,266.63,432.67,266.72,432.39,266.79Z" transform="translate(-25 -52.1)"/><path class="cls-9" d="M433,263.36l-.06,3c0,1.05-5.66,1.78-12.59,1.62s-12.52-1.13-12.49-2.18l.06-3Z" transform="translate(-25 -52.1)"/><g class="cls-51"><rect class="cls-11" x="428.95" y="265.26" width="6.95" height="0.59" transform="translate(132.24 639.82) rotate(-88.72)"/><rect class="cls-11" x="427.41" y="265.23" width="6.95" height="0.59" transform="translate(130.87 638.31) rotate(-88.73)"/><rect class="cls-11" x="425.65" y="265.19" width="6.95" height="0.59" transform="translate(129.19 636.51) rotate(-88.73)"/><rect class="cls-11" x="423.46" y="265.14" width="6.95" height="0.59" transform="translate(126.99 634.21) rotate(-88.72)"/><rect class="cls-11" x="421.05" y="265.09" width="6.95" height="0.59" transform="translate(124.79 631.81) rotate(-88.73)"/><rect class="cls-11" x="418.42" y="265.03" width="6.95" height="0.59" transform="translate(122.28 629.12) rotate(-88.73)"/><rect class="cls-11" x="405.01" y="264.73" width="6.95" height="0.59" transform="translate(109.4 615.38) rotate(-88.72)"/><rect class="cls-11" x="406.55" y="264.76" width="6.95" height="0.59" transform="translate(110.84 616.94) rotate(-88.72)"/><rect class="cls-11" x="408.31" y="264.8" width="6.95" height="0.59" transform="translate(112.62 618.79) rotate(-88.73)"/><rect class="cls-11" x="410.5" y="264.85" width="6.95" height="0.59" transform="translate(114.62 620.97) rotate(-88.72)"/><rect class="cls-11" x="412.91" y="264.9" width="6.95" height="0.59" transform="translate(116.92 623.44) rotate(-88.72)"/><rect class="cls-11" x="415.54" y="264.96" width="6.95" height="0.59" transform="translate(119.43 626.12) rotate(-88.72)"/></g><path class="cls-12" d="M408,262.74c0,1.05,5.57,2,12.49,2.18s12.56-.57,12.59-1.62-5.58-2-12.5-2.19S408,261.69,408,262.74Z" transform="translate(-25 -52.1)"/><path class="cls-9" d="M410.54,262.6c0,.48,4.44,1,9.95,1.1s10-.17,10-.66-4.44-1-10-1.11S410.55,262.11,410.54,262.6Z" transform="translate(-25 -52.1)"/><path class="cls-11" d="M430,263.29a49.55,49.55,0,0,0-9.52-.84,50.34,50.34,0,0,0-9.56.41c-.27-.09-.42-.18-.42-.26,0-.49,4.48-.79,10-.67s10,.62,10,1.11C430.48,263.13,430.32,263.21,430,263.29Z" transform="translate(-25 -52.1)"/><path class="cls-9" d="M435.29,260l-.06,3c0,1.05-5.66,1.78-12.59,1.62s-12.52-1.13-12.49-2.18l.06-3Z" transform="translate(-25 -52.1)"/><g class="cls-52"><rect class="cls-11" x="431.2" y="261.86" width="6.95" height="0.59" transform="translate(137.84 638.74) rotate(-88.72)"/><rect class="cls-11" x="429.66" y="261.83" width="6.95" height="0.59" transform="translate(136.37 637.17) rotate(-88.72)"/><rect class="cls-11" x="427.9" y="261.79" width="6.95" height="0.59" transform="translate(134.69 635.38) rotate(-88.72)"/><rect class="cls-11" x="425.71" y="261.74" width="6.95" height="0.59" transform="translate(132.69 633.2) rotate(-88.73)"/><rect class="cls-11" x="423.29" y="261.69" width="6.95" height="0.59" transform="translate(130.29 630.67) rotate(-88.72)"/><rect class="cls-11" x="420.67" y="261.63" width="6.95" height="0.59" transform="translate(127.78 627.99) rotate(-88.72)"/><rect class="cls-11" x="407.26" y="261.33" width="6.95" height="0.59" transform="translate(115 614.31) rotate(-88.72)"/><rect class="cls-11" x="408.8" y="261.36" width="6.95" height="0.59" transform="translate(116.44 615.86) rotate(-88.72)"/><rect class="cls-11" x="410.55" y="261.4" width="6.95" height="0.59" transform="translate(118.12 617.66) rotate(-88.72)"/><rect class="cls-11" x="412.75" y="261.45" width="6.95" height="0.59" transform="translate(120.31 619.96) rotate(-88.73)"/><rect class="cls-11" x="415.16" y="261.5" width="6.95" height="0.59" transform="translate(122.52 622.36) rotate(-88.72)"/><rect class="cls-11" x="417.79" y="261.56" width="6.95" height="0.59" transform="translate(125.03 625.04) rotate(-88.72)"/></g><path class="cls-12" d="M410.21,259.34c0,1.05,5.58,2,12.5,2.18s12.56-.57,12.58-1.62-5.57-2-12.49-2.19S410.24,258.29,410.21,259.34Z" transform="translate(-25 -52.1)"/><path class="cls-9" d="M412.79,259.2c0,.48,4.44,1,9.95,1.1s10-.17,10-.66-4.45-1-10-1.11S412.8,258.71,412.79,259.2Z" transform="translate(-25 -52.1)"/><path class="cls-11" d="M432.29,259.89a49.65,49.65,0,0,0-9.52-.84,50.34,50.34,0,0,0-9.56.41c-.27-.09-.42-.18-.42-.26,0-.49,4.48-.79,10-.67s10,.62,10,1.11C432.73,259.73,432.57,259.81,432.29,259.89Z" transform="translate(-25 -52.1)"/><path class="cls-44" d="M411.52,270.84s1.47-.35,1.76-1,.68-1.63,1.37-1.5c.9.17.12,2.23-.3,2.74" transform="translate(-25 -52.1)"/><path class="cls-44" d="M431.27,271.29s-1.45-.43-1.71-1.07-.6-1.66-1.3-1.56c-.9.14-.06,2.47.34,3" transform="translate(-25 -52.1)"/><path class="cls-46" d="M421.13,357.27s6.78,24.58,10.85,31.11,22,34.92,22,34.92,3.22-1.77,5.06-2.66c-8.94-22.91-11.56-29.36-17.14-38.26-3.26-12.95-1.15-30.4-9.23-41.51-2.47-3.39-13.66,3-13.66,3Z" transform="translate(-25 -52.1)"/><path class="cls-46" d="M409.75,343s-1,35.18-1,41.84,3.35,42.41,3.35,42.41,2.42,1.15,6.42-1c.14-8.21,1.56-20.39.38-39.66,4.28-18.31,6.87-36.36,6.87-36.36l-.4-9.56Z" transform="translate(-25 -52.1)"/><path class="cls-48" d="M413.19,294.34s-3.83,3.36-2.33,10.61c.51,2.12-2.34,5.28-4.26,6.9s-3.57,5.32-1.75,8.6,2.25,3.52,1.4,6.72-.88,9.86,8.14,8.51,8.94-23.45,8.94-23.45l-1.2-9.61Z" transform="translate(-25 -52.1)"/><path class="cls-44" d="M426.74,306.87s-.38.22-1,.51c0,.32,0,.64,0,.93,0,1.87,0,3.08,0,3.08a4.33,4.33,0,0,1-5.35,1.85,1.32,1.32,0,0,1-.33-.2,1.57,1.57,0,0,1-.6-1.52,11.43,11.43,0,0,0,.17-2.61,8.79,8.79,0,0,1-3.73-.63c-4.78-2-2.05-15-2.05-15s8.14-3.46,10.69-.1S426.74,306.87,426.74,306.87Z" transform="translate(-25 -52.1)"/><path class="cls-53" d="M418.58,294.55a4.24,4.24,0,0,0,1.82,3.86c2.13,1.41,5.67,2,5.87,4a3.75,3.75,0,0,1-.82,2.33,13.49,13.49,0,0,0,2.38-.36c.09-.16.93-4.71.93-4.71s-4.95-4.75-5.54-5A31.55,31.55,0,0,0,418.58,294.55Z" transform="translate(-25 -52.1)"/><path class="cls-53" d="M425.73,311.39a4.33,4.33,0,0,1-5.35,1.85l0,0c2.91.82,2.85-2.79,2.39-3.48s-1.88-.94-1.88-.94a25.07,25.07,0,0,0,2.89-.48,11.16,11.16,0,0,1,2.35-.42A15.79,15.79,0,0,1,425.73,311.39Z" transform="translate(-25 -52.1)"/><path class="cls-48" d="M422,287.39a8.82,8.82,0,0,0-5.83,3.93c-.63,1.13,3.09,2.14,3.13,3.79.08,3.21,3.74,4.49,6.63,5.67.76.32,1.77,1.69,0,3.38,0,0-2.56,2.37-2.25,5.29.26,2.45,4.79,2,4.79,2s-6.44,19.46-5.64,22.2c.43,1.45,13,9,21.57,1.84a8.6,8.6,0,0,0,1-12c-2.28-2.65-2.28-4.46-2.09-5.13,2.32-8.34-1.92-14.06-6.69-16.38a5.83,5.83,0,0,1-3.38-4.93c-.12-2.28-.72-5.08-2.69-6.93A9.75,9.75,0,0,0,422,287.39Z" transform="translate(-25 -52.1)"/><path class="cls-48" d="M410.94,289.35a3.49,3.49,0,0,0,.2,5.62c1.95,1.32,5.13,2.09,9.92-.34,5.7-2.9,3.95-7.4.15-7.05C414,290,413.11,287.6,410.94,289.35Z" transform="translate(-25 -52.1)"/><path class="cls-54" d="M419.4,311.68s.21,2.31,3.36,1.8A3.21,3.21,0,0,0,425,311a7.59,7.59,0,0,0,7.06-3.52c2-2.82,5-7.7,6.44-10.25a4.64,4.64,0,0,0,.44-3.42c-1.41-5.38-6.66-18.68-6.66-18.68l5.2-1.88,8,19.77a8.07,8.07,0,0,1-.26,6.68c-2.84,5.66-8.3,15.32-10.85,20.29-.81,3,3.38,24.06,3.38,24.06s-11.49,7.07-28,1.87c0-6.33.71-17.95.55-24.47-.17-6.69-3.65-6.05-12.56-24.39a8.81,8.81,0,0,1-.67-5.63c.91-4.24,3.91-11.37,8.88-18.89,3.52,1.58,4.08,2.15,4.08,2.15s-4.66,11.67-6.28,16.51a3.79,3.79,0,0,0,.25,3C406.63,299.2,414.73,311.64,419.4,311.68Z" transform="translate(-25 -52.1)"/><path class="cls-48" d="M353.15,326.4s-.32,3.57-.4,5.89c-.83,1.44-1.44,2.54-1.44,2.54A39,39,0,0,1,353.15,326.4Z" transform="translate(-25 -52.1)"/><polygon class="cls-48" points="396.51 305.61 398.39 312.83 397.57 316.99 396.51 305.61"/><path class="cls-55" d="M180.78,52.1a8.29,8.29,0,0,0,4.72,3.49c-1.59,1.21-1.57,2-1.66,3.8a9.68,9.68,0,0,1-4.34-3.5A3.1,3.1,0,0,1,180.78,52.1Z" transform="translate(-25 -52.1)"/><path class="cls-55" d="M298.28,54.24A8.24,8.24,0,0,0,303,57.72c-1.59,1.22-1.57,2-1.66,3.81A9.68,9.68,0,0,1,297,58,3.1,3.1,0,0,1,298.28,54.24Z" transform="translate(-25 -52.1)"/><path class="cls-3" d="M103.4,84.86a8.24,8.24,0,0,0,5.67,1.46c-1,1.72-.69,2.45-.11,4.14a9.68,9.68,0,0,1-5.34-1.61A3.09,3.09,0,0,1,103.4,84.86Z" transform="translate(-25 -52.1)"/><path class="cls-55" d="M138.85,115.6a8.26,8.26,0,0,0,4-4.31c1,1.71,1.84,1.77,3.6,2a9.59,9.59,0,0,1-3.94,3.94A3.08,3.08,0,0,1,138.85,115.6Z" transform="translate(-25 -52.1)"/><path class="cls-3" d="M197.24,93a8.27,8.27,0,0,0,5.81-.73c-.31,2,.26,2.54,1.42,3.9a9.58,9.58,0,0,1-5.55.45A3.08,3.08,0,0,1,197.24,93Z" transform="translate(-25 -52.1)"/><path class="cls-3" d="M294.7,93.48a8.23,8.23,0,0,0,4.52,3.72c-1.65,1.13-1.67,1.94-1.86,3.71a9.65,9.65,0,0,1-4.15-3.72A3.09,3.09,0,0,1,294.7,93.48Z" transform="translate(-25 -52.1)"/><path class="cls-3" d="M408.71,163a8.22,8.22,0,0,0,4.52,3.73c-1.65,1.13-1.67,1.93-1.86,3.71a9.67,9.67,0,0,1-4.15-3.73A3.1,3.1,0,0,1,408.71,163Z" transform="translate(-25 -52.1)"/><path class="cls-55" d="M391.37,122.7a8.31,8.31,0,0,0,4.53,3.73c-1.66,1.12-1.68,1.93-1.86,3.71a9.67,9.67,0,0,1-4.15-3.73A3.09,3.09,0,0,1,391.37,122.7Z" transform="translate(-25 -52.1)"/><path class="cls-55" d="M348.45,125.31a8.22,8.22,0,0,0,5.71-1.29c-.12,2,.5,2.51,1.79,3.74a9.64,9.64,0,0,1-5.48,1A3.09,3.09,0,0,1,348.45,125.31Z" transform="translate(-25 -52.1)"/><path class="cls-55" d="M323.07,207.76a8.24,8.24,0,0,0,4.67-3.53c.72,1.86,1.5,2.07,3.18,2.66a9.58,9.58,0,0,1-4.58,3.17A3.09,3.09,0,0,1,323.07,207.76Z" transform="translate(-25 -52.1)"/><path class="cls-3" d="M356.44,69.33a8.27,8.27,0,0,0,5.85.25c-.64,1.89-.17,2.55.75,4.08a9.65,9.65,0,0,1-5.55-.47A3.08,3.08,0,0,1,356.44,69.33Z" transform="translate(-25 -52.1)"/><path class="cls-55" d="M242.57,69.32a8.21,8.21,0,0,0,5.85.27c-.65,1.89-.18,2.55.74,4.08a9.6,9.6,0,0,1-5.56-.49A3.09,3.09,0,0,1,242.57,69.32Z" transform="translate(-25 -52.1)"/><path class="cls-55" d="M61,173.82a8.28,8.28,0,0,0,5.85.27c-.64,1.89-.18,2.55.74,4.08a9.58,9.58,0,0,1-5.55-.49A3.09,3.09,0,0,1,61,173.82Z" transform="translate(-25 -52.1)"/><path class="cls-55" d="M102.49,227.3a8.33,8.33,0,0,0,2.34,5.38c-2,.25-2.36,1-3.33,2.46a9.59,9.59,0,0,1-2-5.2A3.1,3.1,0,0,1,102.49,227.3Z" transform="translate(-25 -52.1)"/><path class="cls-3" d="M91.57,145.68a8.23,8.23,0,0,0,4.29-4c.9,1.78,1.69,1.91,3.43,2.34a9.68,9.68,0,0,1-4.24,3.61A3.09,3.09,0,0,1,91.57,145.68Z" transform="translate(-25 -52.1)"/><path class="cls-3" d="M377.37,219.67a8.24,8.24,0,0,0,5.13-2.82c.44,2,1.18,2.26,2.76,3.09a9.69,9.69,0,0,1-5,2.48A3.08,3.08,0,0,1,377.37,219.67Z" transform="translate(-25 -52.1)"/><path class="cls-4" d="M105,445.21c0,1.32-17.89,2.52-40,2.67s-40-.8-40-2.12,17.89-2.53,40-2.68S105,443.88,105,445.21Z" transform="translate(-25 -52.1)"/><path class="cls-56" d="M110.1,250.78c-.06-.48-.68-.24-.84.16a2.76,2.76,0,0,0-.08.35c0-.8.08-1.45.06-1.61,0-.46-.63-.29-.82.07,0-.32,0-.56,0-.66-.06-.59-.69-.34-.84.14a5.53,5.53,0,0,0-.14.82,3,3,0,0,0,0-.44c-.06-.49-.61-.36-.77,0a6,6,0,0,0-.16.94c-.07.49-.21,1-.27,1.51s-.58,2.54-1.62,2.76c-1.59.34-.58-2.43-1.71-3.05-.35-.2-.72,1.95-.75,3.17a13.52,13.52,0,0,0,.08,2.54,16,16,0,0,1,.44,2.17,8.89,8.89,0,0,1-.91,2.13l4,.92a16.6,16.6,0,0,1,1.44-2.73,9.14,9.14,0,0,0,2.44-4.32,17.07,17.07,0,0,0,.46-3.26S110.12,250.94,110.1,250.78Z" transform="translate(-25 -52.1)"/><path class="cls-56" d="M72.21,284.47s12.78-.12,19.72-7.89c5.53-7.76,10.88-16.33,11.28-17.13,1.09.42,3.43,1.49,3.43,1.49S99.33,277.3,96.48,281s-8.45,9.86-20.29,12.9C70.51,287.41,72.21,284.47,72.21,284.47Z" transform="translate(-25 -52.1)"/><path class="cls-43" d="M80.54,437a8.49,8.49,0,0,1,.7,2.8c0,1.13-3.61,1.36-4,.79s-.86-5.71-.86-5.71" transform="translate(-25 -52.1)"/><path class="cls-45" d="M76.29,441.63a22.49,22.49,0,0,0,.45,3.06l4.12-.17.17-.69a6.59,6.59,0,0,0,2.42.59l3.47-.15c2.55-.1,4-.48,4-.93.19-1.89-2.85-1.68-3.64-1.65-2.27.1-4.78-.86-5.36-2-.43-.82-.26-1-.73-.86a1.18,1.18,0,0,0-.68.64,2.09,2.09,0,0,1-2.1,1.26,2.47,2.47,0,0,1-1.42-.62A1.51,1.51,0,0,0,76.29,441.63Z" transform="translate(-25 -52.1)"/><path class="cls-43" d="M40.3,434.77a33.86,33.86,0,0,1-1.09,4.08c-.45,1-3.86-.08-4.06-.76s1.32-5.63,1.32-5.63" transform="translate(-25 -52.1)"/><path class="cls-45" d="M33.93,438.71C33.54,439.81,33,442,33,442l3.2,1.73.59-.49a6.15,6.15,0,0,0,1.72,1.65A13.46,13.46,0,0,0,41.64,446c2.88.53,5.07.12,5.28-.28C47.8,444,44,443.3,43.23,443a5.11,5.11,0,0,1-3.32-4c-.09-.92.14-1.07-.35-1.08a1.19,1.19,0,0,0-.87.35,2.11,2.11,0,0,1-2.42.39,2.52,2.52,0,0,1-1.09-1.1A1.51,1.51,0,0,0,33.93,438.71Z" transform="translate(-25 -52.1)"/><path class="cls-46" d="M51.47,353.82s-6.15-13.17,3.21-23.31c0,0,8.48,3.39,15.18,3.56a33.18,33.18,0,0,0,7.91-.51,170.71,170.71,0,0,1,1.56,25Z" transform="translate(-25 -52.1)"/><path class="cls-46" d="M76,438.49a3.92,3.92,0,0,0,.49,0,28.47,28.47,0,0,0,5.44-.6l0-1c-.83-15.34,0-40.49,0-48.44a7.88,7.88,0,0,0-.11-1.51c-.84-5.78-6.8-4.78-9.1.66a21.29,21.29,0,0,0-1.26,4.16,38.49,38.49,0,0,0-.69,5.83C70.12,410.88,74.55,428.64,76,438.49Z" transform="translate(-25 -52.1)"/><path class="cls-46" d="M62.32,359.57a5,5,0,0,0,.12.49c1.61,6.93,6.7,25.64,9,31.68h0a3.66,3.66,0,0,0,2.72,1.82c3,.7,7.51-.61,7.64-6.64a15.08,15.08,0,0,0-.11-2.17c-.6-4.87-2.78-31.83-3.11-34.43s-.94-6.38-2.33-6.8C69.28,341.43,60.12,349.87,62.32,359.57Z" transform="translate(-25 -52.1)"/><path class="cls-57" d="M69.87,387.1a33.62,33.62,0,0,1,.88,10.48c-.52,5.22,2.3-4.67,2.3-4.67l-1.86-3.44Z" transform="translate(-25 -52.1)"/><path class="cls-58" d="M76.48,438.48S75,422.85,73.13,412a43.16,43.16,0,0,1,1-18.47c.24-.85.42-1.32.42-1.32l-1.88-4.66c-2.14-6.07-2.78-20.43-2.78-20.43,4.17-10.3,4.28-23.05,4.28-23.05l-3.89.7-6.68,8.71-1.19,6.54c1.31,5.62,4.89,19,7.43,27h0a33.62,33.62,0,0,1,.88,10.48,4.91,4.91,0,0,0,0,1.38c-.28,13.13,3.88,30,5.27,39.53A3.92,3.92,0,0,0,76.48,438.48Z" transform="translate(-25 -52.1)"/><path class="cls-46" d="M49.8,388.14c4.47-4.56,11-2.76,8.28,4.15-2.94,7.39-12.09,27.94-16.91,42.52l-.34.95a29.79,29.79,0,0,1-5.74-1.6c2.19-9.43,3.41-25.57,8.3-37A30.22,30.22,0,0,1,49.8,388.14Z" transform="translate(-25 -52.1)"/><path class="cls-46" d="M74.21,344.11c.46-10.83-12.7-3.11-19,.72-2.66,1.61-3.53,4.66-3.78,7.5s-2.54,32.06-3,37.4c-1.08,12,9.1,5,10,1.7C60.5,383,74,350,74.21,344.11Z" transform="translate(-25 -52.1)"/><path class="cls-46" d="M49,382.28s-.19,5.74-4.7,13c0,0,7.71-3.95,8.07-4.5A29.37,29.37,0,0,0,53.73,384C53.56,383.45,49,382.28,49,382.28Z" transform="translate(-25 -52.1)"/><path class="cls-56" d="M72.42,275.82c0,.81.06,4-1.64,4.76s-2.78,1.1-2.73,1.36.19.68.37,1.23a2.58,2.58,0,0,0,1,1.54l.24,4.08-3,3-1,1-1.5-1.36L59.24,287a5,5,0,0,0,.62-5.12c-.2-.38-2.41-2.83-4.18-5.31a13.1,13.1,0,0,1-2.14-3.94c-.64-2.83-1.17-5.82.45-7.6s12.77-9.09,15-.51c0,0,2.56,4.72,3.39,5.46a1.29,1.29,0,0,1-.12,2.19C71.53,272.6,72.39,275,72.42,275.82Z" transform="translate(-25 -52.1)"/><path class="cls-59" d="M69.64,288.79l-3,3-.93.45-1.56-.82L59.24,287a5,5,0,0,0,.62-5.12c-.2-.38-2.41-2.83-4.18-5.31l-.21-1.71s3.46-.95,3.6-1a12.38,12.38,0,0,1,1.71,1.85c0,.11-.26,2.12-.26,2.12s.46,2.62,1,4.61a2.79,2.79,0,0,0,2.5,1.92,9.35,9.35,0,0,0,2.11-.06,4,4,0,0,0,2.28-1.18,2.58,2.58,0,0,0,1,1.54Z" transform="translate(-25 -52.1)"/><path class="cls-48" d="M59.23,273.34s-.27,5.81,3.84,8.21,9.75-.26,10.45-1.07,2.52-5.92-.56-7.62-6,1.23-6,1.23S65.22,276,64.52,276s-2.61-1.72-2.89-5.36a.44.44,0,0,1,.34-.43c.78-.24,2.51-1.15,1.63-4.66a.53.53,0,0,1,.47-.63,39.32,39.32,0,0,1,4-.41,5.56,5.56,0,0,1,.76.06.42.42,0,0,1,.29.2c.19.32.6,1.07.7,1.24l1.1,1.88a1.19,1.19,0,0,0,.41-1.07,17,17,0,0,1-.65-2.3c.07-.34,1-.73,1-1.48,0-1.71-.65-8.24-5.83-4.22A9.22,9.22,0,0,1,64,260.22c-.78.29-1.67-.26-3.37-.14-2.38.16-12.62,2.56-9.34,11.66S60,282.14,60,282.14,58.2,274.5,59.23,273.34Z" transform="translate(-25 -52.1)"/><path class="cls-59" d="M59.23,273.34s-.51-1.56-1.82-1.11c-1.75.6-1.6,5,2.23,4.43A11.66,11.66,0,0,1,59.23,273.34Z" transform="translate(-25 -52.1)"/><path class="cls-47" d="M81,336.12a81.72,81.72,0,0,1-31.24.17,199.5,199.5,0,0,0,1.47-20l0-.63c.14-3.91.21-6.71.29-6.82s-.44-12.73.59-17.62a3.27,3.27,0,0,1,.75-1.8,36.91,36.91,0,0,1,7.1-4.8s6.22,6.7,9.4-.71c3.49-.31,5.27.39,6.28,3.89C81.31,307.21,81,336.12,81,336.12Z" transform="translate(-25 -52.1)"/><path class="cls-47" d="M72,283.94a30.86,30.86,0,0,0,11.69-2.52C87,285.29,89,292.35,89,292.35s-8,5.06-13.78,5.55A81.71,81.71,0,0,0,72,283.94Z" transform="translate(-25 -52.1)"/><path class="cls-60" d="M73.16,285.15a28.06,28.06,0,0,1,4.76,12.26A35.3,35.3,0,0,0,89,292.35c-1.77.57-9.31,3.38-10.34,1.06A36.27,36.27,0,0,0,73.16,285.15Z" transform="translate(-25 -52.1)"/><path class="cls-30" d="M71.67,289.5l25.41,2.64-4.64,10.23-22-10.19a1.07,1.07,0,0,1-.63-1.47l.28-.52A1.52,1.52,0,0,1,71.67,289.5Z" transform="translate(-25 -52.1)"/><path class="cls-61" d="M71.67,289.5l25.41,2.64-4.64,10.23-22-10.19a1.07,1.07,0,0,1-.63-1.47l.28-.52A1.52,1.52,0,0,1,71.67,289.5Z" transform="translate(-25 -52.1)"/><path class="cls-30" d="M96.7,297.86c-1.36,2.8-3.34,4.79-4.43,4.45s-.87-2.88.48-5.68,3.34-4.79,4.43-4.45S98.05,295.07,96.7,297.86Z" transform="translate(-25 -52.1)"/><path class="cls-61" d="M96.7,297.86c-1.36,2.8-3.34,4.79-4.43,4.45s-.87-2.88.48-5.68,3.34-4.79,4.43-4.45S98.05,295.07,96.7,297.86Z" transform="translate(-25 -52.1)"/><path class="cls-61" d="M96.7,297.86c-1.36,2.8-3.34,4.79-4.43,4.45s-.87-2.88.48-5.68,3.34-4.79,4.43-4.45S98.05,295.07,96.7,297.86Z" transform="translate(-25 -52.1)"/><path class="cls-56" d="M49.11,308.78s2.67,9.24,9.64,13.59a4.85,4.85,0,0,0,6.17-1.23c4.77-5.33,9.54-17.34,11.06-21.88-2.79-1.48-3.69-1.25-3.69-1.25s-6.76,9.39-10.64,15.67l-2.9-5.05" transform="translate(-25 -52.1)"/><path class="cls-56" d="M72.09,298.36a9.15,9.15,0,0,0,1.3-3.53c.06-1.52-.66-4.16.82-5.53a6.31,6.31,0,0,1,4.64-.93c3.23.54,4.11,1.49,3.93,2.17s-2.41.92-3,2.08-.26,1.88-.41,3.15c-.22,1.91-2.88,2.72-3.46,3.67C75.51,300.12,72.09,298.36,72.09,298.36Z" transform="translate(-25 -52.1)"/><path class="cls-60" d="M52.57,332c.81-2.78,1.19-12.57,1.28-15a12.78,12.78,0,0,0,8.83-5.76c-.9-1.56-3.17-7-7.37-11.54l-2.43-9.1s-.28.22-.7.63c-1,4.89-.41,17.38-.59,17.62s-.15,2.91-.29,6.82l0,.63h0a199.5,199.5,0,0,1-1.47,20A81.72,81.72,0,0,0,81,336.12C63.67,337.61,51.67,335.13,52.57,332Z" transform="translate(-25 -52.1)"/><path class="cls-47" d="M54.52,288.12s-7.17,4.7-7.48,12.71c-.24,6.18,3.85,15.22,3.85,15.22s7.11.78,10.83-5a44.45,44.45,0,0,0-4.19-8.65" transform="translate(-25 -52.1)"/><path class="cls-30" d="M247.1,301.14l.46-81.4-18.17-.11L229,293.56h0s0,.15,0,.36l0,6c-.41,10.53-3,30.44-17.11,30.36l52,.29C250.24,330.52,247.54,311.9,247.1,301.14Z" transform="translate(-25 -52.1)"/><path class="cls-30" d="M159.76,136.31a35.65,35.65,0,0,1,10.62,8.62c7.63,9.21,9.07,20.83,3.79,31.1a17.94,17.94,0,0,1-15.53,9.79c-7,.19-14-3.39-17.33-8.9a14.5,14.5,0,0,1,.12-15,6.76,6.76,0,1,1,11.69,6.79c-.47.81-.34,1-.2,1.34.7,1.13,3,2.36,5.29,2.28a4.22,4.22,0,0,0,3.93-2.46,2,2,0,0,0,.23-.49c3-6.31.68-11.58-1.57-14.71-.3-.38-.56-.74-.84-1.06-5.49-6.62-15-9.77-22.51-7.54-8.7,2.61-14.44,12.15-16.08,26.82-3.19,28.31,16.73,47.57,28.9,56.5,13.22,9.71,26.35,14.72,35.24,16.54,5.11,1.09,8.78,1.13,10.31.46a6.78,6.78,0,0,1,8.55,9.6,6.41,6.41,0,0,1-3.12,2.77A16.84,16.84,0,0,1,195.8,260c-13.29,1.45-35.55-6.51-53.56-19.82-25-18.43-37.2-42.89-34.32-68.87,3.12-27.56,17.41-35.84,25.63-38.26A34.72,34.72,0,0,1,159.76,136.31Z" transform="translate(-25 -52.1)"/><path class="cls-62" d="M204.69,249.83a6.66,6.66,0,0,1-.32,6.12,6.41,6.41,0,0,1-3.12,2.77A16.84,16.84,0,0,1,195.8,260a91.93,91.93,0,0,1-10.29-14.15c5.11,1.09,8.78,1.13,10.31.46A6.72,6.72,0,0,1,204.69,249.83Z" transform="translate(-25 -52.1)"/><path class="cls-62" d="M159.76,136.31a35.65,35.65,0,0,1,10.62,8.62c7.63,9.21,9.07,20.83,3.79,31.1a17.36,17.36,0,0,1-9.52,8.59c-.87-5.24-1.64-10.37-2.28-15.28,3-6.31.68-11.58-1.57-14.71C160.18,147.34,159.9,141.09,159.76,136.31Z" transform="translate(-25 -52.1)"/><path class="cls-30" d="M314.69,136.22a35.62,35.62,0,0,0-10.89,8.29c-7.89,9-9.68,20.55-4.71,31a17.92,17.92,0,0,0,15.22,10.26c7,.4,14.12-3,17.6-8.39a14.49,14.49,0,0,0,.32-15,6.76,6.76,0,0,0-11.89,6.42c.45.84.32,1.06.17,1.35-.73,1.11-3.07,2.27-5.36,2.13a4.24,4.24,0,0,1-3.85-2.58,2.24,2.24,0,0,1-.22-.5c-2.84-6.4-.33-11.6,2-14.66.31-.37.58-.72.88-1,5.68-6.46,15.24-9.32,22.72-6.86,8.62,2.87,14.07,12.57,15.26,27.29,2.34,28.39-18.14,47.05-30.57,55.61-13.51,9.3-26.79,13.92-35.73,15.47-5.13.94-8.8.87-10.32.15a6.73,6.73,0,0,0-9,3.21,6.66,6.66,0,0,0,.14,6.13,6.38,6.38,0,0,0,3,2.86,16.53,16.53,0,0,0,5.41,1.48c13.25,1.86,35.73-5.43,54.13-18.2,25.58-17.67,38.48-41.75,36.38-67.81-2.3-27.64-16.33-36.34-24.47-39A34.7,34.7,0,0,0,314.69,136.22Z" transform="translate(-25 -52.1)"/><path class="cls-62" d="M266.36,248.33a6.66,6.66,0,0,0,.14,6.13,6.38,6.38,0,0,0,3,2.86,16.53,16.53,0,0,0,5.41,1.48A90.6,90.6,0,0,0,285.65,245c-5.13.94-8.8.87-10.32.15A6.73,6.73,0,0,0,266.36,248.33Z" transform="translate(-25 -52.1)"/><path class="cls-62" d="M314.69,136.22a35.62,35.62,0,0,0-10.89,8.29c-7.89,9-9.68,20.55-4.71,31a17.4,17.4,0,0,0,9.25,8.88c1-5.22,2-10.33,2.74-15.21-2.84-6.4-.33-11.6,2-14.66C313.93,147.23,314.39,141,314.69,136.22Z" transform="translate(-25 -52.1)"/><path class="cls-40" d="M306.62,126.46s0,4.86-.37,12.85c-1.62,31.62-10.33,112.45-56.67,135.41l-2.26,1.92A15.16,15.16,0,0,1,237,280.16l-2.29-.08a15,15,0,0,1-8.9-3.34l-2.65-2.16c-45.49-23.22-53.64-102.37-55.06-134.86-.36-8.7-.27-14.07-.27-14.07,0-7.79,9.16-9.78,9.16-9.78l120.48.71S306.66,118.67,306.62,126.46Z" transform="translate(-25 -52.1)"/><path class="cls-63" d="M299.52,136.76l-124.69-.71a13.93,13.93,0,0,1-13.8-14h0a13.92,13.92,0,0,1,14-13.79l124.69.71A13.9,13.9,0,0,1,313.47,123h0A13.92,13.92,0,0,1,299.52,136.76Z" transform="translate(-25 -52.1)"/><path class="cls-64" d="M306.62,126.46s0,4.86-.37,12.85a13.41,13.41,0,0,1-7.74,2.39L173.82,141a13.84,13.84,0,0,1-5.68-1.26c-.36-8.7-.27-14.07-.27-14.07,0-7.79,9.16-9.78,9.16-9.78l120.48.71S306.66,118.67,306.62,126.46Z" transform="translate(-25 -52.1)"/><path class="cls-30" d="M299.52,136.76l-124.69-.71a13.93,13.93,0,0,1-13.8-14h0a13.92,13.92,0,0,1,14-13.79l124.69.71A13.9,13.9,0,0,1,313.47,123h0A13.92,13.92,0,0,1,299.52,136.76Z" transform="translate(-25 -52.1)"/><path class="cls-30" d="M299.52,136.76l-124.69-.71a13.93,13.93,0,0,1-13.8-14h0a13.92,13.92,0,0,1,14-13.79l124.69.71A13.9,13.9,0,0,1,313.47,123h0A13.92,13.92,0,0,1,299.52,136.76Z" transform="translate(-25 -52.1)"/><path class="cls-30" d="M295.62,399.79l-116.33-.66.3-53a8.94,8.94,0,0,1,9-8.89l98.46.57a8.93,8.93,0,0,1,8.88,9Z" transform="translate(-25 -52.1)"/><path class="cls-30" d="M302,399.83l-129.15-.74a1.42,1.42,0,0,1-1.42-1.43l0-7.1a1.42,1.42,0,0,1,1.43-1.41l129.16.73a1.43,1.43,0,0,1,1.41,1.43l0,7.1A1.42,1.42,0,0,1,302,399.83Z" transform="translate(-25 -52.1)"/><path class="cls-61" d="M302,399.83l-129.15-.74a1.42,1.42,0,0,1-1.42-1.43l0-7.1a1.42,1.42,0,0,1,1.43-1.41l129.16.73a1.43,1.43,0,0,1,1.41,1.43l0,7.1A1.42,1.42,0,0,1,302,399.83Z" transform="translate(-25 -52.1)"/><rect class="cls-40" x="201.3" y="350.96" width="72.7" height="29.72" rx="4.24" transform="translate(-22.91 -53.45) rotate(0.33)"/><rect class="cls-30" x="208.69" y="330.45" width="58.21" height="7.12" rx="1.02" transform="translate(-23.09 -53.45) rotate(0.33)"/><rect class="cls-61" x="208.69" y="330.45" width="58.21" height="7.12" rx="1.02" transform="translate(-23.09 -53.45) rotate(0.33)"/><polygon class="cls-30" points="194.04 311.02 199.69 312.04 195.44 315.91 196.21 321.6 191.22 318.75 186.05 321.25 187.22 315.62 183.24 311.47 188.96 310.84 191.68 305.78 194.04 311.02"/><polygon class="cls-30" points="215.2 311.02 220.85 312.04 216.6 315.91 217.37 321.6 212.38 318.75 207.21 321.25 208.38 315.62 204.41 311.47 210.12 310.84 212.84 305.78 215.2 311.02"/><polygon class="cls-30" points="236.36 311.02 242.02 312.04 237.76 315.91 238.54 321.6 233.55 318.75 228.37 321.25 229.54 315.62 225.57 311.47 231.28 310.84 234 305.78 236.36 311.02"/><path class="cls-4" d="M181.84,411.37c0,1.32-17.91,2.34-40,2.27s-40-1.21-40-2.53,17.92-2.34,40-2.27S181.85,410,181.84,411.37Z" transform="translate(-25 -52.1)"/><path class="cls-48" d="M137.07,266.49s.84-6.67,3.62-9.1c3.62-3.16,11.38-2.32,14.41.7,3.36,3.35,5,10.19,2.24,15.12,5.45,3.19,5.15,10.23.58,10.89l1.6,8.48c1,5.27-2.69,10.32-8.35,11.46l-10.15,2s-17.36-1.64-18.68-10.21,6.57-12.56,6.57-12.56-3.79-7.2.19-12.28S137.07,266.49,137.07,266.49Z" transform="translate(-25 -52.1)"/><path class="cls-44" d="M161.86,291.72s15.64,2.48,19.89,2.29c3.32.19,8.79-18,9.27-19.12a6.25,6.25,0,0,0,3.28-5.2c0-1.26-3.43-2.32-3.75-1.69.56-1.67.68-2.19.84-2.76.31-1.18-.59-2.09-1.89,2.38a50.89,50.89,0,0,0-1.47,5.23c-2.09,4-7.49,13.41-7.86,14.83-7-.16-18.87-2.89-18.87-2.89Z" transform="translate(-25 -52.1)"/><path class="cls-44" d="M137.93,291.84s-12.21,10-15.74,12.16c-2.56,2-18.53-10.05-19.64-10.68-3.2.11-4.54-1-5.31-2.06s1.26-3.74,1.93-3.41c-1.53-1-2-1.38-2.45-1.76-1-.78-.87-2,3,.88s3.3,2.33,4.55,3.41c4.27,2.09,14.66,6.69,15.87,7.63,5.53-4,13.32-12.66,13.32-12.66Z" transform="translate(-25 -52.1)"/><path class="cls-44" d="M156.56,400.49a25,25,0,0,1,.64,5.23c-.32,1.62,0,2.09,0,2.09l6.62-.52s-2.93-1.33-2.72-7.63S156.56,400.49,156.56,400.49Z" transform="translate(-25 -52.1)"/><path class="cls-48" d="M157.12,406.21a11.12,11.12,0,0,0,5.73.24,28.75,28.75,0,0,0,8.75,2.35c3,.35,2.5,2.66-2.7,2.34a69.69,69.69,0,0,0-10,0c-1.15.11-3,.25-3.08-.5S156.18,406,157.12,406.21Z" transform="translate(-25 -52.1)"/><path class="cls-65" d="M159.13,319.33s4.27,38.35,4.52,43.34a62.31,62.31,0,0,1,0,9.77c-.25,3,1.93,28.64,1.93,28.64s-9.93,2.22-12.46.24c0,0,.42-27.91-.85-32.69s-6.21-29-6.21-29l5.7-24.74Z" transform="translate(-25 -52.1)"/><path class="cls-66" d="M137.9,356.1s-.78,8.13-2.4,9.65c-1,2.44-1,2.44.58,3.41,2.41,1.49,7.3,4.34,8.51,3.14,4.54-4.52,4.71-6.11,5.79-11.95.36-1.33,6.69-40,6.69-40s-20.16-2.8-20.23,2.72S138.91,349.67,137.9,356.1Z" transform="translate(-25 -52.1)"/><path class="cls-44" d="M113.06,390.57a28.33,28.33,0,0,1-4.12,3.64c-1.58.75-1.8,1.27-1.8,1.27l4.47,4.54s-.63-2.95,4.93-6.62S113.06,390.57,113.06,390.57Z" transform="translate(-25 -52.1)"/><path class="cls-48" d="M108.47,394.45a9.57,9.57,0,0,0,3.26,4.35,23.74,23.74,0,0,0,3.3,7.83c1.54,2.45-.78,3.46-3.66-.55a61.63,61.63,0,0,0-6.07-7.32c-.79-.78-2-2.05-1.44-2.56S108.11,393.61,108.47,394.45Z" transform="translate(-25 -52.1)"/><path class="cls-66" d="M136.25,364.48c-8.79,11-23.68,19.23-27.88,25.7-.75,2,9,7.23,9,7.23s20.28-18.36,24.43-22.4a39.53,39.53,0,0,0,4.48-4.49C142.34,369.23,138.71,361.41,136.25,364.48Z" transform="translate(-25 -52.1)"/><path class="cls-54" d="M155.1,296.93c-.59,1.38,3.94,20.64,4.7,25.07l-.28-.05c-2-.29-14-1.88-23.73,2.17l-.89-27.19,0-1s0-1,.09-2.6v0c.22-3.24.89-8.69,3-12.2,1.08-1.82,2.51-3.12,4.45-3.31,6-.59,6,1.89,11.64,3.27l9.11,2.26s-1,7.07,0,9.18h-6.33S155.7,295.52,155.1,296.93Z" transform="translate(-25 -52.1)"/><path class="cls-44" d="M153.5,260.59s3.84,8.9.94,13a8.17,8.17,0,0,1-6,3.13v4.38a2.09,2.09,0,0,1-1.21.43c-1.32.07-4.86-2.06-4.86-2.06V262.17Z" transform="translate(-25 -52.1)"/><path class="cls-67" d="M139.35,292.36c-2.08,2.07-3.51,3.56-4.45,4.57l0-1s0-9.59,3.06-14.82a4.25,4.25,0,0,1,1.43-.16C144.19,281.3,143.91,287.82,139.35,292.36Z" transform="translate(-25 -52.1)"/><path class="cls-67" d="M163.12,292.5s-4.27-.18-4.77-1-2.17-4.43-4.79-5.67c0,0,3.68,3.56,3.23,6.65Z" transform="translate(-25 -52.1)"/><path class="cls-67" d="M159.52,322c-2-.29-14-1.88-23.73,2.17l-.89-27.19,0-1s0-1,.09-2.6l2.32.7s.08,23.82,1.24,25.31,11.6.36,14.29.79A51.8,51.8,0,0,1,159.52,322Z" transform="translate(-25 -52.1)"/><path class="cls-54" d="M126.71,289.69s7.81-10.15,12.65-9.79,4.55,6.87,0,11.42-6.07,6.3-6.07,6.3S127.73,295.06,126.71,289.69Z" transform="translate(-25 -52.1)"/><path class="cls-48" d="M153.86,259.57s-1.81,8-6,10.07-1,7.26-5,11.11c-1.18,1.14-2.94.95-4.28.55a5.54,5.54,0,0,0-5.48,1.23,2.67,2.67,0,0,0-.34.43c-5.17-3.42,7.91-22.37,7.91-22.37Z" transform="translate(-25 -52.1)"/><path id="rect2995-2" data-name="rect2995" class="cls-68" d="M212.42,169.32,225,190.39q-5.74,18.3-11.49,36.61H199.9Q206.17,198.16,212.42,169.32Z" transform="translate(-25 -52.1)"/><path id="path3000-2-2" data-name="path3000" class="cls-68" d="M272.62,225.3l-16.69-24q3.17-15.8,6.31-31.58l12.66-3.2Z" transform="translate(-25 -52.1)"/><path id="path3012-2" data-name="path3012" class="cls-69" d="M213.2,168.32l11-10.79L272,227H249.47Z" transform="translate(-25 -52.1)"/><path id="path3000-2-3" data-name="path3000-2" class="cls-68" d="M274.23,165.58l-36.58,9.12-12.1-17.81,40.93,2.94Z" transform="translate(-25 -52.1)"/></g></g></svg>