<?xml version="1.0" encoding="utf-8"?>
<!-- Generator: Adobe Illustrator 24.0.1, SVG Export Plug-In . SVG Version: 6.00 Build 0)  -->
<svg version="1.1" id="Layer_1" xmlns="http://www.w3.org/2000/svg" xmlns:xlink="http://www.w3.org/1999/xlink" x="0px" y="0px"
	 width="500px" height="500px" viewBox="0 0 500 500" style="enable-background:new 0 0 500 500;" xml:space="preserve">
<style type="text/css">
	.st0{fill:#E0E0E0;}
	.st1{fill:#F0F0F0;}
	.st2{display:none;}
	.st3{display:inline;fill:#407BFF;}
	.st4{display:inline;opacity:0.9;fill:#FFFFFF;enable-background:new    ;}
	.st5{fill:#F5F5F5;}
	.st6{fill:#407BFF;}
	.st7{opacity:0.6;fill:#FFFFFF;enable-background:new    ;}
	.st8{opacity:0.2;enable-background:new    ;}
	.st9{opacity:0.4;enable-background:new    ;}
	.st10{opacity:0.3;enable-background:new    ;}
	.st11{opacity:0.5;fill:#FFFFFF;enable-background:new    ;}
	.st12{fill:#E4897B;}
	.st13{fill:#263238;}
	.st14{fill:#DE5753;}
	.st15{opacity:0.6;enable-background:new    ;}
	.st16{fill:#CE6F64;}
	.st17{opacity:0.1;enable-background:new    ;}
	.st18{opacity:0.4;fill:#FFFFFF;enable-background:new    ;}
</style>
<g id="Background_Complete">
	<g>
		<g>
			<g>
				<g>
					<rect x="362.5" y="430.3" class="st0" width="40.9" height="0.4"/>
					<rect x="63.6" y="430.4" class="st0" width="23.1" height="0.4"/>
					<rect x="206.3" y="429.7" class="st0" width="46.6" height="0.4"/>
					<rect x="184.2" y="425.6" class="st0" width="20.8" height="0.4"/>
					<rect x="396.2" y="425.7" class="st0" width="63" height="0.4"/>
					<path class="st0" d="M236.2,364.7H6.8c-3.7,0-6.8-3.1-6.8-6.8V35.5c0-3.7,3.1-6.8,6.8-6.8h229.4c3.7,0,6.8,3.1,6.8,6.8v322.5
						C243,361.6,240,364.7,236.2,364.7z M6.8,28.9c-3.6,0-6.5,2.9-6.5,6.5v322.5c0,3.6,2.9,6.5,6.5,6.5h229.4c3.6,0,6.5-2.9,6.5-6.5
						V35.5c0-3.6-2.9-6.5-6.5-6.5H6.8z"/>
					<path class="st0" d="M493.2,364.7H263.8c-3.7,0-6.8-3.1-6.8-6.8V35.5c0-3.7,3.1-6.8,6.8-6.8h229.4c3.7,0,6.8,3.1,6.8,6.8v322.5
						C500,361.6,497,364.7,493.2,364.7z M263.8,28.9c-3.6,0-6.5,2.9-6.5,6.5v322.5c0,3.6,2.9,6.5,6.5,6.5h229.4
						c3.6,0,6.5-2.9,6.5-6.5V35.5c0-3.6-2.9-6.5-6.5-6.5H263.8z"/>
				</g>
			</g>
		</g>
		<g>
			<g>
				<path class="st0" d="M476.6,269c-14.6-22.2-1.3-46.2-3.4-70.9c-2.3-24.7-25.8-30.2-21.3-51.1c5.1-24.4-8.6-47.6-24.1-47.6
					s-29.3,23.4-24.1,47.6c4.4,21-19.1,26.4-21.3,51.1c-2.3,24.7,11.2,48.7-3.4,70.9c-14.6,22.2-10.8,51.7-2.5,66.3
					c2.3,4,5,7.6,7.8,10.7c23.4,25.3,63.9,25.3,87.3,0c3-3.2,5.6-6.8,7.8-10.7C487.4,320.8,491.2,291.3,476.6,269z"/>
				<path class="st1" d="M435,417.7h-14.7V293.3c0-4,3.3-7.4,7.4-7.4l0,0c4,0,7.4,3.3,7.4,7.4L435,417.7L435,417.7z"/>
			</g>
			<g>
				<path class="st0" d="M334.7,417.7h-20.1V293.3c0-5.6,4.5-10.1,10.1-10.1l0,0c5.6,0,10.1,4.5,10.1,10.1v124.4H334.7z"/>
				<circle class="st1" cx="324.6" cy="322.2" r="62"/>
				<ellipse class="st1" cx="373.8" cy="297.7" rx="24.5" ry="24.5"/>
				<ellipse class="st1" cx="274.6" cy="283.2" rx="14.5" ry="14.5"/>
				<circle class="st1" cx="290.3" cy="275.7" r="10.1"/>
			</g>
			<path class="st0" d="M197,343.5c-10.3,1.5-19.2,5.2-27,10.3c-0.1-9.4-1.8-18.3-6.2-25.5c-6.8,6.5-12.1,15.1-16.6,24.1
				c-1.7-17.1-6.2-33.7-16.2-44.3c-15,9.4-22.7,25.1-26.3,41.6c-5.9-10.6-14.1-20.4-25.5-27.6c-9.1,9.6-12,22.9-11.8,36.6
				c-10.3-12.1-21.9-21.5-33.2-22.6c-2.9,19.1,3.1,37.2,10.6,51.4c9.9,18.7,29.3,30.2,50.5,30.2h48.8c20.8,0,40.3-11.1,50-29.5
				C200.5,376.6,203.4,361.6,197,343.5z"/>
			<path class="st1" d="M183.1,96.5c6.1-17.7,1.2-30.3-13.5-30.3c-9.3,0-20.7,5-31.8,13.1c-1.3-4.6-4.9-7.4-10.6-7.4
				c-10.1,0-23.9,8.6-34.8,20.6c-2.6-2.7-6.4-4.3-11.3-4.6c-9.6-0.6-21.3,4.4-31.4,12.4c-0.8-1.3-2.4-2.1-4.5-2.3
				c-5.6-0.4-13.1,4.6-16.8,11.1c-0.2,0.4-0.5,0.8-0.6,1.2h11.5h9.1h31.8H96h12.2h18.7h3.4h46.5h9.1
				C186.4,104.6,185.5,99.9,183.1,96.5z"/>
			<path class="st1" d="M183.6,203.8c3-8.7,0.6-14.7-6.7-14.7c-4.5,0-10.1,2.4-15.6,6.3c-0.6-2.3-2.4-3.6-5.1-3.6
				c-4.9,0-11.6,4.2-17,10c-1.3-1.3-3.1-2.1-5.6-2.3c-4.8-0.2-10.5,2.1-15.3,6.1c-0.5-0.6-1.2-1.1-2.1-1.1c-2.7-0.1-6.4,2.3-8.2,5.3
				c-0.1,0.2-0.2,0.4-0.4,0.6h5.6h4.5h15.6h7.6h5.9h9.1h1.7h22.7h4.5C185.2,207.8,184.8,205.5,183.6,203.8z"/>
			<path class="st1" d="M361.9,138.6c-0.6-0.1-1.2-0.1-1.8-0.1c0.6-8.7-2.7-14.1-9.7-14.1c-5.1,0-11.3,2.9-17.7,7.7
				c1.8-16.8-4-27.6-17.2-27.6c-10.6,0-24.1,7.1-37.4,18.7c-1.2-6.5-5.1-10.5-11.6-10.5c-11.5,0-28,12.1-41.1,29.3l0,0
				c-2.9-3.8-7.1-6.2-12.7-6.5c-11.1-0.8-24.7,6.2-36.8,17.6c-1-1.9-2.6-3.1-5-3.3c-6.1-0.5-14.4,5.8-19.1,14.3h14h9.5h36.6h17.1
				h15.3h21.7h41h15.9h5.7h22.7h20.4C376.8,151.2,372.6,140,361.9,138.6z"/>
		</g>
	</g>
</g>
<g id="Background_Simple" class="st2">
	<path class="st3" d="M122.7,151.2c-91.4,53.4-96.8,233.4,33.2,229.9c58.1-1.5,75.1-62.5,127.5-83.9c49.2-20.1,91.7,20.2,141.5-25.4
		c58.6-53.7,67-185-20.1-193.8c-37.9-3.8-52.5,34-85.7,42.4C252,137.4,190.6,111.6,122.7,151.2z"/>
	<path class="st4" d="M122.7,151.2c-91.4,53.4-96.8,233.4,33.2,229.9c58.1-1.5,75.1-62.5,127.5-83.9c49.2-20.1,91.7,20.2,141.5-25.4
		c58.6-53.7,67-185-20.1-193.8c-37.9-3.8-52.5,34-85.7,42.4C252,137.4,190.6,111.6,122.7,151.2z"/>
</g>
<g id="Shadow">
	<ellipse class="st5" cx="251.7" cy="457.9" rx="230.4" ry="13.4"/>
</g>
<g id="Mail">
	<g>
		<g>
			<g>
				<polygon class="st6" points="12.7,142.3 283.5,181.3 319.9,218 				"/>
				<polygon class="st7" points="12.7,142.3 283.5,181.3 319.9,218 				"/>
			</g>
			<g>
				<polygon class="st6" points="12.7,142.3 283.5,181.3 270.9,234.3 				"/>
				<polygon class="st8" points="12.7,142.3 283.5,181.3 270.9,234.3 				"/>
			</g>
			<g>
				<g>
					<path class="st6" d="M265.4,80.9l15.7,73.7c0.8,4-1.7,8-5.7,8.8l-140.3,29.9c-4,0.8-8-1.7-8.8-5.7l-15.7-73.7
						c-0.5-2.1,0-4.2,1.2-5.8c1.1-1.4,2.6-2.6,4.5-3l140.3-29.9c1.9-0.4,3.8,0,5.3,1C263.7,77.1,265,78.7,265.4,80.9z"/>
					<path class="st9" d="M265.4,80.9l15.7,73.7c0.8,4-1.7,8-5.7,8.8l-140.3,29.9c-4,0.8-8-1.7-8.8-5.7l-15.7-73.7
						c-0.5-2.1,0-4.2,1.2-5.8c1.1-1.4,2.6-2.6,4.5-3l140.3-29.9c1.9-0.4,3.8,0,5.3,1C263.7,77.1,265,78.7,265.4,80.9z"/>
				</g>
				<path class="st6" d="M262,76l-46.9,57.5c-8.9,10.9-24.4,14.3-37,7.8l-66.3-33.4c1.1-1.4,2.6-2.6,4.5-3L256.7,75
					C258.6,74.7,260.5,75,262,76z"/>
			</g>
			<g>
				<polygon class="st6" points="12.7,142.3 236.1,195.3 270.9,234.3 				"/>
				<polygon class="st7" points="12.7,142.3 236.1,195.3 270.9,234.3 				"/>
			</g>
			
				<rect x="105.7" y="186.8" transform="matrix(0.5055 -0.8628 0.8628 0.5055 -121.0224 191.2163)" class="st6" width="1.2" height="28.8"/>
			
				<rect x="133.6" y="212.4" transform="matrix(0.5055 -0.8628 0.8628 0.5055 -121.4029 223.3515)" class="st6" width="1.2" height="10.3"/>
			<polygon class="st6" points="12.7,142.3 236.1,195.3 192.6,247.7 			"/>
		</g>
		<g>
			<g>
				<path class="st6" d="M311.5,266.7c-0.2,0-0.6,0-0.8-0.1l-36.5-14.5c-1.2-0.5-1.8-1.9-1.3-3.1c0.5-1.2,1.9-1.8,3.1-1.3l36.4,14.4
					c1.2,0.5,1.8,1.9,1.3,3.1C313.3,266.1,312.5,266.7,311.5,266.7z"/>
				<path class="st10" d="M311.5,266.7c-0.2,0-0.6,0-0.8-0.1l-36.5-14.5c-1.2-0.5-1.8-1.9-1.3-3.1c0.5-1.2,1.9-1.8,3.1-1.3
					l36.4,14.4c1.2,0.5,1.8,1.9,1.3,3.1C313.3,266.1,312.5,266.7,311.5,266.7z"/>
			</g>
			<g>
				<path class="st6" d="M309.4,245.8c-0.2,0-0.6,0-0.8-0.1l-19.6-7.7c-1.2-0.5-1.8-1.9-1.3-3.1s1.9-1.8,3.1-1.3l19.6,7.7
					c1.2,0.5,1.8,1.9,1.3,3.1C311.2,245.2,310.4,245.8,309.4,245.8z"/>
				<path class="st11" d="M309.4,245.8c-0.2,0-0.6,0-0.8-0.1l-19.6-7.7c-1.2-0.5-1.8-1.9-1.3-3.1s1.9-1.8,3.1-1.3l19.6,7.7
					c1.2,0.5,1.8,1.9,1.3,3.1C311.2,245.2,310.4,245.8,309.4,245.8z"/>
			</g>
			<g>
				<path class="st6" d="M268.5,266.3c-0.2,0-0.6,0-0.8-0.1l-35.5-14.1c-1.2-0.5-1.8-1.9-1.3-3.1c0.5-1.2,1.9-1.8,3.1-1.3l35.5,14
					c1.2,0.5,1.8,1.9,1.3,3.1C270.3,265.7,269.5,266.3,268.5,266.3z"/>
				<path class="st10" d="M268.5,266.3c-0.2,0-0.6,0-0.8-0.1l-35.5-14.1c-1.2-0.5-1.8-1.9-1.3-3.1c0.5-1.2,1.9-1.8,3.1-1.3l35.5,14
					c1.2,0.5,1.8,1.9,1.3,3.1C270.3,265.7,269.5,266.3,268.5,266.3z"/>
			</g>
		</g>
	</g>
</g>
<g id="Character">
	<g>
		<path class="st12" d="M397,159.2c3.1,6.2,6.1,12.2,8.8,18.7c2.7,6.3,5.3,12.7,7.5,19.4l0.8,2.5c0.1,0.5,0.4,1.2,0.5,1.7
			c0.1,0.6,0.2,1.1,0.2,1.7c0.4,2,0.4,3.9,0.4,5.8c0,3.7-0.2,7.1-0.5,10.6c-0.7,6.9-1.8,13.7-3.2,20.4l-6.5-0.7
			c-0.1-6.7-0.1-13.4-0.4-20.1c-0.1-3.3-0.4-6.5-0.6-9.6c-0.1-1.5-0.5-3.1-0.7-4.3c-0.1-0.4-0.1-0.6-0.2-0.8s-0.1-0.4-0.2-0.7
			l-1-2.3c-2.5-6.1-5.2-12.1-8.1-18.1l-8.7-18.1L397,159.2z"/>
		<path class="st12" d="M405.1,237.1l-3.1,5.7l9.7,2.7c0,0,1.9-4.6-0.4-8.2L405.1,237.1z"/>
		<polygon class="st12" points="398.3,251 407.3,251.7 411.8,245.5 402.1,242.8 		"/>
		<path class="st13" d="M356.1,118.2c-0.1,0.7-0.6,1.2-1.1,1.1s-0.7-0.7-0.6-1.4c0.1-0.7,0.6-1.2,1.1-1.1
			C356,116.9,356.2,117.5,356.1,118.2z"/>
		<path class="st14" d="M355.5,119.4c0,0-2.4,3.7-4.5,5.2c1,1.4,3.2,1.3,3.2,1.3L355.5,119.4z"/>
		<path class="st13" d="M359.4,114.8c-0.1,0-0.2,0-0.4-0.1c-1.2-1.3-2.7-1.1-2.7-1.1c-0.2,0-0.5-0.1-0.5-0.4c0-0.2,0.1-0.5,0.4-0.5
			c0.1,0,2-0.4,3.6,1.4c0.1,0.1,0.1,0.5,0,0.6C359.6,114.7,359.4,114.8,359.4,114.8z"/>
		<path class="st12" d="M375.7,127.8c-1.3,6.4-2.5,18.1,2,22.3c0,0-1.8,6.5-13.7,6.5c-13.1,0-6.2-6.5-6.2-6.5c7.1-1.7,6.9-7,5.7-12
			L375.7,127.8z"/>
		<path class="st13" d="M379.5,154.2c1-3.1,2-6.7-0.1-7.8c-2.4-1.2-15.3-2.5-19.7-0.1c-4.4,2.3-3.2,8.7-3.2,8.7L379.5,154.2z"/>
		<path class="st6" d="M406.8,450.5c-1,0-1.8-0.1-2.1-0.6c-0.1-0.2-0.2-0.5,0-1c0.1-0.2,0.4-0.4,0.6-0.5c1.3-0.2,3.7,1.3,3.8,1.4
			c0.1,0,0.1,0.1,0.1,0.2s-0.1,0.1-0.1,0.1C408.7,450.4,407.8,450.5,406.8,450.5z M405.8,448.8c-0.1,0-0.1,0-0.2,0s-0.4,0.1-0.4,0.2
			c-0.2,0.4-0.1,0.5,0,0.5c0.4,0.5,2.1,0.5,3.4,0.2C407.8,449.6,406.6,448.8,405.8,448.8z"/>
		<path class="st6" d="M409.1,450.3L409.1,450.3c-1-0.5-2.7-2.4-2.6-3.4c0-0.1,0.1-0.5,0.7-0.6c0.4,0,0.6,0,0.8,0.2
			c1.1,0.8,1.2,3.3,1.2,3.4C409.3,450.2,409.3,450.3,409.1,450.3C409.2,450.3,409.2,450.3,409.1,450.3z M407.3,446.7L407.3,446.7
			c-0.4,0-0.4,0.1-0.4,0.2c-0.1,0.6,1,2,1.9,2.7c-0.1-0.7-0.4-2.3-1.1-2.7C407.7,446.8,407.6,446.7,407.3,446.7z"/>
		<path class="st6" d="M354.4,450.5c-1.1,0-2.3-0.1-2.6-0.7c-0.1-0.1-0.2-0.5,0-1c0.1-0.2,0.4-0.4,0.7-0.5c1.4-0.4,4.5,1.3,4.6,1.4
			c0.1,0,0.1,0.1,0.1,0.2s-0.1,0.1-0.1,0.1C356.6,450.4,355.5,450.5,354.4,450.5z M353.1,448.8c-0.1,0-0.2,0-0.4,0
			c-0.2,0-0.4,0.1-0.4,0.2c-0.1,0.2-0.1,0.4,0,0.5c0.4,0.6,2.6,0.6,4.3,0.4C355.6,449.6,354.1,448.8,353.1,448.8z"/>
		<path class="st6" d="M357.1,450.3L357.1,450.3c-1.2-0.5-3.2-2.4-3.1-3.3c0-0.2,0.2-0.5,0.7-0.6c0.5,0,0.8,0.1,1.2,0.4
			c1.1,1,1.3,3.2,1.3,3.3S357.2,450.2,357.1,450.3C357.2,450.3,357.2,450.3,357.1,450.3z M355,446.7h-0.1c-0.4,0-0.4,0.2-0.4,0.2
			c-0.1,0.6,1.3,2,2.4,2.7c-0.1-0.7-0.5-2.1-1.2-2.7C355.5,446.8,355.3,446.7,355,446.7z"/>
		<polygon class="st12" points="366.7,450 358,450 357.1,429.8 365.9,429.8 		"/>
		<polygon class="st12" points="419.1,450 410.4,450 406,429.8 414.7,429.8 		"/>
		<path class="st13" d="M409.8,449.1h9.9c0.4,0,0.7,0.2,0.7,0.6l1.8,7.7c0.2,0.8-0.5,1.5-1.3,1.5c-3.4,0-5.1-0.2-9.4-0.2
			c-2.6,0-8.1,0.2-11.8,0.2c-3.6,0-4.2-3.6-2.6-3.9c6.8-1.4,9.3-3.4,11.4-5.5C408.7,449.3,409.2,449.1,409.8,449.1z"/>
		<path class="st13" d="M358,449.1h9.5c0.4,0,0.7,0.2,0.7,0.6l1.8,7.7c0.2,0.8-0.5,1.5-1.3,1.5c-3.4,0-8.4-0.2-12.7-0.2
			c-5.1,0-9.4,0.2-15.3,0.2c-3.6,0-4.6-3.6-3.1-3.9c6.8-1.5,12.4-1.7,18.3-5.3C356.6,449.3,357.3,449.1,358,449.1z"/>
		<path class="st12" d="M353.8,165.5c-7.4-0.6-14.5-1.5-21.7-2.9c-3.6-0.7-7.2-1.4-10.8-2.5c-3.6-1-7.2-2-10.9-3.6
			c-1-0.4-1.8-0.8-2.7-1.2c-1.2-0.6-2.1-1.2-3-1.8c-1.7-1.2-3.2-2.3-4.6-3.4c-2.9-2.4-5.6-4.8-8.3-7.2c-5.3-4.9-10.3-10-15.2-15.3
			l4.4-4.9l17.2,12.4c2.9,2,5.7,4,8.6,5.9c1.4,1,2.9,1.8,4.2,2.6c0.7,0.4,1.3,0.7,1.7,0.8c0.7,0.2,1.4,0.6,2.1,0.8
			c6.1,2,12.8,3.3,19.6,4.4c6.8,1.1,13.8,1.9,20.6,2.6L353.8,165.5z"/>
		<g>
			<path class="st6" d="M393.3,152.2c8.2,1.9,16.4,25.8,16.4,25.8l-16.9,12.1c0,0-4.8-11.2-9.4-20.9
				C378.8,158.9,385,150.2,393.3,152.2z"/>
			<path class="st9" d="M393.3,152.2c8.2,1.9,16.4,25.8,16.4,25.8l-16.9,12.1c0,0-4.8-11.2-9.4-20.9
				C378.8,158.9,385,150.2,393.3,152.2z"/>
		</g>
		<g>
			<path class="st6" d="M388.7,165.2l-3.3,7.5c3.4,7.5,6.7,14.9,7.5,16.9C392.6,180.7,390.9,169.7,388.7,165.2z"/>
			<path class="st15" d="M388.7,165.2l-3.3,7.5c3.4,7.5,6.7,14.9,7.5,16.9C392.6,180.7,390.9,169.7,388.7,165.2z"/>
		</g>
		<g>
			<path class="st6" d="M344.5,152.6c0,0-9.3,10.5-0.5,75.5c14,0,39.8,0,46.7,0c0.4-7.1-4.2-42.2,2.7-75.9c0,0-8-1.7-15.7-2
				c-5.9-0.2-14.6-0.5-19.8,0C350.9,150.8,344.5,152.6,344.5,152.6z"/>
			<path class="st9" d="M344.5,152.6c0,0-9.3,10.5-0.5,75.5c14,0,39.8,0,46.7,0c0.4-7.1-4.2-42.2,2.7-75.9c0,0-8-1.7-15.7-2
				c-5.9-0.2-14.6-0.5-19.8,0C350.9,150.8,344.5,152.6,344.5,152.6z"/>
		</g>
		<g>
			<path class="st6" d="M341,165.2c-0.4,2.5-0.6,5.3-0.7,8.8c3.9-1.2,8.7-3.1,13-6.1L341,165.2z"/>
			<path class="st15" d="M341,165.2c-0.4,2.5-0.6,5.3-0.7,8.8c3.9-1.2,8.7-3.1,13-6.1L341,165.2z"/>
		</g>
		<g>
			<path class="st6" d="M361,166.5c-6.3,5.6-30.1,5-30.1,5l-0.8-23.1c0,0,13.5,2,24.4,1.8C367.8,149.9,367.8,160.5,361,166.5z"/>
			<path class="st9" d="M361,166.5c-6.3,5.6-30.1,5-30.1,5l-0.8-23.1c0,0,13.5,2,24.4,1.8C367.8,149.9,367.8,160.5,361,166.5z"/>
		</g>
		<path class="st12" d="M281.1,122.8l-5.9-7l-6.4,7.1c0,0,3.9,6.7,10.2,5.6L281.1,122.8z"/>
		<polygon class="st12" points="266.6,107.7 264.4,116.9 268.7,122.9 275.1,115.9 		"/>
		<g>
			<polygon class="st16" points="357.2,429.8 357.5,440.3 366.3,440.3 365.9,429.8 			"/>
			<polygon class="st16" points="414.7,429.8 406,429.8 408.3,440.3 417.1,440.3 			"/>
		</g>
		<path class="st13" d="M362.4,109.5c-7.8-3.6-10.3-19.4,12.2-15.4c0,0-3.4,3.8,3.4,6.2C385,102.5,379.3,117.2,362.4,109.5z"/>
		<path class="st12" d="M379.4,121.4c-2.3,8.3-3.1,13.4-8.3,16.9c-7.7,5.2-17.5-0.8-17.7-9.6c-0.2-8,3.4-20.3,12.5-22
			C374.6,104.9,381.7,112.9,379.4,121.4z"/>
		<path class="st13" d="M374.3,98.2c5.3,3,12.6,4.8,11.9,9c-0.8,5.1,4.4,1.9,3.1,9.6c-0.8,5-10.1,20.2-16.6,19.5
			c-9.9-1.1-8.6-16.2-8.6-24C364.1,107.7,363.8,92.4,374.3,98.2z"/>
		<path class="st13" d="M362.9,104.9c-2.4,0.6-5.6,14.3,3.7,15.6C377.1,121.9,362.9,104.9,362.9,104.9z"/>
		<path class="st13" d="M363.1,109.7c-3,0.2-9.5-3.2-8.7-8.6C354.4,101.2,358.6,107.4,363.1,109.7z"/>
		<path class="st12" d="M367.4,121.5c-1,2-2.6,3.7-4.3,4.6c-2.5,1.3-3.9-0.6-3.3-3.1c0.5-2.3,2.4-5.7,5-5.9
			C367.4,116.7,368.5,119.1,367.4,121.5z"/>
		<path class="st13" d="M380.5,111.8c1.8-1,5.8-3,6.9-8.7C387.4,103.1,391.3,114,380.5,111.8z"/>
		<path class="st13" d="M390.4,111.8c-0.8-0.5-2.9-1.7-5.7-0.6C384.7,111.2,388.4,106.4,390.4,111.8z"/>
		<g>
			<path class="st6" d="M360.5,228.1c0,0,9.9,66.7,15.3,91.7c5.9,27.3,28.4,118.6,28.4,118.6h16c0,0-14.9-89-18.2-116.1
				c-3.7-29.5-11.4-94.2-11.4-94.2L360.5,228.1L360.5,228.1z"/>
			<path class="st11" d="M360.5,228.1c0,0,9.9,66.7,15.3,91.7c5.9,27.3,28.4,118.6,28.4,118.6h16c0,0-14.9-89-18.2-116.1
				c-3.7-29.5-11.4-94.2-11.4-94.2L360.5,228.1L360.5,228.1z"/>
		</g>
		<g>
			<path class="st6" d="M401.6,432.5c-0.1,0,1.7,6.2,1.7,6.2h17.9l-0.4-5.5L401.6,432.5z"/>
			<path class="st17" d="M401.6,432.5c-0.1,0,1.7,6.2,1.7,6.2h17.9l-0.4-5.5L401.6,432.5z"/>
		</g>
		<g>
			<path class="st6" d="M366.7,251.8c11.4,2.3,10.2,44.9,8.9,66.9c-3.3-15.6-8.1-45.4-11.4-66.7
				C364.9,251.7,365.7,251.6,366.7,251.8z"/>
			<path class="st18" d="M366.7,251.8c11.4,2.3,10.2,44.9,8.9,66.9c-3.3-15.6-8.1-45.4-11.4-66.7
				C364.9,251.7,365.7,251.6,366.7,251.8z"/>
		</g>
		<g>
			<path class="st6" d="M343.9,228.1c0,0-1.2,65.2-0.2,91.8c1,27.7,10.7,118.3,10.7,118.3h14.7c0,0,0.6-89,1.2-116.2
				c0.7-29.6,4.3-94,4.3-94L343.9,228.1L343.9,228.1z"/>
			<path class="st11" d="M343.9,228.1c0,0-1.2,65.2-0.2,91.8c1,27.7,10.7,118.3,10.7,118.3h14.7c0,0,0.6-89,1.2-116.2
				c0.7-29.6,4.3-94,4.3-94L343.9,228.1L343.9,228.1z"/>
		</g>
		<g>
			<path class="st6" d="M357.4,427.7c-0.1,0-0.1,0-0.1-0.1c-2.6-25.1-8.8-85.8-9.5-107.5c-0.8-22.2-0.1-72.1,0.1-86.9
				c0-0.1,0.1-0.1,0.1-0.1l0,0c0.1,0,0.1,0.1,0.1,0.1c-0.2,14.7-1,64.6-0.1,86.9c0.8,21.7,6.9,82.5,9.5,107.5
				C357.5,427.6,357.5,427.7,357.4,427.7L357.4,427.7z"/>
			<path class="st18" d="M357.4,427.7c-0.1,0-0.1,0-0.1-0.1c-2.6-25.1-8.8-85.8-9.5-107.5c-0.8-22.2-0.1-72.1,0.1-86.9
				c0-0.1,0.1-0.1,0.1-0.1l0,0c0.1,0,0.1,0.1,0.1,0.1c-0.2,14.7-1,64.6-0.1,86.9c0.8,21.7,6.9,82.5,9.5,107.5
				C357.5,427.6,357.5,427.7,357.4,427.7L357.4,427.7z"/>
		</g>
		<g>
			<path class="st6" d="M351.5,432.5c-0.1,0,0.8,6.2,0.8,6.2h17.9l0.5-5.5L351.5,432.5z"/>
			<path class="st17" d="M351.5,432.5c-0.1,0,0.8,6.2,0.8,6.2h17.9l0.5-5.5L351.5,432.5z"/>
		</g>
	</g>
</g>
</svg>
