<?xml version="1.0" encoding="utf-8"?>
<!-- Generator: Adobe Illustrator 24.0.1, SVG Export Plug-In . SVG Version: 6.00 Build 0)  -->
<svg version="1.1" id="Layer_1" xmlns="http://www.w3.org/2000/svg" xmlns:xlink="http://www.w3.org/1999/xlink" x="0px" y="0px"
	 width="424.8px" height="383.6px" viewBox="0 0 424.8 383.6" style="enable-background:new 0 0 424.8 383.6;" xml:space="preserve"
	>
<style type="text/css">
	.st0{fill:#0A4499;}
	.st1{fill:#0067D0;}
	.st2{fill:#01706A;}
	.st3{fill:#008E8C;}
</style>
<title>NDT-3D</title>
<g id="n-right">
	<g>
		<polygon class="st0" points="405.7,374.4 385.6,364.2 301.3,236.7 321.5,247 		"/>
		<g>
			<g>
				<path class="st0" d="M321.5,247l-20.1-10.3c12.3-55.8,24.6-111.7,36.8-167.5l20.1,10.3C346,135.4,333.7,191.2,321.5,247"/>
			</g>
		</g>
		<g>
			<g>
				<path class="st0" d="M358.3,79.5l-20.1-10.3c22.2-5.6,44.4-11.2,66.5-16.8l20.1,10.3C402.7,68.3,380.5,74,358.3,79.5"/>
			</g>
		</g>
		<path class="st1" d="M424.9,62.7c-6.4,103.9-12.8,207.8-19.1,311.7L321.5,247c12.3-55.8,24.5-111.7,36.8-167.5
			C380.5,74,402.7,68.3,424.9,62.7z"/>
	</g>
</g>
<g id="d-top">
	<g>
		<g>
			<g>
				<path class="st2" d="M162.9,10.3L142.7,0l213.4,16l20.1,10.3C305.2,21,234,15.6,162.9,10.3"/>
			</g>
		</g>
		<polygon class="st2" points="223.9,104.9 203.8,94.6 142.7,0 162.9,10.3 		"/>
		<path class="st3" d="M162.9,10.3C234,15.6,305.1,21,376.2,26.3c13.3,10.2,26.5,20.4,39.8,30.6C352,72.9,287.9,88.9,223.9,104.9
			L162.9,10.3z"/>
	</g>
</g>
<g id="n-center">
	<g>
		<polygon class="st0" points="281.6,383.3 261.5,373 79.2,61.3 99.3,71.6 		"/>
		<polygon class="st0" points="99.3,71.6 79.2,61.3 138,4.2 158.2,14.5 		"/>
		<polygon class="st1" points="158.2,14.5 399,383.6 281.6,383.3 99.3,71.6 		"/>
	</g>
</g>
<g id="n-left">
	<g>
		<g>
			<g>
				<path class="st0" d="M20.2,383.3L0,373C24.1,271.1,48.3,169.1,72.5,67.1l20.1,10.3C68.5,179.3,44.3,281.3,20.2,383.3"/>
			</g>
		</g>
		<path class="st1" d="M92.6,77.4c21,37.3,42.1,74.6,63.1,111.9c-21.5,64.7-43,129.4-64.5,194.1l-71.1-0.2
			C44.3,281.3,68.5,179.4,92.6,77.4z"/>
	</g>
</g>
</svg>
