<?xml version="1.0" encoding="utf-8"?>
<!-- Generator: Adobe Illustrator 24.0.1, SVG Export Plug-In . SVG Version: 6.00 Build 0)  -->
<svg version="1.1" id="Layer_1" xmlns="http://www.w3.org/2000/svg" xmlns:xlink="http://www.w3.org/1999/xlink" x="0px" y="0px"
	 width="500px" height="500px" viewBox="0 0 500 500" style="enable-background:new 0 0 500 500;" xml:space="preserve">
<style type="text/css">
	.st0{fill:#EBEBEB;}
	.st1{fill:#F0F0F0;}
	.st2{fill:#F5F5F5;}
	.st3{fill:#E6E6E6;}
	.st4{fill:#FAFAFA;}
	.st5{fill:#FFFFFF;}
	.st6{opacity:0.4;}
	.st7{fill:#E0E0E0;}
	.st8{display:none;}
	.st9{display:inline;}
	.st10{fill:#407BFF;}
	.st11{opacity:0.9;fill:#FFFFFF;enable-background:new    ;}
	.st12{fill:#263238;}
	.st13{opacity:0.2;fill:#FFFFFF;enable-background:new    ;}
	.st14{opacity:0.1;enable-background:new    ;}
	.st15{opacity:0.4;fill:#FFFFFF;enable-background:new    ;}
	.st16{opacity:0.6;}
</style>
<g id="Background_Complete">
	<g>
		<rect y="382.4" class="st0" width="500" height="0.3"/>
		<rect x="435" y="398.5" class="st0" width="14.9" height="0.3"/>
		<rect x="322.5" y="401.2" class="st0" width="8.7" height="0.3"/>
		<rect x="396.6" y="389.2" class="st0" width="34.2" height="0.3"/>
		<rect x="66.4" y="394.4" class="st0" width="43.2" height="0.3"/>
		<rect x="118.5" y="394.4" class="st0" width="15.6" height="0.3"/>
		<rect x="161.1" y="391" class="st0" width="93.7" height="0.3"/>
		<path class="st0" d="M237,337.8H43.9c-3.1,0-5.7-2.6-5.7-5.7V60.7c0-3.1,2.6-5.7,5.7-5.7H237c3.1,0,5.7,2.6,5.7,5.7v271.4
			C242.7,335.2,240.2,337.8,237,337.8z M43.9,55.2c-3,0-5.5,2.4-5.5,5.5v271.4c0,3,2.4,5.5,5.5,5.5H237c3,0,5.5-2.4,5.5-5.5V60.7
			c0-3-2.4-5.5-5.5-5.5H43.9z"/>
		<path class="st0" d="M453.3,337.8H260.2c-3.1,0-5.7-2.6-5.7-5.7V60.7c0-3.1,2.6-5.7,5.7-5.7h193.1c3.1,0,5.7,2.6,5.7,5.7v271.4
			C459,335.2,456.5,337.8,453.3,337.8z M260.2,55.2c-3,0-5.5,2.4-5.5,5.5v271.4c0,3,2.4,5.5,5.5,5.5h193.1c3,0,5.5-2.4,5.5-5.5V60.7
			c0-3-2.4-5.5-5.5-5.5H260.2z"/>
	</g>
	<g>
		<g>
			<g>
				<g>
					<rect x="221.5" y="321" class="st1" width="7.9" height="54.1"/>
					<rect x="61.7" y="375.1" class="st1" width="162.5" height="7.3"/>
					<rect x="56.5" y="321" class="st2" width="165" height="54.1"/>
					<rect x="67.2" y="330.4" class="st1" width="143.7" height="30.9"/>
					<path class="st2" d="M104,334.6h69.9c1.3,0,2.4-1.1,2.4-2.4v-0.4c0-1.3-1.1-2.4-2.4-2.4H104c-1.3,0-2.4,1.1-2.4,2.4v0.4
						C101.7,333.5,102.7,334.6,104,334.6z"/>
				</g>
				<rect x="52.9" y="316.2" class="st1" width="168.6" height="4.8"/>
				<rect x="221.5" y="316.2" class="st3" width="11.7" height="4.8"/>
			</g>
		</g>
		<g>
			<g>
				<rect x="215.5" y="82.6" class="st3" width="211.4" height="162.2"/>
				<path class="st3" d="M195.7,76.3h243.2c1,0,1.8,0.8,1.8,1.8l0,0c0,1-0.8,1.8-1.8,1.8H195.7c-1,0-1.8-0.8-1.8-1.8l0,0
					C193.8,77.2,194.7,76.3,195.7,76.3z"/>
				<rect x="207.7" y="82.6" class="st1" width="215.6" height="162.2"/>
				<polygon class="st3" points="215.5,244.8 426.9,244.8 426.9,250 210.1,250 				"/>
				<polygon class="st1" points="194.6,244.8 410.2,244.8 404.8,250 189.2,250 				"/>
				<rect x="218.6" y="93.6" class="st4" width="193.7" height="140.2"/>
				<polygon class="st5" points="347.6,233.8 283.2,93.6 252.8,93.6 317.2,233.8 				"/>
				<polygon class="st5" points="310.7,233.8 246.3,93.6 234.5,93.6 298.9,233.8 				"/>
				<rect x="218.6" y="93.6" class="st3" width="1.4" height="140.2"/>
			</g>
			<g class="st6">
				<rect x="412.2" y="73" class="st1" width="18.9" height="133.8"/>
				<rect x="404.8" y="73" class="st3" width="14.7" height="133.8"/>
				<rect x="393.2" y="73" class="st1" width="18.9" height="133.8"/>
				<rect x="385.9" y="73" class="st3" width="14.7" height="133.8"/>
				<rect x="374.3" y="73" class="st1" width="18.9" height="133.8"/>
			</g>
			<g class="st6">
				<rect x="225.6" y="73" class="st1" width="10.9" height="133.8"/>
				<rect x="221.4" y="73" class="st3" width="8.5" height="133.8"/>
				<rect x="214.8" y="73" class="st1" width="10.9" height="133.8"/>
				<rect x="210.5" y="73" class="st3" width="8.5" height="133.8"/>
				<rect x="203.8" y="73" class="st1" width="10.9" height="133.8"/>
			</g>
		</g>
		<g>
			<rect x="70.3" y="73.1" class="st2" width="86.9" height="222"/>
			<rect x="157.2" y="73.2" class="st7" width="2.4" height="222"/>
			<rect x="78.4" y="81.2" class="st5" width="70.8" height="205.9"/>
			<polygon class="st4" points="103.3,287.1 126.8,81.2 140.3,81.2 116.9,287.1 			"/>
			<polygon class="st4" points="91.6,287.1 115,81.2 121.8,81.2 98.3,287.1 			"/>
		</g>
	</g>
</g>
<g id="Background_Simple" class="st8">
	<g class="st9">
		<path class="st10" d="M370.8,199.9c27.4,65.8-95.4,112.5-164.2,110.4C119.6,307.7,66,266.6,59,194.6
			c-6.9-71.4,68.6-121.5,132.5-98.4c31.5,11.4,56.4,35.7,88,47.6C316.9,158,353.7,158.8,370.8,199.9z"/>
		<path class="st11" d="M370.8,199.9c27.4,65.8-95.4,112.5-164.2,110.4C119.6,307.7,66,266.6,59,194.6
			c-6.9-71.4,68.6-121.5,132.5-98.4c31.5,11.4,56.4,35.7,88,47.6C316.9,158,353.7,158.8,370.8,199.9z"/>
	</g>
</g>
<g id="Shadow_1_">
	<ellipse id="_x3C_Path_x3E__316_" class="st2" cx="250" cy="416.2" rx="193.9" ry="11.3"/>
</g>
<g id="Smartphone">
	<g>
		<path class="st12" d="M358.7,422.3H232.6c-7.6,0-13.3-6.2-12.7-13.6l17.6-266.9c0.5-7.6,7-13.6,14.6-13.6h126.2
			c7.6,0,13.3,6.2,12.7,13.6l-17.6,266.9C372.9,416.2,366.3,422.3,358.7,422.3z"/>
		<path class="st12" d="M385.3,199.8h-15.2c-1.8,0-3.2-1.5-3-3.3l1.5-23.1c0.1-1.8,1.7-3.3,3.6-3.3h15.2c1.8,0,3.2,1.5,3,3.3
			l-1.5,23.1C388.8,198.4,387.2,199.8,385.3,199.8z"/>
		<rect x="279.5" y="124.3" class="st10" width="5.6" height="1.1"/>
		<rect x="252.2" y="124.3" class="st10" width="20.3" height="1.1"/>
		<path class="st10" d="M356.9,422.3H230.7c-7.6,0-13.3-6.2-12.7-13.6l17.6-266.9c0.5-7.6,7-13.6,14.6-13.6h126.2
			c7.6,0,13.3,6.2,12.7,13.6l-17.6,266.9C370.9,416.2,364.4,422.3,356.9,422.3z"/>
		<path class="st5" d="M362.6,391.3H229.1c-4.3,0-7.6-3.5-7.2-7.8l15.3-232.3c0.3-4.3,4-7.8,8.3-7.8H379c4.3,0,7.6,3.5,7.2,7.8
			l-15.3,232.3C370.6,387.7,366.8,391.3,362.6,391.3z"/>
		<polygon class="st4" points="337.7,143.4 311.2,143.4 246.9,391.3 273.5,391.3 		"/>
		<polygon class="st4" points="361,143.4 347.8,143.4 283.6,391.3 296.8,391.3 		"/>
		<path class="st1" d="M343.4,314.5l-28.8-109c-1.6-6-7.8-9.6-13.8-8.1l-68.2,18l-9.1,142.5l111.9-29.6
			C341.5,326.7,345,320.4,343.4,314.5z"/>
		
			<ellipse transform="matrix(0.7187 -0.6953 0.6953 0.7187 -197.7736 318.7115)" class="st13" cx="295" cy="403.8" rx="8.7" ry="8.2"/>
		<path class="st13" d="M316.2,135.3c-0.1,1.9-1.8,3.5-3.7,3.5c-1.9,0-3.3-1.5-3.2-3.5c0.1-1.9,1.8-3.5,3.7-3.5
			C314.9,131.8,316.3,133.4,316.2,135.3z"/>
		<path class="st13" d="M314.7,135.3c-0.1,1.1-1,1.9-2.1,1.9s-1.8-0.9-1.8-1.9c0.1-1.1,1-1.9,2.1-1.9
			C313.9,133.4,314.7,134.3,314.7,135.3z"/>
	</g>
</g>
<g>
	<g>
		<path class="st10" d="M333.9,288.6l-183.6,77.1c-5.7,2.4-12.4-0.3-14.8-6L91.8,255.8c-2.4-5.7,0.3-12.4,6-14.8l183.6-77.1
			c5.7-2.4,12.4,0.3,14.8,6l43.6,103.9C342.3,279.6,339.6,286.3,333.9,288.6z"/>
		<path class="st14" d="M333.9,288.6l-183.6,77.1c-5.7,2.4-12.4-0.3-14.8-6L91.8,255.8c-2.4-5.7,0.3-12.4,6-14.8l183.6-77.1
			c5.7-2.4,12.4,0.3,14.8,6l43.6,103.9C342.3,279.6,339.6,286.3,333.9,288.6z"/>
	</g>
	<path class="st13" d="M160.3,264.4l-36,15.1c-2.8,1.2-5.9-0.1-7.1-2.9l-7.6-18c-1.2-2.8,0.1-5.9,2.9-7.1l36-15.1
		c2.8-1.2,5.9,0.1,7.1,2.9l7.6,18C164.3,260.1,163,263.3,160.3,264.4z"/>
	<path class="st15" d="M177.9,317.8l-35.2,14.8c-1.1,0.4-2.3-0.1-2.7-1.1l-2.7-6.4c-0.4-1.1,0.1-2.3,1.1-2.7l35.2-14.8
		c1.1-0.4,2.3,0.1,2.7,1.1l2.7,6.4C179.5,316.2,179,317.4,177.9,317.8z"/>
	<path class="st15" d="M223.8,298.6l-35.2,14.8c-1.1,0.4-2.3-0.1-2.7-1.1l-2.7-6.4c-0.4-1.1,0.1-2.3,1.1-2.7l35.2-14.8
		c1.1-0.4,2.3,0.1,2.7,1.1l2.7,6.4C225.3,296.8,224.8,298.1,223.8,298.6z"/>
	<path class="st15" d="M269.6,279.2L234.4,294c-1.1,0.4-2.3-0.1-2.7-1.1l-2.7-6.4c-0.4-1.1,0.1-2.3,1.1-2.7l35.2-14.8
		c1.1-0.4,2.3,0.1,2.7,1.1l2.7,6.4C271.1,277.6,270.6,278.8,269.6,279.2z"/>
	<path class="st15" d="M315.4,260l-35.2,14.8c-1.1,0.4-2.3-0.1-2.7-1.1l-2.7-6.4c-0.4-1.1,0.1-2.3,1.1-2.7l35.2-14.8
		c1.1-0.4,2.3,0.1,2.7,1.1l2.7,6.4C316.9,258.4,316.5,259.6,315.4,260z"/>
	<g class="st16">
		<ellipse class="st12" cx="275.8" cy="199.4" rx="15.2" ry="15.2"/>
		<ellipse class="st5" cx="257.4" cy="207.2" rx="15.2" ry="15.2"/>
	</g>
</g>
</svg>
