<?xml version="1.0" encoding="utf-8"?>
<!-- Generator: Adobe Illustrator 24.0.1, SVG Export Plug-In . SVG Version: 6.00 Build 0)  -->
<svg version="1.1" id="Layer_1" xmlns="http://www.w3.org/2000/svg" xmlns:xlink="http://www.w3.org/1999/xlink" x="0px" y="0px"
	 width="500px" height="500px" viewBox="0 0 500 500" style="enable-background:new 0 0 500 500;" xml:space="preserve">
<style type="text/css">
	.st0{display:none;}
	.st1{display:inline;}
	.st2{fill:#407BFF;}
	.st3{opacity:0.9;fill:#FFFFFF;enable-background:new    ;}
	.st4{fill:#F5F5F5;}
	.st5{fill:#FFFFFF;}
	.st6{fill:#263238;}
	.st7{fill:#FF8B7B;}
	.st8{opacity:0.2;enable-background:new    ;}
	.st9{opacity:0.1;fill:#FFFFFF;enable-background:new    ;}
	.st10{fill:#FF5652;}
	.st11{fill:#FFC3BD;}
	.st12{fill:#ED847E;}
	.st13{opacity:0.2;fill:#FFFFFF;enable-background:new    ;}
	.st14{fill:#E0E0E0;}
	.st15{fill:#EBEBEB;}
</style>
<g id="Background_Simple" class="st0">
	<g class="st1">
		<path class="st2" d="M243.1,95.5c53-30.2,96.3-74.7,160.4-61.3c50.4,10.5,80.9,58.3,75.1,110.5c-6.6,60.8-58.1,95.1-93.2,141.6
			c-31.2,41.5-65.8,103.8-125.4,97.6c-50.7-5.3-65-69.6-121.5-73.5c-58.6-4-99.3,15.2-128.7-51.8c-21.9-49.8-8.2-114.4,52-137.7
			C121.5,97.7,181.9,130.3,243.1,95.5z"/>
		<path class="st3" d="M243.1,95.5c53-30.2,96.3-74.7,160.4-61.3c50.4,10.5,80.9,58.3,75.1,110.5c-6.6,60.8-58.1,95.1-93.2,141.6
			c-31.2,41.5-65.8,103.8-125.4,97.6c-50.7-5.3-65-69.6-121.5-73.5c-58.6-4-99.3,15.2-128.7-51.8c-21.9-49.8-8.2-114.4,52-137.7
			C121.5,97.7,181.9,130.3,243.1,95.5z"/>
	</g>
</g>
<g id="Shadow_1_">
	<ellipse id="_x3C_Path_x3E__298_" class="st4" cx="253.5" cy="454.1" rx="243.1" ry="14.2"/>
</g>
<g id="Character_1">
	<g>
		<path class="st5" d="M190.9,267.5c0,37.7-22.8,70.1-55.3,84.1c-6.5,2.9-13.5,4.9-20.8,6.1c-5,0.9-10.3,1.3-15.5,1.3
			c-1.8,0-3.5,0-5.4-0.1c-6.3-0.4-12.3-1.4-18.2-2.9c-39.2-10.4-68.1-46.1-68.1-88.5c0-50.7,41-91.7,91.7-91.7
			S190.9,216.9,190.9,267.5z"/>
		<g>
			<path class="st6" d="M125.7,220.3L125.7,220.3c-10.4-3.8,2.4-22.3-16.3-30.8c-19.2-8.8-38.6,3-35,12.8c-6.3,1.8-8,17.1-0.3,24.1
				c-2.5,3.3-4,7.1-4,11.5c0,9.7,7.3,17.7,16.7,18.7l0,0h0.1l0,0c0.6,0.1,1.3,0.1,2,0.1c1.1,0,2.1-0.1,3.1-0.3l0,0
				c1-0.1,2-0.4,2.9-0.8l0,0c3.5-1.3,6.6-3.5,8.9-6.4c2.1,2.9,5.1,5,8.5,6.3l0,0c0.3,0.1,0.5,0.1,0.8,0.3c0.9,0.3,1.8,0.5,2.5,0.6
				c1,0.1,2,0.3,3.1,0.3c1.5,0,3-0.1,4.4-0.5c8.3-2,14.5-9.4,14.5-18.3C137.8,229.8,132.8,223.1,125.7,220.3z"/>
			<path class="st7" d="M83,274c0-0.9-0.1-1.5-0.1-2.6c-0.4-3.6-3.5-6.4-7.1-6.3c-3.4,0.1-6.1,2.9-6.5,6.1l0,0c0,0.4,0,0.8,0,1v0.3
				c0,0.4,0,1.1,0,1.8v2c0,1.3,0,2.6-0.1,4c-0.1,2.1-0.3,4.3-0.5,6.4c-0.1,0.5-0.1,1.1-0.3,1.6c-0.8,5.4-1.8,10.7-3.3,15.8
				c-0.4,1.3-0.9,2.5-1.3,3.9c-0.4,1.3-0.9,2.5-1.4,3.8l-0.5,1.5c-0.1,0.4-0.3,0.5-0.3,0.6c-0.3,0-0.4-0.1-0.6-0.3
				c-0.9-0.4-1.9-1-2.9-1.8c-2-1.5-4-3.4-5.9-5.3l-0.1-0.1c-0.1,0-0.1-0.1-0.3-0.1l0,0c-1-0.8-2.4-1-3.6-0.5
				c-1.8,0.8-2.5,2.8-1.8,4.5c0.6,1.4,1.3,2.5,1.9,3.6c0.1,0.3,0.3,0.4,0.4,0.6c0.8,1.4,1.8,2.6,2.8,4c1,1.3,2.3,2.5,3.8,3.8
				c1.5,1.1,3.4,2.4,6.4,2.9c1.5,0.1,3.3,0,4.8-0.5c1.6-0.6,2.9-1.5,3.9-2.5c1-1,1.8-1.9,2.3-2.9c0.3-0.5,0.5-0.9,0.8-1.4
				c0.1-0.3,0.3-0.5,0.3-0.6l0,0c0.1-0.1,0.1-0.3,0.3-0.5c1.4-2.8,2.5-5.6,3.5-8.5c0.3-0.6,0.4-1.3,0.6-1.9c0.1-0.4,0.3-0.6,0.4-1
				c1.5-4.8,2.8-9.5,3.5-14.4c0-0.1,0.1-0.4,0.1-0.5c0.1-0.4,0.1-0.9,0.3-1.3v-0.1c0-0.3,0.1-0.4,0.1-0.6l0,0
				c0.4-2.4,0.5-4.8,0.6-7.1c0-0.4,0-0.9,0.1-1.4c0-1.1,0.1-2.3,0.1-3.4C83,275.6,83,274.7,83,274z"/>
			<path class="st2" d="M75.7,258.9c10-4.6,16.8,15.4,14.9,31.9c-14.3,2-26.3-6.6-26.3-6.6S63.9,264.3,75.7,258.9z"/>
			<path class="st2" d="M69.3,269c-0.1,10,1.3,30.2,8,71.5h54.5c-0.9-20.2-0.9-33.4,7-69.6c1.5-6.6-3.1-13-9.8-13.9
				c-3.3-0.4-7-0.8-10.7-1c-9.2-0.5-16.7-0.8-24.8,0c-5,0.5-10.4,1.3-14.7,2C73.4,258.8,69.3,263.5,69.3,269z"/>
			<path class="st8" d="M127.8,276.7l9.2,2.6c-1.3,6.1-2.3,11.7-3,16.6C127.2,293.8,120.9,281.8,127.8,276.7z"/>
			<path class="st7" d="M48.1,297.7l-4.9-5.6c-1.3-1.5-3.8-1.1-4.5,0.8l-2.9,7.3c-0.4,0.9-0.3,1.9,0.4,2.6L41,309c0,0,4,4.9,9.5,5.4
				l2.3-6L48.1,297.7z"/>
			<g>
				<path class="st5" d="M88.8,277.1l1.3,2l2-1.3c10.9-6.4,18.4-13.3,21.9-16.9c1.4-1.4,2-3.4,1.8-5.3c-8-0.4-14.9-0.5-22.3,0.1
					c-2.1,0.3-4.3,0.5-6.4,0.8c-0.1,0.1-0.3,0.3-0.4,0.5C85.1,259.6,81.8,266.5,88.8,277.1z"/>
			</g>
			<path class="st7" d="M111.4,229c-1.3,7.1-2.4,19.4,1.4,25.7c0.9,1.5,0.6,3.3-0.6,4.5c-3.4,3.5-10.7,10.3-21.3,16.6
				c-6-9.3-3.6-15-2.1-17.3c0.5-0.6,1.1-1.1,1.9-1.4c7.9-2.5,7.5-8.9,5.9-14.8L111.4,229z"/>
			<path class="st8" d="M107.6,235.4l-11.2,6.9c0.4,1.5,0.8,2.9,0.9,4.4c2.6,0,8.8-2.6,10.5-7C108.6,238,108,236.2,107.6,235.4z"/>
			<path class="st7" d="M112.6,207.3c3.3,12.9,5,18.3,0.8,26.8c-6.4,12.9-23.1,14.2-30.1,2.5c-6.4-10.5-10.8-29.8,0-38.9
				C93.8,188.7,109.3,194.4,112.6,207.3z"/>
			<path class="st6" d="M103.4,202.1c2.3,9.2,11.5,14,11.5,14s4-7,1.3-14C113.4,195.1,103.4,202.1,103.4,202.1z"/>
			<path class="st6" d="M109.9,208.4c-2.9,3-2.5,7.8-2.5,7.8s3.6-0.1,5.6-3C115,210.5,109.9,208.4,109.9,208.4z"/>
			<path class="st6" d="M110,206.1c-3.5,2.3-4.3,7-4.3,7s3.6,0.8,6.1-1.5C114.5,209.4,110,206.1,110,206.1z"/>
			<path class="st6" d="M77.5,202.4c-2.6,8.5,39.6,5.6,35.9-1.3c-3.8-6.9-13.7-10.4-19.9-9.8C87.1,192,79.5,196.4,77.5,202.4z"/>
			<path class="st6" d="M79,200.1c-3.3,0.6-5.3,13.2-3.3,12.5C78,212,90.4,197.7,79,200.1z"/>
			<g>
				<path class="st6" d="M117.2,340.4c0,0-0.1,0.9-0.4,2.5c-0.4,2.9-1.1,8-2,14.9c-5,0.9-10.3,1.3-15.5,1.3c-1.8,0-3.5,0-5.4-0.1
					c-6.3-0.4-12.3-1.4-18.2-2.9c0.6-6,1-10.7,1.3-13.2c0.1-1.6,0.3-2.5,0.3-2.5H117.2z"/>
				<path class="st9" d="M117.2,340.4c0,0-0.1,0.9-0.4,2.5c-0.4,2.9-1.1,8-2,14.9c-5,0.9-10.3,1.3-15.5,1.3c-1.8,0-3.5,0-5.4-0.1
					c-6.3-0.4-12.3-1.4-18.2-2.9c0.6-6,1-10.7,1.3-13.2c0.1-1.6,0.3-2.5,0.3-2.5H117.2z"/>
			</g>
			<g>
				<path class="st6" d="M132.8,342.8c1.1,2.6,2,5.6,2.6,8.8c-6.5,2.9-13.5,4.9-20.8,6.1c-5,0.9-10.3,1.3-15.5,1.3
					c-1.8,0-3.5,0-5.4-0.1c-0.9-7.4-1.6-13-1.9-16.1c-0.3-1.6-0.3-2.5-0.3-2.5h40.1C132.2,341.2,132.5,342.1,132.8,342.8z"/>
				<path class="st9" d="M132.8,342.8c1.1,2.6,2,5.6,2.6,8.8c-6.5,2.9-13.5,4.9-20.8,6.1c-5,0.9-10.3,1.3-15.5,1.3
					c-1.8,0-3.5,0-5.4-0.1c-0.9-7.4-1.6-13-1.9-16.1c-0.3-1.6-0.3-2.5-0.3-2.5h40.1C132.2,341.2,132.5,342.1,132.8,342.8z"/>
			</g>
			<path class="st6" d="M93.5,217.7c0.4,1,0,2-0.6,2.3s-1.5-0.5-1.9-1.5s0-2,0.6-2.3C92.2,216.1,93.1,216.7,93.5,217.7z"/>
			<path class="st6" d="M81.8,221.4c0.4,1,0,2-0.6,2.3s-1.5-0.5-1.9-1.5c-0.4-1,0-2,0.6-2.3C80.5,219.8,81.4,220.4,81.8,221.4z"/>
			<path class="st6" d="M80.3,219.9l-2.8,0.1C77.5,220.1,79.4,221.6,80.3,219.9z"/>
			<path class="st10" d="M85.8,221.9c0,0-0.3,5-1.5,7.8c1.8,0.9,3.9-0.5,3.9-0.5L85.8,221.9z"/>
			<path class="st6" d="M95.5,231c-0.5,0.3-1,0.5-1.6,0.8c-0.1,0-0.4,0-0.4-0.3c0-0.1,0-0.4,0.3-0.4c4.5-1.5,5.6-5.3,5.6-5.4
				s0.3-0.3,0.4-0.3c0.1,0,0.3,0.3,0.3,0.4C99.9,226.1,99,229.1,95.5,231z"/>
			<path class="st7" d="M117.7,215.6c0.3,2.8-0.8,5.4-2.3,7.1c-2.3,2.6-5.3,1.1-6.3-2c-0.9-2.8-0.9-7.5,2.1-8.9
				C114.4,210.3,117.4,212.4,117.7,215.6z"/>
			<path class="st6" d="M96.2,211.5c-0.1,0-0.4,0-0.5-0.1c-2.3-1.8-4.5-1-4.5-1c-0.4,0.1-0.8,0-0.8-0.4c-0.1-0.4,0-0.8,0.4-0.8
				c0.1,0,2.9-1,5.6,1.1c0.3,0.3,0.4,0.6,0.1,0.9C96.6,211.4,96.5,211.5,96.2,211.5z"/>
			<path class="st6" d="M76.3,219.3c-0.1,0.1-0.3,0.1-0.5,0c-0.4-0.1-0.5-0.5-0.4-0.8c1.1-3.4,4-4.1,4.1-4.1
				c0.4-0.1,0.6,0.1,0.8,0.5c0.1,0.4-0.1,0.6-0.5,0.8c-0.1,0-2.3,0.6-3.3,3.3C76.7,219.1,76.5,219.2,76.3,219.3z"/>
			<path class="st7" d="M143.7,288.4c-0.5-3-1.1-6-1.9-8.9c-0.3-1-0.5-2-0.8-3c-0.8-2.6-1.4-5.3-2.1-7.9l0,0
				c-0.4-1.3-0.8-2.5-1.3-3.9c-1.1-3.5-4.9-5.5-8.4-4.4c-3.6,1-5.8,4.9-4.8,8.5v0.1c0.8,2.8,1.6,5.6,2.4,8.5
				c0.3,0.9,0.5,1.8,0.6,2.6c0.6,2.3,1.1,4.5,1.6,6.8c0.4,1.5,0.6,3,1,4.4c0.3,1.1,0.5,2.3,0.8,3.5c0.5,2.6,1,5.1,1.4,7.8
				c0.1,0.5,0.1,1.1,0.3,1.6c0.3,2,0.5,3.9,0.6,5.8c-0.4,0-0.9-0.1-1.3-0.3c-0.1,0-0.4-0.1-0.5-0.1c-3.1-0.8-6.5-1.8-9.8-3
				c-3.3-1.3-6.6-2.6-9.9-4c-3.1-1.4-6.4-2.8-9.5-4.1c-0.1,0-0.3-0.1-0.5-0.3h-0.1c-1.4-0.6-3.1-0.3-4.1,1.1
				c-1.1,1.5-0.8,3.6,0.8,4.8c0.4,0.3,0.8,0.6,1.3,0.9l0,0c2.6,2,5.4,3.8,8.2,5.5c3.3,2,6.4,3.9,9.9,5.6c3.4,1.8,6.9,3.4,10.9,4.6
				c1,0.3,1.9,0.6,2.9,0.8c1.1,0.3,2.5,0.5,4,0.5c1.4,0,3,0,5.3-0.9c1.1-0.5,2.3-1.3,3.3-2.4c1-1.1,1.6-2.5,2-3.6
				c0.1-0.4,0.1-0.9,0.1-1.3v-0.5C146.4,304.7,145.2,296.6,143.7,288.4z"/>
			<path class="st2" d="M126.4,256.6c11,1.3,14,4.6,19.8,20.2c-11.9,8.2-23.6,13.3-23.6,13.3S113.5,255.2,126.4,256.6z"/>
			<g>
				<path class="st6" d="M132.6,337.2l1.4,4.9c0.3,0.4-0.3,0.8-0.9,0.8H76.9c-0.5,0-0.9-0.3-0.9-0.5l-0.5-4.9c0-0.4,0.4-0.6,0.9-0.6
					h55.3C132.1,336.8,132.5,336.9,132.6,337.2z"/>
			</g>
			<g>
				<path class="st6" d="M125.2,343.5h1.5c0.3,0,0.5-0.1,0.5-0.4l-0.8-6.4c0-0.1-0.3-0.4-0.6-0.4h-1.5c-0.3,0-0.5,0.1-0.5,0.4
					l0.8,6.4C124.6,343.2,124.8,343.5,125.2,343.5z"/>
				<path class="st9" d="M125.2,343.5h1.5c0.3,0,0.5-0.1,0.5-0.4l-0.8-6.4c0-0.1-0.3-0.4-0.6-0.4h-1.5c-0.3,0-0.5,0.1-0.5,0.4
					l0.8,6.4C124.6,343.2,124.8,343.5,125.2,343.5z"/>
			</g>
			<g>
				<path class="st6" d="M81,343.5h1.5c0.3,0,0.5-0.1,0.5-0.4l-0.8-6.4c0-0.1-0.3-0.4-0.6-0.4h-1.5c-0.3,0-0.5,0.1-0.5,0.4l0.8,6.4
					C80.5,343.2,80.8,343.5,81,343.5z"/>
				<path class="st9" d="M81,343.5h1.5c0.3,0,0.5-0.1,0.5-0.4l-0.8-6.4c0-0.1-0.3-0.4-0.6-0.4h-1.5c-0.3,0-0.5,0.1-0.5,0.4l0.8,6.4
					C80.5,343.2,80.8,343.5,81,343.5z"/>
			</g>
			<g>
				<path class="st6" d="M103.1,343.5h1.5c0.3,0,0.5-0.1,0.5-0.4l-0.8-6.4c0-0.1-0.3-0.4-0.6-0.4h-1.5c-0.3,0-0.5,0.1-0.5,0.4
					l0.8,6.4C102.6,343.2,102.9,343.5,103.1,343.5z"/>
				<path class="st9" d="M103.1,343.5h1.5c0.3,0,0.5-0.1,0.5-0.4l-0.8-6.4c0-0.1-0.3-0.4-0.6-0.4h-1.5c-0.3,0-0.5,0.1-0.5,0.4
					l0.8,6.4C102.6,343.2,102.9,343.5,103.1,343.5z"/>
			</g>
			<path d="M91.5,306.6H80.5c-1.1,0-2-0.8-2.3-1.8L72.8,282c-0.3-1.1,0.5-2.3,1.8-2.3h10.9c1.1,0,2,0.8,2.3,1.8l5.5,22.8
				C93.5,305.5,92.6,306.6,91.5,306.6z"/>
			<path class="st6" d="M90.1,306.6H79.2c-1.1,0-2-0.8-2.3-1.8L71.4,282c-0.3-1.1,0.5-2.3,1.8-2.3h10.9c1.1,0,2,0.8,2.3,1.8
				l5.5,22.8C92.1,305.5,91.3,306.6,90.1,306.6z"/>
			<path class="st7" d="M103.1,304.1l-0.4-5.5l-7.8-8.9c-1.1-1.3-2.6-2.1-4.4-2.5l-5-1c-1.8-0.4-3.4,1-3.4,2.9l0.3,7.1
				c0,1.1,0.8,2.1,1.8,2.5l8.8,3.6l0,0C95.3,303.7,99.6,305.6,103.1,304.1z"/>
			<path class="st6" d="M91.8,216.2l-2.8,0.1C89.2,216.3,91.1,217.8,91.8,216.2z"/>
		</g>
		<path class="st2" d="M99.2,359.8c-50.9,0-92.3-41.4-92.3-92.3s41.4-92.3,92.3-92.3s92.3,41.4,92.3,92.3S150,359.8,99.2,359.8z
			 M99.2,176.6c-50.2,0-91,40.9-91,91s40.9,91,91,91s91-40.9,91-91C190.1,217.3,149.4,176.6,99.2,176.6z"/>
	</g>
</g>
<g id="Character_2">
	<g>
		<path class="st5" d="M499.4,178.3c0,43.4-30.1,79.6-70.6,89.2c-6.8,1.6-13.8,2.4-21.1,2.4c-15.4,0-30-3.8-42.6-10.5
			c-29.1-15.3-49-45.9-49-81.1c0-50.7,41-91.7,91.7-91.7S499.4,127.8,499.4,178.3z"/>
		<g>
			<path class="st6" d="M404.4,112.6c-11.3-5.9-17.9,8.8-15.2,18.9c2.8,10.3,9.8,16.8,9.8,16.8s10.8-15.5,10.8-22.7
				C410,116.6,408.7,114.9,404.4,112.6z"/>
			<path class="st6" d="M397.9,144.2c-0.4-2.3-6.9-0.8-5.3,1.6C394.3,148.2,398.2,145.2,397.9,144.2z"/>
			<path class="st6" d="M397.4,144.6c-2.1-0.9-4.4,5.4-1.5,5.3C398.8,149.8,398.4,145,397.4,144.6z"/>
			<path class="st6" d="M401.3,115.1c-5.3-5.1,6.9-9.7,18.8-7.5c11.9,2.1,15.7,12.5,11.5,17.6C428.4,129.3,407.8,121.5,401.3,115.1z
				"/>
			<path class="st6" d="M400.8,112.1c1.9-1.3-2.3-6.6-3.8-4.1C395.7,110.5,399.9,112.6,400.8,112.1z"/>
			<path class="st6" d="M435.8,211.9c0,1.1-0.1,2.4-0.1,3.6c0,0.6,0,1.4-0.1,2c-0.1,1.8-0.3,3.6-0.4,5.5c0,0.8-0.1,1.6-0.1,2.4
				c0,0.1,0,0.3,0,0.4c0,0.9-0.1,1.6-0.3,2.5c-0.3,3.1-0.6,6.3-1,9.5c-1.1,9-2.6,18.8-4.9,29.6c-6.8,1.6-13.8,2.4-21.1,2.4
				c-15.4,0-30-3.8-42.6-10.5c0.8-6,1.6-13.8,2.4-22.8c0.4-4.9,0.8-10.2,1.1-15.7c0-0.4,0-0.9,0-1.3c0-1.4,0.1-2.6,0.1-4
				c0-0.9,0-1.6,0.1-2.5c0-1.1,0-2.3,0.1-3.5v-2.9v-1.3c0-0.6,0-1.3,0-2c0-2.3,0-4.4-0.1-6.6v-0.1c-0.1-5.8-0.4-11.7-1-17.6
				c0-0.4,0-0.8-0.1-1c-0.3-3,0.8-5.8,2.5-7.9c1.9-2.3,4.6-3.8,7.8-4c0.1,0,0.1,0,0.3,0c1.4-0.1,3-0.1,4.5-0.3c1.4,0,2.9,0,4.3,0
				h0.9c0.8,0,1.6,0,2.4,0c0.9,0,1.8,0,2.8,0.1c0.8,0,1.5,0,2.4,0.1c4.5,0.1,9.2,0.4,13.4,0.8c0.3,0,0.5,0,0.8,0.1
				c1.6,0.1,3.1,0.4,4.5,0.5c0.3,0,0.5,0.1,0.8,0.1c1.1,0.1,2.1,0.4,3.3,0.5c0.1,0,0.4,0.1,0.5,0.1c1.8,0.4,3.4,0.8,4.9,1.1
				c5.4,1.4,9.3,2.6,9.3,2.6s0,0,0,0.1c0.1,0.6,1.1,4.4,1.9,11.4c0.5,4.8,1,11,1.1,18.7l0,0C435.9,205.4,435.9,208.5,435.8,211.9z"
				/>
			<path class="st11" d="M455.6,237.2c-0.1-1.6-0.4-2.8-0.6-3.9c-0.5-2.3-1-3.4-1.5-5l-2.8-9.2l-5.5-18.4
				c-1.9-6.1-3.8-12.3-5.8-18.4l-17.2,5.3c1.8,6.3,3.8,12.4,5.8,18.7c2,6.1,4.1,12.3,6.4,18.4c0.1,0.4,0.3,0.8,0.4,1l-5.8,5.1
				c1.8,3,3.6,5.8,5.8,8.5c1.1,1.4,2.3,2.8,3.8,4.1c0.8,0.6,1.5,1.4,2.6,2.1c0.6,0.4,1.1,0.8,2.1,1.3c0.3,0.1,0.5,0.3,0.9,0.3
				l0.5,0.1l0.6,0.1c0.8,0.1,2,0.4,3.5,0c0.4-0.1,0.9-0.3,1.3-0.4c0.5-0.1,0.9-0.4,1.4-0.6c0.9-0.5,1.8-1.3,2.3-1.9
				c1.3-1.5,1.5-2.6,1.8-3.6C455.7,239,455.6,238.1,455.6,237.2z"/>
			<path class="st6" d="M420.9,178.9c-4.6,10.3,10,40,10,40l19.9-5.5c0,0,0.8-17.7-6.6-30.3C436.5,170.2,426,167.5,420.9,178.9z"/>
			<path class="st2" d="M421.9,171c-0.5-1.4-1.8-2.4-3.1-2.6c-0.1,0-0.4-0.1-0.5-0.1c-1-0.3-2.1-0.4-3.3-0.6
				c-7.3-1.1-19.6-1.6-27.7-1.6l0,0l2.5,3c3.4,4.1,9.8,11.7,21.8,13.2c0.9,0.1,1.8,0.1,2.5,0.1l0,0c4.6,0,6.8-2,7.6-3.6
				C423.1,176.6,422.8,173.7,421.9,171z"/>
			<path class="st8" d="M380,192.5l-11,4.3c0,0.1,0,0.3,0,0.4c0.1,6.4,0.1,12.7-0.1,18.7C380.4,210.9,380.5,196.6,380,192.5z"/>
			<path class="st11" d="M397.8,149.8c0.4,6.3-0.6,12.8-5.4,17.2c-0.4,0.4-0.5,1-0.1,1.4c4.3,4.9,9.8,10.4,19.6,11.5
				c9.9,1.3,9.2-5.5,6.9-9.5c-0.1-0.3-0.3-0.4-0.5-0.4c-8-2.9-7.1-8.4-6.3-14.5c0.3-1.3-0.5-2.5-1.6-3.1l-9-4.6
				C399.7,146.7,397.7,148,397.8,149.8z"/>
			<path class="st8" d="M412,155.7l-9.8-0.4c0.1,0.5,0.4,0.9,0.5,1.4c1.4,3.3,5,5.8,9,7.1C411.1,161.4,411.5,158.6,412,155.7z"/>
			<path class="st11" d="M400.2,126.1c-3.4,11.3-5.9,17.7-2.4,25.5c5.3,11.5,20.7,11.5,27.3,1.4c6-9,10.4-26,1.3-34.4
				C417.4,110.5,403.6,114.9,400.2,126.1z"/>
			<path class="st6" d="M397.5,137.1c8,4.3,18.8-23.8,7.3-23.8S393.8,135,397.5,137.1z"/>
			<path class="st11" d="M391.8,132.2c-0.1,3.1,1.3,6.1,3,8c2.8,2.9,5,0.8,5.9-2.9c0.8-3.3,1.4-8.4-2.1-9.9
				C395.2,125.9,391.8,128.5,391.8,132.2z"/>
			<path class="st6" d="M415.2,134.9c-0.4,0.9-0.1,1.8,0.5,2c0.6,0.3,1.4-0.4,1.6-1.3c0.4-0.9,0.1-1.8-0.5-2
				C416.4,133.4,415.6,133.9,415.2,134.9z"/>
			<path class="st6" d="M426.3,139.2c-0.4,0.9-0.1,1.8,0.5,2c0.6,0.3,1.4-0.4,1.6-1.3c0.4-0.9,0.1-1.8-0.5-2
				C427.4,137.8,426.6,138.3,426.3,139.2z"/>
			<path class="st12" d="M422.6,138.3c0,0,0.1,5.9,1.5,9.3c-2.1,0.9-4.6-0.8-4.6-0.8L422.6,138.3z"/>
			<path class="st6" d="M417,149.3c-3.4-1.4-4.4-4.3-4.4-4.4c0-0.1,0-0.3,0.1-0.4c0.1,0,0.3,0,0.4,0.1c0,0,1.1,3.4,5.3,4.4
				c0.1,0,0.3,0.3,0.3,0.4c0,0.1-0.3,0.3-0.4,0.3C417.9,149.6,417.4,149.5,417,149.3z"/>
			<path class="st6" d="M414.7,130.5c-0.1,0-0.1-0.1-0.3-0.3c-0.1-0.3-0.1-0.6,0.1-0.8c2.6-1.6,5-0.6,5.1-0.6
				c0.3,0.1,0.4,0.5,0.3,0.8c-0.1,0.3-0.5,0.4-0.8,0.3l0,0c-0.1,0-1.9-0.9-4,0.5C415.2,130.7,415,130.7,414.7,130.5z"/>
			<path class="st6" d="M433,137.3c-0.1-0.1-0.3-0.3-0.3-0.5c-0.3-2.5-2-3.4-2.1-3.5c-0.3-0.1-0.4-0.5-0.3-0.8
				c0.1-0.3,0.5-0.4,0.8-0.3c0.1,0,2.4,1.3,2.8,4.4c0,0.3-0.3,0.6-0.5,0.6C433.2,137.4,433,137.4,433,137.3z"/>
			<g>
				<path class="st11" d="M407.2,206.6c-4,1.8-8,3.5-12.2,5.3c-4,1.8-8.2,3.4-12.2,4.9c-4,1.5-8.2,2.9-11.9,3.9
					c-0.9,0.3-1.8,0.4-2.5,0.5c0.4-1.3,0.8-2.6,1.1-3.9c1.3-3.8,2.9-7.5,4.5-11.3c1.8-3.8,3.8-7.4,5.9-11c1-1.9,2.1-3.6,3.3-5.4
					l1.8-2.6c0.5-0.9,1.1-1.8,1.6-2.5l-14.5-10.5c-0.9,1.1-1.5,2-2.1,3c-0.6,1-1.3,2-1.9,3c-1.3,2-2.5,4-3.6,6.1
					c-2.3,4.1-4.4,8.4-6.3,12.8s-3.5,9-4.8,13.9c-0.6,2.4-1.1,4.9-1.5,7.4c-0.1,0.6-0.1,1.3-0.3,1.9l-0.1,1v0.5v0.9
					c-0.1,1.1,0,2.5,0.4,4.1s1.3,3.5,2.6,4.9c1.4,1.5,3,2.4,4.4,3c1.4,0.5,2.5,0.8,3.6,0.9c2.1,0.3,3.8,0,5.3-0.3
					c3-0.5,5.4-1.3,7.8-2c4.6-1.8,8.9-3.8,13-5.9c8.3-4.3,15.9-9.2,23.4-14.5L407.2,206.6z"/>
				<path class="st6" d="M376.2,166.9c-11.3,1.5-20.3,34.5-20.3,34.5l22.7,7.4c0,0,3.4-7,10.4-19.9
					C396.5,174.8,389.8,165.1,376.2,166.9z"/>
				<path class="st11" d="M420.6,200.6l-5.6-0.4c-1,0-2,0.3-2.8,0.9l-8.2,7l3.3,6.4c4.8,3.4,12.8-4.3,12.8-4.3l2.9-0.8
					c2.3-0.5,3.4-3.3,2-5.1l-1.8-2.5C422.6,201.3,421.6,200.6,420.6,200.6z"/>
			</g>
			<path class="st5" d="M427.6,228.3l-9.7-1.5c-1-0.1-1.6-1.3-1.3-2.1l9.5-22.6c0.3-0.6,1-1,1.6-0.9l9.7,1.5c1,0.1,1.6,1.3,1.3,2.1
				l-9.5,22.6C429,228.1,428.4,228.5,427.6,228.3z"/>
			<path class="st2" d="M428.9,228.5l-9.7-1.5c-1-0.1-1.6-1.3-1.3-2.1l9.5-22.6c0.3-0.6,1-1,1.6-0.9l9.7,1.5c1,0.1,1.6,1.3,1.3,2.1
				l-9.5,22.6C430.3,228.2,429.7,228.6,428.9,228.5z"/>
			<path class="st11" d="M437.7,226.1l-9.9-12l-5.5,12.3c0,0,3.3,4.6,8.7,5.3L437.7,226.1z"/>
			<path class="st11" d="M416.4,215.7l0.6,4c0.1,1.3,0.8,2.4,1.8,3.3l3.5,3.3l5.5-12.3l-7.6-1.6C418,211.9,416.1,213.7,416.4,215.7z
				"/>
			<path class="st6" d="M418,120.2c-3.3,7.1,18.6,15.7,18.6,5.5C436.4,115.6,419.5,116.9,418,120.2z"/>
			<path class="st6" d="M404.4,116.1c-2.9,8.5,36.9,13.2,35,1.9C437.4,106.6,405.7,112.1,404.4,116.1z"/>
			<path class="st6" d="M416.2,118.5c3.3,7.1,24.1-3.8,16.3-10.4C424.9,101.4,414.7,115.2,416.2,118.5z"/>
		</g>
		<path class="st2" d="M407.7,270.6c-50.9,0-92.3-41.4-92.3-92.3S356.8,86,407.7,86s92.3,41.4,92.3,92.3S458.6,270.6,407.7,270.6z
			 M407.7,87.4c-50.2,0-91,40.9-91,91s40.9,91,91,91s91-40.9,91-91C498.7,128.1,458,87.4,407.7,87.4z"/>
	</g>
</g>
<g id="Messenger">
	<g>
		<path class="st2" d="M166.1,99.6h-1.4V83.5c0-11.2,9-20.2,20.2-20.2v1.4c-10.4,0-18.9,8.5-18.9,18.9v15.9H166.1z"/>
		<rect x="164.7" y="109.5" class="st2" width="1.4" height="10.4"/>
		<g>
			<path class="st5" d="M322.1,373.7H184.9c-8.7,0-15.8-7.1-15.8-15.8V83.4c0-8.7,7.1-15.8,15.8-15.8h137.1
				c8.7,0,15.8,7.1,15.8,15.8v274.5C337.9,366.7,330.7,373.7,322.1,373.7z"/>
			<path class="st2" d="M322.1,374.4H184.9c-9.2,0-16.4-7.4-16.4-16.4V83.4c0-9.2,7.4-16.4,16.4-16.4h137.1
				c9.2,0,16.4,7.4,16.4,16.4v274.5C338.5,367,331.1,374.4,322.1,374.4z M184.9,68.2c-8.4,0-15.2,6.8-15.2,15.2v274.5
				c0,8.4,6.8,15.2,15.2,15.2h137.1c8.4,0,15.2-6.8,15.2-15.2V83.4c0-8.4-6.8-15.2-15.2-15.2H184.9z"/>
		</g>
		<path class="st2" d="M322.1,67.6H184.9c-8.7,0-15.8,7.1-15.8,15.8h168.7C337.9,74.7,330.7,67.6,322.1,67.6z"/>
		<path class="st5" d="M195,75.5c0,2.6-2.1,4.8-4.8,4.8s-4.8-2.1-4.8-4.8c0-2.6,2.1-4.8,4.8-4.8C192.8,70.7,195,72.8,195,75.5z"/>
		<path class="st5" d="M319,75.5c0,0.6-0.5,1.1-1.1,1.1s-1.1-0.5-1.1-1.1s0.5-1.1,1.1-1.1C318.5,74.5,319,74.9,319,75.5z"/>
		<path class="st5" d="M319,79.4c0,0.6-0.5,1.1-1.1,1.1s-1.1-0.5-1.1-1.1s0.5-1.1,1.1-1.1C318.5,78.4,319,78.7,319,79.4z"/>
		<circle class="st5" cx="318" cy="71.6" r="1.1"/>
		<path class="st13" d="M233.8,77.7h-32c-1.3,0-2.3-1-2.3-2.3l0,0c0-1.3,1-2.3,2.3-2.3h32c1.3,0,2.3,1,2.3,2.3l0,0
			C236,76.7,235,77.7,233.8,77.7z"/>
		<path class="st2" d="M322.2,142.4h-86c-3.1,0-5.8-2.5-5.8-5.8v-31.5c0-3.1,2.5-5.8,5.8-5.8h86c3.1,0,5.8,2.5,5.8,5.8v31.5
			C328,139.9,325.4,142.4,322.2,142.4z"/>
		<path class="st14" d="M270.8,174.4h-86c-3.1,0-5.8-2.5-5.8-5.8v-11c0-3.1,2.5-5.8,5.8-5.8h86c3.1,0,5.8,2.5,5.8,5.8v11
			C276.4,171.8,273.9,174.4,270.8,174.4z"/>
		<path class="st14" d="M270.8,290.2h-86c-3.1,0-5.8-2.5-5.8-5.8v-63c0-3.1,2.5-5.8,5.8-5.8h86c3.1,0,5.8,2.5,5.8,5.8v63
			C276.4,287.5,273.9,290.2,270.8,290.2z"/>
		<path class="st2" d="M322.2,321.1h-34.5c-3.1,0-5.8-2.5-5.8-5.8v-11c0-3.1,2.5-5.8,5.8-5.8h34.5c3.1,0,5.8,2.5,5.8,5.8v11
			C328,318.5,325.4,321.1,322.2,321.1z"/>
		<path class="st5" d="M307.9,308.3c0,1.6-1.3,2.9-2.9,2.9c-1.6,0-2.9-1.3-2.9-2.9c0-1.6,1.3-2.9,2.9-2.9
			C306.6,305.5,307.9,306.8,307.9,308.3z"/>
		<path class="st5" d="M298.4,309.9c0,1.6-1.3,2.9-2.9,2.9c-1.6,0-2.9-1.3-2.9-2.9c0-1.6,1.3-2.9,2.9-2.9
			C297,307,298.4,308.2,298.4,309.9z"/>
		<path class="st5" d="M317.5,311.4c0,1.6-1.3,2.9-2.9,2.9c-1.6,0-2.9-1.3-2.9-2.9c0-1.6,1.3-2.9,2.9-2.9
			C316.2,308.5,317.5,309.7,317.5,311.4z"/>
		<path class="st2" d="M322.2,206.3h-86c-3.1,0-5.8-2.5-5.8-5.8v-11c0-3.1,2.5-5.8,5.8-5.8h86c3.1,0,5.8,2.5,5.8,5.8v11
			C328,203.8,325.4,206.3,322.2,206.3z"/>
		<circle class="st2" cx="184.2" cy="358.6" r="5.3"/>
		<circle class="st14" cx="200" cy="358.6" r="5.3"/>
		<circle class="st15" cx="215.8" cy="358.6" r="5.3"/>
		<path class="st15" d="M322.7,363.9h-42.8c-2.9,0-5.3-2.4-5.3-5.3l0,0c0-2.9,2.4-5.3,5.3-5.3h42.8c2.9,0,5.3,2.4,5.3,5.3l0,0
			C328,361.5,325.6,363.9,322.7,363.9z"/>
		<rect x="169.1" y="336.6" class="st2" width="168.7" height="1.4"/>
	</g>
</g>
</svg>
