<?xml version="1.0" encoding="utf-8"?>
<!-- Generator: Adobe Illustrator 24.0.1, SVG Export Plug-In . SVG Version: 6.00 Build 0)  -->
<svg version="1.1" id="Layer_1" xmlns="http://www.w3.org/2000/svg" xmlns:xlink="http://www.w3.org/1999/xlink" x="0px" y="0px"
	 width="500px" height="500px" viewBox="0 0 500 500" style="enable-background:new 0 0 500 500;" xml:space="preserve">
<style type="text/css">
	.st0{fill:#EBEBEB;}
	.st1{fill:#F5F5F5;}
	.st2{fill:#F0F0F0;}
	.st3{fill:#407BFF;}
	.st4{opacity:0.9;fill:#FFFFFF;enable-background:new    ;}
	.st5{opacity:0.1;fill:#FFFFFF;enable-background:new    ;}
	.st6{opacity:0.5;fill:#FFFFFF;enable-background:new    ;}
	.st7{opacity:0.1;enable-background:new    ;}
	.st8{opacity:0.2;enable-background:new    ;}
	.st9{fill:#FFFFFF;}
	.st10{opacity:0.3;enable-background:new    ;}
	.st11{opacity:0.2;fill:#FFFFFF;enable-background:new    ;}
	.st12{opacity:0.3;fill:#FFFFFF;enable-background:new    ;}
	.st13{opacity:0.5;fill:#407BFF;enable-background:new    ;}
	.st14{opacity:0.6;fill:#FFFFFF;enable-background:new    ;}
	.st15{opacity:0.8;fill:#FFFFFF;enable-background:new    ;}
</style>
<g id="Background_Complete">
	<g>
		<rect x="449.9" y="436.8" class="st0" width="39.3" height="0.4"/>
		<rect x="337.8" y="440.1" class="st0" width="10.3" height="0.4"/>
		<rect x="425.9" y="425.8" class="st0" width="22.8" height="0.4"/>
		<rect x="17" y="427.8" class="st0" width="51.3" height="0.4"/>
		<rect x="78.9" y="427.8" class="st0" width="7.5" height="0.4"/>
		<rect x="110.9" y="432.8" class="st0" width="111.3" height="0.4"/>
		<path class="st0" d="M236.2,364.7H6.8c-3.7,0-6.8-3.1-6.8-6.8V35.5c0-3.7,3.1-6.8,6.8-6.8h229.4c3.7,0,6.8,3.1,6.8,6.8v322.5
			C243,361.6,240,364.7,236.2,364.7z M6.8,28.9c-3.6,0-6.5,2.9-6.5,6.5v322.5c0,3.6,2.9,6.5,6.5,6.5h229.4c3.6,0,6.5-2.9,6.5-6.5
			V35.5c0-3.6-2.9-6.5-6.5-6.5H6.8z"/>
		<path class="st0" d="M493.2,364.7H263.8c-3.7,0-6.8-3.1-6.8-6.8V35.5c0-3.7,3.1-6.8,6.8-6.8h229.4c3.7,0,6.8,3.1,6.8,6.8v322.5
			C500,361.6,497,364.7,493.2,364.7z M263.8,28.9c-3.6,0-6.5,2.9-6.5,6.5v322.5c0,3.6,2.9,6.5,6.5,6.5h229.4c3.6,0,6.5-2.9,6.5-6.5
			V35.5c0-3.6-2.9-6.5-6.5-6.5H263.8z"/>
	</g>
	<g>
		<g>
			<path class="st1" d="M210.6,52.8l1,2c0.1,0.2,0.4,0.4,0.6,0.5l2.3,0.4c0.7,0.1,1,1,0.5,1.4l-1.7,1.5c-0.2,0.2-0.2,0.5-0.2,0.7
				l0.4,2.3c0.1,0.7-0.6,1.2-1.2,0.8l-2-1.1c-0.2-0.1-0.5-0.1-0.7,0l-2,1.1c-0.6,0.4-1.3-0.2-1.2-0.8l0.4-2.3c0-0.2,0-0.5-0.2-0.7
				l-1.7-1.5c-0.5-0.5-0.2-1.3,0.5-1.4l2.3-0.4c0.2,0,0.5-0.2,0.6-0.5l1-2C209.4,52.2,210.2,52.2,210.6,52.8z"/>
			<path class="st2" d="M62.6,220.2l1,2c0.1,0.2,0.4,0.4,0.6,0.5l2.3,0.4c0.7,0.1,1,1,0.5,1.4l-1.7,1.5c-0.2,0.2-0.2,0.5-0.2,0.7
				l0.4,2.3c0.1,0.7-0.6,1.2-1.2,0.8l-2-1.1c-0.2-0.1-0.5-0.1-0.7,0l-2,1.1c-0.6,0.4-1.3-0.2-1.2-0.8l0.4-2.3c0-0.2,0-0.5-0.2-0.7
				l-1.7-1.5c-0.5-0.5-0.2-1.3,0.5-1.4l2.3-0.4c0.2,0,0.5-0.2,0.6-0.5l1-2C61.4,219.6,62.3,219.6,62.6,220.2z"/>
			<path class="st2" d="M44,107.9l1,2c0.1,0.2,0.4,0.4,0.6,0.5l2.3,0.4c0.7,0.1,1,1,0.5,1.4l-1.7,1.5c-0.2,0.2-0.2,0.5-0.2,0.7
				l0.4,2.3c0.1,0.7-0.6,1.2-1.2,0.8l-2-1.1c-0.2-0.1-0.5-0.1-0.7,0l-2,1.1c-0.6,0.4-1.3-0.2-1.2-0.8l0.4-2.3c0-0.2,0-0.5-0.2-0.7
				l-1.7-1.5c-0.5-0.5-0.2-1.3,0.5-1.4l2.3-0.4c0.2,0,0.5-0.2,0.6-0.5l1-2C42.8,107.4,43.6,107.4,44,107.9z"/>
			<path class="st2" d="M133.9,159l0.6,1.2c0.1,0.1,0.2,0.2,0.4,0.2l1.3,0.2c0.4,0,0.6,0.6,0.2,0.8l-1,1c-0.1,0.1-0.1,0.2-0.1,0.5
				l0.2,1.3c0.1,0.4-0.4,0.7-0.7,0.5l-1.2-0.6c-0.1-0.1-0.4-0.1-0.5,0l-1.2,0.6c-0.4,0.2-0.7-0.1-0.7-0.5l0.2-1.3
				c0-0.1,0-0.4-0.1-0.5l-1-1c-0.2-0.2-0.1-0.7,0.2-0.8l1.3-0.2c0.1,0,0.2-0.1,0.4-0.2l0.6-1.2C133.2,158.7,133.8,158.7,133.9,159z"
				/>
			<path class="st1" d="M97.6,314.7l0.6,1.2c0.1,0.1,0.2,0.2,0.4,0.2l1.3,0.2c0.4,0,0.6,0.6,0.2,0.8l-1,1c-0.1,0.1-0.1,0.2-0.1,0.5
				l0.2,1.3c0.1,0.4-0.4,0.7-0.7,0.5l-1.2-0.6c-0.1-0.1-0.4-0.1-0.5,0l-1.2,0.6c-0.4,0.2-0.7-0.1-0.7-0.5l0.2-1.3
				c0-0.1,0-0.4-0.1-0.5l-1-1c-0.2-0.2-0.1-0.7,0.2-0.8l1.3-0.2c0.1,0,0.2-0.1,0.4-0.2l0.6-1.2C96.8,314.3,97.3,314.3,97.6,314.7z"
				/>
			<path class="st1" d="M470.8,54.7l0.6,1.2c0.1,0.1,0.2,0.2,0.4,0.2l1.3,0.2c0.4,0,0.6,0.6,0.2,0.8l-1,1c-0.1,0.1-0.1,0.2-0.1,0.5
				l0.2,1.3c0.1,0.4-0.4,0.7-0.7,0.5l-1.2-0.6c-0.1-0.1-0.4-0.1-0.5,0l-1.2,0.6c-0.4,0.2-0.7-0.1-0.7-0.5l0.2-1.3
				c0-0.1,0-0.4-0.1-0.5l-1-1c-0.2-0.2-0.1-0.7,0.2-0.8l1.3-0.2c0.1,0,0.2-0.1,0.4-0.2l0.6-1.2C470.1,54.4,470.5,54.4,470.8,54.7z"
				/>
			<path class="st2" d="M460.4,278.9l1.1,2.1c0.1,0.2,0.4,0.5,0.6,0.5l2.4,0.4c0.7,0.1,1,1,0.5,1.4l-1.7,1.7
				c-0.2,0.2-0.2,0.5-0.2,0.7l0.4,2.3c0.1,0.7-0.6,1.2-1.2,0.8l-2-1.1c-0.2-0.1-0.6-0.1-0.8,0l-2.1,1.2c-0.6,0.4-1.3-0.2-1.2-0.8
				l0.4-2.3c0-0.2,0-0.6-0.2-0.7l-1.7-1.7c-0.5-0.5-0.2-1.3,0.5-1.4l2.4-0.4c0.2,0,0.5-0.2,0.6-0.5l1.1-2.1
				C459.2,278.3,460.1,278.3,460.4,278.9z"/>
			<path class="st2" d="M333.2,82c0,0.8-0.7,1.5-1.5,1.5c-0.8,0-1.5-0.7-1.5-1.5s0.7-1.5,1.5-1.5S333.2,81.2,333.2,82z"/>
			<path class="st1" d="M378.6,388.4c0,0.8-0.7,1.5-1.5,1.5c-0.8,0-1.5-0.7-1.5-1.5c0-0.8,0.7-1.5,1.5-1.5
				C377.9,386.7,378.6,387.4,378.6,388.4z"/>
			<path class="st2" d="M112.4,62.3c0,3.7-3,6.8-6.8,6.8c-3.7,0-6.8-3-6.8-6.8c0-3.7,3-6.8,6.8-6.8
				C109.3,55.5,112.4,58.6,112.4,62.3z"/>
			<g>
				<path class="st1" d="M176.3,107c4.5,0.7,8.8,1.1,12.4,1.1c-3.2,3.7-8.2,5.7-13.3,4.9c-5.2-0.8-9.3-4.4-11.1-9
					C167.7,105.2,171.8,106.3,176.3,107z"/>
				<path class="st1" d="M178.5,94.5c-5.2-1-10.2-1.2-14.3-1c2.4-6.3,9-10.3,15.9-9.1c6.9,1.2,11.9,7.1,12,13.8
					C188.5,96.8,183.7,95.5,178.5,94.5z"/>
				<ellipse transform="matrix(0.1666 -0.986 0.986 0.1666 50.8669 257.4456)" class="st1" cx="177.7" cy="98.6" rx="5" ry="22.7"/>
			</g>
		</g>
		<g>
			<path class="st1" d="M469.8,204.3c-23.3,46.6-79.8,65.5-126.4,42.2c-1.9-1-3.8-2-5.6-3.1c26.7-9.9,49.9-29.6,63.7-57.2
				c19.6-39.3,15-84.4-8.3-118.2c11.6,1,23.4,4.2,34.5,9.6C474.2,101.1,493.1,157.7,469.8,204.3z"/>
			<path class="st2" d="M426.8,93.2c5.3,3.9,8.3,9.9,8.7,16c-3.1-4.3-7-8.3-11.8-11.8C419,94,414,91.4,409,89.7
				C414.8,88.2,421.5,89.3,426.8,93.2z"/>
			<path class="st2" d="M402.9,236.2c-5.6,3.7-12.1,4.4-18.1,2.6c5.1-1.4,10.2-3.8,15.2-7c4.9-3.2,9.1-7,12.5-11.2
				C411.8,226.7,408.5,232.5,402.9,236.2z"/>
			<path class="st2" d="M435.5,146.4c2.9,6.1,2.6,12.7,0,18.3c-0.7-5.2-2.3-10.7-4.8-16c-2.5-5.3-5.7-10-9.3-13.9
				C427.3,136.3,432.6,140.4,435.5,146.4z"/>
			<path class="st2" d="M450.7,211.1c-4.2,5.1-10.2,8-16.4,8c4.4-2.9,8.6-6.7,12.2-11.3c3.7-4.6,6.5-9.5,8.4-14.5
				C456.3,199.4,455,206,450.7,211.1z"/>
		</g>
	</g>
</g>
<g id="Background_Simple">
	<g>
		<path class="st3" d="M196.8,207.8c87.2-13,238,122.5,275.1-3.9c26.3-89.7-138-207.9-218-150.5c-48.5,34.8-38.9,32-109.6,26.7
			c-71.6-5.2-101.8-1.8-113.5,68.4c-6.1,36.4-0.6,107.5,52,126.9C148.5,299.6,143.4,215.6,196.8,207.8z"/>
		<path class="st4" d="M196.8,207.8c87.2-13,238,122.5,275.1-3.9c26.3-89.7-138-207.9-218-150.5c-48.5,34.8-38.9,32-109.6,26.7
			c-71.6-5.2-101.8-1.8-113.5,68.4c-6.1,36.4-0.6,107.5,52,126.9C148.5,299.6,143.4,215.6,196.8,207.8z"/>
	</g>
</g>
<g id="Shadow_1_">
	<ellipse id="_x3C_Path_x3E__162_" class="st1" cx="251.7" cy="457.9" rx="230.4" ry="13.4"/>
</g>
<g id="Rocket">
	<g>
		<g>
			<g>
				<path class="st3" d="M256.8,121.1l-0.8-0.6c3.7-4.8,7.7-9.3,11.6-13.4l0.7,0.7C264.5,112,260.6,116.5,256.8,121.1z"/>
				
					<rect x="247.9" y="127.2" transform="matrix(0.6214 -0.7835 0.7835 0.6214 -5.1057 245.001)" class="st3" width="6.2" height="1.1"/>
				<path class="st3" d="M334.8,176.3c25.8-41.5,29.3-82.5,10.6-95.7c-18.8-13.2-56.1,3.8-86.5,42.2l-86.9,109.6l89,62.7
					L334.8,176.3z"/>
				<path class="st5" d="M324.7,169.1l-75.6,117.5l-9.3-17.7L315,161.8c21.3-30.3,33.2-58,33.2-73.4c0-1.4,2-1.8,2.5-0.5
					C355.9,103.3,346.6,135,324.7,169.1z"/>
				<g>
					
						<ellipse transform="matrix(0.5758 -0.8176 0.8176 0.5758 -123.7638 288.9276)" class="st3" cx="216.6" cy="263.7" rx="37.8" ry="54.4"/>
					
						<ellipse transform="matrix(0.5758 -0.8176 0.8176 0.5758 -123.7638 288.9276)" class="st6" cx="216.6" cy="263.7" rx="37.8" ry="54.4"/>
				</g>
				<path class="st7" d="M251.8,213.3c-19.5-13.8-41.7-17.7-55.8-11.3l-22.1,27.8c13.1-14.6,41-13.5,64.4,2.9
					c23.4,16.4,33.7,42.4,24.4,59.6l18.5-29.7C282.7,247.1,271.5,227.2,251.8,213.3z"/>
				<g>
					<g>
						<path class="st8" d="M283,123.9c-5.5,8.6-9.5,24.6,6.7,36c16,11.3,29.8,2.1,36.1-5.9L283,123.9z"/>
						<path class="st9" d="M329.5,144c-1.9,15.3-19.6,26.5-38.1,13.4c-18.7-13.1-14-33.5-0.2-40.4c8.6-4.3,19.4-2.4,26.7,2.7
							C325.3,124.9,330.7,134.4,329.5,144z"/>
						<g>
							<path class="st3" d="M294,153.7c-7.2-5.1-10.9-11.8-10.5-18.7c0.5-6.1,4.2-11.5,9.6-14.3c6.4-3.2,15.6-2.3,22.2,2.5
								c6.7,4.6,10.7,13,9.9,20.1c-0.7,6.1-4.6,11.4-10.1,13.9C308.7,160.1,301.1,158.8,294,153.7z"/>
							<path class="st10" d="M294,153.7c-7.2-5.1-10.9-11.8-10.5-18.7c0.5-6.1,4.2-11.5,9.6-14.3c6.4-3.2,15.6-2.3,22.2,2.5
								c6.7,4.6,10.7,13,9.9,20.1c-0.7,6.1-4.6,11.4-10.1,13.9C308.7,160.1,301.1,158.8,294,153.7z"/>
						</g>
						<g>
							<path class="st3" d="M294,153.7c-7.2-5.1-11.1-11.5-10.8-18.2c0.2-5.7,3.7-10.8,8.9-13.3c6.2-2.9,15.2-1.7,21.9,3.1
								c6.7,4.6,10.8,12.7,10.2,19.5c-0.5,5.8-4.2,10.7-9.5,12.8C308.6,160.2,301.1,158.8,294,153.7z"/>
							<path class="st11" d="M294,153.7c-7.2-5.1-11.1-11.5-10.8-18.2c0.2-5.7,3.7-10.8,8.9-13.3c6.2-2.9,15.2-1.7,21.9,3.1
								c6.7,4.6,10.8,12.7,10.2,19.5c-0.5,5.8-4.2,10.7-9.5,12.8C308.6,160.2,301.1,158.8,294,153.7z"/>
						</g>
					</g>
					<path class="st12" d="M318.9,130l-33.4,14.7c-1.7-3-2.5-6.1-2.4-9.3c0.1-1.5,0.4-3.1,0.8-4.5l21.6-9.5c3,0.7,5.8,2,8.3,3.8
						C315.8,126.7,317.5,128.3,318.9,130z"/>
					<path class="st12" d="M323.7,139.6L293,153.1c-1.9-1.4-3.7-3-5-4.6l33.4-14.7C322.5,135.6,323.3,137.7,323.7,139.6z"/>
				</g>
				<path class="st7" d="M357.2,113.1c-1.1-8.2-7.4-17.7-17.2-24.7c-10-7-21-9.7-29.1-8c13.7-5.6,26-5.8,34.6,0.2
					C353.8,86.7,357.9,98.3,357.2,113.1z"/>
				<g>
					<g>
						
							<ellipse transform="matrix(0.5758 -0.8176 0.8176 0.5758 -110.7702 290.6805)" class="st13" cx="224.7" cy="252.1" rx="11.8" ry="16.6"/>
						<path class="st13" d="M202.9,256.6c-3.8,5.3-12.8,5.3-20.3,0.1c-7.5-5.2-10.6-13.9-6.8-19.1c3.8-5.3,12.8-5.3,20.3-0.1
							C203.7,242.7,206.6,251.2,202.9,256.6z"/>
						<path class="st13" d="M254.9,293.2c-3.8,5.3-12.8,5.3-20.3,0.1c-7.5-5.2-10.6-13.9-6.8-19.1c3.8-5.3,12.8-5.3,20.3-0.1
							C255.6,279.3,258.7,287.8,254.9,293.2z"/>
						<path class="st13" d="M219.6,288.2c-3.8,5.3-12.8,5.3-20.3,0.1c-7.5-5.2-10.6-13.9-6.8-19.1c3.8-5.3,12.8-5.3,20.3-0.1
							C220.3,274.3,223.3,282.9,219.6,288.2z"/>
					</g>
					<g>
						<path class="st13" d="M238.2,261.6c-0.4,0.6-0.8,1.1-1.4,1.5c2-5.3-1.1-12.6-7.7-17.3c-6.7-4.8-14.6-5.2-19-1.4
							c0.2-0.6,0.6-1.2,1-1.8c3.7-5.3,12.8-5.3,20.3-0.1C238.9,247.7,242,256.2,238.2,261.6z"/>
						<path class="st13" d="M202.9,256.6c-0.4,0.6-0.8,1.1-1.4,1.5c2.1-5.3-1.1-12.6-7.7-17.3c-6.7-4.8-14.6-5.2-19-1.4
							c0.2-0.6,0.6-1.2,1-1.8c3.8-5.3,12.8-5.3,20.3-0.1C203.7,242.7,206.6,251.2,202.9,256.6z"/>
						<path class="st13" d="M254.9,293.2c-0.4,0.6-0.8,1.1-1.4,1.5c2.1-5.3-1.1-12.7-7.7-17.3c-6.7-4.8-14.6-5.2-19-1.4
							c0.2-0.6,0.6-1.2,1-1.8c3.8-5.3,12.8-5.3,20.3-0.1C255.6,279.3,258.7,287.8,254.9,293.2z"/>
						<path class="st13" d="M219.6,288.2c-0.4,0.6-0.8,1.1-1.4,1.5c2-5.3-1.1-12.7-7.7-17.3c-6.7-4.8-14.6-5.2-19-1.4
							c0.2-0.6,0.6-1.2,1-1.8c3.8-5.3,12.8-5.3,20.3-0.1C220.3,274.3,223.3,282.9,219.6,288.2z"/>
					</g>
				</g>
			</g>
			<g>
				<g>
					<path class="st3" d="M231,163.2c0,0-16,20.8-30.1,38.7c-4,5.1-10.5,7.6-16.9,6.8c-12.2-1.5-32.1,7.1-32.1,7.1
						S189.6,154.2,231,163.2z"/>
					<path class="st10" d="M231,163.2c0,0-16,20.8-30.1,38.7c-4,5.1-10.5,7.6-16.9,6.8c-12.2-1.5-32.1,7.1-32.1,7.1
						S189.6,154.2,231,163.2z"/>
				</g>
				<g>
					<path class="st3" d="M306.2,216.2c0,0-14.1,22.1-26.4,41.3c-3.4,5.5-3.6,12.4-0.7,18.2c5.6,10.9,4,32.7,4,32.7
						S328.8,252.1,306.2,216.2z"/>
					<path class="st10" d="M306.2,216.2c0,0-14.1,22.1-26.4,41.3c-3.4,5.5-3.6,12.4-0.7,18.2c5.6,10.9,4,32.7,4,32.7
						S328.8,252.1,306.2,216.2z"/>
				</g>
			</g>
		</g>
		<g>
			<path class="st3" d="M358,375.2c14.7-36.4-49.3-46.6-74.7-37.5c-25.4,9.1-51.3,15.9-52.3-8.4c-1.1-24.2,18.5-39.3,9.3-45
				c-5.2-3.1-6.7,2.4-9.1,10.3c-7.8,24.5-52.2,30.4-31.7,65.9c20.3,35.5,9.5,27.8-24.7,42.1c-34.3,14.3-16.6,55.3,16.5,55.3
				s137.8,0,199.7,0C482.3,457.9,395.7,282.7,358,375.2z"/>
			<path class="st14" d="M358,375.2c14.7-36.4-49.3-46.6-74.7-37.5c-25.4,9.1-51.3,15.9-52.3-8.4c-1.1-24.2,18.5-39.3,9.3-45
				c-5.2-3.1-6.7,2.4-9.1,10.3c-7.8,24.5-52.2,30.4-31.7,65.9c20.3,35.5,9.5,27.8-24.7,42.1c-34.3,14.3-16.6,55.3,16.5,55.3
				s137.8,0,199.7,0C482.3,457.9,395.7,282.7,358,375.2z"/>
		</g>
		<g>
			<path class="st3" d="M189.4,248.6c-2.6-9.3-17.1,2.4-31.3,16.4c-14.3,14.1-21.2,46.2-34.9,63c-13.8,16.9-53,32-37.7,57.2
				c22.7,37.2-29.5,72.8,32.2,72.8s103.4,0,126.5,0s48.2-28.3,12.2-47.5s-89.9,25.7-104.6-17.2c-7.2-21.3,19-11.5,6.9-46.2
				c-12.1-34.8-11.3-44.2-5.1-59.8C168.7,249.5,193.4,262.7,189.4,248.6z"/>
			<path class="st14" d="M189.4,248.6c-2.6-9.3-17.1,2.4-31.3,16.4c-14.3,14.1-21.2,46.2-34.9,63c-13.8,16.9-53,32-37.7,57.2
				c22.7,37.2-29.5,72.8,32.2,72.8s103.4,0,126.5,0s48.2-28.3,12.2-47.5s-89.9,25.7-104.6-17.2c-7.2-21.3,19-11.5,6.9-46.2
				c-12.1-34.8-11.3-44.2-5.1-59.8C168.7,249.5,193.4,262.7,189.4,248.6z"/>
		</g>
		<g>
			<path class="st3" d="M215.5,252.9c3.1-5.7,13.9-2.3,13.7,5.2c-0.2,7.5-28.2,17.3-22.9,43.3c5.2,25.9,54.9,27.8,66.7,53.7
				c11.6,25.9-33.5,29.6-20.1,45.7c13.4,16.2,55.1-21,84.8-11.4c29.7,9.6,59.3,68.6,4.9,68.6s-131.3,0-167.8,0s-63.1-75.3-28-106.3
				s6.8-20.9,19.8-40.8C179.7,290.9,203.5,274.9,215.5,252.9z"/>
			<path class="st15" d="M215.5,252.9c3.1-5.7,13.9-2.3,13.7,5.2c-0.2,7.5-28.2,17.3-22.9,43.3c5.2,25.9,54.9,27.8,66.7,53.7
				c11.6,25.9-33.5,29.6-20.1,45.7c13.4,16.2,55.1-21,84.8-11.4c29.7,9.6,59.3,68.6,4.9,68.6s-131.3,0-167.8,0s-63.1-75.3-28-106.3
				s6.8-20.9,19.8-40.8C179.7,290.9,203.5,274.9,215.5,252.9z"/>
		</g>
	</g>
</g>
</svg>
