<?xml version="1.0" encoding="utf-8"?>
<!-- Generator: Adobe Illustrator 24.0.1, SVG Export Plug-In . SVG Version: 6.00 Build 0)  -->
<svg version="1.1" id="Layer_1" xmlns="http://www.w3.org/2000/svg" xmlns:xlink="http://www.w3.org/1999/xlink" x="0px" y="0px"
	 width="500px" height="500px" viewBox="0 0 500 500" style="enable-background:new 0 0 500 500;" xml:space="preserve">
<style type="text/css">
	.st0{fill:#E0E0E0;}
	.st1{fill:#F0F0F0;}
	.st2{fill:#FAFAFA;}
	.st3{fill:#E6E6E6;}
	.st4{display:none;}
	.st5{display:inline;}
	.st6{fill:#407BFF;}
	.st7{opacity:0.9;fill:#FFFFFF;enable-background:new    ;}
	.st8{fill:#F5F5F5;}
	.st9{opacity:0.5;}
	.st10{fill:#FFFFFF;}
	.st11{opacity:0.4;enable-background:new    ;}
	.st12{opacity:0.5;fill:#FFFFFF;enable-background:new    ;}
	.st13{opacity:0.7;fill:#FFFFFF;enable-background:new    ;}
	.st14{opacity:0.3;fill:#FFFFFF;enable-background:new    ;}
	.st15{opacity:0.4;fill:#FAFAFA;enable-background:new    ;}
	.st16{opacity:0.3;enable-background:new    ;}
</style>
<g id="Background_Complete">
	<g>
		<g>
			<g>
				<g>
					<rect y="382.4" class="st0" width="500" height="0.3"/>
					<rect x="344.9" y="391.6" class="st0" width="34.4" height="0.3"/>
					<rect x="400.4" y="390.9" class="st0" width="19.4" height="0.3"/>
					<rect x="221.7" y="391.5" class="st0" width="25.7" height="0.3"/>
					<rect x="248.3" y="395.1" class="st0" width="17.5" height="0.3"/>
					<rect x="91.7" y="389" class="st0" width="53" height="0.3"/>
					<path class="st0" d="M237,337.8H43.9c-3.1,0-5.7-2.6-5.7-5.7V60.7c0-3.1,2.6-5.7,5.7-5.7H237c3.1,0,5.7,2.6,5.7,5.7v271.4
						C242.7,335.2,240.2,337.8,237,337.8z M43.9,55.2c-3,0-5.5,2.4-5.5,5.5v271.4c0,3,2.4,5.5,5.5,5.5H237c3,0,5.5-2.4,5.5-5.5V60.7
						c0-3-2.4-5.5-5.5-5.5H43.9z"/>
					<path class="st0" d="M453.3,337.8H260.2c-3.1,0-5.7-2.6-5.7-5.7V60.7c0-3.1,2.6-5.7,5.7-5.7h193.1c3.1,0,5.7,2.6,5.7,5.7v271.4
						C459,335.2,456.5,337.8,453.3,337.8z M260.2,55.2c-3,0-5.5,2.4-5.5,5.5v271.4c0,3,2.4,5.5,5.5,5.5h193.1c3,0,5.5-2.4,5.5-5.5
						V60.7c0-3-2.4-5.5-5.5-5.5H260.2z"/>
				</g>
			</g>
		</g>
		<g>
			<g>
				<g>
					<g>
						<rect x="283.3" y="79.3" class="st0" width="150.7" height="129.6"/>
						<rect x="286.7" y="79.3" class="st1" width="150.7" height="129.6"/>
						<rect x="292.7" y="85.3" class="st2" width="138.7" height="117.4"/>
						<rect x="378" y="85.3" class="st0" width="9.1" height="117.4"/>
						<rect x="330.3" y="85.3" class="st0" width="9.1" height="117.4"/>
						<rect x="381.1" y="80.8" class="st1" width="9.1" height="125.8"/>
						<rect x="333.5" y="80.8" class="st1" width="9.1" height="125.8"/>
						<rect x="428.8" y="85.3" class="st0" width="2.5" height="117.4"/>
					</g>
				</g>
			</g>
			<g>
				<path class="st0" d="M177.3,181.6c0,0-18.3-31.6,7.1-56.8c0,0,6.6,4.3,6.5,10.1s-7.1,7.3-5.6,12.1c1.5,4.9,8.1,9.6,3.8,13.6
					s0.7,7.6,0.4,12.5C189.3,178.2,177.3,181.6,177.3,181.6z"/>
				<path class="st3" d="M180.2,186.8c0,0,7.4-35.8-24.6-51.6c0,0-4.9,6.2-3,11.7s9,4.7,9.1,9.8s-4.7,11.7,0.7,14.1
					c5.4,2.4,1.7,7.4,3.6,12C167.8,187.3,180.2,186.8,180.2,186.8z"/>
				<g>
					<path class="st1" d="M163.9,177.7c0,0,0.3,30.9,12.7,30.9c12.3,0,12.7-30.9,12.7-30.9H163.9z"/>
				</g>
			</g>
			<g>
				<path class="st3" d="M89.7,196.9c0,0,0.7,11.6,27.1,11.6s27.1-11.6,27.1-11.6H89.7z"/>
			</g>
			<g>
				<path class="st1" d="M367.7,296.3h-13.9c-1.7,0-3.1-1.4-3.1-3.1v-23c0-1.7,1.4-3.1,3.1-3.1h13.9c1.7,0,3.1,1.4,3.1,3.1v23
					C370.8,294.9,369.4,296.3,367.7,296.3z"/>
				<path class="st3" d="M404.6,296.3h-9.4c-1.2,0-2.1-0.9-2.1-2.1v-15.5c0-1.2,0.9-2.1,2.1-2.1h9.4c1.2,0,2.1,0.9,2.1,2.1v15.5
					C406.7,295.4,405.8,296.3,404.6,296.3z"/>
				<path class="st1" d="M406,276.9h-12.2c-0.4,0-0.7-0.3-0.7-0.7v-0.8c0-0.4,0.3-0.7,0.7-0.7H406c0.4,0,0.7,0.3,0.7,0.7v0.8
					C406.7,276.6,406.4,276.9,406,276.9z"/>
				<path class="st3" d="M318.4,280c0,0,0.5,16.3,19.6,16.3s19.6-16.3,19.6-16.3H318.4z"/>
				<g>
					<g>
						<rect x="271" y="252.8" class="st0" width="28.9" height="5.7"/>
						<rect x="299.8" y="252.8" class="st1" width="143.6" height="5.7"/>
					</g>
				</g>
				<g>
					<g>
						<rect x="271" y="296.3" class="st0" width="28.9" height="5.7"/>
						<rect x="299.8" y="296.3" class="st1" width="143.6" height="5.7"/>
					</g>
				</g>
				<rect x="276" y="258.5" class="st0" width="5.3" height="123.9"/>
				<rect x="299.8" y="258.5" class="st1" width="5.3" height="123.9"/>
				<rect x="419.7" y="258.5" class="st0" width="5.3" height="123.9"/>
				<rect x="438.1" y="258.5" class="st1" width="5.3" height="123.9"/>
			</g>
			<g>
				<g>
					<rect x="62.4" y="215.8" class="st3" width="27.3" height="159.1"/>
					<rect x="67.6" y="374.9" class="st3" width="134.7" height="7.5"/>
					<rect x="89.7" y="215.8" class="st1" width="117.9" height="159.1"/>
					<rect x="100.5" y="275.9" class="st3" width="96.4" height="38.9"/>
					<rect x="100.5" y="321.8" class="st3" width="96.4" height="38.9"/>
					<path class="st1" d="M159.5,280.2h-21.6c-1.5,0-2.7-1.2-2.7-2.7l0,0c0-1.5,1.2-2.7,2.7-2.7h21.6c1.5,0,2.7,1.2,2.7,2.7l0,0
						C162.1,279,160.9,280.2,159.5,280.2z"/>
					<rect x="100.5" y="229.9" class="st3" width="96.4" height="38.9"/>
					<path class="st1" d="M159.5,234.2h-21.6c-1.5,0-2.7-1.2-2.7-2.7l0,0c0-1.5,1.2-2.7,2.7-2.7h21.6c1.5,0,2.7,1.2,2.7,2.7l0,0
						C162.1,233,160.9,234.2,159.5,234.2z"/>
					<path class="st1" d="M159.5,326.1h-21.6c-1.5,0-2.7-1.2-2.7-2.7l0,0c0-1.5,1.2-2.7,2.7-2.7h21.6c1.5,0,2.7,1.2,2.7,2.7l0,0
						C162.1,324.9,160.9,326.1,159.5,326.1z"/>
				</g>
				<rect x="89.7" y="208.6" class="st3" width="121.5" height="7.3"/>
				<rect x="58.5" y="208.5" class="st0" width="31.1" height="7.3"/>
			</g>
			<g>
				<rect x="75.9" y="85.3" class="st3" width="44.2" height="48.5"/>
				<rect x="79.3" y="85.3" class="st1" width="45.7" height="48.5"/>
				<rect x="83.1" y="89.2" class="st2" width="38" height="40.9"/>
				<rect x="92.3" y="99.1" class="st1" width="19.6" height="21.1"/>
			</g>
			<g>
				<g>
					<rect x="133.2" y="71" class="st3" width="33.5" height="36"/>
					<rect x="136.4" y="71" class="st1" width="33.9" height="36"/>
					<rect x="139.3" y="73.9" class="st2" width="28.2" height="30.3"/>
					<polygon class="st1" points="153.4,81.4 145.7,94.7 161.1,94.7 					"/>
				</g>
			</g>
		</g>
	</g>
</g>
<g id="Background_Simple" class="st4">
	<g class="st5">
		<path class="st6" d="M83.7,144.5C67.2,282.4,226.8,416.1,350.2,317.1c55.7-44.7,95.7-187.7,1.4-208.6
			c-54.1-12-112.2,36-163.8,17.1c-24.8-9.1-37.5-44.8-66.3-41C94.6,88.2,86.4,121.5,83.7,144.5z"/>
		<path class="st7" d="M83.7,144.5C67.2,282.4,226.8,416.1,350.2,317.1c55.7-44.7,95.7-187.7,1.4-208.6
			c-54.1-12-112.2,36-163.8,17.1c-24.8-9.1-37.5-44.8-66.3-41C94.6,88.2,86.4,121.5,83.7,144.5z"/>
	</g>
</g>
<g id="Shadow">
	<ellipse class="st8" cx="250" cy="416.2" rx="193.9" ry="11.3"/>
</g>
<g id="Speech_Bubbles">
	<g>
		<g>
			<path class="st6" d="M403.8,240.2h-98.1c-5.2,0-9.4-4.2-9.4-9.4v-26.7c0-5.2,4.2-9.4,9.4-9.4h98.1c5.2,0,9.4,4.2,9.4,9.4v26.7
				C413.2,236,409,240.2,403.8,240.2z"/>
			<g>
				<g>
					<path class="st6" d="M384.3,207.6h-76.6c-0.9,0-1.6-0.7-1.6-1.6v-1.8c0-0.9,0.7-1.6,1.6-1.6h76.6c0.9,0,1.6,0.7,1.6,1.6v1.8
						C386,206.8,385.2,207.6,384.3,207.6z"/>
					<path class="st6" d="M360.1,219.8h-52.3c-0.9,0-1.6-0.7-1.6-1.6v-1.8c0-0.9,0.7-1.6,1.6-1.6h52.3c0.9,0,1.6,0.7,1.6,1.6v1.8
						C361.7,219.1,361,219.8,360.1,219.8z"/>
					<path class="st6" d="M346,232h-38.3c-0.9,0-1.6-0.7-1.6-1.6v-1.8c0-0.9,0.7-1.6,1.6-1.6H346c0.9,0,1.6,0.7,1.6,1.6v1.8
						C347.7,231.3,346.9,232,346,232z"/>
					<path class="st6" d="M393.5,232h-38.3c-0.9,0-1.6-0.7-1.6-1.6v-1.8c0-0.9,0.7-1.6,1.6-1.6h38.3c0.9,0,1.6,0.7,1.6,1.6v1.8
						C395.2,231.3,394.4,232,393.5,232z"/>
				</g>
				<g class="st9">
					<path class="st10" d="M384.3,207.6h-76.6c-0.9,0-1.6-0.7-1.6-1.6v-1.8c0-0.9,0.7-1.6,1.6-1.6h76.6c0.9,0,1.6,0.7,1.6,1.6v1.8
						C386,206.8,385.2,207.6,384.3,207.6z"/>
					<path class="st10" d="M360.1,219.8h-52.3c-0.9,0-1.6-0.7-1.6-1.6v-1.8c0-0.9,0.7-1.6,1.6-1.6h52.3c0.9,0,1.6,0.7,1.6,1.6v1.8
						C361.7,219.1,361,219.8,360.1,219.8z"/>
					<path class="st10" d="M346,232h-38.3c-0.9,0-1.6-0.7-1.6-1.6v-1.8c0-0.9,0.7-1.6,1.6-1.6H346c0.9,0,1.6,0.7,1.6,1.6v1.8
						C347.7,231.3,346.9,232,346,232z"/>
					<path class="st10" d="M393.5,232h-38.3c-0.9,0-1.6-0.7-1.6-1.6v-1.8c0-0.9,0.7-1.6,1.6-1.6h38.3c0.9,0,1.6,0.7,1.6,1.6v1.8
						C395.2,231.3,394.4,232,393.5,232z"/>
				</g>
			</g>
		</g>
		<g>
			<path class="st6" d="M325.2,250.8H213.9c-7.6,0-13.7-6.2-13.7-13.7V198c0-7.6,6.2-13.7,13.7-13.7h111.4c7.6,0,13.7,6.2,13.7,13.7
				v39.1C339,244.6,332.8,250.8,325.2,250.8z"/>
			<g>
				<g>
					<path class="st6" d="M329.2,202.9H216.8c-1.3,0-2.4-1.1-2.4-2.4v-2.6c0-1.3,1.1-2.4,2.4-2.4h112.3c1.3,0,2.4,1.1,2.4,2.4v2.6
						C331.6,201.8,330.5,202.9,329.2,202.9z"/>
					<path class="st6" d="M293.6,220.9h-76.8c-1.3,0-2.4-1.1-2.4-2.4v-2.6c0-1.3,1.1-2.4,2.4-2.4h76.8c1.3,0,2.4,1.1,2.4,2.4v2.6
						C296,219.8,294.9,220.9,293.6,220.9z"/>
					<path class="st6" d="M273,238.8h-56.2c-1.3,0-2.4-1.1-2.4-2.4v-2.6c0-1.3,1.1-2.4,2.4-2.4H273c1.3,0,2.4,1.1,2.4,2.4v2.6
						C275.4,237.7,274.3,238.8,273,238.8z"/>
					<path class="st6" d="M333.3,238.8h-46.8c-1.3,0-2.4-1.1-2.4-2.4v-2.6c0-1.3,1.1-2.4,2.4-2.4h46.8c1.3,0,2.4,1.1,2.4,2.4v2.6
						C335.7,237.7,334.6,238.8,333.3,238.8z"/>
				</g>
				<g class="st9">
					<path class="st10" d="M329.2,202.9H216.8c-1.3,0-2.4-1.1-2.4-2.4v-2.6c0-1.3,1.1-2.4,2.4-2.4h112.3c1.3,0,2.4,1.1,2.4,2.4v2.6
						C331.6,201.8,330.5,202.9,329.2,202.9z"/>
					<path class="st10" d="M293.6,220.9h-76.8c-1.3,0-2.4-1.1-2.4-2.4v-2.6c0-1.3,1.1-2.4,2.4-2.4h76.8c1.3,0,2.4,1.1,2.4,2.4v2.6
						C296,219.8,294.9,220.9,293.6,220.9z"/>
					<path class="st10" d="M273,238.8h-56.2c-1.3,0-2.4-1.1-2.4-2.4v-2.6c0-1.3,1.1-2.4,2.4-2.4H273c1.3,0,2.4,1.1,2.4,2.4v2.6
						C275.4,237.7,274.3,238.8,273,238.8z"/>
					<path class="st10" d="M333.3,238.8h-46.8c-1.3,0-2.4-1.1-2.4-2.4v-2.6c0-1.3,1.1-2.4,2.4-2.4h46.8c1.3,0,2.4,1.1,2.4,2.4v2.6
						C335.7,237.7,334.6,238.8,333.3,238.8z"/>
				</g>
			</g>
		</g>
		<g>
			<g>
				<path class="st6" d="M256,356.1h-53.6c-3.5,0-6.4-2.9-6.4-6.4v-80.3c0-3.5,2.9-6.4,6.4-6.4H256c3.5,0,6.4,2.9,6.4,6.4v80.3
					C262.4,353.2,259.5,356.1,256,356.1z"/>
				<path class="st11" d="M256,356.1h-53.6c-3.5,0-6.4-2.9-6.4-6.4v-80.3c0-3.5,2.9-6.4,6.4-6.4H256c3.5,0,6.4,2.9,6.4,6.4v80.3
					C262.4,353.2,259.5,356.1,256,356.1z"/>
			</g>
			<path class="st2" d="M253.5,276.7h-48.7c-0.7,0-1.2-0.5-1.2-1.2v-1.8c0-0.7,0.5-1.2,1.2-1.2h48.7c0.7,0,1.2,0.5,1.2,1.2v1.8
				C254.7,276.2,254.2,276.7,253.5,276.7z"/>
			<path class="st2" d="M238,286.7h-33.2c-0.7,0-1.2-0.5-1.2-1.2v-1.8c0-0.7,0.5-1.2,1.2-1.2H238c0.7,0,1.2,0.5,1.2,1.2v1.8
				C239.2,286.2,238.7,286.7,238,286.7z"/>
			<path class="st2" d="M253.5,296.6h-48.7c-0.7,0-1.2-0.5-1.2-1.2v-1.8c0-0.7,0.5-1.2,1.2-1.2h48.7c0.7,0,1.2,0.5,1.2,1.2v1.8
				C254.7,296.1,254.2,296.6,253.5,296.6z"/>
			<path class="st2" d="M222.9,306.6h-18.1c-0.7,0-1.2-0.5-1.2-1.2v-1.8c0-0.7,0.5-1.2,1.2-1.2h18.1c0.7,0,1.2,0.5,1.2,1.2v1.8
				C224.1,306,223.6,306.6,222.9,306.6z"/>
			<path class="st2" d="M248.2,306.6h-18.1c-0.7,0-1.2-0.5-1.2-1.2v-1.8c0-0.7,0.5-1.2,1.2-1.2h18.1c0.7,0,1.2,0.5,1.2,1.2v1.8
				C249.4,306,248.9,306.6,248.2,306.6z"/>
			<path class="st2" d="M253.5,316.5h-48.7c-0.7,0-1.2-0.5-1.2-1.2v-1.8c0-0.7,0.5-1.2,1.2-1.2h48.7c0.7,0,1.2,0.5,1.2,1.2v1.8
				C254.7,316,254.2,316.5,253.5,316.5z"/>
			<path class="st2" d="M253.5,326.5h-48.7c-0.7,0-1.2-0.5-1.2-1.2v-1.8c0-0.7,0.5-1.2,1.2-1.2h48.7c0.7,0,1.2,0.5,1.2,1.2v1.8
				C254.7,325.9,254.2,326.5,253.5,326.5z"/>
			<path class="st2" d="M244.9,336.4h-40.1c-0.7,0-1.2-0.5-1.2-1.2v-1.8c0-0.7,0.5-1.2,1.2-1.2h40.1c0.7,0,1.2,0.5,1.2,1.2v1.8
				C246.1,335.9,245.5,336.4,244.9,336.4z"/>
			<path class="st2" d="M223.5,346.4h-18.7c-0.7,0-1.2-0.5-1.2-1.2v-1.8c0-0.7,0.5-1.2,1.2-1.2h18.7c0.7,0,1.2,0.5,1.2,1.2v1.8
				C224.7,345.8,224.2,346.4,223.5,346.4z"/>
		</g>
		<g>
			<g>
				<path class="st6" d="M270.5,262.3h-74.4l32.9,26.2l50.4,19v-36.2C279.4,266.3,275.4,262.3,270.5,262.3z"/>
				<path class="st11" d="M270.5,262.3h-74.4l32.9,26.2l50.4,19v-36.2C279.4,266.3,275.4,262.3,270.5,262.3z"/>
			</g>
			<path class="st2" d="M267.2,281.5h-54.4c-0.8,0-1.5-0.7-1.5-1.5v-2.8c0-0.8,0.7-1.5,1.5-1.5h54.4c0.8,0,1.5,0.7,1.5,1.5v2.8
				C268.7,280.9,268.1,281.5,267.2,281.5z"/>
		</g>
		<g>
			<path class="st6" d="M293.8,333.2v-52.3c0-4,3.3-7.3,7.3-7.3H392c4,0,7.3,3.3,7.3,7.3v52.3c0,4-3.3,7.3-7.3,7.3h-91
				C297,340.4,293.8,337.2,293.8,333.2z"/>
			<g>
				<path class="st6" d="M310.4,316.6v-52.3c0-4,3.3-7.3,7.3-7.3h90.9c4,0,7.3,3.3,7.3,7.3v52.3c0,4-3.3,7.3-7.3,7.3h-90.9
					C313.6,323.8,310.4,320.6,310.4,316.6z"/>
				<path class="st12" d="M310.4,316.6v-52.3c0-4,3.3-7.3,7.3-7.3h90.9c4,0,7.3,3.3,7.3,7.3v52.3c0,4-3.3,7.3-7.3,7.3h-90.9
					C313.6,323.8,310.4,320.6,310.4,316.6z"/>
			</g>
			<g>
				<path class="st6" d="M370.4,298.7v-32.2c0-1.8,1.5-3.2,3.2-3.2h29.7c1.8,0,3.2,1.5,3.2,3.2v32.2c0,1.8-1.5,3.2-3.2,3.2h-29.7
					C371.8,301.9,370.4,300.4,370.4,298.7z"/>
				<path class="st13" d="M370.4,298.7v-32.2c0-1.8,1.5-3.2,3.2-3.2h29.7c1.8,0,3.2,1.5,3.2,3.2v32.2c0,1.8-1.5,3.2-3.2,3.2h-29.7
					C371.8,301.9,370.4,300.4,370.4,298.7z"/>
			</g>
			<g>
				<path class="st6" d="M337,314.2v-24.7c0-1.4,1.1-2.5,2.5-2.5h22.8c1.4,0,2.5,1.1,2.5,2.5v24.7c0,1.4-1.1,2.5-2.5,2.5h-22.8
					C338.1,316.7,337,315.6,337,314.2z"/>
				<path class="st14" d="M337,314.2v-24.7c0-1.4,1.1-2.5,2.5-2.5h22.8c1.4,0,2.5,1.1,2.5,2.5v24.7c0,1.4-1.1,2.5-2.5,2.5h-22.8
					C338.1,316.7,337,315.6,337,314.2z"/>
			</g>
			<g>
				<path class="st6" d="M92,157.8v-13.4c0-4.1,3.3-7.4,7.4-7.4h244.1c4.1,0,7.4,3.3,7.4,7.4v13.3c0,4.1-3.3,7.4-7.4,7.4H99.3
					C95.3,165.1,92,161.8,92,157.8z"/>
				<path class="st12" d="M92,157.8v-13.4c0-4.1,3.3-7.4,7.4-7.4h244.1c4.1,0,7.4,3.3,7.4,7.4v13.3c0,4.1-3.3,7.4-7.4,7.4H99.3
					C95.3,165.1,92,161.8,92,157.8z"/>
			</g>
			<g>
				<rect x="234.3" y="160.2" class="st6" width="70.3" height="9.7"/>
				<rect x="234.3" y="160.2" class="st12" width="70.3" height="9.7"/>
			</g>
			<path class="st6" d="M117.1,116.3v-13.4c0-4.1,3.3-7.4,7.4-7.4h244.1c4.1,0,7.4,3.3,7.4,7.4v13.3c0,4.1-3.3,7.4-7.4,7.4H124.5
				C120.5,123.6,117.1,120.3,117.1,116.3z"/>
		</g>
	</g>
</g>
<g>
	<path class="st15" d="M285.5,306.9c-44.9,7.8-87.6-22.2-95.5-67.2c-7.8-44.9,22.2-87.6,67.2-95.5c44.9-7.8,87.6,22.2,95.5,67.2
		C360.5,256.3,330.3,299.1,285.5,306.9z"/>
	<path class="st15" d="M301.9,148.9l-92.4,131.4c-0.9-0.9-1.6-1.9-2.4-2.9c-5-6.2-9.2-13.2-12.3-20.9l0,0L274.7,143
		C284.1,143.5,293.3,145.5,301.9,148.9z"/>
	<path class="st15" d="M342.1,183l-86.8,123.6c-12.5-2.4-24.1-7.9-34.1-15.5L316,156.2C326.4,162.9,335.4,172.1,342.1,183z"/>
	<g>
		<path class="st6" d="M173.3,221.3l-1.1,0c0.2-5.9,1-11.7,2.3-17.5l1.2,0.3C174.4,209.7,173.6,215.5,173.3,221.3z M179.2,191.8
			l-1.1-0.4c5.4-14.7,14.5-28.2,26.1-38.9l0.7,0.9C193.5,163.9,184.5,177.2,179.2,191.8z M291.9,129.7c-4.2-0.9-8.4-1.5-12.6-1.8
			l0.2-1.1c4.3,0.3,8.5,1,12.7,1.9L291.9,129.7z"/>
		<path class="st16" d="M173.3,221.3l-1.1,0c0.2-5.9,1-11.7,2.3-17.5l1.2,0.3C174.4,209.7,173.6,215.5,173.3,221.3z M179.2,191.8
			l-1.1-0.4c5.4-14.7,14.5-28.2,26.1-38.9l0.7,0.9C193.5,163.9,184.5,177.2,179.2,191.8z M291.9,129.7c-4.2-0.9-8.4-1.5-12.6-1.8
			l0.2-1.1c4.3,0.3,8.5,1,12.7,1.9L291.9,129.7z"/>
	</g>
	<g>
		<path class="st6" d="M341.4,161.2c-35.5-38.7-95.7-41.3-134.4-5.8c-36,33-40.8,87.3-12.7,125.9c-6.6,4.7-13.1,9.7-19.4,14.5
			c-9.3,7.1-18.2,14.5-27.1,22c-8.9,7.5-17.7,15.1-26.4,22.9c-4.4,3.8-8.6,7.8-13,11.7c-2.2,1.8-4.2,4.1-5.6,6.8
			c-0.7,1.4-1.3,2.9-1.8,4.6c-0.5,1.7-0.8,3.5-0.7,5.7c0.3,7.1,5.6,13.2,12.8,13.9c2.2,0.3,4.1,0.1,5.8-0.1c1.7-0.3,3.3-0.7,4.6-1.3
			c2.9-1.2,5.2-3,7.3-5c4.2-4,8.6-7.9,12.8-11.8c8.4-7.9,16.8-16.1,25-24.3c8.2-8.2,16.3-16.6,24.2-25.2c5.4-5.9,11-11.9,16.2-18.1
			c36.1,31.3,90.6,31.2,126.6-1.8C374.4,260.2,377,200,341.4,161.2z M322.1,281c-30.6,28-78,26-106.2-4.6c-28-30.5-26-78,4.6-106.2
			c30.6-28,78-26,106.2,4.6C354.7,205.3,352.6,252.8,322.1,281z"/>
		<path class="st16" d="M341.4,161.2c-35.5-38.7-95.7-41.3-134.4-5.8c-36,33-40.8,87.3-12.7,125.9c-6.6,4.7-13.1,9.7-19.4,14.5
			c-9.3,7.1-18.2,14.5-27.1,22c-8.9,7.5-17.7,15.1-26.4,22.9c-4.4,3.8-8.6,7.8-13,11.7c-2.2,1.8-4.2,4.1-5.6,6.8
			c-0.7,1.4-1.3,2.9-1.8,4.6c-0.5,1.7-0.8,3.5-0.7,5.7c0.3,7.1,5.6,13.2,12.8,13.9c2.2,0.3,4.1,0.1,5.8-0.1c1.7-0.3,3.3-0.7,4.6-1.3
			c2.9-1.2,5.2-3,7.3-5c4.2-4,8.6-7.9,12.8-11.8c8.4-7.9,16.8-16.1,25-24.3c8.2-8.2,16.3-16.6,24.2-25.2c5.4-5.9,11-11.9,16.2-18.1
			c36.1,31.3,90.6,31.2,126.6-1.8C374.4,260.2,377,200,341.4,161.2z M322.1,281c-30.6,28-78,26-106.2-4.6c-28-30.5-26-78,4.6-106.2
			c30.6-28,78-26,106.2,4.6C354.7,205.3,352.6,252.8,322.1,281z"/>
	</g>
</g>
</svg>
