<?xml version="1.0" encoding="utf-8"?>
<!-- Generator: Adobe Illustrator 24.0.1, SVG Export Plug-In . SVG Version: 6.00 Build 0)  -->
<svg version="1.1" id="Layer_1" xmlns="http://www.w3.org/2000/svg" xmlns:xlink="http://www.w3.org/1999/xlink" x="0px" y="0px"
	 width="500px" height="500px" viewBox="0 0 500 500" style="enable-background:new 0 0 500 500;" xml:space="preserve">
<style type="text/css">
	.st0{fill:#F0F0F0;}
	.st1{fill:#E6E6E6;}
	.st2{fill:#F5F5F5;}
	.st3{fill:#EBEBEB;}
	.st4{fill:#FAFAFA;}
	.st5{fill:#FFFFFF;}
	.st6{display:none;}
	.st7{display:inline;fill:#407BFF;}
	.st8{display:inline;opacity:0.9;fill:#FFFFFF;enable-background:new    ;}
	.st9{fill:#407BFF;}
	.st10{opacity:0.3;fill:#407BFF;enable-background:new    ;}
	.st11{opacity:0.3;fill:#FFFFFF;enable-background:new    ;}
	.st12{fill:#263238;}
	.st13{opacity:0.2;enable-background:new    ;}
	.st14{opacity:0.4;fill:#E6E6E6;enable-background:new    ;}
	.st15{opacity:0.1;fill:#FFFFFF;enable-background:new    ;}
	.st16{opacity:0.1;enable-background:new    ;}
	.st17{opacity:0.6;fill:#FFFFFF;enable-background:new    ;}
</style>
<g id="Background_complete">
	<g>
		<g>
			<g>
				<rect y="382.4" class="st0" width="500" height="0.3"/>
				<rect x="344.5" y="395" class="st0" width="10.5" height="0.3"/>
				<rect x="64.9" y="388.4" class="st0" width="10.1" height="0.3"/>
				<rect x="153.4" y="394.9" class="st0" width="30.7" height="0.3"/>
				<rect x="214.3" y="389.2" class="st0" width="19.7" height="0.3"/>
				<rect x="377.2" y="390.8" class="st0" width="52.4" height="0.3"/>
				<rect x="79.9" y="388.4" class="st0" width="43.1" height="0.3"/>
				<rect x="435.5" y="390.9" class="st0" width="16.5" height="0.3"/>
				<path class="st0" d="M237,337.8H43.9c-3.1,0-5.7-2.6-5.7-5.7V60.7c0-3.1,2.6-5.7,5.7-5.7H237c3.1,0,5.7,2.6,5.7,5.7v271.4
					C242.7,335.2,240.2,337.8,237,337.8z M43.9,55.2c-3,0-5.5,2.4-5.5,5.5v271.4c0,3,2.4,5.5,5.5,5.5H237c3,0,5.5-2.4,5.5-5.5V60.7
					c0-3-2.4-5.5-5.5-5.5H43.9z"/>
				<path class="st0" d="M453.3,337.8H260.2c-3.1,0-5.7-2.6-5.7-5.7V60.7c0-3.1,2.6-5.7,5.7-5.7h193.1c3.1,0,5.7,2.6,5.7,5.7v271.4
					C459,335.2,456.5,337.8,453.3,337.8z M260.2,55.2c-3,0-5.5,2.4-5.5,5.5v271.4c0,3,2.4,5.5,5.5,5.5h193.1c3,0,5.5-2.4,5.5-5.5
					V60.7c0-3-2.4-5.5-5.5-5.5H260.2z"/>
			</g>
		</g>
	</g>
	<g>
		<rect x="408.4" y="322.4" class="st1" width="27.5" height="60"/>
		<polygon class="st2" points="430.6,382.4 435.9,382.4 435.9,367.5 425.2,367.5 		"/>
		<rect x="251.4" y="322.4" class="st3" width="27.5" height="60"/>
		<rect x="274.4" y="322.4" class="st2" width="161.5" height="50.9"/>
		<g>
			<rect x="279.7" y="327.3" class="st1" width="47.9" height="27.5"/>
			<path class="st0" d="M308.4,331.4h-9.5c-4.1,0-8-1.7-10.9-4.7l0,0h31.2l0,0C316.5,329.7,312.5,331.4,308.4,331.4z"/>
		</g>
		<g>
			<rect x="331.2" y="327.2" class="st1" width="47.9" height="27.5"/>
			<path class="st0" d="M360.3,331.4h-9.5c-4.1,0-8-1.7-10.9-4.7l0,0h31.2l0,0C368.4,329.7,364.5,331.4,360.3,331.4z"/>
		</g>
		<g>
			<rect x="382.6" y="327.2" class="st1" width="47.9" height="27.5"/>
			<path class="st0" d="M411.8,331.4h-9.5c-4.1,0-8-1.7-10.9-4.7l0,0h31.2l0,0C419.8,329.7,415.9,331.4,411.8,331.4z"/>
		</g>
		<polygon class="st2" points="279.6,382.4 274.4,382.4 274.4,367.5 285.1,367.5 		"/>
	</g>
	<g>
		<rect x="62.9" y="74" class="st1" width="245.5" height="132.5"/>
		<rect x="65.2" y="74" class="st3" width="248.2" height="132.5"/>
		<rect x="62.9" y="206.4" class="st1" width="245.5" height="9.4"/>
		<rect x="73.7" y="206.4" class="st1" width="248.2" height="9.4"/>
		<rect x="72.4" y="81.1" class="st4" width="234" height="118.2"/>
		<polygon class="st5" points="86,199.3 127.7,81.1 147.4,81.1 105.7,199.3 		"/>
		<path class="st1" d="M75.6,159.3c-0.3,0-0.5-0.2-0.5-0.5v-73c0-0.3,0.2-0.5,0.5-0.5s0.5,0.2,0.5,0.5v73
			C76.2,159,75.9,159.3,75.6,159.3z"/>
		<polygon class="st5" points="109.9,199.3 151.6,81.1 159.3,81.1 117.6,199.3 		"/>
		<rect x="305.4" y="81.1" class="st1" width="0.9" height="118.2"/>
		<polygon class="st3" points="315.2,90.2 69.6,90.2 69,83.9 314.5,83.9 		"/>
		<polygon class="st3" points="315.2,94.8 69.6,94.8 69,88.5 314.5,88.5 		"/>
		<polygon class="st3" points="315.2,100.4 69.6,100.4 69,94.1 314.5,94.1 		"/>
		<polygon class="st3" points="315.2,106.6 69.6,106.6 69,100.3 314.5,100.3 		"/>
		<polygon class="st1" points="315.2,114 69.6,114 69,107.7 314.5,107.7 		"/>
		<polygon class="st1" points="315.2,122.3 69.6,122.3 69,116 314.5,116 		"/>
	</g>
	<g>
		<rect x="342.2" y="130" class="st3" width="34.2" height="39.5"/>
		<rect x="346.3" y="130" class="st2" width="37.1" height="39.5"/>
		<rect x="349.4" y="133.1" class="st5" width="30.9" height="33.2"/>
		<path class="st4" d="M356.9,155.6v-11.7c0-1.5,1.2-2.7,2.7-2.7h10.5c1.5,0,2.7,1.2,2.7,2.7v11.7c0,1.5-1.2,2.7-2.7,2.7h-10.5
			C358.1,158.3,356.9,157.1,356.9,155.6z"/>
	</g>
	<g>
		<rect x="393.9" y="112.6" class="st3" width="34.2" height="39.5"/>
		<rect x="398" y="112.6" class="st2" width="37.1" height="39.5"/>
		<rect x="401.1" y="115.7" class="st5" width="30.9" height="33.2"/>
		<path class="st4" d="M408.6,138.2v-11.7c0-1.5,1.2-2.7,2.7-2.7h10.5c1.5,0,2.7,1.2,2.7,2.7v11.7c0,1.5-1.2,2.7-2.7,2.7h-10.5
			C409.8,140.9,408.6,139.7,408.6,138.2z"/>
	</g>
	<g>
		<g>
			<rect x="204.8" y="265.7" class="st1" width="55.6" height="116.7"/>
			<polygon class="st1" points="254.7,382.4 260.3,382.4 260.3,366.5 248.9,366.5 			"/>
			<rect x="68.1" y="265.7" class="st1" width="55.6" height="116.7"/>
			<rect x="118.8" y="265.7" class="st2" width="141.6" height="107"/>
			<rect x="121.9" y="270.4" class="st1" width="132.9" height="29.3"/>
			<path class="st2" d="M195.8,279.5h-12.6c-5.5,0-10.7-3.6-14.4-10l0,0h41.4l0,0C206.5,275.9,201.3,279.5,195.8,279.5z"/>
			<polygon class="st1" points="124.4,382.4 118.8,382.4 118.8,366.5 130.2,366.5 			"/>
			<rect x="121.9" y="304.5" class="st1" width="132.9" height="29.3"/>
			<path class="st2" d="M195.8,313.6h-12.6c-5.5,0-10.7-3.6-14.4-10l0,0h41.4l0,0C206.5,310,201.3,313.6,195.8,313.6z"/>
			<rect x="121.9" y="338.6" class="st1" width="132.9" height="29.3"/>
			<path class="st2" d="M195.8,347.7h-12.6c-5.5,0-10.7-3.6-14.4-10l0,0h41.4l0,0C206.5,344.1,201.3,347.7,195.8,347.7z"/>
		</g>
	</g>
	<g>
		<path class="st1" d="M382.5,311.6h1.7c0-3.4,0-12.1,0.2-31.9c0.3-36,0.9-38.2,0.9-38.2l-3.9,16.6C378.8,276.5,382,295,382.5,311.6
			z"/>
		<path class="st1" d="M375.2,251.9c-8.7-8.6-25.7-9.7-43-10.5c-6.8-0.3,19,12.8,31.9,22.6c10,7.6,16.2,9.4,19.5,17.6
			C384,271,382.7,259.3,375.2,251.9z"/>
		<path class="st1" d="M384.7,233.2c5.9-11.2,20.7-21.7,37.3-25.7c6.5-1.6-15.1,20.7-23.4,35c-6.4,11.1-14.9,24.2-16.2,33.6
			C380.5,257.5,378.8,244.4,384.7,233.2z"/>
		<g>
			<path class="st0" d="M384,322.4L384,322.4c-5.8,0-10.6-4.5-10.9-10.3l-1-9.9h23.7l-1,9.9C394.5,317.9,389.8,322.4,384,322.4z"/>
			<polygon class="st2" points="397.4,306 370.6,306 369.8,295 398.1,295 			"/>
		</g>
	</g>
</g>
<g id="Background_simple" class="st6">
	<path class="st7" d="M194.2,157.6c21.7-41.4,33.5-80.9,85.7-88.1c45.3-6.3,98,20.3,128.1,53.1c58.3,63.6,9.9,206.6-81.4,193.3
		c-61.8-9-83.7-25.1-142.8-4.3c-39,13.8-90.5,14.4-120.7-19.9c-30.9-35.1-4.4-58.1,31.1-72C134.4,204,169.8,204.2,194.2,157.6z"/>
	<path class="st8" d="M194.2,157.6c21.7-41.4,33.5-80.9,85.7-88.1c45.3-6.3,98,20.3,128.1,53.1c58.3,63.6,9.9,206.6-81.4,193.3
		c-61.8-9-83.7-25.1-142.8-4.3c-39,13.8-90.5,14.4-120.7-19.9c-30.9-35.1-4.4-58.1,31.1-72C134.4,204,169.8,204.2,194.2,157.6z"/>
</g>
<g id="Shadow">
	<ellipse class="st2" cx="250" cy="416.2" rx="193.9" ry="11.3"/>
</g>
<g id="Shield">
	<g>
		<path class="st9" d="M226.8,99.6c1.8,21.3,26.3,49,34.2,57.4c1.3,1.4,3.5,1.4,4.9,0c7.9-8.4,32.5-36.1,34.2-57.4
			c0.1-1.4-0.5-2.6-1.8-3.3l-33.3-17.9c-1-0.5-2.1-0.5-3.1,0l-33.3,17.9C227.3,97,226.7,98.2,226.8,99.6z"/>
		<g>
			<path class="st10" d="M260.9,148.9c-10-11.4-24.6-30.2-28.1-45.4c-0.4-1.4,0.4-2.9,1.6-3.6l27.2-15.7c1-0.6,2.3-0.6,3.3,0
				l27.2,15.7c1.3,0.8,1.9,2.3,1.6,3.6c-3.5,15.2-17.9,34-28.1,45.4C264.6,150.4,262.2,150.4,260.9,148.9z"/>
			<path class="st11" d="M260.9,148.9c-10-11.4-24.6-30.2-28.1-45.4c-0.4-1.4,0.4-2.9,1.6-3.6l27.2-15.7c1-0.6,2.3-0.6,3.3,0
				l27.2,15.7c1.3,0.8,1.9,2.3,1.6,3.6c-3.5,15.2-17.9,34-28.1,45.4C264.6,150.4,262.2,150.4,260.9,148.9z"/>
		</g>
		<path class="st5" d="M259.7,126.1c-0.5,0-1-0.1-1.4-0.5l-9.3-9.3c-0.8-0.8-0.8-1.9,0-2.6c0.8-0.8,1.9-0.8,2.6,0l7.9,7.9l18.8-18.8
			c0.8-0.8,1.9-0.8,2.6,0c0.8,0.8,0.8,1.9,0,2.6l-20.1,20.1C260.7,125.8,260.2,126.1,259.7,126.1z"/>
	</g>
</g>
<g id="Vault">
	<g>
		<path class="st12" d="M338.7,176.7H164.8c-8.3,0-15,6.8-15,15v228c0,8.3,6.8,15,15,15h173.9c8.3,0,15-6.8,15-15v-228
			C353.7,183.5,346.9,176.7,338.7,176.7z"/>
		<path class="st9" d="M350.3,176.7H176.5c-8.3,0-15,6.8-15,15v228c0,8.3,6.8,15,15,15h173.9c8.3,0,15-6.8,15-15v-228
			C365.4,183.5,358.6,176.7,350.3,176.7z"/>
		<path class="st12" d="M197.1,439.5h-16.9c-0.5,0-0.9-0.4-0.9-0.9v-2.8c0-0.5,0.4-0.9,0.9-0.9h16.9c0.5,0,0.9,0.4,0.9,0.9v2.8
			C198,439.1,197.6,439.5,197.1,439.5z"/>
		<path class="st12" d="M346.7,439.5h-16.9c-0.5,0-0.9-0.4-0.9-0.9v-2.8c0-0.5,0.4-0.9,0.9-0.9h16.9c0.5,0,0.9,0.4,0.9,0.9v2.8
			C347.6,439.1,347.2,439.5,346.7,439.5z"/>
		<path class="st13" d="M350.3,176.7H176.5c-8.3,0-15,6.8-15,15v228c0,8.3,6.8,15,15,15h173.9c8.3,0,15-6.8,15-15v-228
			C365.4,183.5,358.6,176.7,350.3,176.7z"/>
		<path class="st14" d="M329.9,405.1H197c-3.1,0-5.8-2.6-5.8-5.8v-187c0-3.1,2.6-5.8,5.8-5.8h132.9c3.1,0,5.8,2.6,5.8,5.8v187
			C335.7,402.5,333,405.1,329.9,405.1z M197,207.2c-2.9,0-5.1,2.3-5.1,5.1v187c0,2.9,2.3,5.1,5.1,5.1h132.9c2.9,0,5.1-2.3,5.1-5.1
			v-187c0-2.9-2.3-5.1-5.1-5.1L197,207.2L197,207.2z"/>
		<g>
			<path class="st9" d="M197,402.2c-1.6,0-2.9-1.3-2.9-2.9v-187c0-1.6,1.3-2.9,2.9-2.9h132.9c1.6,0,2.9,1.3,2.9,2.9v187
				c0,1.6-1.3,2.9-2.9,2.9L197,402.2L197,402.2z"/>
			<path class="st15" d="M197,402.2c-1.6,0-2.9-1.3-2.9-2.9v-187c0-1.6,1.3-2.9,2.9-2.9h132.9c1.6,0,2.9,1.3,2.9,2.9v187
				c0,1.6-1.3,2.9-2.9,2.9L197,402.2L197,402.2z"/>
		</g>
		<g>
			<rect x="368.5" y="230" class="st9" width="1.3" height="10.5"/>
			<rect x="368.5" y="191.7" class="st9" width="1.3" height="27.1"/>
		</g>
		<circle class="st16" cx="263.4" cy="309.5" r="42.7"/>
		<g>
			<circle class="st9" cx="263.4" cy="235.5" r="10.4"/>
			<circle class="st17" cx="263.3" cy="235.5" r="10.4"/>
			<path class="st9" d="M263.4,243.8c-4.5,0-8.3-3.8-8.3-8.3c0-4.5,3.8-8.3,8.3-8.3c4.5,0,8.3,3.8,8.3,8.3
				C271.7,240.1,268,243.8,263.4,243.8z M263.4,227.8c-4.3,0-7.6,3.4-7.6,7.6c0,4.3,3.4,7.6,7.6,7.6c4.3,0,7.6-3.4,7.6-7.6
				C271.1,231.4,267.6,227.8,263.4,227.8z"/>
		</g>
		<g>
			<path class="st9" d="M193.9,263.1h-4.6c-1,0-1.9-0.9-1.9-1.9v-25.4c0-1,0.9-1.9,1.9-1.9h4.6c1,0,1.9,0.9,1.9,1.9v25.4
				C195.8,262.2,194.9,263.1,193.9,263.1z"/>
			<path class="st17" d="M193.9,263.1h-4.6c-1,0-1.9-0.9-1.9-1.9v-25.4c0-1,0.9-1.9,1.9-1.9h4.6c1,0,1.9,0.9,1.9,1.9v25.4
				C195.8,262.2,194.9,263.1,193.9,263.1z"/>
		</g>
		<g>
			<path class="st9" d="M193.9,377.7h-4.6c-1,0-1.9-0.9-1.9-1.9v-25.4c0-1,0.9-1.9,1.9-1.9h4.6c1,0,1.9,0.9,1.9,1.9v25.4
				C195.8,376.9,194.9,377.7,193.9,377.7z"/>
			<path class="st17" d="M193.9,377.7h-4.6c-1,0-1.9-0.9-1.9-1.9v-25.4c0-1,0.9-1.9,1.9-1.9h4.6c1,0,1.9,0.9,1.9,1.9v25.4
				C195.8,376.9,194.9,377.7,193.9,377.7z"/>
		</g>
		<g>
			<circle class="st9" cx="263.4" cy="305.8" r="42.7"/>
			<circle class="st17" cx="263.4" cy="305.8" r="42.7"/>
		</g>
		<g>
			<g>
				
					<rect x="262.1" y="274.6" transform="matrix(0.7071 -0.7071 0.7071 0.7071 -139.0466 275.8035)" class="st9" width="2.5" height="62.3"/>
				
					<rect x="232.3" y="304.6" transform="matrix(0.7071 -0.7071 0.7071 0.7071 -139.1093 275.8294)" class="st9" width="62.3" height="2.5"/>
			</g>
			<g>
				
					<rect x="232.1" y="304.4" transform="matrix(0.7071 -0.7071 0.7071 0.7071 -139.048 275.7069)" class="st13" width="62.3" height="2.5"/>
				
					<rect x="262" y="274.5" transform="matrix(0.7071 -0.7071 0.7071 0.7071 -138.9854 275.681)" class="st13" width="2.5" height="62.3"/>
				<path class="st9" d="M263.3,338.2c-17.9,0-32.5-14.5-32.5-32.5s14.5-32.5,32.5-32.5s32.5,14.5,32.5,32.5
					C295.8,323.5,281.1,338.2,263.3,338.2z M263.3,275.7c-16.5,0-30,13.4-30,30s13.4,30,30,30c16.5,0,30-13.4,30-30
					C293.3,289.1,279.7,275.7,263.3,275.7z"/>
				<ellipse class="st9" cx="263.3" cy="305.7" rx="13.5" ry="13.5"/>
				<path class="st13" d="M263.3,338.2c-17.9,0-32.5-14.5-32.5-32.5s14.5-32.5,32.5-32.5s32.5,14.5,32.5,32.5
					C295.8,323.5,281.1,338.2,263.3,338.2z M263.3,275.7c-16.5,0-30,13.4-30,30s13.4,30,30,30c16.5,0,30-13.4,30-30
					C293.3,289.1,279.7,275.7,263.3,275.7z"/>
				<ellipse class="st13" cx="263.3" cy="305.7" rx="13.5" ry="13.5"/>
			</g>
		</g>
	</g>
</g>
</svg>
