<?xml version="1.0" encoding="utf-8"?>
<!-- Generator: Adobe Illustrator 24.0.1, SVG Export Plug-In . SVG Version: 6.00 Build 0)  -->
<svg version="1.1" id="Layer_1" xmlns="http://www.w3.org/2000/svg" xmlns:xlink="http://www.w3.org/1999/xlink" x="0px" y="0px"
	 width="500px" height="500px" viewBox="0 0 500 500" style="enable-background:new 0 0 500 500;" xml:space="preserve">
<style type="text/css">
	.st0{fill:#EBEBEB;}
	.st1{fill:#E6E6E6;}
	.st2{fill:#F5F5F5;}
	.st3{fill:#FFFFFF;}
	.st4{fill:#F0F0F0;}
	.st5{fill:#FAFAFA;}
	.st6{fill:#E0E0E0;}
	.st7{display:none;}
	.st8{display:inline;}
	.st9{fill:#407BFF;}
	.st10{opacity:0.9;fill:#FFFFFF;enable-background:new    ;}
	.st11{fill:#263238;}
	.st12{opacity:0.7;fill:#FFFFFF;enable-background:new    ;}
	.st13{opacity:0.4;fill:#FFFFFF;enable-background:new    ;}
	.st14{opacity:0.1;fill:#FFFFFF;enable-background:new    ;}
</style>
<g id="Background_Complete">
	<g>
		<rect y="382.4" class="st0" width="500" height="0.3"/>
		<rect x="359" y="391.9" class="st0" width="90.9" height="0.3"/>
		<rect x="306.3" y="389.2" class="st0" width="24.9" height="0.3"/>
		<rect x="349.5" y="401.2" class="st0" width="38.6" height="0.3"/>
		<rect x="52.5" y="399.5" class="st0" width="22.6" height="0.3"/>
		<rect x="84" y="399.5" class="st0" width="26.9" height="0.3"/>
		<rect x="178.3" y="395.3" class="st0" width="46.8" height="0.3"/>
		<path class="st0" d="M237,337.8H43.9c-3.1,0-5.7-2.6-5.7-5.7V60.7c0-3.1,2.6-5.7,5.7-5.7H237c3.1,0,5.7,2.6,5.7,5.7v271.4
			C242.7,335.2,240.2,337.8,237,337.8z M43.9,55.2c-3,0-5.5,2.4-5.5,5.5v271.4c0,3,2.4,5.5,5.5,5.5H237c3,0,5.5-2.4,5.5-5.5V60.7
			c0-3-2.4-5.5-5.5-5.5H43.9z"/>
		<path class="st0" d="M453.3,337.8H260.2c-3.1,0-5.7-2.6-5.7-5.7V60.7c0-3.1,2.6-5.7,5.7-5.7h193.1c3.1,0,5.7,2.6,5.7,5.7v271.4
			C459,335.2,456.5,337.8,453.3,337.8z M260.2,55.2c-3,0-5.5,2.4-5.5,5.5v271.4c0,3,2.4,5.5,5.5,5.5h193.1c3,0,5.5-2.4,5.5-5.5V60.7
			c0-3-2.4-5.5-5.5-5.5H260.2z"/>
	</g>
	<g>
		<g>
			<rect x="316.5" y="79.8" class="st1" width="104.9" height="116.6"/>
			<rect x="294.1" y="79.8" class="st2" width="122.5" height="116.6"/>
			<rect x="306" y="87.3" class="st3" width="98.5" height="101.6"/>
			<rect x="354.7" y="86" class="st2" width="1.3" height="104.2"/>
		</g>
		<g>
			<rect x="81.2" y="86.4" class="st1" width="134" height="270.4"/>
			<rect x="71.8" y="86.4" class="st4" width="140.9" height="270.4"/>
			<rect x="83.6" y="98.1" class="st3" width="117.3" height="246.8"/>
			<polygon class="st5" points="127.8,345 151,98.2 124.3,98.2 101.1,345 			"/>
			<polygon class="st5" points="148.5,345 171.7,98.2 158.3,98.2 135.2,345 			"/>
		</g>
		<g>
			<g>
				<g>
					<rect x="265.8" y="276.5" class="st1" width="25.1" height="105.9"/>
					<polygon class="st5" points="280.4,382.4 265.9,382.4 265.9,367.8 295.7,367.8 					"/>
					<rect x="414.6" y="276.5" class="st1" width="25.1" height="105.9"/>
					<rect x="265.8" y="276.5" class="st5" width="161.5" height="100.9"/>
					<polygon class="st5" points="412.8,382.4 427.4,382.4 427.4,367.8 397.5,367.8 					"/>
					<rect x="277.1" y="314.1" class="st4" width="138.9" height="25.2"/>
					<rect x="277.1" y="344.8" class="st4" width="138.9" height="25.2"/>
					<path class="st5" d="M303.6,316.8h86.1c2.5,0,4.6-2,4.6-4.6v-0.3H299v0.3C299,314.7,301,316.8,303.6,316.8z"/>
					<rect x="277.1" y="283.5" class="st4" width="138.9" height="25.2"/>
					<path class="st5" d="M303.6,286.2h86.1c2.5,0,4.6-2,4.6-4.6v-0.3H299v0.3C299,284.1,301,286.2,303.6,286.2z"/>
					<path class="st5" d="M303.6,347.4h86.1c2.5,0,4.6-2,4.6-4.6v-0.3H299v0.3C299,345.4,301,347.4,303.6,347.4z"/>
				</g>
			</g>
			<g>
				<rect x="292.4" y="229" class="st2" width="4.9" height="45.8"/>
				<rect x="292.9" y="228.9" class="st5" width="1.4" height="45.8"/>
				<path class="st4" d="M283.9,276.5h21.8l0,0c0-1.5-1.2-2.7-2.7-2.7h-16.3C285.1,273.8,283.9,275,283.9,276.5L283.9,276.5z"/>
				<path class="st4" d="M285.3,261.4L285.3,261.4c0.8,0,1.4-0.6,1.4-1.4v-25.3c0-0.8-0.6-1.4-1.4-1.4l0,0c-0.8,0-1.4,0.6-1.4,1.4
					V260C283.9,260.8,284.6,261.4,285.3,261.4z"/>
				<path class="st6" d="M272.7,241.1h44.2l-1.6-4.4c-2.1-5.8-7.6-9.7-13.8-9.7h-13.4c-6.2,0-11.7,3.9-13.8,9.7L272.7,241.1z"/>
			</g>
			<g>
				<rect x="405.4" y="229" class="st2" width="4.9" height="45.8"/>
				<rect x="406.1" y="228.9" class="st5" width="1.4" height="45.8"/>
				<path class="st4" d="M397,276.5h21.8l0,0c0-1.5-1.2-2.7-2.7-2.7h-16.3C398.2,273.8,397,275,397,276.5L397,276.5z"/>
				<path class="st4" d="M398.4,261.4L398.4,261.4c0.8,0,1.4-0.6,1.4-1.4v-25.3c0-0.8-0.6-1.4-1.4-1.4l0,0c-0.8,0-1.4,0.6-1.4,1.4
					V260C397,260.8,397.6,261.4,398.4,261.4z"/>
				<path class="st6" d="M385.8,241.1H430l-1.6-4.4c-2.1-5.8-7.6-9.7-13.8-9.7h-13.4c-6.2,0-11.7,3.9-13.8,9.7L385.8,241.1z"/>
			</g>
		</g>
	</g>
</g>
<g id="Background_Simple" class="st7">
	<g class="st8">
		<path class="st9" d="M128.7,346.2c31.6,18.3,74,21.3,109.3,12.4c17.7-4.5,30.9-13.9,46.2-22.8c21.4-12.5,37.4-11.2,61.4-12.6
			c69.8-4.1,89.8-71.3,82.3-117.8c-9.1-56.6-60.8-101.2-122.6-105.9c-41.6-3.2-80.1,2.6-112.7,20.4c-25.4,13.9-28.3,35.8-32.5,61.2
			c-3.2,19.4-5.2,41-17.1,57.8c-10.9,15.3-26.8,6.5-40.6,17C67,282.5,102.1,330.8,128.7,346.2z"/>
		<path class="st10" d="M128.7,346.2c31.6,18.3,74,21.3,109.3,12.4c17.7-4.5,30.9-13.9,46.2-22.8c21.4-12.5,37.4-11.2,61.4-12.6
			c69.8-4.1,89.8-71.3,82.3-117.8c-9.1-56.6-60.8-101.2-122.6-105.9c-41.6-3.2-80.1,2.6-112.7,20.4c-25.4,13.9-28.3,35.8-32.5,61.2
			c-3.2,19.4-5.2,41-17.1,57.8c-10.9,15.3-26.8,6.5-40.6,17C67,282.5,102.1,330.8,128.7,346.2z"/>
	</g>
</g>
<g id="Shadow_1_">
	<ellipse id="_x3C_Path_x3E__138_" class="st2" cx="250" cy="416.2" rx="193.9" ry="11.3"/>
</g>
<g id="Speedometer">
	<g>
		<g>
			<path class="st11" d="M207.8,180.3l-0.7-1c5.5-4.5,11.2-8.6,17.1-12.5l0.6,1C219,171.8,213.2,175.9,207.8,180.3z"/>
			<path class="st11" d="M198.5,188.3l-0.9-0.9c1.6-1.5,3.4-3,5.1-4.5l0.7,1C201.9,185.2,200.3,186.7,198.5,188.3z"/>
			
				<ellipse transform="matrix(0.7521 -0.659 0.659 0.7521 -107.2003 243.3897)" class="st11" cx="269.9" cy="264.2" rx="143.6" ry="101.2"/>
			
				<ellipse transform="matrix(0.7521 -0.659 0.659 0.7521 -107.2004 243.3897)" class="st3" cx="269.9" cy="264.2" rx="124.6" ry="87.8"/>
			<path class="st9" d="M295.9,167.8c-54,4.4-109.3,51.1-123.5,104.3l195.5-15.8C381.9,203.1,349.7,163.5,295.9,167.8z"/>
			<path class="st12" d="M172.2,272.2l97.7-7.9l-50.9-62.7C196.8,220.6,179.5,245.5,172.2,272.2z"/>
			<path class="st13" d="M295.9,167.8c-26.9,2.2-54.3,15-76.7,33.8l50.9,62.6L295.9,167.8L295.9,167.8z"/>
			<path class="st14" d="M295.9,167.8l-25.8,96.4l87.4-73.8C344.4,174.5,322.8,165.6,295.9,167.8z"/>
			
				<ellipse transform="matrix(0.7521 -0.659 0.659 0.7521 -107.2004 243.3897)" class="st3" cx="269.9" cy="264.2" rx="50.9" ry="35.8"/>
			
				<ellipse transform="matrix(0.7521 -0.659 0.659 0.7521 -107.2002 243.3896)" class="st11" cx="269.9" cy="264.2" rx="29.7" ry="20.9"/>
			<path class="st11" d="M343.1,212.7c0,0-31.9,11-65.6,34.8l9.2,16.5C320.3,240.1,343.1,212.7,343.1,212.7z"/>
		</g>
		<path class="st9" d="M183.5,308.9c-1.2,0-2.1-1-1.9-2.2c0.2-1.4,1.5-2.6,3-2.7l107.3-8.5c1.4-0.1,2.4,0.9,2.1,2.2
			c-0.2,1.4-1.5,2.6-3,2.7l-107.3,8.5C183.6,308.9,183.6,308.9,183.5,308.9z"/>
		<path class="st9" d="M276.3,319.2c-1.2,0-2.1-1-1.9-2.2c0.2-1.4,1.5-2.6,3-2.7l34.9-2.7c1.4-0.1,2.4,0.9,2.1,2.2s-1.5,2.6-3,2.7
			l-34.9,2.7C276.6,319.2,276.4,319.2,276.3,319.2z"/>
		<path class="st9" d="M98.8,363.8c-1.2,0-2.1-1-1.9-2.2c0.2-1.4,1.5-2.6,3-2.7l34.9-2.7c1.4-0.1,2.4,0.9,2.1,2.2
			c-0.2,1.4-1.5,2.6-3,2.7l-34.9,2.7C99.1,363.8,98.9,363.8,98.8,363.8z"/>
		<path class="st9" d="M130,343.4c-1.2,0-2.1-1-1.9-2.2c0.2-1.4,1.5-2.6,3-2.7l104.7-8.4c1.4-0.1,2.4,0.9,2.1,2.2s-1.5,2.6-3,2.7
			l-104.7,8.4C130.1,343.4,130,343.4,130,343.4z"/>
	</g>
</g>
</svg>
