<?xml version="1.0" encoding="utf-8"?>
<!-- Generator: Adobe Illustrator 24.0.1, SVG Export Plug-In . SVG Version: 6.00 Build 0)  -->
<svg version="1.1" id="Layer_1" xmlns="http://www.w3.org/2000/svg" xmlns:xlink="http://www.w3.org/1999/xlink" x="0px" y="0px"
	 width="500px" height="500px" viewBox="0 0 500 500" style="enable-background:new 0 0 500 500;" xml:space="preserve">
<style type="text/css">
	.st0{fill:#EBEBEB;}
	.st1{fill:#F0F0F0;}
	.st2{fill:#FAFAFA;}
	.st3{fill:#F5F5F5;}
	.st4{fill:#E6E6E6;}
	.st5{fill:#FFFFFF;}
	.st6{fill:#E0E0E0;}
	.st7{display:none;}
	.st8{display:inline;}
	.st9{fill:#407BFF;}
	.st10{opacity:0.9;fill:#FFFFFF;enable-background:new    ;}
	.st11{opacity:0.8;fill:#FFFFFF;enable-background:new    ;}
	.st12{opacity:0.2;enable-background:new    ;}
	.st13{opacity:0.2;fill:#FFFFFF;enable-background:new    ;}
	.st14{fill:#FF8B7B;}
	.st15{fill:#263238;}
	.st16{fill:#FF5652;}
	.st17{opacity:0.4;enable-background:new    ;}
</style>
<g id="Background_Complete">
	<g>
		<rect x="17" y="429" class="st0" width="30.9" height="0.4"/>
		<rect x="128.4" y="425.8" class="st0" width="64.3" height="0.4"/>
		<rect x="49.1" y="440.1" class="st0" width="31.3" height="0.4"/>
		<rect x="466.4" y="438" class="st0" width="22.8" height="0.4"/>
		<rect x="419.8" y="438" class="st0" width="36" height="0.4"/>
		<rect x="261.4" y="433" class="st0" width="64.9" height="0.4"/>
		<path class="st0" d="M236.2,364.7H6.8c-3.7,0-6.8-3.1-6.8-6.8V35.5c0-3.7,3.1-6.8,6.8-6.8h229.4c3.7,0,6.8,3.1,6.8,6.8v322.5
			C243,361.6,240,364.7,236.2,364.7z M6.8,28.9c-3.6,0-6.5,2.9-6.5,6.5v322.5c0,3.6,2.9,6.5,6.5,6.5h229.4c3.6,0,6.5-2.9,6.5-6.5
			V35.5c0-3.6-2.9-6.5-6.5-6.5H6.8z"/>
		<path class="st0" d="M493.2,364.7H263.8c-3.7,0-6.8-3.1-6.8-6.8V35.5c0-3.7,3.1-6.8,6.8-6.8h229.4c3.7,0,6.8,3.1,6.8,6.8v322.5
			C500,361.6,497,364.7,493.2,364.7z M263.8,28.9c-3.6,0-6.5,2.9-6.5,6.5v322.5c0,3.6,2.9,6.5,6.5,6.5h229.4c3.6,0,6.5-2.9,6.5-6.5
			V35.5c0-3.6-2.9-6.5-6.5-6.5H263.8z"/>
	</g>
	<g>
		<g>
			<g>
				<g>
					<path class="st1" d="M178.9,297.1L178.9,297.1c-0.6,0-1.2,0-1.8,0.1c-12.4,1-22.3,12.7-23.1,27.2c-0.2,3.3,0.1,6.5,0.8,9.5
						c2.9,12.4,3.9,25.2,3.9,38v37.3c0,2.7,1.9,4.9,4.2,4.9h15.9h-2.7h148.5v-117H178.9z"/>
					<path class="st2" d="M349.7,326.3c0-16.8-12.1-30.3-26.6-29.1c-12.4,1-22.3,12.7-23.1,27.2c-0.2,3.3,0.1,6.5,0.8,9.5
						c2.9,12.4,3.9,25.2,3.9,38v37.3c0,2.7,1.9,4.9,4.2,4.9h31.8c2.3,0,4.2-2.1,4.2-4.9v-39.6c0-12,1.1-24,3.8-35.6
						C349.3,331.7,349.7,329.1,349.7,326.3z"/>
				</g>
				<rect x="124.2" y="348" class="st3" width="166.3" height="66.2"/>
				<path class="st4" d="M244.5,268.7H69.6c-11.3,0-20.4,9.1-20.4,20.4v70.1h215.7v-70.1C264.9,277.9,255.7,268.7,244.5,268.7z"/>
				<path class="st3" d="M249.8,268.7H84.5c-11.1,0-20.1,9-20.1,20.1v70.3H270v-70.3C270,277.7,260.9,268.7,249.8,268.7z"/>
				<path class="st0" d="M290.4,345.6H129.8c-0.7,0-1.3,0.6-1.3,1.3v13.2c0,0.7,0.6,1.3,1.3,1.3h160.6c2.4,0,4.4-1.9,4.4-4.4v-7
					C294.8,347.6,292.8,345.6,290.4,345.6z"/>
				<path class="st4" d="M322.7,417.7H42.3c-1.8,0-3.3-1.4-3.3-3.3v-0.2H326v0.2C326,416.3,324.5,417.7,322.7,417.7z"/>
			</g>
			<g>
				<path class="st1" d="M40.3,297.1L40.3,297.1c-0.6,0-1.2,0-1.8,0.1c-12.4,1-22.3,12.7-23.1,27.2c-0.2,3.3,0.1,6.5,0.8,9.5
					c2.9,12.4,3.9,25.2,3.9,38v37.3c0,2.7,1.9,4.9,4.2,4.9h15.9h15.9h69.2v-117H40.3z"/>
				<path class="st2" d="M150.3,326.3c0-16.8-12.1-30.3-26.6-29.1c-12.4,1-22.3,12.7-23.1,27.2c-0.2,3.3,0.1,6.5,0.8,9.5
					c2.9,12.4,3.9,25.2,3.9,38v37.3c0,2.7,1.9,4.9,4.2,4.9h32c2.3,0,4.2-2.1,4.2-4.9v-39.6c0-12,1.1-24,3.8-35.6
					C150,331.7,150.3,329.1,150.3,326.3z"/>
			</g>
		</g>
		<g>
			<rect x="28.1" y="55.8" class="st0" width="449.6" height="135.9"/>
			<rect x="40" y="66.4" class="st2" width="425.9" height="115"/>
			<polygon class="st5" points="283.7,181.4 317.7,181.4 285.8,66.2 251.8,66.2 			"/>
			<polygon class="st5" points="324.4,181.4 358.4,181.4 326.4,66.2 292.4,66.2 			"/>
			<polygon class="st5" points="214.4,181.4 231.3,181.4 199.3,66.2 182.4,66.2 			"/>
			<rect x="245" y="66.4" class="st0" width="16" height="115"/>
			<rect x="241.3" y="66.2" class="st6" width="3.6" height="115"/>
			<rect x="25.5" y="55.9" class="st6" width="2.6" height="135.9"/>
		</g>
		<g>
			<g>
				<path class="st3" d="M473.3,411.1L473.3,411.1c6.1,0,10.9-4.9,10.9-10.9V293.3c0-6.1-4.9-10.9-10.9-10.9l0,0
					c-6.1,0-10.9,4.9-10.9,10.9v106.8C462.3,406.2,467.2,411.1,473.3,411.1z"/>
				<path class="st0" d="M467,406.8L467,406.8c4,0,7.4-3.3,7.4-7.4V294c0-4-3.3-7.4-7.4-7.4l0,0c-4,0-7.4,3.3-7.4,7.4v105.4
					C459.6,403.5,462.9,406.8,467,406.8z"/>
			</g>
			<g>
				<path class="st3" d="M457.3,411.1L457.3,411.1c6.1,0,10.9-4.9,10.9-10.9V293.3c0-6.1-4.9-10.9-10.9-10.9l0,0
					c-6.1,0-10.9,4.9-10.9,10.9v106.8C446.5,406.2,451.4,411.1,457.3,411.1z"/>
				<path class="st0" d="M451.2,406.8L451.2,406.8c4,0,7.4-3.3,7.4-7.4V294c0-4-3.3-7.4-7.4-7.4l0,0c-4,0-7.4,3.3-7.4,7.4v105.4
					C443.8,403.5,447.1,406.8,451.2,406.8z"/>
			</g>
			<g>
				<path class="st3" d="M441.5,411.1L441.5,411.1c6.1,0,10.9-4.9,10.9-10.9V293.3c0-6.1-4.9-10.9-10.9-10.9l0,0
					c-6.1,0-10.9,4.9-10.9,10.9v106.8C430.6,406.2,435.5,411.1,441.5,411.1z"/>
				<path class="st0" d="M435.2,406.8L435.2,406.8c4,0,7.4-3.3,7.4-7.4V294c0-4-3.3-7.4-7.4-7.4l0,0c-4,0-7.4,3.3-7.4,7.4v105.4
					C427.9,403.5,431.2,406.8,435.2,406.8z"/>
			</g>
			<g>
				<path class="st3" d="M425.7,411.1L425.7,411.1c6.1,0,10.9-4.9,10.9-10.9V293.3c0-6.1-4.9-10.9-10.9-10.9l0,0
					c-6.1,0-10.9,4.9-10.9,10.9v106.8C414.8,406.2,419.7,411.1,425.7,411.1z"/>
				<path class="st0" d="M419.4,406.8L419.4,406.8c4,0,7.4-3.3,7.4-7.4V294c0-4-3.3-7.4-7.4-7.4l0,0c-4,0-7.4,3.3-7.4,7.4v105.4
					C412.1,403.5,415.4,406.8,419.4,406.8z"/>
			</g>
			<g>
				<path class="st3" d="M409.8,411.1L409.8,411.1c6.1,0,10.9-4.9,10.9-10.9V293.3c0-6.1-4.9-10.9-10.9-10.9l0,0
					c-6.1,0-10.9,4.9-10.9,10.9v106.8C398.9,406.2,403.9,411.1,409.8,411.1z"/>
				<path class="st0" d="M403.6,406.8L403.6,406.8c4,0,7.4-3.3,7.4-7.4V294c0-4-3.3-7.4-7.4-7.4l0,0c-4,0-7.4,3.3-7.4,7.4v105.4
					C396.2,403.5,399.5,406.8,403.6,406.8z"/>
			</g>
			<g>
				<path class="st3" d="M394,411.1L394,411.1c6.1,0,10.9-4.9,10.9-10.9V293.3c0-6.1-4.9-10.9-10.9-10.9l0,0
					c-6.1,0-10.9,4.9-10.9,10.9v106.8C383.1,406.2,388,411.1,394,411.1z"/>
				<path class="st0" d="M387.7,406.8L387.7,406.8c4,0,7.4-3.3,7.4-7.4V294c0-4-3.3-7.4-7.4-7.4l0,0c-4,0-7.4,3.3-7.4,7.4v105.4
					C380.3,403.5,383.7,406.8,387.7,406.8z"/>
			</g>
			<g>
				<path class="st3" d="M378.1,411.1L378.1,411.1c6.1,0,10.9-4.9,10.9-10.9V293.3c0-6.1-4.9-10.9-10.9-10.9l0,0
					c-6.1,0-10.9,4.9-10.9,10.9v106.8C367.2,406.2,372.1,411.1,378.1,411.1z"/>
			</g>
			<path class="st3" d="M364.8,396.8h32c1.3,0,2.4-1.1,2.4-2.4l0,0c0-1.3-1.1-2.4-2.4-2.4h-32c-1.3,0-2.4,1.1-2.4,2.4l0,0
				C362.3,395.7,363.4,396.8,364.8,396.8z"/>
			<path class="st3" d="M364.8,304.7h32c1.3,0,2.4-1.1,2.4-2.4l0,0c0-1.3-1.1-2.4-2.4-2.4h-32c-1.3,0-2.4,1.1-2.4,2.4l0,0
				C362.3,303.6,363.4,304.7,364.8,304.7z"/>
		</g>
	</g>
</g>
<g id="Background_Simple" class="st7">
	<g class="st8">
		<path class="st9" d="M222.7,184c52.5,69.9,219.7,126,199,209.4c-24.6,99.2-182.9-42.5-266.2-56.8C37.9,316.4-10.5,163,51,82.8
			c27.9-36.4,87-47.5,137.7-1.4C236.1,124.5,192.5,144,222.7,184z"/>
		<path class="st10" d="M222.7,184c52.5,69.9,219.7,126,199,209.4c-24.6,99.2-182.9-42.5-266.2-56.8C37.9,316.4-10.5,163,51,82.8
			c27.9-36.4,87-47.5,137.7-1.4C236.1,124.5,192.5,144,222.7,184z"/>
	</g>
</g>
<g id="Shadow_1_">
	<ellipse id="_x3C_Path_x3E__254_" class="st3" cx="251.7" cy="457.9" rx="230.4" ry="13.4"/>
</g>
<g id="Device">
	<g>
		<path class="st9" d="M434.2,390.7H298.1c-7.2,0-13-5.9-12.7-13.2l10-258.3c0.2-7.2,6.4-13.2,13.7-13.2h136.1
			c7.2,0,13,5.9,12.7,13.2l-10,258.3C447.6,384.8,441.4,390.7,434.2,390.7z"/>
		
			<rect x="447.4" y="216.4" transform="matrix(3.891904e-02 -0.9992 0.9992 3.891904e-02 223.3508 666.3198)" class="st9" width="21.4" height="1.3"/>
		
			<rect x="454.5" y="193.5" transform="matrix(3.900949e-02 -0.9992 0.9992 3.900949e-02 246.9765 645.1934)" class="st9" width="8.8" height="1.3"/>
		<path class="st11" d="M434.2,390.7H298.1c-7.2,0-13-5.9-12.7-13.2l10-258.3c0.2-7.2,6.4-13.2,13.7-13.2h136.1
			c7.2,0,13,5.9,12.7,13.2l-10,258.3C447.6,384.8,441.4,390.7,434.2,390.7z"/>
		<path class="st9" d="M421.2,385.4h-120c-6.3,0-11.4-5.2-11.1-11.5l9.4-241.9c0.2-6.3,5.7-11.5,12-11.5h120
			c6.3,0,11.4,5.2,11.1,11.5l-9.4,241.9C433,380.3,427.5,385.4,421.2,385.4z"/>
		
			<ellipse transform="matrix(0.7138 -0.7003 0.7003 0.7138 -152.9022 358.2886)" class="st11" cx="361.9" cy="366.2" rx="8.1" ry="7.7"/>
		<g>
			<path class="st5" d="M364.1,311.1L364.1,311.1c-27,0-48-21.9-46.9-48.8l1.7-41.7c0,0,0,0-0.1,0c-0.5,0-1,0-1.4-0.1l-1.7,41.8
				c-1.1,27.8,20.7,50.4,48.4,50.4c14.3,0,27.3-5.9,36.8-15.4c-0.4-0.4-0.7-0.7-1-1.2C390.7,305.4,377.9,311.1,364.1,311.1z"/>
			<path class="st5" d="M369.8,162.3c-25.4,0-47.3,19-51.6,43.6c0.4,0,0.6,0,1,0c0.2,0,0.4,0,0.6,0c4.2-23.8,25.3-42.1,50-42.1
				c27,0,48,21.9,46.9,48.8l-1.9,49.8c-0.4,8-2.5,15.4-6.2,22.1c0.5,0.1,1,0.4,1.3,0.6c3.8-6.9,6.1-14.6,6.3-22.7l1.9-49.8
				C419.2,184.8,397.6,162.3,369.8,162.3z"/>
			<path class="st5" d="M369.4,172.5c8.4,0,16.2,2.4,22.6,6.7c0.2-0.5,0.5-1,0.7-1.3c-6.7-4.3-14.6-6.8-23.3-6.8
				c-9.6,0-18.7,3.1-26.1,8.3c0.2,0.5,0.5,0.8,0.6,1.3C351.2,175.6,360,172.5,369.4,172.5z"/>
			<path class="st5" d="M323.4,267.2c-0.4-2.5-0.5-5.1-0.4-7.7l1.7-44c0.4-9.3,3.7-17.9,9-25c-0.5-0.2-0.8-0.5-1.2-0.8
				c-5.5,7.2-8.9,16.2-9.3,25.8l-1.7,44c-0.1,2.7,0,5.5,0.5,8.1C322.5,267.3,323,267.2,323.4,267.2z"/>
			<path class="st5" d="M403.5,187.7c-0.4,0.4-0.7,0.7-1.2,1c5.7,7.4,8.8,16.8,8.4,27l-1.7,44c-1,23.8-20.9,43-44.7,43l0,0
				c-9.6,0-18.4-3.2-25.3-8.6c-0.5,0.4-1,0.6-1.4,0.8c7.2,5.7,16.5,9.1,26.6,9.1c24.6,0,45.3-20,46.2-44.6l1.7-44
				C412.7,205,409.3,195.3,403.5,187.7z"/>
			<path class="st5" d="M329.8,232.9l0.6-14.5c0.8-20.6,18.2-37.2,38.6-37.2c17.8,0,32.3,12.6,35.3,29.3c0.5-0.1,1-0.1,1.4-0.1l0,0
				c-3-17.6-18.1-30.8-36.7-30.8c-21.4,0-39.3,17.3-40.2,38.7l-0.6,14.6c0.4,0,0.7-0.1,1.1-0.1C329.6,232.9,329.7,232.9,329.8,232.9
				z"/>
			<path class="st5" d="M380.2,290.5c-4.8,2.1-10,3.3-15.4,3.3c-20.6,0-36.6-16.8-35.8-37.2l0.4-8.8c-0.1,0-0.4,0-0.5,0
				c-0.4,0-0.7,0-1.1-0.1l-0.4,8.8c-0.8,21.4,15.9,38.7,37.2,38.7c5.8,0,11.3-1.3,16.3-3.6C380.7,291.3,380.5,290.8,380.2,290.5z"/>
			<path class="st5" d="M405.2,225.3c-0.2,0-0.5,0-0.6,0l-1.2,31.2c-0.4,9.7-4.5,18.7-10.9,25.3c0.4,0.4,0.6,0.8,0.7,1.3
				c6.9-6.9,11.3-16.3,11.6-26.6l1.2-31.3C405.8,225.3,405.5,225.3,405.2,225.3z"/>
			<path class="st5" d="M382,191.4c-4-1.8-8.6-2.9-13.3-2.9c-18.2,0-33.5,14.7-34.2,32.9l-1.2,32.3c-0.1,1.9,0,3.8,0.2,5.7
				c0.5-0.4,1-0.7,1.4-1.1c-0.1-1.5-0.2-3.1-0.2-4.6l1.2-32.3c0.7-17.3,15.3-31.4,32.7-31.4c4.5,0,8.8,1,12.6,2.7
				C381.5,192.2,381.8,191.7,382,191.4z"/>
			<path class="st5" d="M393.5,200.2c-0.2,0.5-0.6,0.8-1,1.2c4.3,5.5,6.8,12.4,6.4,20l-1.2,32.3c-0.6,16.9-14.5,30.7-31.2,31.4
				c-0.1,0.5-0.4,1.1-0.6,1.5c17.8-0.5,32.7-15,33.4-32.9l1.2-32.3C400.8,213.3,398.1,205.9,393.5,200.2z"/>
			<path class="st5" d="M362.5,199.3c0-0.5,0.1-1.1,0.2-1.5c-3.8,0.8-7.4,2.5-10.6,4.6c0.5,0.2,0.8,0.6,1.3,0.8
				C356.2,201.5,359.2,200.2,362.5,199.3z"/>
			<path class="st5" d="M390.8,257.3c-3.3,10.9-13.7,19-25.4,19c-14.1,0-25.2-11.5-24.6-25.5l1.1-26.4c0.1-3.2,0.8-6.3,2-9
				c-0.5-0.4-0.8-0.7-1.1-1.2c-1.4,3.2-2.3,6.7-2.4,10.2l-1.1,26.4c-0.6,15,11.1,27.1,26,27.1c12.5,0,23.4-8.6,27-20.2
				C391.8,257.5,391.3,257.5,390.8,257.3z"/>
			<path class="st5" d="M393.1,224.3l-0.2,5.5c0.4-0.1,0.8-0.1,1.2-0.1c0.1,0,0.2,0,0.4,0l0.2-5.3c0.5-12-7-22.1-17.6-25.7
				c0,0.5,0,1.1,0,1.5C386.6,203.6,393.4,213.1,393.1,224.3z"/>
			<path class="st5" d="M368.1,205.9c-11.8,0-21.6,9.5-22.1,21.3l-0.2,5.8c0.5,0,1,0.1,1.4,0.2l0.2-6.1c0.5-10.9,9.6-19.8,20.6-19.8
				c10.9,0,19.5,8.9,19,19.8l-0.8,20.6c-0.4,9.6-7.6,17.6-16.8,19.4c0,0.5,0,1,0,1.5c10-1.8,17.8-10.5,18.2-20.9l0.8-20.6
				C389,215.5,379.9,205.9,368.1,205.9z"/>
			<path class="st5" d="M354.2,223.3c0.4,0,0.6,0,1,0c2.5-4.4,7.2-7.2,12.6-7.2c1.7,0,3.1,0.2,4.5,0.8c0.1-0.5,0.4-1,0.6-1.4
				c-1.5-0.6-3.3-1-5.1-1c-6.2,0-11.5,3.6-14.3,8.8C353.7,223.3,354,223.3,354.2,223.3z"/>
			<path class="st5" d="M380.6,244.8c-0.1,1.8-0.5,3.4-1.1,5c0.5,0.2,1,0.5,1.3,0.7c0.7-1.8,1.2-3.7,1.3-5.6l0.6-14.7
				c0-1.4-0.1-2.7-0.4-4c-0.5,0.2-1,0.4-1.4,0.6c0.2,1.2,0.4,2.4,0.4,3.6L380.6,244.8z"/>
			<path class="st5" d="M369.3,258.5c-1.1,0.2-2.1,0.4-3.2,0.4c-7.7,0-13.8-6.3-13.4-14l0.2-6.7c-0.5,0-1.1-0.1-1.4-0.2l-0.2,7
				c-0.4,8.6,6.3,15.4,14.9,15.4c1.3,0,2.5-0.1,3.7-0.5C369.5,259.4,369.4,259,369.3,258.5z"/>
			<path class="st5" d="M367.4,223.3c-5.3,0-9.9,4.3-10.1,9.6l-0.4,8.9c0,0.8,0,1.7,0.2,2.5c0.4-0.5,0.8-0.8,1.3-1.2
				c0-0.5-0.1-0.8-0.1-1.3l0.4-8.9c0.1-4.5,4-8.2,8.6-8.2c4.5,0,8.1,3.7,7.8,8.2l-0.4,8.9c-0.1,3.3-2.3,6.2-5.1,7.5
				c0,0.6-0.1,1.1-0.2,1.7c3.8-1.3,6.7-4.9,6.8-9.1l0.4-8.9C376.9,227.7,372.7,223.3,367.4,223.3z"/>
		</g>
		<path class="st9" d="M392.5,116.5h-41.7c-1.3,0-2.4-1.1-2.3-2.4l0,0c0-1.3,1.2-2.4,2.5-2.4h41.7c1.3,0,2.4,1.1,2.3,2.4l0,0
			C394.8,115.4,393.8,116.5,392.5,116.5z"/>
	</g>
</g>
<g id="Shield">
	<g>
		<path class="st12" d="M327.2,158.2c-2.4,0.2-4.9,0.2-7.4,0.1c-0.8-0.2-1.8-0.2-2.6-0.1c-0.1,0-0.2,0-0.2,0
			c-6.9-0.5-14-1.8-20.6-3.7c-0.7-0.2-1.4-0.5-2.1-0.7l-5.8,149.6l38.6-25.8c3.6-2.4,5.7-6.3,5.9-10.5l3.9-100
			C337,161.9,332.5,157.7,327.2,158.2z"/>
		<g>
			<g>
				<path class="st9" d="M317.8,147c-2.4,0.2-4.9,0.2-7.4,0.1c-0.8-0.2-1.8-0.2-2.6-0.1c-0.1,0-0.2,0-0.2,0
					c-6.9-0.5-14-1.8-20.6-3.7c-7.2-2.1-16.6-7.1-22.7-12.8c-1.7-1.5-3.8-2.4-5.9-2.4l0,0h-10.1l0,0c-2.1,0-4.4,0.8-6.1,2.4
					c-6.5,5.7-16.3,10.8-23.6,12.8c-6.8,1.9-13.9,3.2-20.9,3.7c-0.1,0-0.2,0-0.2,0c-1-0.1-1.8,0-2.6,0.1c-2.5,0.1-5,0-7.4-0.1
					c-5.3-0.5-10,3.7-10.2,9l-3.9,100c-0.1,4.2,1.8,8.1,5.1,10.5l56,39.4c2.1,1.4,4.5,2.3,7,2.3h10.1c2.5,0,5-0.7,7.2-2.3l59.1-39.4
					c3.6-2.4,5.7-6.3,5.9-10.5l3.9-100C327.6,150.7,323.2,146.6,317.8,147z"/>
				<path class="st11" d="M317.8,147c-2.4,0.2-4.9,0.2-7.4,0.1c-0.8-0.2-1.8-0.2-2.6-0.1c-0.1,0-0.2,0-0.2,0
					c-6.9-0.5-14-1.8-20.6-3.7c-7.2-2.1-16.6-7.1-22.7-12.8c-1.7-1.5-3.8-2.4-5.9-2.4l0,0h-10.1l0,0c-2.1,0-4.4,0.8-6.1,2.4
					c-6.5,5.7-16.3,10.8-23.6,12.8c-6.8,1.9-13.9,3.2-20.9,3.7c-0.1,0-0.2,0-0.2,0c-1-0.1-1.8,0-2.6,0.1c-2.5,0.1-5,0-7.4-0.1
					c-5.3-0.5-10,3.7-10.2,9l-3.9,100c-0.1,4.2,1.8,8.1,5.1,10.5l56,39.4c2.1,1.4,4.5,2.3,7,2.3h10.1c2.5,0,5-0.7,7.2-2.3l59.1-39.4
					c3.6-2.4,5.7-6.3,5.9-10.5l3.9-100C327.6,150.7,323.2,146.6,317.8,147z"/>
			</g>
			<path class="st9" d="M179.5,255.9l3.7-95.7c0.1-3.6,3.2-6.5,6.8-6.5h2.1c8.6,0,18.2-1.4,27.8-4.2c6.9-2,16.4-6.4,23.8-12.1
				c2.5-1.9,5.9-1.9,8.3,0c7,5.8,16,10.2,22.8,12.1c9.4,2.7,18.9,4.2,27.4,4.2h2c3.7,0,6.5,3,6.4,6.7l-3.7,95.5
				c-0.1,2.1-1.2,4.2-3.1,5.3l-58.7,39.2c-2.3,1.5-5.2,1.5-7.4,0l-55.7-39.2C180.5,260,179.5,258,179.5,255.9z"/>
			<path class="st13" d="M195.9,250.8l3.1-81.3c8-0.6,16.4-2.1,24.8-4.5c6.4-1.8,15.1-5.5,23.4-10.8c7.8,5.3,16.3,8.9,22.6,10.8
				c8.2,2.4,16.5,3.9,24.5,4.5l-3.1,81.3l-48.8,32.6L195.9,250.8z"/>
			<path class="st13" d="M212.3,242.3l2.3-58.7c4.4-0.8,8.7-1.9,13.1-3.1c6.1-1.7,12.6-4.4,18.8-7.6c5.9,3.2,12.4,5.8,18.2,7.6
				c4.3,1.3,8.6,2.3,12.8,3.1l-2.3,58.7L243,264L212.3,242.3z"/>
		</g>
	</g>
</g>
<g id="Character_1_">
	<g>
		<g>
			<path class="st14" d="M104.4,150.6c-2.3,4.6-4.5,9.4-6.7,14c-1.1,2.4-2.1,4.6-3.1,7c-1,2.3-1.9,4.6-2.5,6.7
				c-0.5,1.7-0.6,4.2-0.7,6.7c0,2.5,0,5.1,0,7.6l0.4,15.7l-5.5,0.8c-1.4-5.2-2.5-10.3-3.3-15.7c-0.4-2.6-0.8-5.3-1.1-8.1
				c-0.1-1.4-0.2-2.7-0.2-4.3c0-0.7,0-1.5,0.1-2.4c0-0.4,0.1-0.8,0.1-1.3c0-0.5,0.1-0.8,0.2-1.2c0.6-3.1,1.4-5.7,2.4-8.3
				c1-2.6,1.9-5.1,3-7.6c2.1-5,4.3-9.7,6.8-14.6L104.4,150.6z"/>
			<path class="st14" d="M96,210.4l-4.5-5.2l-5.1,0.2c-2.4,5.6,2.7,9.3,2.7,9.3l1,3.1c0.4,1.3,1.9,1.9,3.1,1.3l2.9-1.4
				c0.8-0.4,1.3-1.3,1.3-2.1v-1.8C97.2,212.5,96.8,211.3,96,210.4z"/>
			<path class="st9" d="M81.5,445.2c-1-0.4-1.8-1-2.5-1.4c-0.1-0.1-0.1-0.1-0.1-0.2s0.1-0.2,0.2-0.2c0.5-0.1,4.3-0.8,5.2,0.2
				c0.1,0.1,0.2,0.5,0.1,0.8c-0.1,0.6-0.5,1-1,1.1C83.1,445.6,82.2,445.4,81.5,445.2z M79.8,443.6c1.5,1.1,2.9,1.5,3.6,1.3
				c0.4-0.1,0.5-0.4,0.6-0.7c0.1-0.2,0-0.4-0.1-0.4C83.5,443.3,81.4,443.4,79.8,443.6z"/>
			<path class="st9" d="M79.1,443.7C79,443.6,79,443.6,79.1,443.7c-0.1-0.1-0.1-0.2-0.1-0.4c0-0.1,1.3-3.1,2.9-3.6
				c0.4-0.1,0.8-0.1,1.2,0.1c0.6,0.4,0.6,0.7,0.5,1c-0.2,1.2-3.1,2.6-4.3,2.9C79.1,443.7,79.1,443.7,79.1,443.7z M82.6,440.3
				c-0.2-0.1-0.4-0.1-0.6,0c-1,0.4-1.9,1.9-2.4,2.9c1.3-0.4,3.1-1.5,3.3-2.3C82.9,440.6,82.9,440.5,82.6,440.3
				C82.7,440.3,82.6,440.3,82.6,440.3z"/>
			<path class="st14" d="M122.5,107.8c1,6.5,3.2,20.7-1.5,25c0,0,1.4,6.7,13.5,6.9c13.3,0.2,6.7-6.4,6.7-6.4
				c-7.1-1.9-6.8-7.2-5.2-12.2L122.5,107.8z"/>
			<path class="st15" d="M149.7,97c-0.1,0-0.1,0-0.2-0.1c-0.2-0.2-0.2-0.5,0-0.7c1.9-2.3,4.3-2,4.3-2c0.2,0,0.5,0.2,0.5,0.6
				c0,0.2-0.2,0.5-0.6,0.5l0,0c-0.1,0-1.9-0.1-3.4,1.7C150.1,97,149.8,97.1,149.7,97z"/>
			<path class="st16" d="M152.1,103.4c0,0,1.1,3.9,2.5,5.9c-1.3,1-3.2,0.2-3.2,0.2L152.1,103.4z"/>
			<path class="st15" d="M151.5,101.9c-0.1,0.8,0.2,1.7,0.8,1.7c0.6,0,1.1-0.6,1.2-1.5c0.1-0.8-0.2-1.7-0.8-1.7
				C152.2,100.3,151.6,101.1,151.5,101.9z"/>
			<path class="st15" d="M152.4,100.5l2.1-0.4C154.7,100,153.4,101.5,152.4,100.5z"/>
			<polygon class="st14" points="162.1,449.4 173.7,445.9 172.5,422.2 161,425.9 			"/>
			<polygon class="st14" points="67.1,441 77.6,444 86.3,419.9 75.8,416.9 			"/>
			<path class="st15" d="M78.9,442l-11.2-4.8c-0.4-0.1-0.8,0-1.1,0.4l-5.2,8.4c-0.6,0.8-0.1,2.1,0.8,2.5c3.9,1.5,5.9,2.1,10.8,4.2
				c3,1.3,5.3,5.1,12,5.1c4.5,0,5.3-4,3.4-4.6c-8.3-2.6-6.7-6.7-8.2-10C80,442.7,79.5,442.2,78.9,442z"/>
			<path class="st9" d="M177.9,447.4c-1.1,0-2.1-0.2-2.9-0.4c-0.1,0-0.2-0.1-0.2-0.2s0-0.2,0.1-0.2c0.4-0.2,3.6-2.4,4.9-1.8
				c0.2,0.1,0.5,0.2,0.6,0.7c0.1,0.6,0,1.1-0.4,1.4C179.4,447.3,178.7,447.4,177.9,447.4z M175.6,446.7c1.9,0.4,3.3,0.4,3.9-0.2
				c0.2-0.2,0.4-0.5,0.2-1c0-0.2-0.1-0.2-0.2-0.4C178.8,444.9,176.9,445.9,175.6,446.7z"/>
			<path class="st9" d="M175,447.1h-0.1c-0.1,0-0.1-0.1-0.1-0.2s-0.1-3.3,1.1-4.3c0.4-0.2,0.7-0.4,1.1-0.4c0.6,0.1,0.8,0.5,1,0.7
				c0.2,1.2-1.7,3.6-2.6,4.2C175,447.1,175,447.1,175,447.1z M176.7,442.7c-0.2,0-0.4,0.1-0.6,0.2c-0.7,0.6-0.8,2.4-1,3.4
				c1.1-0.8,2.1-2.6,2-3.3C177.3,442.8,177.2,442.7,176.7,442.7C176.8,442.7,176.7,442.7,176.7,442.7z"/>
			<path class="st15" d="M174.1,445.5h-12.2c-0.5,0-0.8,0.4-0.8,0.7l-1.1,9.7c-0.1,1,0.8,2,1.8,1.9c4.3-0.1,6.3-0.4,11.8-0.4
				c3.3,0,8.2,0.4,12.8,0.4c4.5,0,4.6-4.5,2.7-5c-8.7-1.9-10.1-4.4-13.1-6.8C175.4,445.8,174.7,445.5,174.1,445.5z"/>
			<g>
				<polygon class="st12" points="172.5,422.2 173.1,434.8 161.6,438 161,425.9 				"/>
				<polygon class="st12" points="75.8,416.9 86.3,419.9 81.7,432.3 71.3,429.4 				"/>
			</g>
			<g>
				<path class="st9" d="M99.6,134.2c-4.5,1.1-9.6,17.5-9.6,17.5l12.7,13.4c0,0,10.8-15.6,8.7-21.2
					C109.2,138.1,104.9,132.9,99.6,134.2z"/>
				<path class="st12" d="M99.6,134.2c-4.5,1.1-9.6,17.5-9.6,17.5l12.7,13.4c0,0,10.8-15.6,8.7-21.2
					C109.2,138.1,104.9,132.9,99.6,134.2z"/>
			</g>
			<path class="st17" d="M106.6,144.4c2.4-2.1,3.9-1.5,4.9,0.1c1,4.9-5.7,15.8-8.3,19.7C102.2,159.8,101.4,149.3,106.6,144.4z"/>
			<g>
				<path class="st9" d="M157.8,138c0.6,4.8,0.2,19.4-9,63.6l-44.4-0.8c1.5-18.1,2.1-29.2-4.9-66.4c0,0,9.4-1.8,19-2.1
					c7.5-0.2,13.7-0.4,20.2,0.4c6.4,0.7,13.4,2.1,16.6,2.7C156.6,135.5,157.7,136.6,157.8,138z"/>
				<path class="st12" d="M157.8,138c0.6,4.8,0.2,19.4-9,63.6l-44.4-0.8c1.5-18.1,2.1-29.2-4.9-66.4c0,0,9.4-1.8,19-2.1
					c7.5-0.2,13.7-0.4,20.2,0.4c6.4,0.7,13.4,2.1,16.6,2.7C156.6,135.5,157.7,136.6,157.8,138z"/>
			</g>
			<path class="st14" d="M122.5,96.1c-0.6,10.9-1.2,15.4,3.6,21.5c7.1,9.1,20.6,7.1,24.5-3.3c3.4-9.5,3.9-25.7-6.1-31
				C134.6,78,123.1,85.1,122.5,96.1z"/>
			<path class="st15" d="M137.1,201.2c0,0-6.4,79.3-15,121.4c-6.9,34.1-37.9,107.7-37.9,107.7l-13.5-5.7c0,0,15.6-83.3,26.3-103.6
				c11.9-69.9-7.4-93.8,7.5-120.4L137.1,201.2z"/>
			<path class="st17" d="M125,244.7c-4.9,20.7-1.7,39.4,1.5,51.8c1.9-13.3,3.7-27.6,5.2-41C129.8,251.6,127.1,248,125,244.7z"/>
			<path class="st15" d="M148.9,201.5c0,0,16.9,77.5,19,110.6c2.3,34.5,6.8,116.1,6.8,116.1l-14.9,4c0,0-16.8-84.1-15.4-109.4
				c-8.3-35.9-37.3-121.9-37.3-121.9L148.9,201.5z"/>
			<polygon class="st9" points="176.9,432 157.6,435.2 155.7,428.3 176.3,424.8 			"/>
			<polygon class="st9" points="86.5,431 68.4,425.9 69.5,419.1 88.9,423.9 			"/>
			<path class="st5" d="M103.8,198l-2.1,3.9c-0.1,0.4,0.2,0.6,0.7,0.6l46.6,1c0.4,0,0.7-0.2,0.8-0.5l0.6-3.9c0-0.2-0.2-0.5-0.7-0.5
				l-45-0.8C104.3,197.7,104,197.8,103.8,198z"/>
			<path class="st15" d="M109.7,203.1h-1.2c-0.2,0-0.5-0.1-0.4-0.2l0.8-5.1c0-0.1,0.2-0.2,0.5-0.2h1.2c0.2,0,0.5,0.1,0.4,0.2
				l-0.8,5.1C110.1,203,109.9,203.1,109.7,203.1z"/>
			<path class="st15" d="M138.9,203.7h-1.2c-0.2,0-0.5-0.1-0.4-0.2l0.8-5.1c0-0.1,0.2-0.2,0.5-0.2h1.2c0.2,0,0.5,0.1,0.4,0.2
				l-0.8,5.1C139.4,203.6,139.1,203.7,138.9,203.7z"/>
			<path class="st14" d="M160.3,143.6c2.1,4.6,4.6,9.4,7.1,14c2.5,4.5,5.2,9,8.2,13c0.4,0.5,0.7,1,1.1,1.3c0.4,0.4,0.7,0.8,1.1,1.2
				c0.8,0.8,1.7,1.5,2.6,2.3c1.9,1.4,4,2.9,6.3,4c4.4,2.5,9.3,4.9,14.1,6.9l-1.4,5.3c-5.6-1-10.9-2.5-16.3-4.6
				c-2.6-1.1-5.3-2.4-7.8-3.9c-1.3-0.8-2.6-1.7-3.8-2.7c-0.6-0.5-1.2-1.1-1.8-1.7c-0.6-0.6-1.1-1.2-1.7-1.7
				c-1.1-1.1-1.9-2.3-2.9-3.3c-0.8-1.2-1.8-2.3-2.6-3.4c-1.7-2.4-3.2-4.8-4.6-7.1c-2.9-4.9-5.5-9.7-7.7-15L160.3,143.6z"/>
			<g>
				<path class="st9" d="M154.7,135c10.5,2.3,13,18.7,13,18.7l-10.2,12c0,0-16.3-15.4-15.4-23.9C142.5,135.6,149,133.9,154.7,135z"
					/>
				<path class="st12" d="M154.7,135c10.5,2.3,13,18.7,13,18.7l-10.2,12c0,0-16.3-15.4-15.4-23.9C142.5,135.6,149,133.9,154.7,135z"
					/>
			</g>
			<path class="st14" d="M212.8,190.5l-2.9-3.4c0,0-9.3-2.1-13.4-0.1l-1.3,3.8l10.5,5.3l2.1,1.1c1.1,0.5,2.3,0.1,3-0.8l2.1-3
				C213.5,192.5,213.4,191.4,212.8,190.5z"/>
			<path class="st15" d="M152.9,156.1c1.8-4.9,2.9-10.7,2.4-13.4c-0.6,5-4.4,11.8-8.2,16.8c-15.2,6.3-31.6,3.3-42.3-3
				c-3.1-6.3-5.7-16.2-4-22.1c-2,3-3.4,11.2-2.5,17c-3.2-3.3-5.1-6.9-5.1-10.6c0-17.3,20.9-16.3,21.2-29c0.2-12.7-4.9-38.6,20.9-33
				c16.9-0.8,13.4,14.1,10.6,23.2C143.4,110.3,169,142.5,152.9,156.1z"/>
			<path class="st15" d="M135.3,78.8c10.6-5.6,21.4,3.2,15.8,12.6c-4.9-0.2-8.8,2.9-5,9C134.9,93.2,127.9,79.4,135.3,78.8z"/>
			<path class="st14" d="M146.5,98.8c1.4,2.4,1.5,4.9,1.4,6.5c-0.4,3-2.6,3-4.3,1.2c-1.4-1.5-3-5.3-2-7.6
				C142.6,96.8,145.2,96.7,146.5,98.8z"/>
		</g>
	</g>
</g>
</svg>
