<?xml version="1.0" encoding="utf-8"?>
<!-- Generator: Adobe Illustrator 24.0.1, SVG Export Plug-In . SVG Version: 6.00 Build 0)  -->
<svg version="1.1" id="Layer_1" xmlns="http://www.w3.org/2000/svg" xmlns:xlink="http://www.w3.org/1999/xlink" x="0px" y="0px"
	 width="456.7px" height="427.8px" viewBox="0 0 456.7 427.8" style="enable-background:new 0 0 456.7 427.8;" xml:space="preserve"
	>
<style type="text/css">
	.st0{fill:none;stroke:#E6E6E6;stroke-width:2;stroke-miterlimit:10;}
	.st1{fill:#418DF9;}
	.st2{fill:#1960DD;}
	.st3{fill:#407BFF;}
	.st4{fill:#FFFFFF;}
	.st5{fill:none;stroke:#E6E6E6;stroke-width:3;stroke-miterlimit:10;}
	.st6{fill:#B8BBBC;}
	.st7{fill-rule:evenodd;clip-rule:evenodd;fill:#FFFFFF;}
</style>
<title>wallet</title>
<circle class="st0" cx="233.9" cy="216.6" r="188.5"/>
<circle class="st0" cx="234" cy="216.8" r="210"/>
<path class="st1" d="M209.9,31.3c0,6.1-5,11.1-11.1,11.1c-6.1,0-11.1-5-11.1-11.1s5-11.1,11.1-11.1S209.9,25.2,209.9,31.3
	L209.9,31.3z"/>
<path class="st1" d="M309.6,41.8c0,3.8-3.1,6.9-6.9,6.9c-3.8,0-6.9-3.1-6.9-6.9s3.1-6.9,6.9-6.9c0,0,0,0,0,0
	C306.6,34.9,309.6,38,309.6,41.8C309.6,41.8,309.6,41.8,309.6,41.8z"/>
<path class="st1" d="M383.5,368.8c0,3.8-3.1,6.9-6.9,6.9s-6.9-3.1-6.9-6.9s3.1-6.9,6.9-6.9S383.5,365,383.5,368.8L383.5,368.8z"/>
<path class="st1" d="M424.9,114.1c0,3.8-3.1,6.9-6.9,6.9c-3.8,0-6.9-3.1-6.9-6.9c0-3.8,3.1-6.9,6.9-6.9S424.9,110.3,424.9,114.1
	C424.9,114.1,424.9,114.1,424.9,114.1z"/>
<path class="st1" d="M218.9,403.5c0,3.8-3.1,6.9-6.9,6.9s-6.9-3.1-6.9-6.9c0-3.8,3.1-6.9,6.9-6.9S218.9,399.7,218.9,403.5
	L218.9,403.5z"/>
<path class="st1" d="M428.4,216.7c0,3.8-3.1,6.9-6.9,6.9s-6.9-3.1-6.9-6.9c0-3.8,3.1-6.9,6.9-6.9S428.4,212.9,428.4,216.7
	C428.4,216.7,428.4,216.7,428.4,216.7z"/>
<path class="st1" d="M32.3,189c0,3.8-3.1,6.9-6.9,6.9c-3.8,0-6.9-3.1-6.9-6.9c0-3.8,3.1-6.9,6.9-6.9C29.2,182.1,32.3,185.2,32.3,189
	L32.3,189z"/>
<path class="st1" d="M109.3,85c0,3.8-3.1,6.9-6.9,6.9s-6.9-3.1-6.9-6.9c0-3.8,3.1-6.9,6.9-6.9c0,0,0,0,0,0
	C106.2,78.1,109.3,81.2,109.3,85z"/>
<path class="st1" d="M240.6,6.9c0,3.8-3.1,6.9-6.9,6.9c-3.8,0-6.9-3.1-6.9-6.9c0-3.8,3.1-6.9,6.9-6.9S240.6,3.1,240.6,6.9
	C240.6,6.9,240.6,6.9,240.6,6.9z"/>
<path class="st1" d="M150.9,404.6c0,6.1-5,11.1-11.1,11.1c-6.1,0-11.1-5-11.1-11.1c0-6.1,5-11.1,11.1-11.1S150.9,398.5,150.9,404.6
	C150.9,404.6,150.9,404.6,150.9,404.6z"/>
<path class="st2" d="M173.2,38.5c0,13.3-10.7,24-24,24s-24-10.7-24-24s10.7-24,24-24S173.2,25.3,173.2,38.5z"/>
<path class="st3" d="M170.8,38.5c0,11.9-9.7,21.6-21.6,21.6c-11.9,0-21.6-9.7-21.6-21.6s9.7-21.6,21.6-21.6c0,0,0,0,0,0
	C161.1,16.9,170.8,26.6,170.8,38.5z"/>
<path class="st4" d="M149.5,25.6c-4.9,0-8.9,4-8.9,8.9c0,6.2,8.9,17,8.9,17s8.9-10.9,8.9-17C158.4,29.6,154.4,25.6,149.5,25.6z
	 M149.5,39.7c-2.9,0-5.2-2.3-5.2-5.2c0-2.9,2.3-5.2,5.2-5.2c2.9,0,5.2,2.3,5.2,5.2C154.7,37.4,152.3,39.7,149.5,39.7z"/>
<path class="st2" d="M316.7,216.7c0,45.8-37.2,83-83,83s-83-37.2-83-83s37.2-83,83-83l0,0C279.5,133.7,316.7,170.9,316.7,216.7z"/>
<circle class="st3" cx="233.7" cy="216.7" r="77.2"/>
<ellipse transform="matrix(0.7071 -0.7071 0.7071 0.7071 -84.8169 228.738)" class="st5" cx="233.7" cy="216.8" rx="103.7" ry="103.7"/>
<path class="st6" d="M344.7,216.7c0,4-3.3,7.3-7.3,7.3c-4,0-7.3-3.3-7.3-7.3s3.3-7.3,7.3-7.3l0,0
	C341.4,209.4,344.7,212.7,344.7,216.7z"/>
<path class="st6" d="M137.4,216.7c0,4-3.3,7.3-7.3,7.3c-4,0-7.3-3.3-7.3-7.3s3.3-7.3,7.3-7.3c0,0,0,0,0,0
	C134.1,209.4,137.4,212.7,137.4,216.7z"/>
<path class="st6" d="M241,113.1c0,4-3.3,7.3-7.3,7.3c-4,0-7.3-3.3-7.3-7.3c0-4,3.3-7.3,7.3-7.3c0,0,0,0,0,0
	C237.7,105.7,241,109,241,113.1z"/>
<path class="st6" d="M241,320.4c0,4-3.3,7.3-7.3,7.3s-7.3-3.3-7.3-7.3c0-4,3.3-7.3,7.3-7.3c0,0,0,0,0,0
	C237.7,313.1,241,316.4,241,320.4z"/>
<path class="st2" d="M84,289.3c-15.5,0-30.8,3.5-44.8,10.3c0,58,44.8,75,44.8,75s44.8-17,44.8-75C114.8,292.9,99.5,289.3,84,289.3z"
	/>
<path class="st3" d="M84,368.8c-7-3.5-13.3-8.2-18.8-13.8c-6-6.2-10.8-13.5-14.2-21.4c-4-9.7-6.2-20.1-6.5-30.7c3-1.3,6-2.5,9.2-3.5
	c9.8-3.2,20-4.8,30.3-4.9c13.6,0.1,27,2.9,39.4,8.3c-0.2,10.5-2.4,20.9-6.4,30.7c-3.4,8-8.2,15.2-14.2,21.4
	C97.4,360.7,91,365.3,84,368.8z"/>
<path class="st4" d="M102.4,318.1c0,0.6-0.2,1.1-0.6,1.5L85.6,336l-3.1,3.1c-0.8,0.8-2.2,0.8-3.1,0l-3.1-3l-8.2-8.2
	c-0.4-0.4-0.6-1-0.6-1.5c0-0.6,0.2-1.1,0.6-1.5l3-3.1c0.4-0.4,1-0.6,1.5-0.6c0.6,0,1.1,0.2,1.5,0.6l6.6,6.6l14.8-14.8
	c0.8-0.8,2.2-0.8,3.1,0c0,0,0,0,0,0l3.1,3.1C102.2,317,102.5,317.5,102.4,318.1z"/>
<path class="st2" d="M47,216.1c-0.4-0.5-1-0.7-1.7-0.7H2.4c-0.6,0-1.2,0.2-1.7,0.7c-0.5,0.4-0.7,1-0.7,1.7v28.6
	c0,2.2,0.4,4.3,1.3,6.4c0.8,2,1.8,3.9,3.1,5.6c1.3,1.7,2.8,3.3,4.4,4.8c1.5,1.4,3.1,2.7,4.7,3.8c1.4,1,2.9,2,4.5,2.9
	s2.7,1.5,3.3,1.9s1.2,0.6,1.6,0.7c0.3,0.2,0.7,0.2,1,0.2c0.3,0,0.7-0.1,1-0.2c0.4-0.2,0.9-0.4,1.6-0.7s1.8-0.9,3.3-1.9
	s3.1-1.9,4.5-2.9c1.6-1.2,3.2-2.5,4.7-3.8c1.6-1.4,3.1-3,4.4-4.8c1.3-1.7,2.3-3.6,3.1-5.6c0.8-2,1.2-4.2,1.3-6.4v-28.6
	C47.7,217.1,47.4,216.5,47,216.1z"/>
<path class="st2" d="M43.8,246c0,1.8-0.3,3.6-1,5.3c-0.6,1.7-1.5,3.2-2.6,4.7c-1.1,1.4-2.3,2.8-3.7,4c-1.3,1.1-2.6,2.2-4,3.2
	c-1.2,0.8-2.5,1.7-3.8,2.4c-1.3,0.8-2.2,1.3-2.8,1.5s-1,0.5-1.3,0.6c-0.3,0.1-0.5,0.2-0.8,0.2c-0.3,0-0.6,0-0.9-0.2
	c-0.3-0.1-0.8-0.4-1.3-0.6s-1.5-0.8-2.8-1.5s-2.6-1.6-3.8-2.4c-1.4-1-2.7-2.1-4-3.2c-1.4-1.2-2.6-2.6-3.7-4c-1.1-1.4-1.9-3-2.6-4.7
	c-0.7-1.7-1-3.5-1-5.3v-24c0-0.5,0.2-1,0.6-1.4c0.4-0.4,0.9-0.6,1.4-0.6h36c1.1,0,2,0.9,2,2L43.8,246z"/>
<path class="st3" d="M43.2,220.6c-0.4-0.4-0.9-0.6-1.4-0.6h-36c-0.5,0-1,0.2-1.4,0.6C4,221,3.8,221.5,3.8,222v24
	c0,1.8,0.3,3.6,1,5.3c0.6,1.7,1.5,3.2,2.6,4.7c1.1,1.4,2.3,2.8,3.7,4c1.3,1.2,2.6,2.2,4,3.2c1.2,0.8,2.5,1.7,3.8,2.4
	c1.3,0.8,2.3,1.3,2.8,1.5s1,0.5,1.3,0.6c0.3,0.1,0.5,0.2,0.8,0.2c0.3,0,0.6-0.1,0.8-0.2c0.3-0.1,0.8-0.4,1.3-0.6s1.5-0.8,2.8-1.5
	s2.6-1.6,3.8-2.4c1.4-1,2.7-2.1,4-3.2c1.3-1.2,2.6-2.6,3.7-4c1.1-1.4,1.9-3,2.6-4.7c0.7-1.7,1-3.5,1-5.3v-24
	C43.8,221.5,43.6,221,43.2,220.6z"/>
<path class="st4" d="M30.8,235.6c0-3.7-3-6.7-6.7-6.7c-3.7,0-6.7,3-6.7,6.7c0,2.9,1.8,5.4,4.6,6.3v9.7c0,1.2,0.9,2.1,2.1,2.1
	c1.2,0,2.1-0.9,2.1-2.1v-9.7C29,241,30.8,238.5,30.8,235.6z"/>
<path class="st2" d="M406,92.4c0,24.2-19.6,43.7-43.7,43.7c-24.2,0-43.7-19.6-43.7-43.7s19.6-43.7,43.7-43.7c0,0,0,0,0,0
	C386.4,48.7,406,68.2,406,92.4L406,92.4z"/>
<path class="st3" d="M401.8,92.4c0,21.8-17.7,39.5-39.5,39.5c-21.8,0-39.5-17.7-39.5-39.5s17.7-39.5,39.5-39.5c0,0,0,0,0,0
	C384.1,52.9,401.8,70.6,401.8,92.4z"/>
<path class="st7" d="M393,87.8c-2.1-13.6-12.9-24.2-26.5-26.2l-2.2-0.3h-4.1c-0.8,0.1-1.7,0.2-2.5,0.3c-6.1,0.9-11.7,3.6-16.2,7.7
	c-12.4,11.1-13.8,30-3.1,42.7c10.6,13.1,29.8,15.1,43,4.6c6.2-4.7,10.3-11.6,11.5-19.3c0.2-1,0.3-2,0.4-3v-4.1
	C393.2,89.5,393.1,88.6,393,87.8z M361,80.5c0,3.3,0,6.7,0,10.1c0,0.4-0.1,0.6-0.5,0.6c-3.8,0-7.6,0-11.5,0h-0.4
	c0.1-1.2,0-2.4,0.2-3.6c0.4-2.8,0.9-5.5,1.3-8.3c0-0.3,0.2-0.5,0.5-0.4c3.3,0.7,6.7,1.1,10.1,1.2c0.1,0,0.2,0,0.3,0.1
	C361,80.2,361,80.3,361,80.5L361,80.5z M357.2,65.7c1-0.9,2.3-1.5,3.7-1.7v13.4c-3.4,0-6.8-0.4-10.1-1.1c0.6-1.4,1.1-2.8,1.7-4.1
	C353.6,69.7,355.2,67.5,357.2,65.7L357.2,65.7z M354.6,64.8c-2.8,3.2-4.8,6.9-6.1,11c-2.6-0.7-5.1-1.6-7.4-2.8
	C344.8,69,349.5,66.2,354.6,64.8L354.6,64.8z M339.4,75l8.4,3.3c-1.1,4.2-1.7,8.5-1.8,12.8h-12.4C333.9,85.3,335.9,79.7,339.4,75
	L339.4,75z M339.4,109.7c-3.5-4.6-5.5-10.2-5.7-16.1H346c0.1,4.3,0.7,8.6,1.8,12.8L339.4,109.7z M341.2,111.8
	c2.3-1.2,4.8-2.2,7.4-2.8c1.2,4,3.3,7.7,6.1,10.9C351.6,119.8,344,115.3,341.2,111.8L341.2,111.8z M360.9,120.9
	c-0.5-0.2-1-0.3-1.5-0.5c-1.5-0.7-2.9-1.8-3.9-3.1c-2.1-2.6-3.6-5.6-4.6-8.8c3.3-0.7,6.7-1.1,10-1.1L360.9,120.9z M360.9,104.4
	c0,0.1,0,0.3,0,0.4c-1.2,0.1-2.4,0.1-3.5,0.2c-2.2,0.3-4.4,0.6-6.6,0.9c-0.5,0.1-0.7,0-0.8-0.5c-0.9-3.7-1.3-7.5-1.4-11.3
	c0-0.1,0-0.2,0-0.4c0.2,0,0.3,0,0.5,0h11.3c0.4,0,0.6,0,0.6,0.5C361,97.6,361,101,360.9,104.4L360.9,104.4z M383.2,72.9
	c-2.3,1.2-4.8,2.2-7.3,2.8c-0.9-1.9-1.7-3.9-2.6-5.7c-0.9-1.9-2.1-3.6-3.5-5.2C375,66.2,379.7,69,383.2,72.9L383.2,72.9z
	 M375.8,90.6c0,0.1,0,0.3,0,0.5h-12.3V80c1.1-0.1,2.3-0.1,3.4-0.2c2.2-0.3,4.5-0.6,6.7-0.9c0.5-0.1,0.6,0,0.7,0.5
	C375.3,83,375.8,86.8,375.8,90.6L375.8,90.6z M363.5,63.9c0.5,0.2,1,0.3,1.5,0.5c1.8,0.8,3.3,2.1,4.5,3.7c1.8,2.5,3.1,5.2,4,8.1
	c-3.3,0.7-6.6,1.1-10,1.1L363.5,63.9z M363.5,94.2c0-0.4,0-0.6,0.5-0.6c3.8,0,7.6,0,11.5,0c0.1,0,0.3,0,0.4,0.1
	c-0.1,1.2,0,2.4-0.2,3.6c-0.4,2.8-0.9,5.5-1.3,8.3c-0.1,0.4-0.2,0.5-0.6,0.4c-3.2-0.7-6.4-1-9.7-1.1c-0.2,0-0.4,0-0.6,0
	c0-0.2,0-0.4,0-0.5C363.5,100.9,363.5,97.6,363.5,94.2z M367.6,118.7c-1,1-2.3,1.6-3.7,2c-0.1,0-0.3,0-0.4,0.1v-13.4
	c3.4,0.1,6.8,0.5,10.1,1.1c-0.6,1.4-1.1,2.7-1.7,4C371,114.8,369.5,117,367.6,118.7z M369.8,119.9c2.8-3.2,4.8-6.9,6.1-10.9
	c2.6,0.7,5.1,1.6,7.4,2.8C379.7,115.8,375,118.6,369.8,119.9z M385.1,109.7l-8.4-3.3c1.1-4.2,1.7-8.5,1.8-12.8h12.4
	C390.6,99.5,388.6,105.1,385.1,109.7z M378.4,91.1c-0.1-4.3-0.7-8.6-1.8-12.8l8.5-3.3c3.5,4.6,5.5,10.2,5.7,16L378.4,91.1z"/>
<path class="st2" d="M456.7,157.6c0,13.3-10.7,24-24,24s-24-10.7-24-24s10.7-24,24-24S456.7,144.4,456.7,157.6z"/>
<path class="st3" d="M454.3,157.6c0,11.9-9.7,21.6-21.6,21.6c-11.9,0-21.6-9.7-21.6-21.6c0-11.9,9.7-21.6,21.6-21.6c0,0,0,0,0,0
	C444.6,136,454.3,145.7,454.3,157.6z"/>
<path class="st4" d="M436,166.7l2.5-2.4c-3.1-3.3-8.2-3.4-11.5-0.3c0,0,0,0,0,0l2.4,2.5C431.2,164.7,434.1,164.8,436,166.7
	C435.9,166.6,435.9,166.6,436,166.7z"/>
<path class="st4" d="M432.9,148.6c-5.7-0.1-11.1,2.1-15.2,6.1l2.7,2.7c6.9-6.7,17.9-6.6,24.7,0.3c0,0,0,0,0,0l2.7-2.7
	C443.8,151,438.5,148.7,432.9,148.6z"/>
<path class="st4" d="M422.5,159.5l2.4,2.4c4.4-4.3,11.4-4.1,15.7,0.2c0,0,0,0,0,0l2.4-2.4C437.4,154,428.2,153.9,422.5,159.5
	C422.5,159.4,422.5,159.5,422.5,159.5L422.5,159.5z"/>
<path class="st2" d="M316.3,394.8c0,14.4-11.6,26-26,26s-26-11.6-26-26s11.6-26,26-26S316.3,380.5,316.3,394.8L316.3,394.8z"/>
<path class="st3" d="M313.6,394.8c0,12.9-10.5,23.4-23.4,23.4c-12.9,0-23.4-10.5-23.4-23.4c0-12.9,10.5-23.4,23.4-23.4c0,0,0,0,0,0
	C303.2,371.4,313.6,381.9,313.6,394.8z"/>
<polygon class="st4" points="275.8,386.4 287.8,394.8 275.8,403.3 "/>
<polygon class="st4" points="304.7,386.4 292.7,394.8 304.7,403.3 "/>
<polygon class="st4" points="291.4,394.8 287.8,394.8 289.1,394.8 275.8,403.3 304.7,403.3 "/>
<polygon class="st4" points="275.8,386.4 287.8,393.9 292.8,393.9 304.7,386.4 "/>
<path class="st2" d="M448.6,271.1c0,17.9-14.5,32.4-32.4,32.4c-17.9,0-32.4-14.5-32.4-32.4c0-17.9,14.5-32.4,32.4-32.4c0,0,0,0,0,0
	C434.1,238.7,448.6,253.2,448.6,271.1z"/>
<path class="st3" d="M445.3,271.1c0,16.1-13,29.1-29.1,29.1c-16.1,0-29.1-13-29.1-29.1c0-16.1,13-29.1,29.1-29.1
	S445.3,255.1,445.3,271.1L445.3,271.1z"/>
<path class="st4" d="M418.8,274.7c4.2-5.1,3.5-12.7-1.7-16.9c-5.1-4.2-12.7-3.5-16.9,1.7s-3.5,12.7,1.7,16.9
	c4.6,3.8,11.3,3.6,15.7-0.4l1.7,1.6l1.2-1.3L418.8,274.7z M409.6,275.5c-4.6,0-8.4-3.8-8.4-8.4s3.8-8.4,8.4-8.4s8.4,3.8,8.4,8.4
	C418,271.8,414.3,275.5,409.6,275.5C409.6,275.5,409.6,275.5,409.6,275.5z"/>
<path class="st4" d="M419.5,279.4l7.7,7.1c0.9,0.7,2.3,0.6,3-0.3c0.7-0.8,0.6-2.1-0.1-2.8l-7.7-7.1l-0.2-0.1c-0.8-0.6-2-0.4-2.6,0.3
	l-0.2,0.2c-0.6,0.7-0.6,1.8,0,2.6L419.5,279.4z"/>
<path class="st2" d="M68,112.4L42.2,123c-1.8,0.7-3,2.5-3,4.5v27.4c0,16.9,13.7,30.6,30.6,30.6c0,0,0,0,0,0l0,0
	c16.9,0,30.6-13.7,30.6-30.6c0,0,0,0,0,0v-27.4c0-2-1.2-3.7-3-4.5l-25.8-10.5C70.5,112,69.2,112,68,112.4z"/>
<path class="st3" d="M68.3,116.9l-22.6,9.2c-1.6,0.7-2.6,2.2-2.6,3.9v24c0,14.8,12,26.8,26.8,26.8c0,0,0,0,0,0l0,0
	c14.8,0,26.8-12,26.8-26.8l0,0v-24c0-1.7-1-3.3-2.6-3.9l-22.6-9.2C70.4,116.5,69.3,116.5,68.3,116.9z"/>
<path class="st4" d="M83.6,154l-2.3,3.4c-0.1,0.1-0.2,0.2-0.4,0.3c-0.1,0.1-0.3,0.1-0.4,0l-3.1-1.5c-0.5,0.4-1,0.7-1.5,1
	c0,0.8,0.1,1.8,0.2,3.2c0,0.2,0,0.3-0.1,0.5c-0.1,0.1-0.2,0.2-0.4,0.3c-0.9,0.3-1.7,0.5-2.6,0.6c-0.7,0.2-1.5,0.3-2.2,0.1
	c-0.1-0.1-0.2-0.2-0.3-0.4l-1-3.1c-0.6-0.1-1.2-0.2-1.8-0.4c-0.7,0.9-1.5,1.7-2.4,2.5c-0.2,0.2-0.6,0.3-0.8,0.1l-3.4-2.3
	c-0.1-0.1-0.2-0.2-0.3-0.4c-0.1-0.1-0.1-0.3,0-0.4l1.5-3.1c-0.4-0.5-0.7-1-1-1.5l-3.3,0.1c-0.2,0-0.3,0-0.5-0.1
	c-0.1-0.1-0.2-0.3-0.3-0.4c-0.4-1.4-0.6-2.8-0.8-4.3c0-0.2,0-0.3,0.1-0.4c0.1-0.1,0.2-0.2,0.4-0.3c0.3-0.1,0.8-0.3,1.5-0.5
	s1.2-0.4,1.6-0.5c0.1-0.7,0.2-1.3,0.4-1.9l-2.5-2.3c-0.1-0.1-0.2-0.3-0.2-0.4c0-0.2,0-0.3,0.1-0.4l2.4-3.4c0.1-0.1,0.2-0.2,0.4-0.3
	c0.1-0.1,0.3-0.1,0.4,0l3.1,1.5c0.5-0.4,1-0.7,1.6-1c0-0.9-0.1-1.9-0.2-3.2c0-0.2,0-0.3,0.1-0.5c0.1-0.1,0.2-0.2,0.4-0.3
	c0.9-0.3,1.7-0.5,2.6-0.6c0.7-0.2,1.5-0.2,2.2-0.1c0.1,0.1,0.2,0.2,0.3,0.4l1,3.1c0.6,0.1,1.2,0.2,1.8,0.4c0.7-0.9,1.5-1.7,2.4-2.5
	c0.2-0.2,0.6-0.3,0.8-0.1l3.4,2.3c0.1,0.1,0.2,0.2,0.3,0.4c0.1,0.1,0.1,0.3,0,0.4l-1.5,3.1c0.4,0.5,0.7,1,1,1.5l3.3-0.1
	c0.2,0,0.3,0,0.5,0.1c0.1,0.1,0.2,0.2,0.3,0.4c0.4,1.4,0.6,2.9,0.7,4.3c0,0.1,0,0.3-0.1,0.4c-0.1,0.1-0.2,0.2-0.4,0.3
	c-0.3,0.1-0.8,0.3-1.5,0.5s-1.2,0.4-1.6,0.5c-0.1,0.6-0.3,1.3-0.5,1.9l2.5,2.4c0.1,0.1,0.2,0.3,0.2,0.4
	C83.7,153.7,83.7,153.9,83.6,154z M71.6,152.3c2.6-0.5,4.3-2.9,3.8-5.5c0,0,0,0,0,0c-0.5-2.6-2.9-4.3-5.5-3.8
	c-2.6,0.5-4.3,2.9-3.8,5.5c0,0,0,0,0,0c0.2,1.2,0.9,2.3,2,3C69.1,152.2,70.3,152.5,71.6,152.3L71.6,152.3z"/>
<path id="rect2995" class="st7" d="M202.7,188.6l16.8,28.1c-5.1,16.3-10.2,32.5-15.3,48.8H186C191.6,239.9,197.2,214.3,202.7,188.6z
	"/>
<path id="path3000" class="st7" d="M283,263.3l-22.3-32c2.8-14,5.6-28,8.4-42.1l16.9-4.2C285,211.1,284,237.2,283,263.3z"/>
<path id="path3012" class="st4" d="M203.8,187.3l14.7-14.4l63.7,92.6h-30L203.8,187.3z"/>
<path id="path3000-2" class="st7" d="M285.1,183.6l-48.8,12.2l-16.1-23.7l54.6,3.9L285.1,183.6z"/>
</svg>
